<svg width="341" height="270" viewBox="0 0 341 270" fill="none" xmlns="http://www.w3.org/2000/svg">
<path d="M329.655 42.4705C322.848 35.3393 313.448 31.1255 302.751 31.1255H248.943V30.4772C248.943 22.3736 245.702 14.5941 240.191 9.40778C234.681 3.89733 227.225 0.655884 219.122 0.655884H121.878C113.451 0.655884 105.995 3.89733 100.485 9.40778C94.9743 14.9182 91.7329 22.3736 91.7329 30.4772V31.1255H38.2491C27.5523 31.1255 18.1521 35.3393 11.3451 42.4705C4.53802 49.2776 0 59.0019 0 69.3745V230.798C0 241.495 4.21388 250.895 11.3451 257.702C18.1521 264.51 27.8764 269.048 38.2491 269.048H302.751C313.448 269.048 322.848 264.834 329.655 257.702C336.462 250.895 341 241.171 341 230.798V69.3745C341 58.6778 336.786 49.2776 329.655 42.4705ZM324.145 230.798H323.82C323.82 236.633 321.551 241.819 317.662 245.709C313.772 249.599 308.586 251.868 302.751 251.868H38.2491C32.4145 251.868 27.2281 249.599 23.3384 245.709C19.4487 241.819 17.1797 236.633 17.1797 230.798V69.3745C17.1797 63.5399 19.4487 58.3536 23.3384 54.4639C27.2281 50.5741 32.4145 48.3051 38.2491 48.3051H100.809C105.671 48.3051 109.561 44.4154 109.561 39.5532V30.153C109.561 26.5874 110.857 23.346 113.126 21.077C115.395 18.808 118.637 17.5114 122.202 17.5114H219.122C222.687 17.5114 225.929 18.808 228.198 21.077C230.467 23.346 231.763 26.5874 231.763 30.153V39.5532C231.763 44.4154 235.653 48.3051 240.515 48.3051H303.075C308.91 48.3051 314.096 50.5741 317.986 54.4639C321.875 58.3536 324.145 63.5399 324.145 69.3745V230.798Z" fill="white"/>
<path d="M170.5 70.3469C148.458 70.3469 128.361 79.423 114.099 93.6853C99.5124 108.272 90.7605 128.045 90.7605 150.086C90.7605 172.128 99.8365 192.225 114.099 206.488C128.685 221.074 148.458 229.826 170.5 229.826C192.542 229.826 212.639 220.75 226.901 206.488C241.488 191.901 250.24 172.128 250.24 150.086C250.24 128.045 241.163 107.948 226.901 93.6853C212.639 79.423 192.542 70.3469 170.5 70.3469ZM214.584 194.494C203.239 205.515 187.68 212.646 170.5 212.646C153.32 212.646 137.761 205.515 126.416 194.494C115.071 183.149 108.264 167.59 108.264 150.411C108.264 133.231 115.395 117.672 126.416 106.327C137.761 94.9819 153.32 88.1749 170.5 88.1749C187.68 88.1749 203.239 95.306 214.584 106.327C225.929 117.672 232.736 133.231 232.736 150.411C233.06 167.59 225.929 183.149 214.584 194.494Z" fill="white"/>
<path d="M285.895 101.789C294.667 101.789 301.779 94.6779 301.779 85.9059C301.779 77.1339 294.667 70.0228 285.895 70.0228C277.123 70.0228 270.012 77.1339 270.012 85.9059C270.012 94.6779 277.123 101.789 285.895 101.789Z" fill="white"/>
</svg>
