<svg width="64" height="64" viewBox="0 0 64 64" fill="none" xmlns="http://www.w3.org/2000/svg">
<path fill-rule="evenodd" clip-rule="evenodd" d="M31.925 0C38.2392 0 44.4115 1.87237 49.6616 5.38033C54.9116 8.8883 59.0035 13.8743 61.4199 19.7078C63.8362 25.5414 64.4684 31.9604 63.2366 38.1533C62.0047 44.3461 58.9642 50.0346 54.4994 54.4994C50.0346 58.9642 44.3461 62.0047 38.1533 63.2366C31.9604 64.4684 25.5414 63.8362 19.7078 61.4199C13.8743 59.0035 8.8883 54.9116 5.38033 49.6616C1.87237 44.4115 0 38.2392 0 31.925C0 23.458 3.36352 15.3377 9.35062 9.35062C15.3377 3.36352 23.458 0 31.925 0V0ZM32.25 9.75C36.6012 9.75 40.8547 11.0403 44.4725 13.4577C48.0904 15.8751 50.9102 19.311 52.5753 23.331C54.2405 27.3509 54.6761 31.7744 53.8273 36.042C52.9784 40.3096 50.8831 44.2296 47.8064 47.3064C44.7296 50.3831 40.8096 52.4784 36.542 53.3273C32.2744 54.1761 27.8509 53.7405 23.831 52.0753C19.811 50.4102 16.3751 47.5904 13.9577 43.9725C11.5403 40.3547 10.25 36.1012 10.25 31.75C10.25 25.9152 12.5679 20.3195 16.6937 16.1937C20.8195 12.0679 26.4152 9.75 32.25 9.75V9.75Z" fill="url(#paint0_linear)"/>
<defs>
<linearGradient id="paint0_linear" x1="0" y1="0" x2="63.85" y2="0" gradientUnits="userSpaceOnUse">
<stop stop-color="#7D72F4"/>
<stop offset="1" stop-color="#5FCF8C"/>
</linearGradient>
</defs>
</svg>
