<?xml version="1.0"?>
<svg xmlns="http://www.w3.org/2000/svg" xmlns:xlink="http://www.w3.org/1999/xlink" xmlns:svgjs="http://svgjs.com/svgjs" version="1.1" width="512" height="512" x="0" y="0" viewBox="0 0 512 512" style="enable-background:new 0 0 512 512" xml:space="preserve" class=""><g><path xmlns="http://www.w3.org/2000/svg" d="m437.019531 74.980469c-48.351562-48.351563-112.640625-74.980469-181.019531-74.980469s-132.667969 26.628906-181.019531 74.980469c-48.351563 48.351562-74.980469 112.640625-74.980469 181.019531s26.628906 132.667969 74.980469 181.019531c48.351562 48.351563 112.640625 74.980469 181.019531 74.980469s132.667969-26.628906 181.019531-74.980469c48.351563-48.351562 74.980469-112.640625 74.980469-181.019531s-26.628906-132.667969-74.980469-181.019531zm-73.460937 337.320312 40.242187 1.058594c-15.84375 14.886719-33.917969 27.421875-53.679687 37.027344zm-2.679688-40.082031-30.277344-43.339844 25.890626-79.785156 54.082031-14.882812 59.859375 47.746093c-4.058594 33.742188-15.925782 65.113281-33.742188 92.253907zm-212.4375 40.082031 13.4375 38.085938c-19.757812-9.605469-37.835937-22.140625-53.679687-37.027344zm3.320313-40.101562-76.453125 2.011719c-17.8125-27.140626-29.683594-58.511719-33.742188-92.257813l59.859375-47.742187 54.082031 14.878906 25.945313 79.960937zm-78.695313-166.535157-31.597656 25.199219c2.585938-22.191406 8.539062-43.371093 17.347656-63.003906zm145.554688 108.335938-23.117188-71.253906 60.496094-44.011719 60.496094 44.011719-23.117188 71.253906zm220.3125-108.335938 14.25-37.804687c8.808594 19.632813 14.761718 40.8125 17.34375 63.003906zm-12.003906-81.5625-26.964844 71.542969-58.207032 16.015625-65.757812-47.84375v-62.632812l61.902344-45.039063c35.324218 14.53125 65.976562 38.160157 89.027344 67.957031zm-138.226563-81.628906-32.703125 23.792969-32.703125-23.792969c10.667969-1.625 21.589844-2.472656 32.703125-2.472656s22.035156.847656 32.703125 2.472656zm-114.605469 13.671875 61.902344 45.039063v62.632812l-65.757812 47.84375-58.207032-16.015625-26.964844-71.542969c23.050782-29.796874 53.703126-53.425781 89.027344-67.957031zm36.085938 410.949219-25.472656-72.21875 28.128906-40.875h86.519531l28.140625 40.28125-25.683594 72.8125c-14.773437 3.203125-30.097656 4.90625-45.816406 4.90625s-31.042969-1.703125-45.816406-4.90625zm0 0" fill="#7D72F4" data-original="#000000" style="" class=""/></g></svg>
