<?xml version="1.0"?>
<svg xmlns="http://www.w3.org/2000/svg" xmlns:xlink="http://www.w3.org/1999/xlink" xmlns:svgjs="http://svgjs.com/svgjs" version="1.1" width="512" height="512" x="0" y="0" viewBox="0 0 512 512" style="enable-background:new 0 0 512 512" xml:space="preserve" class=""><g>
<g xmlns="http://www.w3.org/2000/svg">
	<g>
		<path d="M442.282,172.679c3.433-7.972,5.344-16.749,5.344-25.965c0-36.322-29.549-65.871-65.871-65.871h-70.663    c2.447-6.527,3.794-13.587,3.794-20.959C314.885,26.864,288.021,0,255.002,0s-59.883,26.864-59.883,59.883    c0,7.372,1.346,14.432,3.794,20.959h-68.667c-36.322,0-65.871,29.549-65.871,65.871c0,9.217,1.91,17.993,5.344,25.965    c-38.226,0.349-69.219,31.541-69.219,69.848c0,37.283,29.356,67.835,66.167,69.765l17.461,150.117l0.194,1.296    C89.456,491.689,114.226,512,143.22,512h224.465c28.993,0,53.764-20.311,58.9-48.296l0.118-0.64l17.619-150.743    c37.282-1.417,67.18-32.173,67.18-69.796C511.501,204.22,480.508,173.028,442.282,172.679z M255.002,39.922    c11.007,0,19.961,8.955,19.961,19.961c0,11.006-8.954,19.961-19.961,19.961s-19.961-8.955-19.961-19.961    C235.041,48.877,243.995,39.922,255.002,39.922z M143.22,472.078c-9.685,0-17.637-6.16-19.528-15.05L109.31,333.38    c0.252-11.614,9.76-20.99,21.434-20.99c11.832,0,21.458,9.626,21.458,21.458c0,1.08,0.11,2.133,0.274,3.166l7.252,135.064H143.22z     M235.041,334.347v137.731H199.71l-7.505-139.794c0.805-11.101,10.073-19.894,21.378-19.894c11.832,0,21.458,9.626,21.458,21.458    c0,0.056,0.008,0.111,0.008,0.167C235.049,334.126,235.041,334.235,235.041,334.347z M311.292,472.078h-36.329V334.347    c0-12.107,9.85-21.957,21.957-21.957c11.466,0,20.9,8.835,21.869,20.054L311.292,472.078z M387.216,457.023    c-1.891,8.892-9.844,15.055-19.531,15.055h-16.413l7.211-134.294c0.195-1.119,0.316-2.263,0.316-3.437    c0-0.112-0.008-0.221-0.008-0.332c0-0.056,0.008-0.111,0.008-0.167c0-11.832,9.626-21.458,21.458-21.458    c11.625,0,21.098,9.298,21.427,20.843L387.216,457.023z M441.637,272.468h-61.879v0.013c-15.827,0.128-30.242,6.271-41.07,16.257    c-11.016-10.097-25.684-16.27-41.768-16.27c-16.085,0-30.753,6.173-41.768,16.269c-10.943-10.091-25.545-16.269-41.569-16.269    c-15.949,0-30.493,6.118-41.419,16.127c-10.811-9.903-25.168-15.987-40.92-16.114v-0.013H70.363    c-16.51,0-29.941-13.432-29.941-29.942s13.432-29.942,29.941-29.942h179.649v-39.922H130.246    c-14.309,0-25.949-11.641-25.949-25.949s11.64-25.949,25.949-25.949h251.509c14.309,0,25.949,11.641,25.949,25.949    s-11.64,25.949-25.949,25.949h-40.92v39.922h100.803c16.51,0,29.942,13.432,29.942,29.942S458.147,272.468,441.637,272.468z" fill="#922bc3" data-original="#000000" style="" class=""/>
	</g>
</g>
<g xmlns="http://www.w3.org/2000/svg">
</g>
<g xmlns="http://www.w3.org/2000/svg">
</g>
<g xmlns="http://www.w3.org/2000/svg">
</g>
<g xmlns="http://www.w3.org/2000/svg">
</g>
<g xmlns="http://www.w3.org/2000/svg">
</g>
<g xmlns="http://www.w3.org/2000/svg">
</g>
<g xmlns="http://www.w3.org/2000/svg">
</g>
<g xmlns="http://www.w3.org/2000/svg">
</g>
<g xmlns="http://www.w3.org/2000/svg">
</g>
<g xmlns="http://www.w3.org/2000/svg">
</g>
<g xmlns="http://www.w3.org/2000/svg">
</g>
<g xmlns="http://www.w3.org/2000/svg">
</g>
<g xmlns="http://www.w3.org/2000/svg">
</g>
<g xmlns="http://www.w3.org/2000/svg">
</g>
<g xmlns="http://www.w3.org/2000/svg">
</g>
</g></svg>
