<?xml version="1.0"?>
<svg xmlns="http://www.w3.org/2000/svg" xmlns:xlink="http://www.w3.org/1999/xlink" xmlns:svgjs="http://svgjs.com/svgjs" version="1.1" width="512" height="512" x="0" y="0" viewBox="0 0 512 512" style="enable-background:new 0 0 512 512" xml:space="preserve" class=""><g><path xmlns="http://www.w3.org/2000/svg" d="m437.019531 74.980469c-48.351562-48.351563-112.640625-74.980469-181.019531-74.980469s-132.667969 26.628906-181.019531 74.980469c-6.878907 6.878906-13.300781 14.089843-19.285157 21.578125l-.09375-.023438c-.023437.070313-.039062.144532-.058593.214844-35.988281 45.121094-55.542969 100.679688-55.542969 159.25 0 68.378906 26.628906 132.667969 74.980469 181.019531 48.351562 48.351563 112.640625 74.980469 181.019531 74.980469s132.667969-26.628906 181.019531-74.980469c48.351563-48.351562 74.980469-112.640625 74.980469-181.019531s-26.628906-132.667969-74.980469-181.019531zm-181.019531-34.980469c25.125 0 49.253906 4.324219 71.699219 12.246094-.324219 6.765625-1.023438 13.226562-2.625 19.265625-2.480469 9.34375-7.230469 16.753906-13.039063 20.332031-4.5625 2.8125-11.28125 4.351562-18.394531 5.980469-1.28125.292969-2.5625.585937-3.832031.886719-18.070313 4.265624-60.390625 14.261718-76.632813 59.535156-1.238281 3.445312-8.851562 6.820312-16.21875 10.085937-11.382812 5.046875-25.546875 11.324219-34.570312 25.152344-7.796875 11.941406-13.027344 25.867187-15.308594 39.890625-20.585937-18.773438-35.1875-37.363281-44.503906-56.667969-10.359375-21.46875-13.804688-42.097656-10.296875-61.441406 39.640625-46.054687 98.332031-75.265625 163.722656-75.265625zm131.152344 347.621094c-2.550782 8.070312-10.3125 32.636718-17.710938 45.203125-.832031 1.378906-4.4375 6.5625-8.066406 11.667969-20.589844 11.554687-43.246094 19.847656-67.277344 24.144531-1.960937-12.375-4.769531-25.621094-9.734375-38.394531-7.9375-20.441407-20.398437-36.695313-36.023437-47.003907-4.460938-2.941406-9.027344-5.296875-13.054688-7.371093-4.976562-2.566407-9.675781-4.988282-12.632812-7.738282-4.914063-4.574218-8.25-13.101562-10.191406-26.0625-.460938-3.058594-.847657-6.179687-1.253907-9.480468-.492187-3.96875-1.011719-8.132813-1.691406-12.394532 11.484375-.191406 36.972656-4.132812 48.972656-9.640625 4.039063-1.855469 7.601563-3.984375 10.746094-5.859375 2.660156-1.589844 5.171875-3.089844 7.34375-4.035156 14.160156-6.179688 32.59375 4.25 40.277344 17.480469 1.230469 2.121093 2.457031 4.578125 3.757812 7.179687 4.554688 9.121094 10.21875 20.472656 21.769531 28.226563 13.054688 8.761719 26.160157 8.277343 34.832032 7.957031 7.140625-.261719 8.773437-.085938 10.304687 1.128906 2.917969 2.308594 3.785157 11.851563-.367187 24.992188zm-347.152344-131.621094c0-30.15625 6.222656-58.882812 17.433594-84.980469 2.382812 7.703125 5.417968 15.40625 9.117187 23.074219 12.519531 25.9375 32.039063 50.238281 59.683594 74.292969 2.398437 2.085937 4.839844 4.164062 7.289063 6.246093 13.933593 11.847657 27.089843 23.035157 32.683593 36.84375 3 7.414063 4.117188 16.453126 5.304688 26.019532.421875 3.410156.855469 6.933594 1.390625 10.496094 2.128906 14.207031 6.78125 34.789062 22.507812 49.421874 6.984375 6.496094 14.722656 10.484376 21.546875 14.007813 3.441407 1.769531 6.6875 3.445313 9.359375 5.207031 10.945313 7.222656 17.332032 19.265625 20.765625 28.097656 3.351563 8.625 5.457031 17.925782 7.035157 27.25-118.238282-1.015624-214.117188-97.503906-214.117188-215.976562zm388.753906 129.515625c3.976563-23.300781-1.722656-42.632813-16.414062-54.257813-13.386719-10.589843-27.355469-10.070312-36.601563-9.730468-6.382812.234375-8.992187.195312-11.0625-1.199219-2.777343-1.859375-5.570312-7.460937-8.273437-12.875-1.519532-3.046875-3.09375-6.191406-4.960938-9.410156-8.625-14.847657-22.25-26.734375-38.371094-33.476563-17.714843-7.40625-36.355468-7.613281-52.488281-.574218-4.5 1.964843-8.40625 4.296874-11.851562 6.355468-2.496094 1.488282-4.855469 2.898438-6.929688 3.847656-6.167969 2.832032-34.804687 7.808594-45.089843 6.273438-2.480469-1.269531-6.761719-5.929688-10.113282-22.445312-2.59375-12.78125 1.222656-30.328126 9.28125-42.671876 2.558594-3.921874 10.046875-7.238281 17.285156-10.449218 12.933594-5.730469 30.640626-13.582032 37.660157-33.148438 8.222656-22.921875 28.308593-29.421875 48.171875-34.113281 1.1875-.277344 2.375-.550781 3.566406-.824219 9.5-2.175781 20.265625-4.640625 30.449219-10.910156 14.65625-9.03125 25.566406-24.703125 30.722656-44.136719 1.019531-3.839843 1.789063-7.691406 2.375-11.523437 63.347656 37.691406 105.890625 106.84375 105.890625 185.753906 0 48.546875-16.105469 93.402344-43.246094 129.515625zm0 0" fill="#922bc3" data-original="#000000" style=""/></g></svg>
