<?xml version="1.0"?>
<svg xmlns="http://www.w3.org/2000/svg" xmlns:xlink="http://www.w3.org/1999/xlink" xmlns:svgjs="http://svgjs.com/svgjs" version="1.1" width="512" height="512" x="0" y="0" viewBox="0 0 512.055 512.055" style="enable-background:new 0 0 512 512" xml:space="preserve" class=""><g><path xmlns="http://www.w3.org/2000/svg" d="m399.456 33.064c-11.587-18.866-29.354-30.458-50.028-32.639-17.456-1.844-34.757 3.382-48.727 14.709-18.218 14.771-29.907 38.92-32.914 67.997-2.585 25.002 1.554 49.604 11.654 69.275 11.396 22.195 29.739 36.171 50.326 38.344 1.973.208 3.942.312 5.906.312 13.678 0 27.056-5.026 39.009-14.718 20.274-16.439 34.342-45.242 37.63-77.046 2.623-25.367-1.823-48.27-12.856-66.234zm-26.932 62.121c-2.187 21.149-11.013 40.342-23.034 50.09-5.312 4.307-10.535 6.225-15.523 5.697-15.4-1.625-29.958-29.224-26.391-63.727 1.906-18.433 8.411-33.008 18.317-41.04 5.042-4.088 11.183-6.148 17.13-6.148 20 1 32.589 25.265 29.501 55.128zm-27.501 230.872c-10.217-13.623-16.407-30.124-22.393-46.082-5.745-15.315-11.171-29.781-19.99-41.534-11.644-15.517-27.329-23.385-46.617-23.385s-34.973 7.868-46.617 23.385c-8.819 11.752-14.245 26.219-19.99 41.534-5.986 15.958-12.176 32.459-22.393 46.082-9.456 12.607-21.526 25.054-33.199 37.09-26.125 26.938-50.801 52.383-50.801 82.91 0 18.238 5.637 33.008 16.755 43.898 24.068 23.576 66.385 22.699 119.962 21.594 11.721-.242 23.84-.493 36.283-.493s24.562.25 36.283.493c10.955.226 21.431.443 31.385.443 38.726 0 69.43-3.282 88.577-22.037 11.118-10.891 16.755-25.66 16.755-43.898 0-30.527-24.676-55.972-50.801-82.91-11.673-12.036-23.743-24.483-33.199-37.09zm39.255 135.324c-12.059 11.812-50.475 11.018-91.145 10.177-11.924-.246-24.254-.501-37.11-.501s-25.186.255-37.11.501c-40.671.841-79.086 1.634-91.145-10.177-2.037-1.996-4.746-5.755-4.746-15.324 0-14.316 20.088-35.031 39.516-55.063 12.541-12.931 25.508-26.302 36.484-40.938 13.656-18.208 21.194-38.303 27.844-56.033 11.502-30.664 16.427-38.967 29.156-38.967s17.653 8.304 29.156 38.967c6.65 17.729 14.188 37.825 27.844 56.033 10.977 14.635 23.944 28.006 36.484 40.938 19.427 20.032 39.516 40.746 39.516 55.063.001 9.568-2.707 13.328-4.744 15.324zm124.277-251.63c-6.137-20.04-19.841-35.095-38.589-42.393-18.747-7.297-39.023-5.472-57.096 5.143-17.357 10.194-31.218 27.618-40.085 50.389-8.723 22.4-11.016 46.046-6.457 66.582 5.127 23.097 18.788 40.517 37.48 47.793 6.532 2.543 13.29 3.757 20.099 3.757 31.543 0 64.149-26.079 80.102-67.045 8.868-22.771 10.44-44.98 4.546-64.226zm-41.819 49.712c-11.492 29.509-35.04 45.735-48.417 40.527-8.269-3.219-11.658-13.403-12.941-19.187-2.819-12.701-1.113-28.519 4.681-43.399 8.355-21.457 22.681-34.39 36.868-34.39 2.865 0 5.725.528 8.529 1.619 9.101 3.543 13.1 11.108 14.853 16.83 3.186 10.406 1.917 23.901-3.573 38zm-326.356-83.118c11.953 9.692 25.329 14.717 39.009 14.717 1.963 0 3.934-.104 5.906-.312 20.586-2.173 38.929-16.149 50.325-38.344 10.101-19.671 14.239-44.274 11.654-69.276-3.006-29.076-14.695-53.225-32.914-67.996-13.97-11.327-31.275-16.548-48.726-14.709-20.674 2.182-38.441 13.773-50.028 32.639-11.033 17.964-15.479 40.867-12.856 66.235 3.289 31.804 17.356 60.607 37.63 77.046zm31.643-136.288c5.947 0 12.104 2.061 17.145 6.147 9.907 8.033 16.412 22.607 18.318 41.041 3.567 34.502-10.991 62.101-26.39 63.727-4.986.531-10.212-1.39-15.523-5.696-12.021-9.748-20.848-28.941-23.035-50.09-3.088-29.864 9.485-55.129 29.485-55.129zm-37.943 263.777c8.606-19.275 11.095-42.983 7.009-66.759-4.153-24.165-14.289-44.074-29.313-57.577-15.634-14.052-35.196-19.913-55.085-16.507-19.892 3.408-36.384 15.451-46.437 33.91-9.658 17.735-12.568 39.884-8.415 64.052 8.356 48.624 40.927 83.117 76.485 83.117 3.09 0 6.207-.261 9.329-.796 19.831-3.397 36.753-17.773 46.427-39.44zm-92.818-49.656c-2.576-14.989-1.112-28.536 4.121-38.146 2.883-5.293 8.356-11.952 18.063-13.615 1.376-.236 2.737-.351 4.084-.351 16.068 0 29.786 16.464 34.138 41.784 2.718 15.816 1.22 31.736-4.112 43.676-2.432 5.446-7.83 14.81-16.656 16.322-14.26 2.449-34.243-18.278-39.638-49.67z" fill="#922bc3" data-original="#000000" style="" class=""/></g></svg>
