<?xml version="1.0"?>
<svg xmlns="http://www.w3.org/2000/svg" xmlns:xlink="http://www.w3.org/1999/xlink" xmlns:svgjs="http://svgjs.com/svgjs" version="1.1" width="512" height="512" x="0" y="0" viewBox="0 0 512 512" style="enable-background:new 0 0 512 512" xml:space="preserve" class=""><g><path xmlns="http://www.w3.org/2000/svg" d="m460.175781 43.425781c-18.15625-14.507812-39.800781-24.945312-62.597656-30.1875-18.257813-4.199219-36.417969-7.703125-53.984375-10.417969l-18.261719-2.820312-4.222656 17.992188c-7.117187 30.335937-33.894531 51.527343-65.109375 51.527343-31.21875 0-57.992188-21.191406-65.113281-51.527343l-4.21875-17.992188-18.265625 2.820312c-17.5625 2.714844-35.726563 6.21875-53.980469 10.417969-22.796875 5.242188-44.445313 15.679688-62.601563 30.1875l-51.820312 41.414063 34.265625 140.109375 38.125-14.441407c4.386719-1.660156 7.820313.007813 9.476563 1.152344 1.660156 1.144532 4.4375 3.765625 4.4375 8.457032v289.609374h339.390624v-289.609374c0-4.691407 2.777344-7.3125 4.4375-8.457032 1.65625-1.144531 5.089844-2.8125 9.476563-1.152344l38.125 14.441407 34.265625-140.109375zm-10.550781 128.378907c-14.324219-4.050782-29.808594-1.542969-42.183594 7-13.570312 9.375-21.675781 24.816406-21.675781 41.3125v249.679687h-259.53125v-38.929687h219.605469v-39.925782h-219.605469v-170.824218c0-16.496094-8.105469-31.9375-21.675781-41.3125-12.375-8.542969-27.859375-11.050782-42.183594-7l-17.535156-71.6875 31.910156-25.5c13.503906-10.792969 29.625-18.558594 46.617188-22.46875 11.632812-2.671876 23.21875-5.050782 34.605468-7.097657 6.886719 15.855469 17.613282 30.003907 31.214844 40.921875 18.863281 15.136719 42.589844 23.472656 66.8125 23.472656s47.949219-8.335937 66.808594-23.472656c13.605468-10.917968 24.332031-25.066406 31.21875-40.921875 11.386718 2.050781 22.972656 4.425781 34.605468 7.097657 16.992188 3.910156 33.113282 11.675781 46.617188 22.46875l31.910156 25.5zm0 0" fill="#922bc3" data-original="#000000" style="" class=""/></g></svg>
