<?xml version="1.0" standalone="no"?>
<!DOCTYPE svg PUBLIC "-//W3C//DTD SVG 1.1//EN" "http://www.w3.org/Graphics/SVG/1.1/DTD/svg11.dtd" >
<svg>
<metadata>
Created by FontForge 20090914 at Mon Jan 11 12:55:06 2021
 By www-data
Copyright 2020 The Assistant Project Authors (https://github.com/hafontia/Assistant). Copyright 2010 The Source Sans Pro Authors (https://github.com/adobe-fonts/source-sans-pro), with Reserved Font Name 'Source'. Source is a trademark of Adobe Systems Incorporated in the United States and/or other countries.
</metadata>
<defs>
<font id="Assistant-Regular" horiz-adv-x="0" >
  <font-face 
    font-family="Assistant"
    font-weight="400"
    font-stretch="normal"
    units-per-em="1000"
    panose-1="0 0 0 0 0 0 0 0 0 0"
    ascent="800"
    descent="-200"
    x-height="484.999"
    cap-height="657"
    bbox="-453.999 -259 1141 1021"
    underline-thickness="50"
    underline-position="-75"
    unicode-range="U+000D-U+FB4B"
  />
<missing-glyph horiz-adv-x="648" 
d="M90 0v660h468v-660h-468zM187 54h271l-78 140l-54 103h-4l-56 -103zM150 103l133 237l-133 239v-476zM496 103v476l-131 -239zM322 383h4l50 94l71 128h-247l71 -128z" />
    <glyph glyph-name="fi" unicode="fi" horiz-adv-x="526" 
d="M96 0l-0.00292969 568.999c0 32.667 5 60.667 15 84s25.167 41.333 45.5 54s45.833 19 76.5 19c14 0 27.833 -1.5 41.5 -4.5s25.834 -6.83301 36.501 -11.5l-16 -56c-9.33301 4.66699 -18.666 7.83398 -27.999 9.50098s-18.666 2.5 -27.999 2.5
c-23.333 0 -40.833 -8.33301 -52.5 -25s-17.5 -41 -17.5 -73v-568h-73zM29.9971 424.999v55l69 5h175v-60h-244zM368.997 -0.000976562v485h72v-485h-72zM405.997 588.999c-14 0 -25.833 4.66699 -35.5 14s-14.5 21.666 -14.5 36.999c0 14 4.83301 25.667 14.5 35
s21.5 14 35.5 14c14.667 0 26.667 -4.66699 36 -14s14 -21 14 -35c0 -15.333 -4.66699 -27.666 -14 -36.999s-21.333 -14 -36 -14z" />
    <glyph glyph-name="fl" unicode="fl" horiz-adv-x="535" 
d="M96 0l-0.00292969 568.999c0 32.667 5 60.667 15 84s25.167 41.333 45.5 54s45.833 19 76.5 19c14 0 27.833 -1.5 41.5 -4.5s25.834 -6.83301 36.501 -11.5l-16 -56c-9.33301 4.66699 -18.666 7.83398 -27.999 9.50098s-18.666 2.5 -27.999 2.5
c-23.333 0 -40.833 -8.33301 -52.5 -25s-17.5 -41 -17.5 -73v-568h-73zM29.9971 424.999v55l69 5h175v-60h-244zM447.997 -12.001c-18.667 0 -33.834 3.83301 -45.501 11.5s-20.167 19 -25.5 34s-8 33.5 -8 55.5v625h72v-631c0 -12 2.33301 -20.667 7 -26s10 -8 16 -8
c2 0 4.33301 0.166992 7 0.5s6.33398 0.833008 11.001 1.5l10 -56c-5.33301 -2 -11.5 -3.66699 -18.5 -5s-15.5 -2 -25.5 -2z" />
    <glyph glyph-name=".notdef" horiz-adv-x="648" 
d="M90 0v660h468v-660h-468zM187 54h271l-78 140l-54 103h-4l-56 -103zM150 103l133 237l-133 239v-476zM496 103v476l-131 -239zM322 383h4l50 94l71 128h-247l71 -128z" />
    <glyph glyph-name="CR" unicode="&#xd;" horiz-adv-x="250" 
 />
    <glyph glyph-name="space" unicode=" " horiz-adv-x="200" 
 />
    <glyph glyph-name="exclam" unicode="!" horiz-adv-x="282" 
d="M116 194l-10 388l-2 88h74l-2 -88l-10 -388h-50zM141 -12c-14.667 0 -27.5 5.33301 -38.5 16s-16.5 24.667 -16.5 42c0 18 5.5 32.333 16.5 43s23.833 16 38.5 16c15.333 0 28.333 -5.33301 39 -16s16 -25 16 -43c0 -17.333 -5.33301 -31.333 -16 -42
s-23.667 -16 -39 -16z" />
    <glyph glyph-name="quotedbl" unicode="&#x22;" horiz-adv-x="409" 
d="M97 443l-14 162l-2 86h78l-2 -86l-14 -162h-46zM265 443l-14 162l-2 86h78l-2 -86l-14 -162h-46z" />
    <glyph glyph-name="numbersign" unicode="#" horiz-adv-x="492" 
d="M91 0l25 207h-81v52h87l19 153h-86v52h92l24 186h48l-23 -186h137l24 186h48l-23 -186h80v-52h-86l-19 -153h85v-52h-91l-25 -207h-49l25 207h-137l-25 -207h-49zM171 259h137l19 153h-137z" />
    <glyph glyph-name="dollar" unicode="$" horiz-adv-x="492" 
d="M245 -12c-24.667 0 -48.6709 3.49707 -72.0039 10.4971s-45.166 16.5 -65.499 28.5s-38.166 25 -53.499 39l34 50c21.333 -17.333 44.833 -32.833 70.5 -46.5s54.5 -20.5 86.5 -20.5c38 0 66.833 9.83301 86.5 29.5s29.5 45.834 29.5 78.501
c0 28.667 -6.83301 52.167 -20.5 70.5s-31.167 34 -52.5 47s-44 25.167 -68 36.5s-46.667 24.166 -68 38.499s-38.833 32.333 -52.5 54s-20.5 48.5 -20.5 80.5c0 33.333 7.5 62.5 22.5 87.5s35.667 44.333 62 58s56.5 20.5 90.5 20.5c39.333 0 71.5 -7.16699 96.5 -21.5
s47.5 -32.166 67.5 -53.499l-39 -44c-18.667 18.667 -37 33 -55 43s-41 15 -69 15c-31.333 0 -56.5 -9.33301 -75.5 -28s-28.5 -43 -28.5 -73c0 -25.333 6.66699 -46.166 20 -62.499s30.833 -30.333 52.5 -42s44.334 -23 68.001 -34s46.334 -24.167 68.001 -39.5
s39.167 -34.666 52.5 -57.999s20 -53.333 20 -90c0 -35.333 -7.83301 -66 -23.5 -92s-37.667 -46.167 -66 -60.5s-60.833 -21.5 -97.5 -21.5zM222.996 -110.003v122h55v-122h-55zM222.996 621.997v126h55v-126h-55z" />
    <glyph glyph-name="percent" unicode="%" horiz-adv-x="817" 
d="M200 -12l363 681h51l-363 -681h-51zM183 261c-30 0 -56.002 8.16699 -78.002 24.5s-39 40 -51 71s-18 68.5 -18 112.5c0 66 13.5 116.833 40.5 152.5s62.5 53.5 106.5 53.5c44.667 0 80.334 -17.833 107.001 -53.5s40 -86.5 40 -152.5c0 -44 -6 -81.5 -18 -112.5
s-29.167 -54.667 -51.5 -71s-48.166 -24.5 -77.499 -24.5zM182.998 307c27.333 0 49.333 13.833 66 41.5s25 67.834 25 120.501c0 53.333 -8.33301 93.333 -25 120s-38.667 40 -66 40c-26.667 0 -48.5 -13.333 -65.5 -40s-25.5 -66.667 -25.5 -120
c0 -52.667 8.5 -92.834 25.5 -120.501s38.833 -41.5 65.5 -41.5zM633.998 -12c-30 0 -56.002 8.16699 -78.002 24.5s-39 40 -51 71s-18 68.5 -18 112.5c0 66 13.333 116.833 40 152.5s62.334 53.5 107.001 53.5s80.334 -17.833 107.001 -53.5s40 -86.5 40 -152.5
c0 -44 -6.16699 -81.5 -18.5 -112.5s-29.5 -54.667 -51.5 -71s-47.667 -24.5 -77 -24.5zM633.996 34c27.333 0 49.166 13.833 65.499 41.5s24.5 67.834 24.5 120.501c0 53.333 -8.16699 93.333 -24.5 120s-38.166 40 -65.499 40c-26.667 0 -48.5 -13.333 -65.5 -40
s-25.5 -66.667 -25.5 -120c0 -52.667 8.5 -92.834 25.5 -120.501s38.833 -41.5 65.5 -41.5z" />
    <glyph glyph-name="ampersand" unicode="&#x26;" horiz-adv-x="600" 
d="M231 -12c-38.667 0 -72.835 7.67188 -102.502 23.0049s-53 36.666 -70 63.999s-25.5 58.666 -25.5 93.999c0 32 7.33301 60.167 22 84.5s33.167 46.166 55.5 65.499s46.333 37.333 72 54s49.834 33.334 72.501 50.001s41.167 34.5 55.5 53.5s21.5 40.167 21.5 63.5
c0 20 -4.83301 37.667 -14.5 53s-26.167 23 -49.5 23c-26 0 -46.5 -9.5 -61.5 -28.5s-22.5 -42.5 -22.5 -70.5c0 -31.333 7.5 -64.666 22.5 -99.999s35 -70.5 60 -105.5s52.833 -68.167 83.5 -99.5s61.334 -59 92.001 -83c26 -20 51.333 -36.667 76 -50
s47.334 -23.333 68.001 -30l-20 -61c-25.333 7.33301 -52.166 18.666 -80.499 33.999s-57.166 34.666 -86.499 57.999c-35.333 28 -69.5 59.667 -102.5 95s-62.833 72.666 -89.5 111.999s-47.834 78.5 -63.501 117.5s-23.5 75.833 -23.5 110.5
c0 29.333 6.16699 55.5 18.5 78.5s29.666 41.333 51.999 55s48.166 20.5 77.499 20.5c39.333 0 69.833 -11.833 91.5 -35.5s32.5 -54.167 32.5 -91.5c0 -28 -6.83301 -53.167 -20.5 -75.5s-31.5 -43 -53.5 -62s-45.333 -37.167 -70 -54.5s-47.834 -34.833 -69.501 -52.5
s-39.5 -36.667 -53.5 -57s-21 -42.833 -21 -67.5c0 -25.333 6 -47.5 18 -66.5s28.167 -33.667 48.5 -44s43.166 -15.5 68.499 -15.5c28 0 55 7.33301 81 22s49.667 33.334 71 56.001c27.333 30 50.833 64 70.5 102s35.5 79.667 47.5 125h68
c-14 -48.667 -32.167 -95.334 -54.5 -140.001s-49.166 -85.334 -80.499 -122.001c-27.333 -30 -58.166 -54.5 -92.499 -73.5s-73.833 -28.5 -118.5 -28.5z" />
    <glyph glyph-name="quotesingle" unicode="'" horiz-adv-x="242" 
d="M97 443l-14 162l-2 86h78l-2 -86l-14 -162h-46z" />
    <glyph glyph-name="parenleft" unicode="(" horiz-adv-x="297" 
d="M215 -176c-40.667 67.333 -72.834 137.834 -96.501 211.501s-35.5 154.5 -35.5 242.5s11.833 169 35.5 243s55.834 144.333 96.501 211l45 -22c-38.667 -63.333 -67.667 -132 -87 -206s-29 -149.333 -29 -226s9.66699 -151.834 29 -225.501s48.333 -142.5 87 -206.5z" />
    <glyph glyph-name="parenright" unicode=")" horiz-adv-x="297" 
d="M82 -176l-45 21.999c38.667 64 67.667 132.833 87 206.5s29 148.834 29 225.501s-9.66699 152 -29 226s-48.333 142.667 -87 206l45 22c41.333 -66.667 73.666 -137 96.999 -211s35 -155 35 -243s-11.667 -168.833 -35 -242.5s-55.666 -144.167 -96.999 -211.5z" />
    <glyph glyph-name="asterisk" unicode="*" horiz-adv-x="412" 
d="M137 431l-37 26l56 93l-95 39l14 42l100 -26l9 107h44l9 -105l100 24l14 -42l-96 -39l57 -93l-37 -26l-68 85z" />
    <glyph glyph-name="plus" unicode="+" horiz-adv-x="492" 
d="M216 105v197h-182v56h182v197h60v-197h182v-56h-182v-197h-60z" />
    <glyph glyph-name="comma" unicode="," horiz-adv-x="242" 
d="M66 -166l-19 43.999c27.333 12 48.666 28.667 63.999 50s23 46 23 74l-10 70l39 -57c-4.66699 -6.66699 -10.5 -11.167 -17.5 -13.5s-14.167 -3.5 -21.5 -3.5c-15.333 0 -28.5 4.5 -39.5 13.5s-16.5 22.5 -16.5 40.5c0 16.667 5.83301 29.667 17.5 39
s24.834 14 39.501 14c20.667 0 36.667 -8 48 -24s17 -38 17 -66c0 -41.333 -11.167 -77.666 -33.5 -108.999s-52.5 -55.333 -90.5 -72z" />
    <glyph glyph-name="hyphen" unicode="-" horiz-adv-x="308" 
d="M41 222v57h227v-57h-227z" />
    <glyph glyph-name="period" unicode="." horiz-adv-x="242" 
d="M121 -12c-14.667 0 -27.5 5.33301 -38.5 16s-16.5 24.667 -16.5 42c0 18 5.5 32.333 16.5 43s23.833 16 38.5 16c15.333 0 28.333 -5.33301 39 -16s16 -25 16 -43c0 -17.333 -5.33301 -31.333 -16 -42s-23.667 -16 -39 -16z" />
    <glyph glyph-name="slash" unicode="/" horiz-adv-x="352" 
d="M10 -160l277 870h54l-277 -870h-54z" />
    <glyph glyph-name="zero" unicode="0" horiz-adv-x="492" 
d="M246 -12c-62.667 0 -111.834 28.833 -147.501 86.5s-53.5 139.834 -53.5 246.501c0 107.333 17.833 189 53.5 245s84.834 84 147.501 84c63.333 0 112.666 -28.167 147.999 -84.5s53 -137.833 53 -244.5s-17.667 -188.834 -53 -246.501s-84.666 -86.5 -147.999 -86.5z
M246 47c26 0 48.833 9.66699 68.5 29s34.834 49.333 45.501 90s16 92.334 16 155.001c0 63.333 -5.33301 114.833 -16 154.5s-25.834 68.834 -45.501 87.501s-42.5 28 -68.5 28s-48.667 -9.33301 -68 -28s-34.5 -47.834 -45.5 -87.501s-16.5 -91.167 -16.5 -154.5
c0 -62.667 5.5 -114.334 16.5 -155.001s26.167 -70.667 45.5 -90s42 -29 68 -29z" />
    <glyph glyph-name="one" unicode="1" horiz-adv-x="451" 
d="M49 0l0.000976562 61.001h147v485h-116v47c28.667 5.33301 53.667 11.666 75 18.999s40.666 16 57.999 26h56v-577h133v-61h-353z" />
    <glyph glyph-name="two" unicode="2" horiz-adv-x="492" 
d="M40 0l0.00195312 43l166 173.5c45.333 49.667 79.666 94.167 102.999 133.5s35 76.666 35 111.999c0 37.333 -10.167 68 -30.5 92s-52.166 36 -95.499 36c-26.667 0 -51.834 -7.33301 -75.501 -22s-44.834 -33.334 -63.501 -56.001l-43 42
c26.667 28.667 55 51.834 85 69.501s65.333 26.5 106 26.5c38.667 0 72.167 -7.66699 100.5 -23s50.166 -36.833 65.499 -64.5s23 -60.167 23 -97.5c0 -40.667 -11.5 -81.667 -34.5 -123s-54.833 -85.166 -95.5 -131.499l-139 -152.5c17.333 1.33301 35.333 2.5 54 3.5
s36.334 1.5 53.001 1.5h193v-63h-407z" />
    <glyph glyph-name="three" unicode="3" horiz-adv-x="492" 
d="M235 -12c-34 0 -63.998 4.33105 -89.998 12.998s-48.667 19.834 -68 33.501s-36 28.167 -50 43.5l37 48c19.333 -20 42.166 -37.833 68.499 -53.5s59.166 -23.5 98.499 -23.5c40 0 72.833 11.167 98.5 33.5s38.5 52.166 38.5 89.499c0 26 -6.66699 49 -20 69
s-35.333 35.5 -66 46.5s-71.667 16.5 -123 16.5v57c46 0 82.5 5.5 109.5 16.5s46.5 25.833 58.5 44.5s18 39.667 18 63c0 32 -10.333 57.5 -31 76.5s-48.667 28.5 -84 28.5c-27.333 0 -52.666 -6.16699 -75.999 -18.5s-44.333 -28.166 -63 -47.499l-40 47
c24.667 22.667 51.667 41.5 81 56.5s62.666 22.5 99.999 22.5c36 0 68 -6.33301 96 -19s50.167 -30.834 66.5 -54.501s24.5 -52.5 24.5 -86.5c0 -38.667 -10.833 -70.667 -32.5 -96s-50.167 -44.333 -85.5 -57v-4c26 -6 49.667 -16.167 71 -30.5s38.333 -32.666 51 -54.999
s19 -48.166 19 -77.499c0 -38 -9.33301 -70.5 -28 -97.5s-43.667 -47.833 -75 -62.5s-66 -22 -104 -22z" />
    <glyph glyph-name="four" unicode="4" horiz-adv-x="492" 
d="M305 0v436c0 16.667 0.666992 36.667 2 60s2.33301 43.333 3 60h-4c-8 -14.667 -16.333 -29 -25 -43l-27 -45l-159 -230h368v-58h-446v47l279 411h78v-638h-69z" />
    <glyph glyph-name="five" unicode="5" horiz-adv-x="492" 
d="M232 -12c-34 0 -63.834 4.16602 -89.501 12.499s-48 19.166 -67 32.499s-35.833 27.333 -50.5 42l37 48c19.333 -19.333 41.666 -36.5 66.999 -51.5s57.666 -22.5 96.999 -22.5c26.667 0 51 6.33301 73 19s39.333 30.334 52 53.001s19 49.334 19 80.001
c0 46 -12.667 81.833 -38 107.5s-59.333 38.5 -102 38.5c-22.667 0 -42.167 -3.33301 -58.5 -10s-34.166 -16.334 -53.499 -29.001l-40 25l21 305h313v-63h-249l-18 -199c16 8.66699 32 15.5 48 20.5s34 7.5 54 7.5c36.667 0 69.834 -7.16699 99.501 -21.5
s53.334 -36.166 71.001 -65.499s26.5 -67 26.5 -113s-10 -85.167 -30 -117.5s-46.167 -56.833 -78.5 -73.5s-66.833 -25 -103.5 -25z" />
    <glyph glyph-name="six" unicode="6" horiz-adv-x="492" 
d="M266 -12c-31.333 0 -60.334 6.5 -87.001 19.5s-49.5 32.167 -68.5 57.5s-34 57.166 -45 95.499s-16.5 82.5 -16.5 132.5c0 65.333 6.66699 120.666 20 165.999s31.166 82 53.499 110s48 48.5 77 61.5s59.167 19.5 90.5 19.5c33.333 0 62.166 -6.16699 86.499 -18.5
s45.166 -28.166 62.499 -47.499l-41 -46c-13.333 16 -29.166 28.5 -47.499 37.5s-37.833 13.5 -58.5 13.5c-31.333 0 -60.166 -9.33301 -86.499 -28s-47.5 -49.5 -63.5 -92.5s-24 -101.5 -24 -175.5c0 -52 5.66699 -96.5 17 -133.5s28 -65.167 50 -84.5s49.333 -29 82 -29
c21.333 0 40.833 6.16699 58.5 18.5s31.5 29.5 41.5 51.5s15 47 15 75c0 28.667 -4.5 53.667 -13.5 75s-22.5 37.833 -40.5 49.5s-41 17.5 -69 17.5c-21.333 0 -44.666 -7 -69.999 -21s-49.666 -38 -72.999 -72l-2 60c20.667 27.333 45 49 73 65s56 24 84 24
c36.667 0 68.5 -7.5 95.5 -22.5s47.833 -37 62.5 -66s22 -65.5 22 -109.5c0 -40 -8.5 -75.167 -25.5 -105.5s-39.333 -54.166 -67 -71.499s-58.5 -26 -92.5 -26z" />
    <glyph glyph-name="seven" unicode="7" horiz-adv-x="492" 
d="M180 0c3.33301 81.333 11.668 154.333 25.001 219s33 125.5 59 182.5s60 114.833 102 173.5h-322v63h406v-44c-38 -48.667 -69 -95.5 -93 -140.5s-42.833 -90.5 -56.5 -136.5s-23.834 -94.667 -30.501 -146s-11.667 -108.333 -15 -171h-75z" />
    <glyph glyph-name="eight" unicode="8" horiz-adv-x="492" 
d="M248 -12c-39.333 0 -74.665 7.49902 -105.998 22.499s-56 35.833 -74 62.5s-27 56.667 -27 90c0 28 6 53.167 18 75.5s27.333 41.666 46 57.999s38 29.833 58 40.5v4c-23.333 16.667 -44.166 37 -62.499 61s-27.5 52.667 -27.5 86c0 32.667 7.83301 61.167 23.5 85.5
s36.834 43.166 63.501 56.499s56.667 20 90 20c56 0 99.833 -15.833 131.5 -47.5s47.5 -72.167 47.5 -121.5c0 -22.667 -4.83301 -44 -14.5 -64s-21.334 -37.833 -35.001 -53.5s-26.834 -28.5 -39.501 -38.5v-4c18.667 -11.333 36.5 -24.166 53.5 -38.499
s30.833 -31.666 41.5 -51.999s16 -44.5 16 -72.5c0 -32 -8.33301 -60.667 -25 -86s-40.334 -45.666 -71.001 -60.999s-66.334 -23 -107.001 -23zM250.001 42.999c26 0 48.832 5.00195 68.499 15.002s35 23.833 46 41.5s16.5 37.5 16.5 59.5
c0 29.333 -8.33301 53.166 -25 71.499s-38.667 33.666 -66 45.999s-56.666 24.833 -87.999 37.5c-26.667 -17.333 -49.167 -38 -67.5 -62s-27.5 -51.667 -27.5 -83c0 -24 6.16699 -45.5 18.5 -64.5s29.333 -34 51 -45s46.167 -16.5 73.5 -16.5zM293 344.001
c23.333 20.667 41.167 42 53.5 64s18.5 45.333 18.5 70c0 21.333 -4.5 41 -13.5 59s-22.167 32.167 -39.5 42.5s-38.333 15.5 -63 15.5c-31.333 0 -57.166 -9.83301 -77.499 -29.5s-30.5 -45.5 -30.5 -77.5c0 -26 7.16699 -47.833 21.5 -65.5s33.166 -32.5 56.499 -44.5
s48 -23.333 74 -34z" />
    <glyph glyph-name="nine" unicode="9" horiz-adv-x="492" 
d="M202 -12c-33.333 0 -62.3281 6.33594 -86.9951 19.0029s-45.334 28.334 -62.001 47.001l41 46c12.667 -16 28.5 -28.5 47.5 -37.5s38.167 -13.5 57.5 -13.5c32 0 61.167 9.33301 87.5 28s47.333 49.5 63 92.5s23.5 101.5 23.5 175.5c0 52 -5.5 96.5 -16.5 133.5
s-27.5 65.167 -49.5 84.5s-49.333 29 -82 29c-22 0 -41.667 -6.16699 -59 -18.5s-31 -29.333 -41 -51s-15 -46.834 -15 -75.501s4.5 -53.667 13.5 -75s22.5 -37.833 40.5 -49.5s41 -17.5 69 -17.5c21.333 0 44.666 7.16699 69.999 21.5s49.666 38.5 72.999 72.5l2 -61
c-20 -26.667 -44.167 -48.167 -72.5 -64.5s-56.5 -24.5 -84.5 -24.5c-36.667 0 -68.667 7.5 -96 22.5s-48.333 37.167 -63 66.5s-22 65.666 -22 108.999c0 40 8.5 75.333 25.5 106s39.5 54.5 67.5 71.5s58.667 25.5 92 25.5c32 0 61.167 -6.33301 87.5 -19
s49.166 -31.834 68.499 -57.501s34.5 -57.667 45.5 -96s16.5 -82.5 16.5 -132.5c0 -64.667 -6.66699 -119.834 -20 -165.501s-31.333 -82.5 -54 -110.5s-48.334 -48.5 -77.001 -61.5s-58.667 -19.5 -90 -19.5z" />
    <glyph glyph-name="colon" unicode=":" horiz-adv-x="242" 
d="M121 354c-14.667 0 -27.5 5.33301 -38.5 16s-16.5 24.667 -16.5 42c0 18 5.5 32.333 16.5 43s23.833 16 38.5 16c15.333 0 28.333 -5.33301 39 -16s16 -25 16 -43c0 -17.333 -5.33301 -31.333 -16 -42s-23.667 -16 -39 -16zM121 -12c-14.667 0 -27.5 5.33301 -38.5 16
s-16.5 24.667 -16.5 42c0 18 5.5 32.333 16.5 43s23.833 16 38.5 16c15.333 0 28.333 -5.33301 39 -16s16 -25 16 -43c0 -17.333 -5.33301 -31.333 -16 -42s-23.667 -16 -39 -16z" />
    <glyph glyph-name="semicolon" unicode=";" horiz-adv-x="242" 
d="M121 354c-14.667 0 -27.5 5.33301 -38.5 16s-16.5 24.667 -16.5 42c0 18 5.5 32.333 16.5 43s23.833 16 38.5 16c15.333 0 28.333 -5.33301 39 -16s16 -25 16 -43c0 -17.333 -5.33301 -31.333 -16 -42s-23.667 -16 -39 -16zM66 -166l-19 43.999
c27.333 12 48.666 28.667 63.999 50s23 46 23 74l-10 70l39 -57c-4.66699 -6.66699 -10.5 -11.167 -17.5 -13.5s-14.167 -3.5 -21.5 -3.5c-15.333 0 -28.5 4.5 -39.5 13.5s-16.5 22.5 -16.5 40.5c0 16.667 5.83301 29.667 17.5 39s24.834 14 39.501 14
c20.667 0 36.667 -8 48 -24s17 -38 17 -66c0 -41.333 -11.167 -77.666 -33.5 -108.999s-52.5 -55.333 -90.5 -72z" />
    <glyph glyph-name="less" unicode="&#x3c;" horiz-adv-x="492" 
d="M458 135l-424 167v60l424 167v-64l-216 -81l-133 -50v-4l133 -50l216 -81v-64z" />
    <glyph glyph-name="equal" unicode="=" horiz-adv-x="492" 
d="M34 408v56h424v-56h-424zM34 196v56h424v-56h-424z" />
    <glyph glyph-name="greater" unicode="&#x3e;" horiz-adv-x="492" 
d="M34 135v64l217 81l133 50v4l-133 50l-217 81v64l424 -167v-60z" />
    <glyph glyph-name="question" unicode="?" horiz-adv-x="419" 
d="M160 194c-4 31.333 -1.99902 59.334 6.00098 84.001s19.167 47 33.5 67s29.166 39.167 44.499 57.5s28.333 36.833 39 55.5s16 39 16 61c0 18.667 -3.66699 35.834 -11 51.501s-18.5 28 -33.5 37s-33.833 13.5 -56.5 13.5c-22 0 -43.167 -5.16699 -63.5 -15.5
s-38.5 -24.833 -54.5 -43.5l-42 39c20.667 23.333 45 42.666 73 57.999s59.667 23 95 23c33.333 0 62.333 -6.5 87 -19.5s43.834 -31.333 57.501 -55s20.5 -51.5 20.5 -83.5c0 -26 -5.5 -49.833 -16.5 -71.5s-24.333 -42 -40 -61s-30.834 -38.333 -45.501 -58
s-26.5 -40.834 -35.5 -63.501s-11.833 -48 -8.5 -76h-65zM195.001 -11.999c-14.667 0 -27.5 5.33301 -38.5 16s-16.5 24.667 -16.5 42c0 18 5.5 32.333 16.5 43s23.833 16 38.5 16c15.333 0 28.333 -5.33301 39 -16s16 -25 16 -43c0 -17.333 -5.33301 -31.333 -16 -42
s-23.667 -16 -39 -16z" />
    <glyph glyph-name="at" unicode="@" horiz-adv-x="839" 
d="M399 -153c-48.667 0 -94.167 7.83398 -136.5 23.501s-79.333 38.5 -111 68.5s-56.334 67.167 -74.001 111.5s-26.5 95.166 -26.5 152.499c0 66.667 11 127 33 181s52 100.333 90 139s82 68.334 132 89.001s102.333 31 157 31c66.667 0 124.334 -13.833 173.001 -41.5
s86.167 -66 112.5 -115s39.5 -106.167 39.5 -171.5c0 -43.333 -6 -81.5 -18 -114.5s-27.667 -60.667 -47 -83s-40.5 -39 -63.5 -50s-45.5 -16.5 -67.5 -16.5c-27.333 0 -50.333 6.33301 -69 19s-29.667 31.667 -33 57h-2c-16.667 -19.333 -35.5 -35.666 -56.5 -48.999
s-42.5 -20 -64.5 -20c-33.333 0 -61.666 12 -84.999 36s-35 58.667 -35 104c0 26 4.5 52.5 13.5 79.5s21.833 51.833 38.5 74.5s36.667 41 60 55s49.666 21 78.999 21c17.333 0 32.833 -3.83301 46.5 -11.5s25.167 -19.834 34.5 -36.501h2l10 40h50l-38 -197
c-20 -80.667 -1.33301 -121 56 -121c20.667 0 41.5 8.16699 62.5 24.5s38.5 40.333 52.5 72s21 69.5 21 113.5c0 41.333 -6 79.166 -18 113.499s-29.833 63.833 -53.5 88.5s-52.667 44 -87 58s-74.166 21 -119.499 21c-44.667 0 -87.834 -9.16699 -129.501 -27.5
s-79.334 -44.5 -113.001 -78.5s-60.167 -74.667 -79.5 -122s-29 -100.333 -29 -159c0 -49.333 7.33301 -93 22 -131s35.5 -70.167 62.5 -96.5s58.667 -46.5 95 -60.5s75.833 -21 118.5 -21c31.333 0 60.833 4.33301 88.5 13s52.834 19.667 75.501 33l20 -44
c-28.667 -17.333 -58.667 -30.333 -90 -39s-64.333 -13 -99 -13zM379 109.001c15.333 0 30.835 4.99902 46.502 14.999s32.5 25.333 50.5 46l29 163c-10 16 -20.167 27.167 -30.5 33.5s-22.5 9.5 -36.5 9.5c-26.667 0 -49.834 -9 -69.501 -27s-34.834 -40.5 -45.501 -67.5
s-16 -53.5 -16 -79.5c0 -33.333 7 -57.166 21 -71.499s31 -21.5 51 -21.5z" />
    <glyph glyph-name="A" unicode="A" horiz-adv-x="539" 
d="M4 0l225 656.999h82l224 -657h-78l-119 372l-34.5 110.5l-33.5 112.5h-4c-10 -38.667 -20.5 -76.167 -31.5 -112.5s-22.833 -73.166 -35.5 -110.499l-120 -372h-75zM118 206.999v59h300v-59h-300z" />
    <glyph glyph-name="B" unicode="B" horiz-adv-x="585" 
d="M92 0l-0.00195312 656.999h190c44.667 0 83.834 -5.5 117.501 -16.5s59.834 -28.333 78.501 -52s28 -54.5 28 -92.5c0 -32.667 -8.5 -62 -25.5 -88s-41.167 -44 -72.5 -54v-4c40.667 -7.33301 73.5 -24.166 98.5 -50.499s37.5 -62.166 37.5 -107.499
c0 -42.667 -10.333 -78.334 -31 -107.001s-49.667 -50 -87 -64s-80.333 -21 -129 -21h-205zM165.998 58.999h118.999c58.667 0 104.334 11 137.001 33s49 56 49 102c0 42.667 -16 74 -48 94s-78 30 -138 30h-119v-259zM165.997 374.999l100.999 -0.000976562
c58.667 0 101 10.167 127 30.5s39 47.5 39 81.5c0 40.667 -13.667 69.334 -41 86.001s-67.666 25 -120.999 25h-105v-223z" />
    <glyph glyph-name="C" unicode="C" horiz-adv-x="569" 
d="M336 -12c-54.667 0 -103.331 13.5 -145.998 40.5s-76.334 66 -101.001 117s-37 111.833 -37 182.5c0 53.333 7.16699 100.833 21.5 142.5s34.5 77.5 60.5 107.5s56.667 52.667 92 68s73.666 23 114.999 23c40 0 75.167 -8.16699 105.5 -24.5s54.5 -34.833 72.5 -55.5
l-41 -49c-17.333 19.333 -37.166 34.833 -59.499 46.5s-47.833 17.5 -76.5 17.5c-42.667 0 -80 -11.167 -112 -33.5s-56.833 -54 -74.5 -95s-26.5 -89.5 -26.5 -145.5c0 -56.667 8.5 -105.667 25.5 -147s41.333 -73.333 73 -96s68.834 -34 111.501 -34
c32 0 60.667 6.66699 86 20s48.666 32 69.999 56l41 -46c-25.333 -30 -54.333 -53.333 -87 -70s-70.334 -25 -113.001 -25z" />
    <glyph glyph-name="D" unicode="D" horiz-adv-x="613" 
d="M92 0v657.003h161c67.333 0 123.833 -12.833 169.5 -38.5s80 -62.834 103 -111.501s34.5 -107.334 34.5 -176.001s-11.5 -127.834 -34.5 -177.501s-57.167 -87.667 -102.5 -114s-101 -39.5 -167 -39.5h-164zM166 61.0029h81c53.333 0 97.5 11 132.5 33s61.167 53 78.5 93
s26 88 26 144s-8.66699 103.667 -26 143s-43.5 69.5 -78.5 90.5s-79.167 31.5 -132.5 31.5h-81v-535z" />
    <glyph glyph-name="E" unicode="E" horiz-adv-x="524" 
d="M92 0v657h373v-63h-299v-217h252v-62h-252v-252h309v-63h-383z" />
    <glyph glyph-name="F" unicode="F" horiz-adv-x="490" 
d="M92 0v657h373v-63h-299v-232h253v-62h-253v-300h-74z" />
    <glyph glyph-name="G" unicode="G" horiz-adv-x="614" 
d="M345 -12c-57.333 0 -107.996 13.501 -151.996 40.501s-78.5 66 -103.5 117s-37.5 111.833 -37.5 182.5c0 53.333 7.5 100.833 22.5 142.5s35.833 77.5 62.5 107.5s58.167 52.667 94.5 68s76.166 23 119.499 23c45.333 0 83.166 -8.5 113.499 -25.5
s54.833 -35.167 73.5 -54.5l-41 -49c-16.667 18 -36.334 33.167 -59.001 45.5s-51 18.5 -85 18.5c-46 0 -85.667 -11.167 -119 -33.5s-59.166 -54 -77.499 -95s-27.5 -89.5 -27.5 -145.5c0 -56.667 8.66699 -105.667 26 -147s42.666 -73.333 75.999 -96
s73.666 -34 120.999 -34c25.333 0 49.333 3.66699 72 11s40.667 17.666 54 30.999v179h-144v62h212v-272c-20.667 -22 -48.167 -40.167 -82.5 -54.5s-73.833 -21.5 -118.5 -21.5z" />
    <glyph glyph-name="H" unicode="H" horiz-adv-x="648" 
d="M92 0v657h74v-278h317v278h74v-657h-74v314h-317v-314h-74z" />
    <glyph glyph-name="I" unicode="I" horiz-adv-x="257" 
d="M92 0v657h74v-657h-74z" />
    <glyph glyph-name="J" unicode="J" horiz-adv-x="475" 
d="M210 -12c-40.667 0 -75.667 8.83203 -105 26.499s-53 43.167 -71 76.5l53 37c15.333 -26 32.5 -45 51.5 -57s40.833 -18 65.5 -18c36 0 63 11.333 81 34s27 59.334 27 110.001v460h74v-467c0 -37.333 -6 -71.333 -18 -102s-30.833 -55 -56.5 -73s-59.5 -27 -101.5 -27z
" />
    <glyph glyph-name="K" unicode="K" horiz-adv-x="573" 
d="M92 0v657h74v-339h2l285 339h84l-207 -249l238 -408h-83l-201 351l-118 -139v-212h-74z" />
    <glyph glyph-name="L" unicode="L" horiz-adv-x="481" 
d="M92 0v657h74v-594h290v-63h-364z" />
    <glyph glyph-name="M" unicode="M" horiz-adv-x="721" 
d="M92 0l0.000976562 657.001h91l129 -360l24 -69l24 -70h4l23.5 70l23.5 69l127 360h92v-657h-69v380c0 18.667 0.5 39 1.5 61s2.16699 44.167 3.5 66.5s2.66602 43.166 3.99902 62.499h-4l-52 -149l-128 -353h-52l-129 353l-52 149h-4l4.5 -62.5
c1.66699 -22.333 3 -44.5 4 -66.5s1.5 -42.333 1.5 -61v-380h-67z" />
    <glyph glyph-name="N" unicode="N" horiz-adv-x="644" 
d="M92 0v657.001h76l248 -426l72 -135h4c-2 33.333 -4.16699 67.5 -6.5 102.5s-3.5 69.167 -3.5 102.5v356h70v-657h-76l-248 426l-72 135h-4c2.66699 -32.667 5 -65.834 7 -99.501s3 -67.5 3 -101.5v-360h-70z" />
    <glyph glyph-name="O" unicode="O" horiz-adv-x="661" 
d="M331 -12c-54.667 0 -102.834 14 -144.501 42s-74.5 67.667 -98.5 119s-36 112 -36 182s12 130.333 36 181s56.833 89.5 98.5 116.5s89.834 40.5 144.501 40.5c54 0 102 -13.5 144 -40.5s74.833 -65.833 98.5 -116.5s35.5 -111 35.5 -181s-11.833 -130.667 -35.5 -182
s-56.5 -91 -98.5 -119s-90 -42 -144 -42zM331 53c40 0 75.167 11.5 105.5 34.5s53.833 55.333 70.5 97s25 90.5 25 146.5s-8.33301 104.333 -25 145s-40.167 72.167 -70.5 94.5s-65.5 33.5 -105.5 33.5c-40.667 0 -76.167 -11.167 -106.5 -33.5s-53.833 -53.833 -70.5 -94.5
s-25 -89 -25 -145s8.33301 -104.833 25 -146.5s40.167 -74 70.5 -97s65.833 -34.5 106.5 -34.5z" />
    <glyph glyph-name="P" unicode="P" horiz-adv-x="562" 
d="M92 0l-0.000976562 656.999h182c48.667 0 91.334 -6 128.001 -18s65.167 -32 85.5 -60s30.5 -65.667 30.5 -113c0 -45.333 -10 -82.666 -30 -111.999s-48 -51.333 -84 -66s-78 -22 -126 -22h-112v-266h-74zM165.999 326.999h101c60 0 104.5 11.167 133.5 33.5
s43.5 57.5 43.5 105.5c0 49.333 -15.167 83.5 -45.5 102.5s-75.5 28.5 -135.5 28.5h-97v-270z" />
    <glyph glyph-name="Q" unicode="Q" horiz-adv-x="661" 
d="M331 -12c-54.667 0 -102.834 14 -144.501 42s-74.5 67.667 -98.5 119s-36 112 -36 182s12 130.333 36 181s56.833 89.5 98.5 116.5s89.834 40.5 144.501 40.5c54 0 102 -13.5 144 -40.5s74.833 -65.833 98.5 -116.5s35.5 -111 35.5 -181s-11.833 -130.667 -35.5 -182
s-56.5 -91 -98.5 -119s-90 -42 -144 -42zM530 -163c-62 0 -113.334 15.832 -154.001 47.499s-69.667 70.834 -87 117.501l78 5c8.66699 -23.333 21.334 -43 38.001 -59s36.167 -28 58.5 -36s46.833 -12 73.5 -12c14.667 0 27.5 1 38.5 3s20.833 4.33301 29.5 7l15 -59
c-9.33301 -3.33301 -22 -6.5 -38 -9.5s-33.333 -4.5 -52 -4.5zM330.999 49.999c40 0 75.167 11.5 105.5 34.5s53.833 55.5 70.5 97.5s25 91.667 25 149c0 56 -8.33301 104.333 -25 145s-40.167 72.167 -70.5 94.5s-65.5 33.5 -105.5 33.5
c-40.667 0 -76.167 -11.167 -106.5 -33.5s-53.833 -53.833 -70.5 -94.5s-25 -89 -25 -145c0 -57.333 8.33301 -107 25 -149s40.167 -74.5 70.5 -97.5s65.833 -34.5 106.5 -34.5z" />
    <glyph glyph-name="R" unicode="R" horiz-adv-x="563" 
d="M92 0v657.002h201c44 0 83 -5.83301 117 -17.5s60.667 -30.834 80 -57.501s29 -62.334 29 -107.001c0 -42.667 -9.66699 -78.167 -29 -106.5s-46 -49.5 -80 -63.5s-73 -21 -117 -21h-127v-284h-74zM453 0.00195312l-175 304l60 36l199 -340h-84zM166 344.002h115
c53.333 0 94 10.833 122 32.5s42 54.5 42 98.5c0 44.667 -14 76.167 -42 94.5s-68.667 27.5 -122 27.5h-115v-253z" />
    <glyph glyph-name="S" unicode="S" horiz-adv-x="530" 
d="M271 -12c-46 0 -88.3281 8.99902 -126.995 26.999s-72.334 41.667 -101.001 71l45 51c24 -25.333 51.833 -45.666 83.5 -60.999s65.167 -23 100.5 -23c45.333 0 80.666 10.5 105.999 31.5s38 48.5 38 82.5c0 23.333 -5 42.166 -15 56.499s-23.333 26.333 -40 36
s-35.667 19.167 -57 28.5l-95 42c-20 8.66699 -40.333 20 -61 34s-37.834 31.667 -51.501 53s-20.5 48.333 -20.5 81c0 33.333 8.83301 62.833 26.5 88.5s41.667 45.834 72 60.501s64.833 22 103.5 22c39.333 0 75.5 -7.66699 108.5 -23s60.5 -34.666 82.5 -57.999l-40 -47
c-19.333 19.333 -41.5 34.666 -66.5 45.999s-53.167 17 -84.5 17c-38 0 -68.833 -9.16699 -92.5 -27.5s-35.5 -43.166 -35.5 -74.499c0 -22 5.66699 -40 17 -54s25.5 -25.5 42.5 -34.5s33.833 -17.167 50.5 -24.5l95 -42c25.333 -10.667 48.166 -23.334 68.499 -38.001
s36.666 -33 48.999 -55s18.5 -49.333 18.5 -82c0 -34 -8.83301 -65 -26.5 -93s-43 -50.167 -76 -66.5s-72.167 -24.5 -117.5 -24.5z" />
    <glyph glyph-name="T" unicode="T" horiz-adv-x="533" 
d="M230 0v594h-202v63h477v-63h-201v-594h-74z" />
    <glyph glyph-name="U" unicode="U" horiz-adv-x="643" 
d="M321 -12c-32 0 -62.167 4.83301 -90.5 14.5s-53 25.167 -74 46.5s-37.5 49.833 -49.5 85.5s-18 79.5 -18 131.5v391h74v-391c0 -54 7.16699 -96.5 21.5 -127.5s33.333 -53 57 -66s50.167 -19.5 79.5 -19.5c30 0 57.167 6.5 81.5 19.5s43.833 35 58.5 66s22 73.5 22 127.5
v391h71v-391c0 -52 -6.16699 -95.833 -18.5 -131.5s-29 -64.167 -50 -85.5s-45.5 -36.833 -73.5 -46.5s-58.333 -14.5 -91 -14.5z" />
    <glyph glyph-name="V" unicode="V" horiz-adv-x="509" 
d="M213 0l-212.001 657h79l110 -362c12 -39.333 22.667 -75.833 32 -109.5s20 -69.834 32 -108.501h4c12.667 38.667 23.834 74.834 33.501 108.501l31.5 109.5l110 362h75l-210 -657h-85z" />
    <glyph glyph-name="W" unicode="W" horiz-adv-x="782" 
d="M166 0l-141.998 657h77l72 -365l20 -106.5l20 -106.5h4c7.33301 35.333 15.166 70.833 23.499 106.5s16.166 71.167 23.499 106.5l95 365h68l94 -365l25 -106l24 -107h4l19.5 107l19.5 106l72 365h72l-139 -657h-88l-105 409l-16 75l-16 74h-4
c-5.33301 -25.333 -10.833 -50 -16.5 -74l-17.5 -75l-102 -409h-87z" />
    <glyph glyph-name="X" unicode="X" horiz-adv-x="505" 
d="M16 0l192 339.999l-180 317h82l94 -175l25 -43.5l27 -50.5h4l24.5 50.5c7 14.333 14.5 28.833 22.5 43.5l92 175h78l-180 -321l193 -336h-82l-101 183c-8 16.667 -16.833 33.334 -26.5 50.001l-30.5 55h-4c-9.33301 -20 -18.333 -38.333 -27 -55l-26 -50l-100 -183h-77z
" />
    <glyph glyph-name="Y" unicode="Y" horiz-adv-x="468" 
d="M197 0v258l-197 399h79l88 -191l32.5 -71l32.5 -72h4l35 72l33 71l88 191h77l-198 -399v-258h-74z" />
    <glyph glyph-name="Z" unicode="Z" horiz-adv-x="539" 
d="M46 0v44l354 550h-322v63h414v-44l-354 -550h357v-63h-449z" />
    <glyph glyph-name="bracketleft" unicode="[" horiz-adv-x="297" 
d="M95 -152v860h174v-42h-119v-776h119v-42h-174z" />
    <glyph glyph-name="backslash" unicode="\" horiz-adv-x="352" 
d="M288 -160l-276 870h54l276 -870h-54z" />
    <glyph glyph-name="bracketright" unicode="]" horiz-adv-x="297" 
d="M28 -152v42h119v776h-119v42h174v-860h-174z" />
    <glyph glyph-name="asciicircum" unicode="^" horiz-adv-x="492" 
d="M61 285l152 385h66l152 -385h-64l-69 183l-50 133h-4l-49 -133l-69 -183h-65z" />
    <glyph glyph-name="underscore" unicode="_" horiz-adv-x="500" 
d="M12 -124v51h476v-51h-476z" />
    <glyph glyph-name="grave" unicode="`" horiz-adv-x="540" 
d="M288 573l-154 153l52 48l140 -164z" />
    <glyph glyph-name="a" unicode="a" horiz-adv-x="501" 
d="M195 -12c-26.667 0 -50.667 5.33594 -72 16.0029s-38.333 26.167 -51 46.5s-19 44.833 -19 73.5c0 53.333 24.167 94.166 72.5 122.499s124.833 48.166 229.5 59.499c0 21.333 -2.83301 42.166 -8.5 62.499s-16 36.666 -31 48.999s-36.5 18.5 -64.5 18.5
c-29.333 0 -56.5 -5.66699 -81.5 -17s-46.833 -23.333 -65.5 -36l-29 50c14 9.33301 30.667 19 50 29s40.666 18.333 63.999 25s48 10 74 10c38.667 0 70.167 -8.33301 94.5 -25s42 -39.667 53 -69s16.5 -63.666 16.5 -102.999v-300h-60l-6 59h-3
c-23.333 -19.333 -48.666 -36 -75.999 -50s-56.333 -21 -87 -21zM214 47.0029c24.667 0 47.999 5.83496 69.999 17.502s45.667 28.5 71 50.5v142c-57.333 -6.66699 -102.666 -15.834 -135.999 -27.501s-57.333 -25.834 -72 -42.501s-22 -36 -22 -58
c0 -28.667 8.83301 -49.5 26.5 -62.5s38.5 -19.5 62.5 -19.5z" />
    <glyph glyph-name="b" unicode="b" horiz-adv-x="551" 
d="M293 -12c-22.667 0 -46.1689 5.5 -70.502 16.5s-47.5 26.167 -69.5 45.5h-3l-7 -50h-58v714h72v-198l-2 -89c22.667 20 47.334 36.667 74.001 50s53.667 20 81 20c42.667 0 78.334 -10.167 107.001 -30.5s50.167 -49 64.5 -86s21.5 -80.5 21.5 -130.5
c0 -55.333 -9.83301 -102.5 -29.5 -141.5s-45.5 -68.833 -77.5 -89.5s-66.333 -31 -103 -31zM280.998 50c28.667 0 54.001 8 76.001 24s39.333 39 52 69s19 65.333 19 106c0 36.667 -4.5 69 -13.5 97s-23.333 49.833 -43 65.5s-45.5 23.5 -77.5 23.5
c-21.333 0 -43.333 -5.83301 -66 -17.5s-46.334 -29.167 -71.001 -52.5v-262c22.667 -19.333 45 -33 67 -41s41 -12 57 -12z" />
    <glyph glyph-name="c" unicode="c" horiz-adv-x="454" 
d="M273 -12c-42.667 0 -80.999 10.001 -114.999 30.001s-61 48.833 -81 86.5s-30 83.5 -30 137.5c0 53.333 10.833 99.166 32.5 137.499s49.834 67.5 84.501 87.5s72.667 30 114 30c32 0 59.333 -5.83301 82 -17.5s42.334 -25.167 59.001 -40.5l-38 -48
c-14 13.333 -29.167 24.166 -45.5 32.499s-34.5 12.5 -54.5 12.5c-30.667 0 -57.834 -8.16699 -81.501 -24.5s-42.334 -39.166 -56.001 -68.499s-20.5 -63 -20.5 -101c0 -38.667 6.5 -72.5 19.5 -101.5s31.167 -51.5 54.5 -67.5s50.666 -24 81.999 -24
c23.333 0 45 4.83301 65 14.5s37.667 21.5 53 35.5l32 -49c-21.333 -19.333 -45.333 -34.5 -72 -45.5s-54.667 -16.5 -84 -16.5z" />
    <glyph glyph-name="d" unicode="d" horiz-adv-x="552" 
d="M248 -12c-60 0 -108.166 22.167 -144.499 66.5s-54.5 106.833 -54.5 187.5c0 52 9.83301 97 29.5 135s45.5 67.5 77.5 88.5s66.667 31.5 104 31.5c28.667 0 53.5 -5 74.5 -15s42.167 -24 63.5 -42l-3 84v190h72v-714h-60l-6 59h-3
c-18.667 -19.333 -40.834 -36 -66.501 -50s-53.5 -21 -83.5 -21zM264.001 50c23.333 0 45.667 5.83105 67 17.498s42.666 28.834 63.999 51.501v263c-22 19.333 -42.833 33 -62.5 41s-40.167 12 -61.5 12c-27.333 0 -52.166 -8.16699 -74.499 -24.5s-40 -39 -53 -68
s-19.5 -62.5 -19.5 -100.5c0 -59.333 12.167 -106.166 36.5 -140.499s58.833 -51.5 103.5 -51.5z" />
    <glyph glyph-name="e" unicode="e" horiz-adv-x="492" 
d="M277 -12c-42.667 0 -81.3311 10.1709 -115.998 30.5039s-62.334 49.333 -83.001 87s-31 83.167 -31 136.5c0 52 10.333 97.167 31 135.5s47.5 67.833 80.5 88.5s68.167 31 105.5 31c40 0 74.333 -9.33301 103 -28s50.5 -44.834 65.5 -78.501s22.5 -73.834 22.5 -120.501
c0 -7.33301 -0.333008 -15 -1 -23s-1.66699 -15 -3 -21h-347l-1 53h287c0 52 -11 91.5 -33 118.5s-52.667 40.5 -92 40.5c-24 0 -47.333 -6.83301 -70 -20.5s-41.334 -35 -56.001 -64s-22 -66.167 -22 -111.5c0 -43.333 7.66699 -79.333 23 -108
s35.833 -50.334 61.5 -65.001s53.834 -22 84.501 -22c24 0 46 3.66699 66 11s39 16.666 57 27.999l27 -48c-20.667 -13.333 -43.834 -25 -69.501 -35s-55.5 -15 -89.5 -15z" />
    <glyph glyph-name="f" unicode="f" horiz-adv-x="284" 
d="M96 0l-0.00292969 568.999c0 32.667 5 60.667 15 84s25.167 41.333 45.5 54s45.833 19 76.5 19c14 0 27.833 -1.5 41.5 -4.5s25.834 -6.83301 36.501 -11.5l-16 -56c-9.33301 4.66699 -18.666 7.83398 -27.999 9.50098s-18.666 2.5 -27.999 2.5
c-23.333 0 -40.833 -8.33301 -52.5 -25s-17.5 -41 -17.5 -73v-568h-73zM29.9971 424.999v55l69 5h175v-60h-244z" />
    <glyph glyph-name="g" unicode="g" horiz-adv-x="500" 
d="M247 -226c-40 0 -75 5.33008 -105 15.9971s-53.333 25.667 -70 45s-25 42.666 -25 69.999c0 21.333 6.33301 41.666 19 60.999s30 36.333 52 51v4c-12 8 -22.167 18.5 -30.5 31.5s-12.5 28.833 -12.5 47.5c0 20.667 5.83301 38.667 17.5 54s23.5 27.333 35.5 36v4
c-15.333 12.667 -29.5 30.334 -42.5 53.001s-19.5 48.334 -19.5 77.001c0 35.333 8.16699 65.833 24.5 91.5s38 45.667 65 60s56.833 21.5 89.5 21.5c13.333 0 25.833 -1.16699 37.5 -3.5s21.5 -5.16602 29.5 -8.49902h168v-57h-103c12.667 -12 23 -27 31 -45s12 -38 12 -60
c0 -34.667 -7.83301 -64.5 -23.5 -89.5s-36.667 -44.5 -63 -58.5s-55.833 -21 -88.5 -21c-12.667 0 -25.334 1.5 -38.001 4.5s-24.667 7.16699 -36 12.5c-9.33301 -7.33301 -17.166 -15.666 -23.499 -24.999s-9.5 -21 -9.5 -35c0 -16 6.16699 -29.167 18.5 -39.5
s34.833 -15.5 67.5 -15.5h97c56 0 97.833 -9.16699 125.5 -27.5s41.5 -47.5 41.5 -87.5c0 -29.333 -9.83301 -56.666 -29.5 -81.999s-47.5 -45.833 -83.5 -61.5s-78.667 -23.5 -128 -23.5zM257 -174.003c32 0 59.8311 5.00098 83.498 15.001s42.167 23 55.5 39s20 33 20 51
c0 23.333 -8.5 39.666 -25.5 48.999s-42.167 14 -75.5 14h-89c-7.33301 0 -16.666 0.666992 -27.999 2s-22.666 3.33301 -33.999 6c-18.667 -13.333 -32.167 -27.5 -40.5 -42.5s-12.5 -29.833 -12.5 -44.5c0 -27.333 13 -49 39 -65s61.667 -24 107 -24zM244.998 203.998
c19.333 0 37.167 4.99805 53.5 14.998s29.5 24 39.5 42s15 39 15 63c0 24.667 -4.83301 45.834 -14.5 63.501s-22.667 31.334 -39 41.001s-34.5 14.5 -54.5 14.5c-30 0 -55.667 -10.5 -77 -31.5s-32 -50.167 -32 -87.5c0 -24 5 -45 15 -63s23.167 -32 39.5 -42
s34.5 -15 54.5 -15z" />
    <glyph glyph-name="h" unicode="h" horiz-adv-x="540" 
d="M85 0v714h72v-198l-2 -102c23.333 23.333 48 43 74 59s55.333 24 88 24c51.333 0 88.833 -16 112.5 -48s35.5 -79 35.5 -141v-308h-73v299c0 46.667 -7.5 80.667 -22.5 102s-39.5 32 -73.5 32c-26 0 -49.167 -6.5 -69.5 -19.5s-43.5 -32.5 -69.5 -58.5v-355h-72z" />
    <glyph glyph-name="i" unicode="i" horiz-adv-x="242" 
d="M85 0v485h72v-485h-72zM122 589c-14 0 -25.833 4.66699 -35.5 14s-14.5 21.666 -14.5 36.999c0 14 4.83301 25.667 14.5 35s21.5 14 35.5 14c14.667 0 26.667 -4.66699 36 -14s14 -21 14 -35c0 -15.333 -4.66699 -27.666 -14 -36.999s-21.333 -14 -36 -14z" />
    <glyph glyph-name="j" unicode="j" horiz-adv-x="242" 
d="M33 -220c-14 0 -26.8311 1.33105 -38.498 3.99805s-21.834 5.33398 -30.501 8.00098l15 56c6 -2 13.167 -3.83301 21.5 -5.5s16.833 -2.5 25.5 -2.5c24.667 0 41 8.83301 49 26.5s12 41.167 12 70.5l1 548h72v-549c0 -32.667 -4.33301 -60.667 -13 -84
s-22.334 -41.166 -41.001 -53.499s-43 -18.5 -73 -18.5zM33.002 -220.002c-14 0 -26.8311 1.33105 -38.498 3.99805s-21.834 5.33398 -30.501 8.00098l15 56c6 -2 13.167 -3.83301 21.5 -5.5s16.833 -2.5 25.5 -2.5c24.667 0 41 8.83301 49 26.5s12 41.167 12 70.5l1 548h72
v-549c0 -32.667 -4.33301 -60.667 -13 -84s-22.334 -41.166 -41.001 -53.499s-43 -18.5 -73 -18.5zM122.004 588.996c-14 0 -25.833 4.66699 -35.5 14s-14.5 21.666 -14.5 36.999c0 14 4.83301 25.667 14.5 35s21.5 14 35.5 14c14.667 0 26.667 -4.66699 36 -14
s14 -21 14 -35c0 -15.333 -4.66699 -27.666 -14 -36.999s-21.333 -14 -36 -14z" />
    <glyph glyph-name="k" unicode="k" horiz-adv-x="487" 
d="M85 0v714h71v-494h3l215 265h81l-162 -194l184 -291h-79l-147 240l-95 -112v-128h-71z" />
    <glyph glyph-name="l" unicode="l" horiz-adv-x="250" 
d="M164 -12c-18.667 0 -33.834 3.83301 -45.501 11.5s-20.167 19 -25.5 34s-8 33.5 -8 55.5v625h72v-631c0 -12 2.33301 -20.667 7 -26s10 -8 16 -8c2 0 4.33301 0.166992 7 0.5s6.33398 0.833008 11.001 1.5l10 -56c-5.33301 -2 -11.5 -3.66699 -18.5 -5s-15.5 -2 -25.5 -2
z" />
    <glyph glyph-name="m" unicode="m" horiz-adv-x="825" 
d="M85 0l0.000976562 485.001h60l6 -72h3c21.333 23.333 44.833 43.166 70.5 59.499s52.5 24.5 80.5 24.5c38 0 67.5 -8.5 88.5 -25.5s36.167 -39.833 45.5 -68.5c26 28 52.167 50.667 78.5 68s53.833 26 82.5 26c50 0 87 -16 111 -48s36 -79 36 -141v-308h-73v299
c0 46.667 -7.5 80.667 -22.5 102s-39.167 32 -72.5 32c-19.333 0 -39.5 -6.5 -60.5 -19.5s-43.167 -32.5 -66.5 -58.5v-355h-73v299c0 46.667 -7.5 80.667 -22.5 102s-38.833 32 -71.5 32c-38.667 0 -81.334 -26 -128.001 -78v-355h-72z" />
    <glyph glyph-name="n" unicode="n" horiz-adv-x="543" 
d="M85 0l0.000976562 485h60l6 -72h3c23.333 24 48.166 44 74.499 60s55.833 24 88.5 24c51.333 0 88.833 -16 112.5 -48s35.5 -79 35.5 -141v-308h-73v299c0 46.667 -7.5 80.667 -22.5 102s-39.5 32 -73.5 32c-26 0 -49.167 -6.5 -69.5 -19.5s-43.5 -32.5 -69.5 -58.5v-355
h-72z" />
    <glyph glyph-name="o" unicode="o" horiz-adv-x="540" 
d="M270 -12c-39.333 0 -76 10 -110 30s-61.333 48.833 -82 86.5s-31 83.5 -31 137.5c0 53.333 10.333 99.166 31 137.499s48 67.5 82 87.5s70.667 30 110 30s75.833 -10 109.5 -30s61 -49.167 82 -87.5s31.5 -84.166 31.5 -137.499c0 -54 -10.5 -99.833 -31.5 -137.5
s-48.333 -66.5 -82 -86.5s-70.167 -30 -109.5 -30zM270 49c29.333 0 55.166 8 77.499 24s39.666 38.5 51.999 67.5s18.5 62.833 18.5 101.5c0 38 -6.16699 71.667 -18.5 101s-29.666 52.166 -51.999 68.499s-48.166 24.5 -77.499 24.5
c-28.667 0 -54.167 -8.16699 -76.5 -24.5s-39.666 -39.166 -51.999 -68.499s-18.5 -63 -18.5 -101c0 -38.667 6.16699 -72.5 18.5 -101.5s29.666 -51.5 51.999 -67.5s47.833 -24 76.5 -24z" />
    <glyph glyph-name="p" unicode="p" horiz-adv-x="552" 
d="M85 -208v692.998h60l6 -58h3c22 18.667 46.5 35 73.5 49s54.833 21 83.5 21c42 0 77.333 -10.167 106 -30.5s50.167 -49.166 64.5 -86.499s21.5 -80.666 21.5 -129.999c0 -55.333 -9.83301 -102.5 -29.5 -141.5s-45.5 -68.833 -77.5 -89.5s-66.333 -31 -103 -31
c-22.667 0 -45.5 5 -68.5 15s-46.167 24 -69.5 42l2 -86v-167h-72zM281 49.998c28.667 0 53.998 8 75.998 24s39.333 39 52 69s19 65.333 19 106c0 36.667 -4.5 69 -13.5 97s-23.333 49.833 -43 65.5s-45.5 23.5 -77.5 23.5c-21.333 0 -43.166 -5.83301 -65.499 -17.5
s-46.166 -29.167 -71.499 -52.5v-262c23.333 -19.333 45.833 -33 67.5 -41s40.5 -12 56.5 -12z" />
    <glyph glyph-name="q" unicode="q" horiz-adv-x="552" 
d="M395 -208l-0.000976562 176l3 90c-20 -19.333 -42.667 -35.833 -68 -49.5s-52.666 -20.5 -81.999 -20.5c-60 0 -108.167 22.167 -144.5 66.5s-54.5 106.833 -54.5 187.5c0 52 9.83301 97 29.5 135s45.5 67.5 77.5 88.5s66.667 31.5 104 31.5c28 0 52.833 -5 74.5 -15
s43.167 -24.333 64.5 -43h3l7 46h58v-693h-72zM263.999 50c23.333 0 45.667 5.83105 67 17.498s42.666 28.834 63.999 51.501v263c-22 19.333 -42.833 33 -62.5 41s-40.167 12 -61.5 12c-27.333 0 -52.166 -8.16699 -74.499 -24.5s-40 -39 -53 -68s-19.5 -62.5 -19.5 -100.5
c0 -59.333 12.167 -106.166 36.5 -140.499s58.833 -51.5 103.5 -51.5z" />
    <glyph glyph-name="r" unicode="r" horiz-adv-x="340" 
d="M85 0v485h60l6 -89h3c16.667 30.667 36.834 55.167 60.501 73.5s49.5 27.5 77.5 27.5c10 0 19 -0.833008 27 -2.5s15.667 -4.16699 23 -7.5l-14 -64c-8 2.66699 -15.167 4.66699 -21.5 6s-14.5 2 -24.5 2c-20.667 0 -42.334 -8.5 -65.001 -25.5
s-42.667 -46.833 -60 -89.5v-316h-72z" />
    <glyph glyph-name="s" unicode="s" horiz-adv-x="416" 
d="M209 -12c-34.667 0 -67.6641 6.50098 -98.9971 19.501s-58.333 28.833 -81 47.5l37 49c20.667 -16.667 42.5 -30.667 65.5 -42s49.833 -17 80.5 -17c33.333 0 58.333 8 75 24s25 35 25 57c0 17.333 -5.66699 31.833 -17 43.5s-25.5 21.667 -42.5 30
s-34.833 15.833 -53.5 22.5c-22.667 8 -45.334 17.667 -68.001 29s-41.5 25.666 -56.5 42.999s-22.5 39.666 -22.5 66.999c0 38 14.5 70.167 43.5 96.5s69.5 39.5 121.5 39.5c29.333 0 56.666 -5.33301 81.999 -16s47 -23.334 65 -38.001l-35 -47
c-16.667 12 -33.834 22.167 -51.501 30.5s-37.834 12.5 -60.501 12.5c-32 0 -55.667 -7.5 -71 -22.5s-23 -32.167 -23 -51.5c0 -16 5.16699 -29.167 15.5 -39.5s23.833 -19.166 40.5 -26.499s34.334 -14.666 53.001 -21.999c24 -8.66699 47.5 -18.5 70.5 -29.5
s42.167 -25.5 57.5 -43.5s23 -42.667 23 -74c0 -25.333 -6.66699 -48.833 -20 -70.5s-33 -39 -59 -52s-57.667 -19.5 -95 -19.5z" />
    <glyph glyph-name="t" unicode="t" horiz-adv-x="331" 
d="M232 -12c-50.667 0 -85.667 14.668 -105 44.001s-29 67.333 -29 114v279h-73v55l76 5l9 137h61v-137h133v-60h-133v-281c0 -30 5.5 -53.5 16.5 -70.5s31.167 -25.5 60.5 -25.5c8.66699 0 18.167 1.33301 28.5 4s19.5 5.66699 27.5 9l15 -55
c-13.333 -4.66699 -27.833 -8.83398 -43.5 -12.501s-30.167 -5.5 -43.5 -5.5z" />
    <glyph glyph-name="u" unicode="u" horiz-adv-x="540" 
d="M225 -12c-50 0 -87 16.001 -111 48.001s-36 79 -36 141v308h72v-299c0 -46.667 7.66699 -80.834 23 -102.501s40 -32.5 74 -32.5c25.333 0 48.333 6.83301 69 20.5s43 35.5 67 65.5v348h73v-485h-61l-6 77h-3c-22.667 -26.667 -46.667 -48.167 -72 -64.5
s-55 -24.5 -89 -24.5z" />
    <glyph glyph-name="v" unicode="v" horiz-adv-x="459" 
d="M189 0l-177 485h75l96 -283l23 -71l23 -71h4l23 71l23 71l96 283h72l-174 -485h-84z" />
    <glyph glyph-name="w" unicode="w" horiz-adv-x="710" 
d="M161 0l-137 484.999h75l76 -289l15.5 -67c5 -22 9.5 -44.333 13.5 -67h4l16.5 67l17.5 67l78 289h73l79 -289l17.5 -67l16.5 -67h4l15.5 67c5 22 10.5 44.333 16.5 67l74 289h70l-132 -485h-90l-74 271l-16 69l-17 70h-4l-17 -71
c-5.33301 -23.333 -11.333 -46.666 -18 -69.999l-72 -269h-85z" />
    <glyph glyph-name="x" unicode="x" horiz-adv-x="436" 
d="M14 0l160 252.999l-148 232h79l68 -111l24.5 -40l24.5 -40h4l23 40l22 40l63 111h76l-147 -239l159 -246h-79l-75 118c-8 14.667 -16.667 29.334 -26 44.001l-27 43h-4l-25.5 -43l-25.5 -44l-70 -118h-76z" />
    <glyph glyph-name="y" unicode="y" horiz-adv-x="459" 
d="M86 -212c-10.667 0 -20.6709 1.00098 -30.0039 3.00098s-17.666 4.33301 -24.999 7l14 59c5.33301 -2 11.5 -3.83301 18.5 -5.5s13.5 -2.5 19.5 -2.5c28 0 51.333 10.5 70 31.5s33 47.5 43 79.5l12 37l-196 488h75l104 -278l24 -66.5
c8.66699 -23.667 16.667 -46.834 24 -69.501h4c7.33301 22 14.5 44.833 21.5 68.5l20.5 67.5l91 278h71l-184 -530c-11.333 -30.667 -24.666 -58.667 -39.999 -84s-34.166 -45.5 -56.499 -60.5s-49.166 -22.5 -80.499 -22.5z" />
    <glyph glyph-name="z" unicode="z" horiz-adv-x="419" 
d="M30 0v39l263 386h-234v60h326v-39l-263 -386h272v-60h-364z" />
    <glyph glyph-name="braceleft" unicode="{" horiz-adv-x="297" 
d="M227 -152c-39.333 0 -68.335 9.16992 -87.002 27.5029s-28 53.166 -28 104.499c0 24 0.666992 46.667 2 68l4 63c1.33301 20.667 2 42.334 2 65.001c0 20 -5.66699 38 -17 54s-34.333 24.333 -69 25v46c22.667 0.666992 40.334 4.66699 53.001 12s21.334 17 26.001 29
s7 24.333 7 37c0 22.667 -0.666992 44.5 -2 65.5l-4 63.5c-1.33301 21.333 -2 44 -2 68c0 51.333 9.33301 86.166 28 104.499s47.667 27.5 87 27.5h42v-42h-27c-28 0 -46.833 -7.5 -56.5 -22.5s-14.5 -39.167 -14.5 -72.5c0 -30 1 -59.333 3 -88s3 -60.667 3 -96
c0 -31.333 -4.33301 -55.5 -13 -72.5s-23.667 -28.5 -45 -34.5v-4c21.333 -6 36.333 -17.667 45 -35s13 -41.333 13 -72c0 -34.667 -1 -66.334 -3 -95.001s-3 -58.334 -3 -89.001c0 -33.333 4.83301 -57.5 14.5 -72.5s28.5 -22.5 56.5 -22.5h27v-42h-42z" />
    <glyph glyph-name="bar" unicode="|" horiz-adv-x="237" 
d="M92 -250v1000h53v-1000h-53z" />
    <glyph glyph-name="braceright" unicode="}" horiz-adv-x="297" 
d="M28 -152l-0.00195312 41.9971h27c28 0 46.833 7.5 56.5 22.5s14.5 39.167 14.5 72.5c0 30.667 -1 60.334 -3 89.001s-3 60.334 -3 95.001c0 30.667 4.33301 54.667 13 72s23.667 29 45 35v4c-21.333 6 -36.333 17.5 -45 34.5s-13 41.167 -13 72.5c0 35.333 1 67.333 3 96
s3 58 3 88c0 33.333 -4.83301 57.5 -14.5 72.5s-28.5 22.5 -56.5 22.5h-27v42h42c39.333 0 68.333 -9.16699 87 -27.5s28 -53.166 28 -104.499c0 -24 -0.666992 -46.667 -2 -68l-4 -63.5c-1.33301 -21 -2 -42.833 -2 -65.5c0 -12.667 2.33301 -25 7 -37
s13.334 -21.667 26.001 -29s30.334 -11.333 53.001 -12v-46c-34 -0.666992 -56.833 -9 -68.5 -25s-17.5 -34 -17.5 -54c0 -22.667 0.666992 -44.334 2 -65.001l4 -63c1.33301 -21.333 2 -44 2 -68c0 -51.333 -9.33301 -86.166 -28 -104.499s-47.667 -27.5 -87 -27.5h-42z
" />
    <glyph glyph-name="asciitilde" unicode="~" horiz-adv-x="492" 
d="M334 259c-19.333 0 -36.834 4.33301 -52.501 13s-30.334 18.667 -44.001 30s-27.167 21.333 -40.5 30s-27 13 -41 13s-27.5 -4.66699 -40.5 -14s-25.167 -25 -36.5 -47l-42 28c17.333 31.333 36.666 54 57.999 68s42.333 21 63 21c20 0 37.833 -4.33301 53.5 -13
s30.334 -18.667 44.001 -30s27 -21.333 40 -30s26.5 -13 40.5 -13c14.667 0 28.334 4.83301 41.001 14.5s24.667 25.167 36 46.5l42 -30c-16.667 -30 -35.667 -52 -57 -66s-42.666 -21 -63.999 -21z" />
    <glyph glyph-name="uni00A0" unicode="&#xa0;" horiz-adv-x="200" 
 />
    <glyph glyph-name="exclamdown" unicode="&#xa1;" horiz-adv-x="282" 
d="M104 -185l2 87l10 389h50l10 -389l2 -87h-74zM141 380c-14.667 0 -27.5 5.5 -38.5 16.5s-16.5 25.167 -16.5 42.5s5.5 31.333 16.5 42s23.833 16 38.5 16c15.333 0 28.333 -5.33301 39 -16s16 -24.667 16 -42s-5.33301 -31.5 -16 -42.5s-23.667 -16.5 -39 -16.5z" />
    <glyph glyph-name="cent" unicode="&#xa2;" horiz-adv-x="492" 
d="M293 72c-45.333 0 -85.335 9.33496 -120.002 28.002s-62 45.667 -82 81s-30 78.333 -30 129c0 51.333 10.833 94.666 32.5 129.999s50.334 62.166 86.001 80.499s75.167 27.5 118.5 27.5c32 0 59.5 -5.83301 82.5 -17.5s42.5 -25.167 58.5 -40.5l-36 -46
c-14 13.333 -29.5 23.833 -46.5 31.5s-35.5 11.5 -55.5 11.5c-33.333 0 -62.5 -7.33301 -87.5 -22s-44.5 -35.167 -58.5 -61.5s-21 -57.5 -21 -93.5c0 -53.333 14.833 -96.166 44.5 -128.499s69.834 -48.5 120.501 -48.5c24 0 45.833 4.83301 65.5 14.5
s37.167 21.167 52.5 34.5l33 -47c-22 -18.667 -46.333 -33.834 -73 -45.501s-54.667 -17.5 -84 -17.5zM259.998 -30.998v684h48v-684h-48z" />
    <glyph glyph-name="sterling" unicode="&#xa3;" horiz-adv-x="492" 
d="M54 0l0.000976562 44c35.333 19.333 61.833 45.333 79.5 78s26.5 68 26.5 106c0 27.333 -4 54.5 -12 81.5l-24.5 80.5c-8.33301 26.667 -12.5 53.334 -12.5 80.001c0 36.667 7.66699 68.667 23 96s36.5 48.166 63.5 62.499s58.833 21.5 95.5 21.5
c35.333 0 65.333 -7 90 -21s45.334 -31.667 62.001 -53l-43 -42c-12.667 16.667 -27.334 30 -44.001 40s-37 15 -61 15c-36.667 0 -64.834 -11.167 -84.501 -33.5s-29.5 -51.5 -29.5 -87.5c0 -26 3.66699 -51.667 11 -77s14.5 -51.333 21.5 -78s10.5 -55.334 10.5 -86.001
c0 -36.667 -5.5 -67.167 -16.5 -91.5s-26.833 -47.166 -47.5 -68.499v-4h285v-63h-393zM53.001 287v48l67 3h249v-51h-316z" />
    <glyph glyph-name="currency" unicode="&#xa4;" horiz-adv-x="492" 
d="M67 105l-38.999 41.001l64 66c-12 16 -21.167 33.667 -27.5 53s-9.5 40.666 -9.5 63.999s3.16699 44.833 9.5 64.5s15.166 37.5 26.499 53.5l-63 66l39 41l67 -69c32.667 26 70 39 112 39s79.333 -13 112 -39l67 69l40 -41l-65 -66c11.333 -16 20.333 -33.833 27 -53.5
s10 -41.167 10 -64.5s-3.33301 -44.666 -10 -63.999s-15.667 -37 -27 -53l65 -66l-40 -41l-67 69c-15.333 -12.667 -32.833 -22.334 -52.5 -29.001s-39.5 -10 -59.5 -10c-42.667 0 -80 13 -112 39zM246.001 190.001c22.667 0 43.334 5.83301 62.001 17.5
s33.5 27.834 44.5 48.501s16.5 45 16.5 73c0 27.333 -5.5 51.5 -16.5 72.5s-25.833 37.5 -44.5 49.5s-39.334 18 -62.001 18c-22 0 -42.333 -6 -61 -18s-33.667 -28.5 -45 -49.5s-17 -45.167 -17 -72.5c0 -28 5.66699 -52.333 17 -73s26.333 -36.834 45 -48.501
s39 -17.5 61 -17.5z" />
    <glyph glyph-name="yen" unicode="&#xa5;" horiz-adv-x="492" 
d="M209 0v160.001h-162v44h162v67h-162v43h143l-165 324h76l82 -177l31 -66l31 -69h4l32 69.5c10 22.333 20.333 44.166 31 65.499l82 177h74l-167 -324h145v-43h-164v-67h164v-44h-164v-160h-73z" />
    <glyph glyph-name="brokenbar" unicode="&#xa6;" horiz-adv-x="237" 
d="M92 288v462h53v-462h-53zM92 -250v465h53v-465h-53z" />
    <glyph glyph-name="section" unicode="&#xa7;" horiz-adv-x="492" 
d="M336 142l-40.0029 37.999c28 11.333 49.333 24 64 38s22 34 22 60c0 24.667 -6.83301 44.667 -20.5 60s-31.167 28.5 -52.5 39.5s-44 21.5 -68 31.5s-46.5 21 -67.5 33s-38.333 27.167 -52 45.5s-20.5 41.5 -20.5 69.5c0 22 5.5 42.667 16.5 62s27.333 35 49 47
s48.834 18 81.501 18c30.667 0 58.834 -5.66699 84.501 -17s47.834 -24.666 66.501 -39.999l-36 -47c-16 13.333 -33 24.333 -51 33s-38.333 13 -61 13c-29.333 0 -50.5 -6.66699 -63.5 -20s-19.5 -28.666 -19.5 -45.999c0 -19.333 6.66699 -35.333 20 -48
s30.5 -23.834 51.5 -33.501l67 -30c23.667 -10.333 46 -22.5 67 -36.5s38.333 -31.167 52 -51.5s20.5 -45.833 20.5 -76.5c0 -24.667 -4.66699 -45.667 -14 -63s-22.333 -32.333 -39 -45s-35.667 -24 -57 -34zM234.997 -61.001c-34.667 0 -66.501 6.33301 -95.501 19
s-53.833 29.334 -74.5 50.001l45 41c16.667 -16 34.834 -28.833 54.501 -38.5s43.167 -14.5 70.5 -14.5c28 0 49.833 7.16699 65.5 21.5s23.5 31.5 23.5 51.5s-6.66699 36.5 -20 49.5s-30.5 24.5 -51.5 34.5s-43.333 20 -67 30s-46.167 21.667 -67.5 35
s-38.5 30.333 -51.5 51s-19.5 46 -19.5 76c0 34 10.333 62.667 31 86s46.334 41.666 77.001 54.999l34 -38c-23.333 -12 -42.166 -25.333 -56.499 -40s-21.5 -34 -21.5 -58c0 -22.667 6.66699 -41.667 20 -57s30.666 -28.333 51.999 -39s44 -21 68 -31
s46.667 -21.167 68 -33.5s38.666 -27.833 51.999 -46.5s20 -42 20 -70c0 -26 -6.66699 -49 -20 -69s-31.833 -35.833 -55.5 -47.5s-50.5 -17.5 -80.5 -17.5z" />
    <glyph glyph-name="dieresis" unicode="&#xa8;" horiz-adv-x="540" 
d="M364 590c-12.667 0 -23.5 4.5 -32.5 13.5s-13.5 19.833 -13.5 32.5c0 13.333 4.5 24.5 13.5 33.5s19.833 13.5 32.5 13.5c14 0 25.333 -4.5 34 -13.5s13 -20.167 13 -33.5c0 -12.667 -4.33301 -23.5 -13 -32.5s-20 -13.5 -34 -13.5zM176 590
c-13.333 0 -24.5 4.5 -33.5 13.5s-13.5 19.833 -13.5 32.5c0 13.333 4.5 24.5 13.5 33.5s20.167 13.5 33.5 13.5s24.333 -4.5 33 -13.5s13 -20.167 13 -33.5c0 -12.667 -4.33301 -23.5 -13 -32.5s-19.667 -13.5 -33 -13.5z" />
    <glyph glyph-name="copyright" unicode="&#xa9;" horiz-adv-x="744" 
d="M372 -11c-43.333 0 -84.5 7.83301 -123.5 23.5s-73.333 38 -103 67s-53 64.167 -70 105.5s-25.5 87.333 -25.5 138s8.5 96.334 25.5 137.001s40.333 75.334 70 104.001s64 50.667 103 66s80.167 23 123.5 23s84.333 -7.66699 123 -23s73 -37.333 103 -66
s53.5 -63.334 70.5 -104.001s25.5 -86.334 25.5 -137.001s-8.5 -96.667 -25.5 -138s-40.5 -76.5 -70.5 -105.5s-64.333 -51.333 -103 -67s-79.667 -23.5 -123 -23.5zM379 125c-33.333 0 -63.502 7.83398 -90.502 23.501s-48.667 38.167 -65 67.5s-24.5 65 -24.5 107
c0 38.667 8.66699 72 26 100s39.833 49.667 67.5 65s57.5 23 89.5 23c28 0 51.667 -5.33301 71 -16s37 -24 53 -40l-32 -36c-14 13.333 -27.833 23.666 -41.5 30.999s-29.5 11 -47.5 11c-37.333 0 -67.666 -12.833 -90.999 -38.5s-35 -58.834 -35 -99.501
c0 -46 11.167 -82 33.5 -108s51.833 -39 88.5 -39c22.667 0 42.334 4.33301 59.001 13s32.334 19.334 47.001 32.001l27 -39c-18 -16 -37.333 -29.5 -58 -40.5s-46.334 -16.5 -77.001 -16.5zM371.998 28.001c38 0 73.833 7 107.5 21s63.167 34 88.5 60
s45.333 57.167 60 93.5s22 76.5 22 120.5s-7.33301 83.833 -22 119.5s-34.667 66.334 -60 92.001s-54.833 45.5 -88.5 59.5s-69.5 21 -107.5 21s-73.833 -7 -107.5 -21s-63.334 -33.833 -89.001 -59.5s-45.834 -56.334 -60.501 -92.001s-22 -75.5 -22 -119.5
s7.33301 -84.167 22 -120.5s34.834 -67.5 60.501 -93.5s55.334 -46 89.001 -60s69.5 -21 107.5 -21z" />
    <glyph glyph-name="ordfeminine" unicode="&#xaa;" horiz-adv-x="343" 
d="M136 389c-28.667 0 -51.998 8.66699 -69.998 26s-27 40 -27 68c0 35.333 15.833 62.333 47.5 81s82.5 31.334 152.5 38.001c-0.666992 22 -5.33398 40.5 -14.001 55.5s-25.334 22.5 -50.001 22.5c-18 0 -36.333 -3.83301 -55 -11.5s-34.667 -15.5 -48 -23.5l-21 39
c16 9.33301 35.5 18.666 58.5 27.999s47.5 14 73.5 14c40 0 68.5 -11.667 85.5 -35s25.5 -55.333 25.5 -96v-198h-44l-7 38h-4c-13.333 -12 -28.5 -22.667 -45.5 -32s-36.167 -14 -57.5 -14zM153.002 435c14 0 28.167 3.33203 42.5 9.99902s28.833 17.334 43.5 32.001v89
c-54 -5.33301 -91.667 -14.833 -113 -28.5s-32 -30.5 -32 -50.5c0 -17.333 5.33301 -30.333 16 -39s25 -13 43 -13z" />
    <glyph glyph-name="guillemotleft" unicode="&#xab;" horiz-adv-x="422" 
d="M181 67l-137 157v56l137 157l33 -28l-119 -157l119 -158zM335 67l-137 157v56l137 157l33 -28l-119 -157l119 -158z" />
    <glyph glyph-name="logicalnot" unicode="&#xac;" horiz-adv-x="492" 
d="M399 105v197h-365v56h424v-253h-59z" />
    <glyph glyph-name="uni00AD" unicode="&#xad;" horiz-adv-x="308" 
d="M41 222v57h227v-57h-227z" />
    <glyph glyph-name="registered" unicode="&#xae;" horiz-adv-x="417" 
d="M209 321c-34.667 0 -66.167 8.16699 -94.5 24.5s-50.833 39.166 -67.5 68.499s-25 63.333 -25 102c0 39.333 8.33301 73.666 25 102.999s39.167 52.333 67.5 69s59.833 25 94.5 25c34 0 65.167 -8.33301 93.5 -25s50.833 -39.667 67.5 -69s25 -63.666 25 -102.999
c0 -38.667 -8.33301 -72.667 -25 -102s-39.167 -52.166 -67.5 -68.499s-59.5 -24.5 -93.5 -24.5zM209 355c28 0 53.167 6.83301 75.5 20.5s40.166 32.667 53.499 57s20 52.166 20 83.499c0 32 -6.66699 60.167 -20 84.5s-31.166 43.5 -53.499 57.5s-47.5 21 -75.5 21
s-53.333 -7 -76 -21s-40.5 -33.167 -53.5 -57.5s-19.5 -52.5 -19.5 -84.5c0 -31.333 6.5 -59.166 19.5 -83.499s30.833 -43.333 53.5 -57s48 -20.5 76 -20.5zM137 417v204h75c20.667 0 38.667 -4.66699 54 -14s23 -26 23 -50c0 -12 -3.5 -23.333 -10.5 -34
s-16.167 -18 -27.5 -22l47 -84h-43l-37 72h-42v-72h-39zM176 520h26c14 0 25.167 2.83301 33.5 8.5s12.5 14.167 12.5 25.5c0 10.667 -3.16699 19.167 -9.5 25.5s-17.5 9.5 -33.5 9.5h-29v-69z" />
    <glyph glyph-name="macron" unicode="&#xaf;" horiz-adv-x="540" 
d="M140 602v52h260v-52h-260z" />
    <glyph glyph-name="degree" unicode="&#xb0;" horiz-adv-x="326" 
d="M163 434c-21.333 0 -41.333 5 -60 15s-33.667 24.333 -45 43s-17 40.667 -17 66c0 26 5.66699 48.5 17 67.5s26.333 33.667 45 44s38.667 15.5 60 15.5c22 0 42.333 -5.16699 61 -15.5s33.667 -25 45 -44s17 -41.5 17 -67.5c0 -25.333 -5.66699 -47.333 -17 -66
s-26.333 -33 -45 -43s-39 -15 -61 -15zM163 476c22.667 0 41.167 7.83301 55.5 23.5s21.5 35.167 21.5 58.5c0 24.667 -7.16699 44.834 -21.5 60.501s-32.833 23.5 -55.5 23.5c-22 0 -40.167 -7.83301 -54.5 -23.5s-21.5 -35.834 -21.5 -60.501
c0 -23.333 7.16699 -42.833 21.5 -58.5s32.5 -23.5 54.5 -23.5z" />
    <glyph glyph-name="plusminus" unicode="&#xb1;" horiz-adv-x="492" 
d="M216 122v183h-182v56h182v194h60v-194h182v-56h-182v-183h-60zM34 0v56h424v-56h-424z" />
    <glyph glyph-name="twosuperior" unicode="&#xb2;" horiz-adv-x="372" 
d="M59 407l0.000976562 33.998c41.333 37.333 75.833 69.833 103.5 97.5s48.5 52.334 62.5 74.001s21 42.5 21 62.5c0 26.667 -7 47.5 -21 62.5s-33 22.5 -57 22.5c-16.667 0 -32.334 -5.5 -47.001 -16.5s-27.667 -24.833 -39 -41.5l-35 32c14.667 22 33.167 40 55.5 54
s46.5 21 72.5 21c38.667 0 69.667 -10.5 93 -31.5s35 -52.5 35 -94.5c0 -25.333 -6.5 -49.666 -19.5 -72.999s-30.833 -47.333 -53.5 -72l-78 -82h171v-49h-264z" />
    <glyph glyph-name="threesuperior" unicode="&#xb3;" horiz-adv-x="366" 
d="M180 395c-32 0 -60.167 7.33105 -84.5 21.998s-43.833 32.667 -58.5 54l39 30c12 -18 26.667 -32.5 44 -43.5s36.333 -16.5 57 -16.5c22 0 41 6.5 57 19.5s24 30.833 24 53.5c0 24 -11 42 -33 54s-52.667 18 -92 18v38c35.333 0 62.5 7.16699 81.5 21.5
s28.5 31.833 28.5 52.5c0 19.333 -6.5 35 -19.5 47s-31.167 18 -54.5 18c-14.667 0 -29 -4.66699 -43 -14s-26.667 -21 -38 -35l-35 31c16 19.333 34.167 34.833 54.5 46.5s43.5 17.5 69.5 17.5c22.667 0 43.334 -4.16699 62.001 -12.5s33.667 -20.333 45 -36
s17 -34.167 17 -55.5c0 -23.333 -6.66699 -43 -20 -59s-30.333 -28.667 -51 -38c22.667 -5.33301 42.667 -16.166 60 -32.499s26 -37.833 26 -64.5c0 -24 -6.16699 -44.667 -18.5 -62s-28.833 -30.666 -49.5 -39.999s-43.334 -14 -68.001 -14z" />
    <glyph glyph-name="acute" unicode="&#xb4;" horiz-adv-x="540" 
d="M252 573l-38 37l140 164l52 -48z" />
    <glyph glyph-name="mu" unicode="&#xb5;" horiz-adv-x="540" 
d="M67 -185l2 87l10 389h50l10 -389l2 -87h-74zM225 -12c-50 0 -87 16.001 -111 48.001s-36 79 -36 141v308h72v-299c0 -46.667 7.66699 -80.834 23 -102.501s40 -32.5 74 -32.5c25.333 0 48.333 6.83301 69 20.5s43 35.5 67 65.5v348h73v-485h-61l-6 77h-3
c-22.667 -26.667 -46.667 -48.167 -72 -64.5s-55 -24.5 -89 -24.5z" />
    <glyph glyph-name="paragraph" unicode="&#xb6;" horiz-adv-x="548" 
d="M292 231c-48 0 -91 7.33203 -129 21.999s-67.833 37.834 -89.5 69.501s-32.5 72.5 -32.5 122.5c0 52 10.333 93.5 31 124.5s49 53.333 85 67s77 20.5 123 20.5h44v-426h-32zM378 -80.001v737h74v-737h-74z" />
    <glyph glyph-name="periodcentered" unicode="&#xb7;" horiz-adv-x="242" 
d="M121 264c-14.667 0 -27.5 5.33301 -38.5 16s-16.5 24.667 -16.5 42c0 18 5.5 32.333 16.5 43s23.833 16 38.5 16c15.333 0 28.333 -5.33301 39 -16s16 -25 16 -43c0 -17.333 -5.33301 -31.333 -16 -42s-23.667 -16 -39 -16z" />
    <glyph glyph-name="cedilla" unicode="&#xb8;" horiz-adv-x="540" 
d="M186 -224l-8.00098 38.002c42 2.66699 70.833 8 86.5 16s23.5 19.333 23.5 34c0 13.333 -5.83301 23.666 -17.5 30.999s-31.834 13 -60.501 17l43 91h49l-29 -67c22.667 -5.33301 40.334 -13.333 53.001 -24s19 -26.334 19 -47.001c0 -28 -13.667 -49.167 -41 -63.5
s-66.666 -22.833 -117.999 -25.5z" />
    <glyph glyph-name="onesuperior" unicode="&#xb9;" horiz-adv-x="348" 
d="M167 407l0.000976562 312h-84v38c21.333 4 39.166 9.33301 53.499 16s27.833 14.667 40.5 24h48v-390h-58z" />
    <glyph glyph-name="ordmasculine" unicode="&#xba;" horiz-adv-x="363" 
d="M181 389c-27.333 0 -52.333 6.83301 -75 20.5s-41 33 -55 58s-21 55.167 -21 90.5s7 65.5 21 90.5s32.333 44.167 55 57.5s47.667 20 75 20s52.333 -6.66699 75 -20s41 -32.5 55 -57.5s21 -55.167 21 -90.5s-7 -65.5 -21 -90.5s-32.333 -44.333 -55 -58
s-47.667 -20.5 -75 -20.5zM181 436c28.667 0 51.334 11.333 68.001 34s25 52 25 88c0 36.667 -8.33301 66.167 -25 88.5s-39.334 33.5 -68.001 33.5s-51.334 -11.167 -68.001 -33.5s-25 -51.833 -25 -88.5c0 -36 8.33301 -65.333 25 -88s39.334 -34 68.001 -34z" />
    <glyph glyph-name="guillemotright" unicode="&#xbb;" horiz-adv-x="422" 
d="M87 67l-33 27l119 158l-119 157l33 28l136 -157v-56zM241 67l-33 27l119 158l-119 157l33 28l136 -157v-56z" />
    <glyph glyph-name="onequarter" unicode="&#xbc;" horiz-adv-x="789" 
d="M186 -12l363 681h51l-363 -681h-51zM159 279l0.000976562 312h-84v38c21.333 4 39.166 9.16699 53.499 15.5s27.833 14.5 40.5 24.5h48v-390h-58zM643.001 0v224l5 107h-4l-52 -82l-65 -100h227v-42h-288v29l167 254h63v-390h-53z" />
    <glyph glyph-name="onehalf" unicode="&#xbd;" horiz-adv-x="803" 
d="M169 -12l363 681h51l-363 -681h-51zM159 279l0.000976562 312h-84v38c21.333 4 39.166 9.16699 53.499 15.5s27.833 14.5 40.5 24.5h48v-390h-58zM490.001 0l0.000976562 33.998c41.333 37.333 75.833 69.833 103.5 97.5s48.5 52.334 62.5 74.001s21 42.5 21 62.5
c0 26.667 -7 47.5 -21 62.5s-33 22.5 -57 22.5c-16.667 0 -32.334 -5.5 -47.001 -16.5s-27.667 -24.833 -39 -41.5l-35 32c14.667 22 33.167 40 55.5 54s46.5 21 72.5 21c38.667 0 69.667 -10.5 93 -31.5s35 -52.5 35 -94.5c0 -25.333 -6.66699 -49.666 -20 -72.999
s-31.333 -47.333 -54 -72l-77 -82h171v-49h-264z" />
    <glyph glyph-name="threequarters" unicode="&#xbe;" horiz-adv-x="803" 
d="M221 -12l363 681h51l-363 -681h-51zM180 267c-32 0 -60.167 7.33105 -84.5 21.998s-43.833 32.667 -58.5 54l39 30c12 -18 26.667 -32.5 44 -43.5s36.333 -16.5 57 -16.5c22 0 41 6.5 57 19.5s24 30.833 24 53.5c0 24 -11 42 -33 54s-52.667 18 -92 18v38
c35.333 0 62.5 7.16699 81.5 21.5s28.5 31.833 28.5 52.5c0 19.333 -6.5 35 -19.5 47s-31.167 18 -54.5 18c-14.667 0 -29 -4.66699 -43 -14s-26.667 -21 -38 -35l-35 31c16 19.333 34.167 34.833 54.5 46.5s43.5 17.5 69.5 17.5c22.667 0 43.334 -4.16699 62.001 -12.5
s33.667 -20.333 45 -36s17 -34.167 17 -55.5c0 -23.333 -6.66699 -43 -20 -59s-30.333 -28.667 -51 -38c22.667 -5.33301 42.667 -16.166 60 -32.499s26 -37.833 26 -64.5c0 -24 -6.16699 -44.667 -18.5 -62s-28.833 -30.666 -49.5 -39.999s-43.334 -14 -68.001 -14z
M657 -0.00195312v224l5 107h-4l-52 -82l-65 -100h227v-42h-288v29l167 254h63v-390h-53z" />
    <glyph glyph-name="questiondown" unicode="&#xbf;" horiz-adv-x="419" 
d="M213 -197c-33.333 0 -62.334 6.50195 -87.001 19.502s-43.834 31.333 -57.501 55s-20.5 51.167 -20.5 82.5c0 26.667 5.5 50.667 16.5 72s24.333 41.666 40 60.999l46 58.5c15 19.667 26.833 40.667 35.5 63s11.334 47.833 8.00098 76.5h65c4 -31.333 2 -59.333 -6 -84
s-19.167 -47.167 -33.5 -67.5s-29.166 -39.5 -44.499 -57.5s-28.333 -36.5 -39 -55.5s-16 -39.5 -16 -61.5c0 -18 3.66699 -34.833 11 -50.5s18.5 -28 33.5 -37s33.833 -13.5 56.5 -13.5s44.167 5.16699 64.5 15.5s38.166 24.5 53.499 42.5l42 -38
c-20 -22.667 -44.167 -41.834 -72.5 -57.501s-60.166 -23.5 -95.499 -23.5zM223.999 380.002c-14.667 0 -27.5 5.5 -38.5 16.5s-16.5 25.167 -16.5 42.5s5.5 31.333 16.5 42s23.833 16 38.5 16c15.333 0 28.333 -5.33301 39 -16s16 -24.667 16 -42s-5.33301 -31.5 -16 -42.5
s-23.667 -16.5 -39 -16.5z" />
    <glyph glyph-name="Agrave" unicode="&#xc0;" horiz-adv-x="539" 
d="M4 0l225 656.999h82l224 -657h-78l-119 372l-34.5 110.5l-33.5 112.5h-4c-10 -38.667 -20.5 -76.167 -31.5 -112.5s-22.833 -73.166 -35.5 -110.499l-120 -372h-75zM118 206.999v59h300v-59h-300zM286 698.999l-147 115l42 49l137 -127z" />
    <glyph glyph-name="Aacute" unicode="&#xc1;" horiz-adv-x="539" 
d="M4 0l225 656.999h82l224 -657h-78l-119 372l-34.5 110.5l-33.5 112.5h-4c-10 -38.667 -20.5 -76.167 -31.5 -112.5s-22.833 -73.166 -35.5 -110.499l-120 -372h-75zM118 206.999v59h300v-59h-300zM250 698.999l-32 37l137 127l42 -49z" />
    <glyph glyph-name="Acircumflex" unicode="&#xc2;" horiz-adv-x="539" 
d="M4 0l225 656.999h82l224 -657h-78l-119 372l-34.5 110.5l-33.5 112.5h-4c-10 -38.667 -20.5 -76.167 -31.5 -112.5s-22.833 -73.166 -35.5 -110.499l-120 -372h-75zM118 206.999v59h300v-59h-300zM156 700.999l-32 24l106 113h76l106 -113l-32 -24l-110 94h-4z" />
    <glyph glyph-name="Atilde" unicode="&#xc3;" horiz-adv-x="539" 
d="M4 0l225 656.999h82l224 -657h-78l-119 372l-34.5 110.5l-33.5 112.5h-4c-10 -38.667 -20.5 -76.167 -31.5 -112.5s-22.833 -73.166 -35.5 -110.499l-120 -372h-75zM118 206.999v59h300v-59h-300zM344 710.999c-18.667 0 -34.834 3.83398 -48.501 11.501
s-25.834 16.167 -36.501 25.5s-21 17.666 -31 24.999s-21.333 11 -34 11c-13.333 0 -24.5 -5.83301 -33.5 -17.5s-14.5 -28.5 -16.5 -50.5l-50 3c2 36.667 11.667 65.834 29 87.501s40.333 32.5 69 32.5c18.667 0 34.834 -3.66699 48.501 -11s25.834 -15.833 36.501 -25.5
s21 -18.167 31 -25.5s21.333 -11 34 -11c13.333 0 24.333 6 33 18s14.334 29 17.001 51l50 -4c-1.33301 -36.667 -10.833 -65.834 -28.5 -87.501s-40.834 -32.5 -69.501 -32.5z" />
    <glyph glyph-name="Adieresis" unicode="&#xc4;" horiz-adv-x="539" 
d="M4 0l225 656.999h82l224 -657h-78l-119 372l-34.5 110.5l-33.5 112.5h-4c-10 -38.667 -20.5 -76.167 -31.5 -112.5s-22.833 -73.166 -35.5 -110.499l-120 -372h-75zM118 206.999v59h300v-59h-300zM369 717.999c-12.667 0 -23.334 4.16699 -32.001 12.5s-13 19.5 -13 33.5
c0 13.333 4.33301 24.166 13 32.499s19.334 12.5 32.001 12.5c14 0 25.167 -4.16699 33.5 -12.5s12.5 -19.166 12.5 -32.499c0 -14 -4.16699 -25.167 -12.5 -33.5s-19.5 -12.5 -33.5 -12.5zM167 717.999c-13.333 0 -24.333 4.16699 -33 12.5s-13 19.5 -13 33.5
c0 13.333 4.33301 24.166 13 32.499s19.667 12.5 33 12.5s24.166 -4.16699 32.499 -12.5s12.5 -19.166 12.5 -32.499c0 -14 -4.16699 -25.167 -12.5 -33.5s-19.166 -12.5 -32.499 -12.5z" />
    <glyph glyph-name="Aring" unicode="&#xc5;" horiz-adv-x="539" 
d="M4 0l225 656.999h82l224 -657h-78l-119 372l-34.5 110.5l-33.5 112.5h-4c-10 -38.667 -20.5 -76.167 -31.5 -112.5s-22.833 -73.166 -35.5 -110.499l-120 -372h-75zM118 206.999v59h300v-59h-300zM268 698.999c-27.333 0 -50 8.16699 -68 24.5s-27 37.833 -27 64.5
c0 27.333 9 49.166 27 65.499s40.667 24.5 68 24.5c26.667 0 49.167 -8.16699 67.5 -24.5s27.5 -38.166 27.5 -65.499c0 -26.667 -9.16699 -48.167 -27.5 -64.5s-40.833 -24.5 -67.5 -24.5zM268 732.999c14 0 26.167 4.66699 36.5 14s15.5 23 15.5 41
c0 17.333 -5.16699 31 -15.5 41s-22.5 15 -36.5 15c-14.667 0 -27.167 -5 -37.5 -15s-15.5 -23.667 -15.5 -41c0 -18 5.16699 -31.667 15.5 -41s22.833 -14 37.5 -14z" />
    <glyph glyph-name="AE" unicode="&#xc6;" horiz-adv-x="819" 
d="M12 0l349 657h400v-63h-283v-217h235v-62h-235v-252h293v-63h-367v598h-4l-55 -109l-57 -110l-199 -379h-77zM161 198v59h289v-59h-289z" />
    <glyph glyph-name="Ccedilla" unicode="&#xc7;" horiz-adv-x="569" 
d="M336 -12c-54.667 0 -103.331 13.5 -145.998 40.5s-76.334 66 -101.001 117s-37 111.833 -37 182.5c0 53.333 7.16699 100.833 21.5 142.5s34.5 77.5 60.5 107.5s56.667 52.667 92 68s73.666 23 114.999 23c40 0 75.167 -8.16699 105.5 -24.5s54.5 -34.833 72.5 -55.5
l-41 -49c-17.333 19.333 -37.166 34.833 -59.499 46.5s-47.833 17.5 -76.5 17.5c-42.667 0 -80 -11.167 -112 -33.5s-56.833 -54 -74.5 -95s-26.5 -89.5 -26.5 -145.5c0 -56.667 8.5 -105.667 25.5 -147s41.333 -73.333 73 -96s68.834 -34 111.501 -34
c32 0 60.667 6.66699 86 20s48.666 32 69.999 56l41 -46c-25.333 -30 -54.333 -53.333 -87 -70s-70.334 -25 -113.001 -25z" />
    <glyph glyph-name="Egrave" unicode="&#xc8;" horiz-adv-x="524" 
d="M92 0v657h373v-63h-299v-217h252v-62h-252v-252h309v-63h-383zM302 699l-147 115l42 49l137 -127z" />
    <glyph glyph-name="Eacute" unicode="&#xc9;" horiz-adv-x="524" 
d="M92 0v657h373v-63h-299v-217h252v-62h-252v-252h309v-63h-383zM266 699l-32 37l137 127l42 -49z" />
    <glyph glyph-name="Ecircumflex" unicode="&#xca;" horiz-adv-x="524" 
d="M92 0v657h373v-63h-299v-217h252v-62h-252v-252h309v-63h-383zM172 701l-32 24l106 113h76l106 -113l-32 -24l-110 94h-4z" />
    <glyph glyph-name="Edieresis" unicode="&#xcb;" horiz-adv-x="524" 
d="M92 0v657h373v-63h-299v-217h252v-62h-252v-252h309v-63h-383zM385 718c-12.667 0 -23.334 4.16699 -32.001 12.5s-13 19.5 -13 33.5c0 13.333 4.33301 24.166 13 32.499s19.334 12.5 32.001 12.5c14 0 25.167 -4.16699 33.5 -12.5s12.5 -19.166 12.5 -32.499
c0 -14 -4.16699 -25.167 -12.5 -33.5s-19.5 -12.5 -33.5 -12.5zM183 718c-13.333 0 -24.333 4.16699 -33 12.5s-13 19.5 -13 33.5c0 13.333 4.33301 24.166 13 32.499s19.667 12.5 33 12.5s24.166 -4.16699 32.499 -12.5s12.5 -19.166 12.5 -32.499
c0 -14 -4.16699 -25.167 -12.5 -33.5s-19.166 -12.5 -32.499 -12.5z" />
    <glyph glyph-name="Igrave" unicode="&#xcc;" horiz-adv-x="257" 
d="M92 0v657h74v-657h-74zM147 699l-147 115l42 49l137 -127z" />
    <glyph glyph-name="Iacute" unicode="&#xcd;" horiz-adv-x="257" 
d="M92 0v657h74v-657h-74zM111 699l-32 37l137 127l42 -49z" />
    <glyph glyph-name="Icircumflex" unicode="&#xce;" horiz-adv-x="257" 
d="M92 0v657h74v-657h-74zM17 701l-32 24l106 113h76l106 -113l-32 -24l-110 94h-4z" />
    <glyph glyph-name="Idieresis" unicode="&#xcf;" horiz-adv-x="257" 
d="M92 0v657h74v-657h-74zM230 718c-12.667 0 -23.334 4.16699 -32.001 12.5s-13 19.5 -13 33.5c0 13.333 4.33301 24.166 13 32.499s19.334 12.5 32.001 12.5c14 0 25.167 -4.16699 33.5 -12.5s12.5 -19.166 12.5 -32.499c0 -14 -4.16699 -25.167 -12.5 -33.5
s-19.5 -12.5 -33.5 -12.5zM28 718c-13.333 0 -24.333 4.16699 -33 12.5s-13 19.5 -13 33.5c0 13.333 4.33301 24.166 13 32.499s19.667 12.5 33 12.5s24.166 -4.16699 32.499 -12.5s12.5 -19.166 12.5 -32.499c0 -14 -4.16699 -25.167 -12.5 -33.5
s-19.166 -12.5 -32.499 -12.5z" />
    <glyph glyph-name="Eth" unicode="&#xd0;" horiz-adv-x="634" 
d="M34 323v41l81 3h225v-44h-306zM113 0v657.003h162c67.333 0 123.833 -12.833 169.5 -38.5s80 -62.834 103 -111.501s34.5 -107.334 34.5 -176.001s-11.5 -127.834 -34.5 -177.501s-57.167 -87.667 -102.5 -114s-101 -39.5 -167 -39.5h-165zM187 61.0029h82
c53.333 0 97.333 11 132 33s60.667 53 78 93s26 88 26 144s-8.66699 103.667 -26 143s-43.333 69.5 -78 90.5s-78.667 31.5 -132 31.5h-82v-535z" />
    <glyph glyph-name="Ntilde" unicode="&#xd1;" horiz-adv-x="644" 
d="M92 0v657.001h76l248 -426l72 -135h4c-2 33.333 -4.16699 67.5 -6.5 102.5s-3.5 69.167 -3.5 102.5v356h70v-657h-76l-248 426l-72 135h-4c2.66699 -32.667 5 -65.834 7 -99.501s3 -67.5 3 -101.5v-360h-70zM402 711.001c-18.667 0 -34.834 3.83398 -48.501 11.501
s-25.834 16.167 -36.501 25.5s-21 17.666 -31 24.999s-21.333 11 -34 11c-13.333 0 -24.5 -5.83301 -33.5 -17.5s-14.5 -28.5 -16.5 -50.5l-50 3c2 36.667 11.667 65.834 29 87.501s40.333 32.5 69 32.5c18.667 0 34.834 -3.66699 48.501 -11s25.834 -15.833 36.501 -25.5
s21 -18.167 31 -25.5s21.333 -11 34 -11c13.333 0 24.333 6 33 18s14.334 29 17.001 51l50 -4c-1.33301 -36.667 -10.833 -65.834 -28.5 -87.501s-40.834 -32.5 -69.501 -32.5z" />
    <glyph glyph-name="Ograve" unicode="&#xd2;" horiz-adv-x="661" 
d="M331 -12c-54.667 0 -102.834 14 -144.501 42s-74.5 67.667 -98.5 119s-36 112 -36 182s12 130.333 36 181s56.833 89.5 98.5 116.5s89.834 40.5 144.501 40.5c54 0 102 -13.5 144 -40.5s74.833 -65.833 98.5 -116.5s35.5 -111 35.5 -181s-11.833 -130.667 -35.5 -182
s-56.5 -91 -98.5 -119s-90 -42 -144 -42zM331 53c40 0 75.167 11.5 105.5 34.5s53.833 55.333 70.5 97s25 90.5 25 146.5s-8.33301 104.333 -25 145s-40.167 72.167 -70.5 94.5s-65.5 33.5 -105.5 33.5c-40.667 0 -76.167 -11.167 -106.5 -33.5s-53.833 -53.833 -70.5 -94.5
s-25 -89 -25 -145s8.33301 -104.833 25 -146.5s40.167 -74 70.5 -97s65.833 -34.5 106.5 -34.5zM349 699l-147 115l42 49l137 -127z" />
    <glyph glyph-name="Oacute" unicode="&#xd3;" horiz-adv-x="661" 
d="M331 -12c-54.667 0 -102.834 14 -144.501 42s-74.5 67.667 -98.5 119s-36 112 -36 182s12 130.333 36 181s56.833 89.5 98.5 116.5s89.834 40.5 144.501 40.5c54 0 102 -13.5 144 -40.5s74.833 -65.833 98.5 -116.5s35.5 -111 35.5 -181s-11.833 -130.667 -35.5 -182
s-56.5 -91 -98.5 -119s-90 -42 -144 -42zM331 53c40 0 75.167 11.5 105.5 34.5s53.833 55.333 70.5 97s25 90.5 25 146.5s-8.33301 104.333 -25 145s-40.167 72.167 -70.5 94.5s-65.5 33.5 -105.5 33.5c-40.667 0 -76.167 -11.167 -106.5 -33.5s-53.833 -53.833 -70.5 -94.5
s-25 -89 -25 -145s8.33301 -104.833 25 -146.5s40.167 -74 70.5 -97s65.833 -34.5 106.5 -34.5zM313 699l-32 37l137 127l42 -49z" />
    <glyph glyph-name="Ocircumflex" unicode="&#xd4;" horiz-adv-x="661" 
d="M331 -12c-54.667 0 -102.834 14 -144.501 42s-74.5 67.667 -98.5 119s-36 112 -36 182s12 130.333 36 181s56.833 89.5 98.5 116.5s89.834 40.5 144.501 40.5c54 0 102 -13.5 144 -40.5s74.833 -65.833 98.5 -116.5s35.5 -111 35.5 -181s-11.833 -130.667 -35.5 -182
s-56.5 -91 -98.5 -119s-90 -42 -144 -42zM331 53c40 0 75.167 11.5 105.5 34.5s53.833 55.333 70.5 97s25 90.5 25 146.5s-8.33301 104.333 -25 145s-40.167 72.167 -70.5 94.5s-65.5 33.5 -105.5 33.5c-40.667 0 -76.167 -11.167 -106.5 -33.5s-53.833 -53.833 -70.5 -94.5
s-25 -89 -25 -145s8.33301 -104.833 25 -146.5s40.167 -74 70.5 -97s65.833 -34.5 106.5 -34.5zM219 701l-32 24l106 113h76l106 -113l-32 -24l-110 94h-4z" />
    <glyph glyph-name="Otilde" unicode="&#xd5;" horiz-adv-x="661" 
d="M331 -12c-54.667 0 -102.834 14 -144.501 42s-74.5 67.667 -98.5 119s-36 112 -36 182s12 130.333 36 181s56.833 89.5 98.5 116.5s89.834 40.5 144.501 40.5c54 0 102 -13.5 144 -40.5s74.833 -65.833 98.5 -116.5s35.5 -111 35.5 -181s-11.833 -130.667 -35.5 -182
s-56.5 -91 -98.5 -119s-90 -42 -144 -42zM331 53c40 0 75.167 11.5 105.5 34.5s53.833 55.333 70.5 97s25 90.5 25 146.5s-8.33301 104.333 -25 145s-40.167 72.167 -70.5 94.5s-65.5 33.5 -105.5 33.5c-40.667 0 -76.167 -11.167 -106.5 -33.5s-53.833 -53.833 -70.5 -94.5
s-25 -89 -25 -145s8.33301 -104.833 25 -146.5s40.167 -74 70.5 -97s65.833 -34.5 106.5 -34.5zM407 711c-18.667 0 -34.834 3.83398 -48.501 11.501s-25.834 16.167 -36.501 25.5s-21 17.666 -31 24.999s-21.333 11 -34 11c-13.333 0 -24.5 -5.83301 -33.5 -17.5
s-14.5 -28.5 -16.5 -50.5l-50 3c2 36.667 11.667 65.834 29 87.501s40.333 32.5 69 32.5c18.667 0 34.834 -3.66699 48.501 -11s25.834 -15.833 36.501 -25.5s21 -18.167 31 -25.5s21.333 -11 34 -11c13.333 0 24.333 6 33 18s14.334 29 17.001 51l50 -4
c-1.33301 -36.667 -10.833 -65.834 -28.5 -87.501s-40.834 -32.5 -69.501 -32.5z" />
    <glyph glyph-name="Odieresis" unicode="&#xd6;" horiz-adv-x="661" 
d="M331 -12c-54.667 0 -102.834 14 -144.501 42s-74.5 67.667 -98.5 119s-36 112 -36 182s12 130.333 36 181s56.833 89.5 98.5 116.5s89.834 40.5 144.501 40.5c54 0 102 -13.5 144 -40.5s74.833 -65.833 98.5 -116.5s35.5 -111 35.5 -181s-11.833 -130.667 -35.5 -182
s-56.5 -91 -98.5 -119s-90 -42 -144 -42zM331 53c40 0 75.167 11.5 105.5 34.5s53.833 55.333 70.5 97s25 90.5 25 146.5s-8.33301 104.333 -25 145s-40.167 72.167 -70.5 94.5s-65.5 33.5 -105.5 33.5c-40.667 0 -76.167 -11.167 -106.5 -33.5s-53.833 -53.833 -70.5 -94.5
s-25 -89 -25 -145s8.33301 -104.833 25 -146.5s40.167 -74 70.5 -97s65.833 -34.5 106.5 -34.5zM432 718c-12.667 0 -23.334 4.16699 -32.001 12.5s-13 19.5 -13 33.5c0 13.333 4.33301 24.166 13 32.499s19.334 12.5 32.001 12.5c14 0 25.167 -4.16699 33.5 -12.5
s12.5 -19.166 12.5 -32.499c0 -14 -4.16699 -25.167 -12.5 -33.5s-19.5 -12.5 -33.5 -12.5zM230 718c-13.333 0 -24.333 4.16699 -33 12.5s-13 19.5 -13 33.5c0 13.333 4.33301 24.166 13 32.499s19.667 12.5 33 12.5s24.166 -4.16699 32.499 -12.5
s12.5 -19.166 12.5 -32.499c0 -14 -4.16699 -25.167 -12.5 -33.5s-19.166 -12.5 -32.499 -12.5z" />
    <glyph glyph-name="multiply" unicode="&#xd7;" horiz-adv-x="492" 
d="M90 128l-39 41l156 161l-156 160l39 41l156 -162l156 162l40 -41l-156 -160l156 -161l-40 -41l-156 162z" />
    <glyph glyph-name="Oslash" unicode="&#xd8;" horiz-adv-x="661" 
d="M93 -28l-42 32l520 681l42 -32zM333 -12c-54 0 -102 14 -144 42s-74.833 67.667 -98.5 119s-35.5 112 -35.5 182s11.833 130.333 35.5 181s56.5 89.5 98.5 116.5s90 40.5 144 40.5c54.667 0 102.834 -13.5 144.501 -40.5s74.5 -65.833 98.5 -116.5s36 -111 36 -181
s-12 -130.667 -36 -182s-56.833 -91 -98.5 -119s-89.834 -42 -144.501 -42zM333 53c40.667 0 76.167 11.5 106.5 34.5s53.833 55.333 70.5 97s25 90.5 25 146.5s-8.33301 104.333 -25 145s-40.167 72.167 -70.5 94.5s-65.833 33.5 -106.5 33.5
c-40 0 -75.167 -11.167 -105.5 -33.5s-53.833 -53.833 -70.5 -94.5s-25 -89 -25 -145s8.33301 -104.833 25 -146.5s40.167 -74 70.5 -97s65.5 -34.5 105.5 -34.5z" />
    <glyph glyph-name="Ugrave" unicode="&#xd9;" horiz-adv-x="643" 
d="M321 -12c-32 0 -62.167 4.83301 -90.5 14.5s-53 25.167 -74 46.5s-37.5 49.833 -49.5 85.5s-18 79.5 -18 131.5v391h74v-391c0 -54 7.16699 -96.5 21.5 -127.5s33.333 -53 57 -66s50.167 -19.5 79.5 -19.5c30 0 57.167 6.5 81.5 19.5s43.833 35 58.5 66s22 73.5 22 127.5
v391h71v-391c0 -52 -6.16699 -95.833 -18.5 -131.5s-29 -64.167 -50 -85.5s-45.5 -36.833 -73.5 -46.5s-58.333 -14.5 -91 -14.5zM339 699l-147 115l42 49l137 -127z" />
    <glyph glyph-name="Uacute" unicode="&#xda;" horiz-adv-x="643" 
d="M321 -12c-32 0 -62.167 4.83301 -90.5 14.5s-53 25.167 -74 46.5s-37.5 49.833 -49.5 85.5s-18 79.5 -18 131.5v391h74v-391c0 -54 7.16699 -96.5 21.5 -127.5s33.333 -53 57 -66s50.167 -19.5 79.5 -19.5c30 0 57.167 6.5 81.5 19.5s43.833 35 58.5 66s22 73.5 22 127.5
v391h71v-391c0 -52 -6.16699 -95.833 -18.5 -131.5s-29 -64.167 -50 -85.5s-45.5 -36.833 -73.5 -46.5s-58.333 -14.5 -91 -14.5zM303 699l-32 37l137 127l42 -49z" />
    <glyph glyph-name="Ucircumflex" unicode="&#xdb;" horiz-adv-x="643" 
d="M321 -12c-32 0 -62.167 4.83301 -90.5 14.5s-53 25.167 -74 46.5s-37.5 49.833 -49.5 85.5s-18 79.5 -18 131.5v391h74v-391c0 -54 7.16699 -96.5 21.5 -127.5s33.333 -53 57 -66s50.167 -19.5 79.5 -19.5c30 0 57.167 6.5 81.5 19.5s43.833 35 58.5 66s22 73.5 22 127.5
v391h71v-391c0 -52 -6.16699 -95.833 -18.5 -131.5s-29 -64.167 -50 -85.5s-45.5 -36.833 -73.5 -46.5s-58.333 -14.5 -91 -14.5zM209 701l-32 24l106 113h76l106 -113l-32 -24l-110 94h-4z" />
    <glyph glyph-name="Udieresis" unicode="&#xdc;" horiz-adv-x="643" 
d="M321 -12c-32 0 -62.167 4.83301 -90.5 14.5s-53 25.167 -74 46.5s-37.5 49.833 -49.5 85.5s-18 79.5 -18 131.5v391h74v-391c0 -54 7.16699 -96.5 21.5 -127.5s33.333 -53 57 -66s50.167 -19.5 79.5 -19.5c30 0 57.167 6.5 81.5 19.5s43.833 35 58.5 66s22 73.5 22 127.5
v391h71v-391c0 -52 -6.16699 -95.833 -18.5 -131.5s-29 -64.167 -50 -85.5s-45.5 -36.833 -73.5 -46.5s-58.333 -14.5 -91 -14.5zM422 718c-12.667 0 -23.334 4.16699 -32.001 12.5s-13 19.5 -13 33.5c0 13.333 4.33301 24.166 13 32.499s19.334 12.5 32.001 12.5
c14 0 25.167 -4.16699 33.5 -12.5s12.5 -19.166 12.5 -32.499c0 -14 -4.16699 -25.167 -12.5 -33.5s-19.5 -12.5 -33.5 -12.5zM220 718c-13.333 0 -24.333 4.16699 -33 12.5s-13 19.5 -13 33.5c0 13.333 4.33301 24.166 13 32.499s19.667 12.5 33 12.5
s24.166 -4.16699 32.499 -12.5s12.5 -19.166 12.5 -32.499c0 -14 -4.16699 -25.167 -12.5 -33.5s-19.166 -12.5 -32.499 -12.5z" />
    <glyph glyph-name="Yacute" unicode="&#xdd;" horiz-adv-x="468" 
d="M197 0v258l-197 399h79l88 -191l32.5 -71l32.5 -72h4l35 72l33 71l88 191h77l-198 -399v-258h-74zM216 699l-32 37l137 127l42 -49z" />
    <glyph glyph-name="Thorn" unicode="&#xde;" horiz-adv-x="578" 
d="M92 0v656.999h74v-112h122c48 0 90.167 -6.16699 126.5 -18.5s64.333 -32.333 84 -60s29.5 -65.167 29.5 -112.5c0 -45.333 -10 -82.666 -30 -111.999s-48 -51.333 -84 -66s-78 -22 -126 -22h-122v-154h-74zM166 213.999h110.999c60 0 104.5 11.333 133.5 34
s43.5 58 43.5 106c0 49.333 -14.667 83.333 -44 102s-73.666 28 -132.999 28h-111v-270z" />
    <glyph glyph-name="germandbls" unicode="&#xdf;" horiz-adv-x="567" 
d="M382 -12c-27.333 0 -52.499 4.50098 -75.499 13.501s-44.5 21.167 -64.5 36.5l30 51c18.667 -14.667 36.5 -25.667 53.5 -33s35.167 -11 54.5 -11c29.333 0 51.5 8.83301 66.5 26.5s22.5 37.167 22.5 58.5c0 20.667 -4.83301 37.667 -14.5 51
s-22.167 24.666 -37.5 33.999s-31.333 18.166 -48 26.499s-32.667 17.666 -48 27.999s-27.833 23.333 -37.5 39s-14.5 34.834 -14.5 57.501c0 23.333 4.5 43.333 13.5 60s19.5 32.167 31.5 46.5s22.667 29.5 32 45.5s14 34.667 14 56c0 26 -7.33301 47.5 -22 64.5
s-36.334 25.5 -65.001 25.5c-36 0 -64.333 -13.167 -85 -39.5s-31 -66.5 -31 -120.5v-504h-72v519c0 42 7.5 78.333 22.5 109s36.5 54.334 64.5 71.001s62 25 102 25c33.333 0 61.666 -6.5 84.999 -19.5s41.166 -30.333 53.499 -52s18.5 -45.5 18.5 -71.5
c0 -25.333 -4.66699 -47 -14 -65s-20.166 -34.333 -32.499 -49s-23.166 -29.167 -32.499 -43.5s-14 -30.833 -14 -49.5c0 -16.667 4.83301 -30.5 14.5 -41.5s22.167 -20.667 37.5 -29l48 -25.5c16.667 -8.66699 32.667 -19 48 -31s27.833 -26.833 37.5 -44.5
s14.5 -40.5 14.5 -68.5c0 -27.333 -6.33301 -52 -19 -74s-30.667 -39.5 -54 -52.5s-51 -19.5 -83 -19.5z" />
    <glyph glyph-name="agrave" unicode="&#xe0;" horiz-adv-x="501" 
d="M195 -12c-26.667 0 -50.667 5.33594 -72 16.0029s-38.333 26.167 -51 46.5s-19 44.833 -19 73.5c0 53.333 24.167 94.166 72.5 122.499s124.833 48.166 229.5 59.499c0 21.333 -2.83301 42.166 -8.5 62.499s-16 36.666 -31 48.999s-36.5 18.5 -64.5 18.5
c-29.333 0 -56.5 -5.66699 -81.5 -17s-46.833 -23.333 -65.5 -36l-29 50c14 9.33301 30.667 19 50 29s40.666 18.333 63.999 25s48 10 74 10c38.667 0 70.167 -8.33301 94.5 -25s42 -39.667 53 -69s16.5 -63.666 16.5 -102.999v-300h-60l-6 59h-3
c-23.333 -19.333 -48.666 -36 -75.999 -50s-56.333 -21 -87 -21zM214 47.0029c24.667 0 47.999 5.83496 69.999 17.502s45.667 28.5 71 50.5v142c-57.333 -6.66699 -102.666 -15.834 -135.999 -27.501s-57.333 -25.834 -72 -42.501s-22 -36 -22 -58
c0 -28.667 8.83301 -49.5 26.5 -62.5s38.5 -19.5 62.5 -19.5zM286.999 573.005l-154 153l52 48l140 -164z" />
    <glyph glyph-name="aacute" unicode="&#xe1;" horiz-adv-x="501" 
d="M195 -12c-26.667 0 -50.667 5.33594 -72 16.0029s-38.333 26.167 -51 46.5s-19 44.833 -19 73.5c0 53.333 24.167 94.166 72.5 122.499s124.833 48.166 229.5 59.499c0 21.333 -2.83301 42.166 -8.5 62.499s-16 36.666 -31 48.999s-36.5 18.5 -64.5 18.5
c-29.333 0 -56.5 -5.66699 -81.5 -17s-46.833 -23.333 -65.5 -36l-29 50c14 9.33301 30.667 19 50 29s40.666 18.333 63.999 25s48 10 74 10c38.667 0 70.167 -8.33301 94.5 -25s42 -39.667 53 -69s16.5 -63.666 16.5 -102.999v-300h-60l-6 59h-3
c-23.333 -19.333 -48.666 -36 -75.999 -50s-56.333 -21 -87 -21zM214 47.0029c24.667 0 47.999 5.83496 69.999 17.502s45.667 28.5 71 50.5v142c-57.333 -6.66699 -102.666 -15.834 -135.999 -27.501s-57.333 -25.834 -72 -42.501s-22 -36 -22 -58
c0 -28.667 8.83301 -49.5 26.5 -62.5s38.5 -19.5 62.5 -19.5zM250.999 573.005l-38 37l140 164l52 -48z" />
    <glyph glyph-name="acircumflex" unicode="&#xe2;" horiz-adv-x="501" 
d="M195 -12c-26.667 0 -50.667 5.33594 -72 16.0029s-38.333 26.167 -51 46.5s-19 44.833 -19 73.5c0 53.333 24.167 94.166 72.5 122.499s124.833 48.166 229.5 59.499c0 21.333 -2.83301 42.166 -8.5 62.499s-16 36.666 -31 48.999s-36.5 18.5 -64.5 18.5
c-29.333 0 -56.5 -5.66699 -81.5 -17s-46.833 -23.333 -65.5 -36l-29 50c14 9.33301 30.667 19 50 29s40.666 18.333 63.999 25s48 10 74 10c38.667 0 70.167 -8.33301 94.5 -25s42 -39.667 53 -69s16.5 -63.666 16.5 -102.999v-300h-60l-6 59h-3
c-23.333 -19.333 -48.666 -36 -75.999 -50s-56.333 -21 -87 -21zM214 47.0029c24.667 0 47.999 5.83496 69.999 17.502s45.667 28.5 71 50.5v142c-57.333 -6.66699 -102.666 -15.834 -135.999 -27.501s-57.333 -25.834 -72 -42.501s-22 -36 -22 -58
c0 -28.667 8.83301 -49.5 26.5 -62.5s38.5 -19.5 62.5 -19.5zM149.999 569.005l-32 29l115 141h72l115 -141l-32 -29l-117 116h-4z" />
    <glyph glyph-name="atilde" unicode="&#xe3;" horiz-adv-x="501" 
d="M195 -12c-26.667 0 -50.667 5.33594 -72 16.0029s-38.333 26.167 -51 46.5s-19 44.833 -19 73.5c0 53.333 24.167 94.166 72.5 122.499s124.833 48.166 229.5 59.499c0 21.333 -2.83301 42.166 -8.5 62.499s-16 36.666 -31 48.999s-36.5 18.5 -64.5 18.5
c-29.333 0 -56.5 -5.66699 -81.5 -17s-46.833 -23.333 -65.5 -36l-29 50c14 9.33301 30.667 19 50 29s40.666 18.333 63.999 25s48 10 74 10c38.667 0 70.167 -8.33301 94.5 -25s42 -39.667 53 -69s16.5 -63.666 16.5 -102.999v-300h-60l-6 59h-3
c-23.333 -19.333 -48.666 -36 -75.999 -50s-56.333 -21 -87 -21zM214 47.0029c24.667 0 47.999 5.83496 69.999 17.502s45.667 28.5 71 50.5v142c-57.333 -6.66699 -102.666 -15.834 -135.999 -27.501s-57.333 -25.834 -72 -42.501s-22 -36 -22 -58
c0 -28.667 8.83301 -49.5 26.5 -62.5s38.5 -19.5 62.5 -19.5zM341.999 578.005c-18 0 -33.4971 4.33496 -46.4971 13.002s-24.833 18.667 -35.5 30s-20.834 21.333 -30.501 30s-20.834 13 -33.501 13c-15.333 0 -26.833 -7.5 -34.5 -22.5s-12.167 -34.833 -13.5 -59.5l-50 3
c1.33301 25.333 5.33301 47.833 12 67.5s17 35.5 31 47.5s32.667 18 56 18c18 0 33.333 -4.33301 46 -13s24.334 -18.834 35.001 -30.501s21 -21.834 31 -30.501s21 -13 33 -13c16 0 27.667 7.83301 35 23.5s11.666 35.5 12.999 59.5l50 -4
c-1.33301 -24 -5.33301 -46 -12 -66s-16.834 -36 -30.501 -48s-32.167 -18 -55.5 -18z" />
    <glyph glyph-name="adieresis" unicode="&#xe4;" horiz-adv-x="501" 
d="M195 -12c-26.667 0 -50.667 5.33594 -72 16.0029s-38.333 26.167 -51 46.5s-19 44.833 -19 73.5c0 53.333 24.167 94.166 72.5 122.499s124.833 48.166 229.5 59.499c0 21.333 -2.83301 42.166 -8.5 62.499s-16 36.666 -31 48.999s-36.5 18.5 -64.5 18.5
c-29.333 0 -56.5 -5.66699 -81.5 -17s-46.833 -23.333 -65.5 -36l-29 50c14 9.33301 30.667 19 50 29s40.666 18.333 63.999 25s48 10 74 10c38.667 0 70.167 -8.33301 94.5 -25s42 -39.667 53 -69s16.5 -63.666 16.5 -102.999v-300h-60l-6 59h-3
c-23.333 -19.333 -48.666 -36 -75.999 -50s-56.333 -21 -87 -21zM214 47.0029c24.667 0 47.999 5.83496 69.999 17.502s45.667 28.5 71 50.5v142c-57.333 -6.66699 -102.666 -15.834 -135.999 -27.501s-57.333 -25.834 -72 -42.501s-22 -36 -22 -58
c0 -28.667 8.83301 -49.5 26.5 -62.5s38.5 -19.5 62.5 -19.5zM362.999 590.005c-12.667 0 -23.5 4.5 -32.5 13.5s-13.5 19.833 -13.5 32.5c0 13.333 4.5 24.5 13.5 33.5s19.833 13.5 32.5 13.5c14 0 25.333 -4.5 34 -13.5s13 -20.167 13 -33.5
c0 -12.667 -4.33301 -23.5 -13 -32.5s-20 -13.5 -34 -13.5zM174.999 590.005c-13.333 0 -24.5 4.5 -33.5 13.5s-13.5 19.833 -13.5 32.5c0 13.333 4.5 24.5 13.5 33.5s20.167 13.5 33.5 13.5s24.333 -4.5 33 -13.5s13 -20.167 13 -33.5c0 -12.667 -4.33301 -23.5 -13 -32.5
s-19.667 -13.5 -33 -13.5z" />
    <glyph glyph-name="aring" unicode="&#xe5;" horiz-adv-x="501" 
d="M195 -12c-26.667 0 -50.667 5.33594 -72 16.0029s-38.333 26.167 -51 46.5s-19 44.833 -19 73.5c0 53.333 24.167 94.166 72.5 122.499s124.833 48.166 229.5 59.499c0 21.333 -2.83301 42.166 -8.5 62.499s-16 36.666 -31 48.999s-36.5 18.5 -64.5 18.5
c-29.333 0 -56.5 -5.66699 -81.5 -17s-46.833 -23.333 -65.5 -36l-29 50c14 9.33301 30.667 19 50 29s40.666 18.333 63.999 25s48 10 74 10c38.667 0 70.167 -8.33301 94.5 -25s42 -39.667 53 -69s16.5 -63.666 16.5 -102.999v-300h-60l-6 59h-3
c-23.333 -19.333 -48.666 -36 -75.999 -50s-56.333 -21 -87 -21zM214 47.0029c24.667 0 47.999 5.83496 69.999 17.502s45.667 28.5 71 50.5v142c-57.333 -6.66699 -102.666 -15.834 -135.999 -27.501s-57.333 -25.834 -72 -42.501s-22 -36 -22 -58
c0 -28.667 8.83301 -49.5 26.5 -62.5s38.5 -19.5 62.5 -19.5zM268.999 553.005c-32 0 -57.667 9.16699 -77 27.5s-29 41.5 -29 69.5c0 28.667 9.66699 52.167 29 70.5s45 27.5 77 27.5c32.667 0 58.5 -9.16699 77.5 -27.5s28.5 -41.833 28.5 -70.5
c0 -28 -9.5 -51.167 -28.5 -69.5s-44.833 -27.5 -77.5 -27.5zM268.999 587.005c16.667 0 30.667 5.66699 42 17s17 26.666 17 45.999s-5.66699 34.833 -17 46.5s-25.333 17.5 -42 17.5c-16 0 -29.833 -5.83301 -41.5 -17.5s-17.5 -27.167 -17.5 -46.5
s5.83301 -34.666 17.5 -45.999s25.5 -17 41.5 -17z" />
    <glyph glyph-name="ae" unicode="&#xe6;" horiz-adv-x="785" 
d="M202 -12c-26.667 0 -50.666 5.17188 -71.999 15.5049s-38.333 25.666 -51 45.999s-19 45.166 -19 74.499c0 53.333 24 94.166 72 122.499s123 48.166 225 59.499c0 22 -2.66699 43 -8 63s-15.5 36.167 -30.5 48.5s-36.5 18.5 -64.5 18.5
c-27.333 0 -53.333 -5.66699 -78 -17s-46.334 -23.333 -65.001 -36l-29 50c14 9.33301 30.5 19 49.5 29s39.5 18.333 61.5 25s45 10 69 10c37.333 0 67.666 -9.83301 90.999 -29.5s39.666 -45.834 48.999 -78.501c18.667 33.333 41.834 59.666 69.501 78.999
s58.167 29 91.5 29c39.333 0 72.833 -9.33301 100.5 -28s48.5 -45 62.5 -79s21 -74.333 21 -121c0 -8 -0.166992 -15.667 -0.5 -23s-1.16602 -14 -2.49902 -20h-319c0.666992 -35.333 8 -66.333 22 -93s32.667 -47.5 56 -62.5s49.333 -22.5 78 -22.5
c24.667 0 46.334 3.83301 65.001 11.5s37 17.5 55 29.5l27 -51c-20.667 -13.333 -43.334 -25 -68.001 -35s-54 -15 -88 -15c-27.333 0 -51.5 4.33301 -72.5 13s-39.5 20.167 -55.5 34.5s-30.333 29.5 -43 45.5c-32 -29.333 -65.5 -52.166 -100.5 -68.499
s-67.833 -24.5 -98.5 -24.5zM221.001 47.0049c23.333 0 49.168 7 77.501 21s54.166 33.333 77.499 58c-5.33301 13.333 -9.83301 29.5 -13.5 48.5s-5.5 38.167 -5.5 57.5l-1 25c-81.333 -10 -139 -25.5 -173 -46.5s-51 -48.167 -51 -81.5c0 -28.667 8.66699 -49.5 26 -62.5
s38.333 -19.5 63 -19.5zM425.003 275.005l257.001 -0.00195312c0 53.333 -10.333 93.833 -31 121.5s-50.334 41.5 -89.001 41.5c-23.333 0 -44.833 -6.66699 -64.5 -20s-36 -32.166 -49 -56.499s-20.833 -53.166 -23.5 -86.499z" />
    <glyph glyph-name="ccedilla" unicode="&#xe7;" horiz-adv-x="454" 
d="M273 -12c-42.667 0 -80.999 10.001 -114.999 30.001s-61 48.833 -81 86.5s-30 83.5 -30 137.5c0 53.333 10.833 99.166 32.5 137.499s49.834 67.5 84.501 87.5s72.667 30 114 30c32 0 59.333 -5.83301 82 -17.5s42.334 -25.167 59.001 -40.5l-38 -48
c-14 13.333 -29.167 24.166 -45.5 32.499s-34.5 12.5 -54.5 12.5c-30.667 0 -57.834 -8.16699 -81.501 -24.5s-42.334 -39.166 -56.001 -68.499s-20.5 -63 -20.5 -101c0 -38.667 6.5 -72.5 19.5 -101.5s31.167 -51.5 54.5 -67.5s50.666 -24 81.999 -24
c23.333 0 45 4.83301 65 14.5s37.667 21.5 53 35.5l32 -49c-21.333 -19.333 -45.333 -34.5 -72 -45.5s-54.667 -16.5 -84 -16.5zM186.001 -223.999l-8.00098 38.002c42 2.66699 70.833 8 86.5 16s23.5 19.333 23.5 34c0 13.333 -5.83301 23.666 -17.5 30.999
s-31.834 13 -60.501 17l43 91h49l-29 -67c22.667 -5.33301 40.334 -13.333 53.001 -24s19 -26.334 19 -47.001c0 -28 -13.667 -49.167 -41 -63.5s-66.666 -22.833 -117.999 -25.5z" />
    <glyph glyph-name="egrave" unicode="&#xe8;" horiz-adv-x="492" 
d="M277 -12c-42.667 0 -81.3311 10.1709 -115.998 30.5039s-62.334 49.333 -83.001 87s-31 83.167 -31 136.5c0 52 10.333 97.167 31 135.5s47.5 67.833 80.5 88.5s68.167 31 105.5 31c40 0 74.333 -9.33301 103 -28s50.5 -44.834 65.5 -78.501s22.5 -73.834 22.5 -120.501
c0 -7.33301 -0.333008 -15 -1 -23s-1.66699 -15 -3 -21h-347l-1 53h287c0 52 -11 91.5 -33 118.5s-52.667 40.5 -92 40.5c-24 0 -47.333 -6.83301 -70 -20.5s-41.334 -35 -56.001 -64s-22 -66.167 -22 -111.5c0 -43.333 7.66699 -79.333 23 -108
s35.833 -50.334 61.5 -65.001s53.834 -22 84.501 -22c24 0 46 3.66699 66 11s39 16.666 57 27.999l27 -48c-20.667 -13.333 -43.834 -25 -69.501 -35s-55.5 -15 -89.5 -15zM284.003 573.004l-154 153l52 48l140 -164z" />
    <glyph glyph-name="eacute" unicode="&#xe9;" horiz-adv-x="492" 
d="M277 -12c-42.667 0 -81.3311 10.1709 -115.998 30.5039s-62.334 49.333 -83.001 87s-31 83.167 -31 136.5c0 52 10.333 97.167 31 135.5s47.5 67.833 80.5 88.5s68.167 31 105.5 31c40 0 74.333 -9.33301 103 -28s50.5 -44.834 65.5 -78.501s22.5 -73.834 22.5 -120.501
c0 -7.33301 -0.333008 -15 -1 -23s-1.66699 -15 -3 -21h-347l-1 53h287c0 52 -11 91.5 -33 118.5s-52.667 40.5 -92 40.5c-24 0 -47.333 -6.83301 -70 -20.5s-41.334 -35 -56.001 -64s-22 -66.167 -22 -111.5c0 -43.333 7.66699 -79.333 23 -108
s35.833 -50.334 61.5 -65.001s53.834 -22 84.501 -22c24 0 46 3.66699 66 11s39 16.666 57 27.999l27 -48c-20.667 -13.333 -43.834 -25 -69.501 -35s-55.5 -15 -89.5 -15zM248.003 573.004l-38 37l140 164l52 -48z" />
    <glyph glyph-name="ecircumflex" unicode="&#xea;" horiz-adv-x="492" 
d="M277 -12c-42.667 0 -81.3311 10.1709 -115.998 30.5039s-62.334 49.333 -83.001 87s-31 83.167 -31 136.5c0 52 10.333 97.167 31 135.5s47.5 67.833 80.5 88.5s68.167 31 105.5 31c40 0 74.333 -9.33301 103 -28s50.5 -44.834 65.5 -78.501s22.5 -73.834 22.5 -120.501
c0 -7.33301 -0.333008 -15 -1 -23s-1.66699 -15 -3 -21h-347l-1 53h287c0 52 -11 91.5 -33 118.5s-52.667 40.5 -92 40.5c-24 0 -47.333 -6.83301 -70 -20.5s-41.334 -35 -56.001 -64s-22 -66.167 -22 -111.5c0 -43.333 7.66699 -79.333 23 -108
s35.833 -50.334 61.5 -65.001s53.834 -22 84.501 -22c24 0 46 3.66699 66 11s39 16.666 57 27.999l27 -48c-20.667 -13.333 -43.834 -25 -69.501 -35s-55.5 -15 -89.5 -15zM147.003 569.004l-32 29l115 141h72l115 -141l-32 -29l-117 116h-4z" />
    <glyph glyph-name="edieresis" unicode="&#xeb;" horiz-adv-x="492" 
d="M277 -12c-42.667 0 -81.3311 10.1709 -115.998 30.5039s-62.334 49.333 -83.001 87s-31 83.167 -31 136.5c0 52 10.333 97.167 31 135.5s47.5 67.833 80.5 88.5s68.167 31 105.5 31c40 0 74.333 -9.33301 103 -28s50.5 -44.834 65.5 -78.501s22.5 -73.834 22.5 -120.501
c0 -7.33301 -0.333008 -15 -1 -23s-1.66699 -15 -3 -21h-347l-1 53h287c0 52 -11 91.5 -33 118.5s-52.667 40.5 -92 40.5c-24 0 -47.333 -6.83301 -70 -20.5s-41.334 -35 -56.001 -64s-22 -66.167 -22 -111.5c0 -43.333 7.66699 -79.333 23 -108
s35.833 -50.334 61.5 -65.001s53.834 -22 84.501 -22c24 0 46 3.66699 66 11s39 16.666 57 27.999l27 -48c-20.667 -13.333 -43.834 -25 -69.501 -35s-55.5 -15 -89.5 -15zM360.003 590.004c-12.667 0 -23.5 4.5 -32.5 13.5s-13.5 19.833 -13.5 32.5
c0 13.333 4.5 24.5 13.5 33.5s19.833 13.5 32.5 13.5c14 0 25.333 -4.5 34 -13.5s13 -20.167 13 -33.5c0 -12.667 -4.33301 -23.5 -13 -32.5s-20 -13.5 -34 -13.5zM172.003 590.004c-13.333 0 -24.5 4.5 -33.5 13.5s-13.5 19.833 -13.5 32.5c0 13.333 4.5 24.5 13.5 33.5
s20.167 13.5 33.5 13.5s24.333 -4.5 33 -13.5s13 -20.167 13 -33.5c0 -12.667 -4.33301 -23.5 -13 -32.5s-19.667 -13.5 -33 -13.5z" />
    <glyph glyph-name="igrave" unicode="&#xec;" horiz-adv-x="242" 
d="M85 0v485h72v-485h-72zM140 573l-154 153l52 48l140 -164z" />
    <glyph glyph-name="iacute" unicode="&#xed;" horiz-adv-x="242" 
d="M85 0v485h72v-485h-72zM104 573l-38 37l140 164l52 -48z" />
    <glyph glyph-name="icircumflex" unicode="&#xee;" horiz-adv-x="242" 
d="M85 0v485h72v-485h-72zM3 569l-32 29l115 141h72l115 -141l-32 -29l-117 116h-4z" />
    <glyph glyph-name="idieresis" unicode="&#xef;" horiz-adv-x="242" 
d="M85 0v485h72v-485h-72zM216 590c-12.667 0 -23.5 4.5 -32.5 13.5s-13.5 19.833 -13.5 32.5c0 13.333 4.5 24.5 13.5 33.5s19.833 13.5 32.5 13.5c14 0 25.333 -4.5 34 -13.5s13 -20.167 13 -33.5c0 -12.667 -4.33301 -23.5 -13 -32.5s-20 -13.5 -34 -13.5zM28 590
c-13.333 0 -24.5 4.5 -33.5 13.5s-13.5 19.833 -13.5 32.5c0 13.333 4.5 24.5 13.5 33.5s20.167 13.5 33.5 13.5s24.333 -4.5 33 -13.5s13 -20.167 13 -33.5c0 -12.667 -4.33301 -23.5 -13 -32.5s-19.667 -13.5 -33 -13.5z" />
    <glyph glyph-name="eth" unicode="&#xf0;" horiz-adv-x="542" 
d="M268 -12c-36.667 0 -71.167 9.33105 -103.5 27.998s-58.666 45.5 -78.999 80.5s-30.5 76.833 -30.5 125.5c0 44.667 9 83.834 27 117.501s42.5 59.667 73.5 78s66.167 27.5 105.5 27.5c30 0 58.5 -7.16699 85.5 -21.5s49.167 -36.833 66.5 -67.5l1 -53
c-23.333 34.667 -47 57.5 -71 68.5s-48 16.5 -72 16.5c-31.333 0 -58 -7.33301 -80 -22s-38.667 -34.5 -50 -59.5s-17 -53.167 -17 -84.5c0 -34.667 6.66699 -65 20 -91s31 -46.167 53 -60.5s46.333 -21.5 73 -21.5c31.333 0 57.333 8.83301 78 26.5s36.167 41.667 46.5 72
s15.5 65.5 15.5 105.5c0 60 -6.5 112.167 -19.5 156.5s-31.667 82.833 -56 115.5s-53 61.5 -86 86.5s-69.167 48.5 -108.5 70.5l33 47c40 -21.333 78.333 -45.833 115 -73.5s69.5 -60.334 98.5 -98.001s52 -81.167 69 -130.5s25.5 -106.333 25.5 -171
c0 -53.333 -9 -100.166 -27 -140.499s-42.833 -71.666 -74.5 -93.999s-68.834 -33.5 -111.501 -33.5zM148 503.998l-21 37l327 169l21 -38z" />
    <glyph glyph-name="ntilde" unicode="&#xf1;" horiz-adv-x="543" 
d="M85 0l0.000976562 485h60l6 -72h3c23.333 24 48.166 44 74.499 60s55.833 24 88.5 24c51.333 0 88.833 -16 112.5 -48s35.5 -79 35.5 -141v-308h-73v299c0 46.667 -7.5 80.667 -22.5 102s-39.5 32 -73.5 32c-26 0 -49.167 -6.5 -69.5 -19.5s-43.5 -32.5 -69.5 -58.5v-355
h-72zM364.001 578c-18 0 -33.4971 4.33496 -46.4971 13.002s-24.833 18.667 -35.5 30s-20.834 21.333 -30.501 30s-20.834 13 -33.501 13c-15.333 0 -26.833 -7.5 -34.5 -22.5s-12.167 -34.833 -13.5 -59.5l-50 3c1.33301 25.333 5.33301 47.833 12 67.5s17 35.5 31 47.5
s32.667 18 56 18c18 0 33.333 -4.33301 46 -13s24.334 -18.834 35.001 -30.501s21 -21.834 31 -30.501s21 -13 33 -13c16 0 27.667 7.83301 35 23.5s11.666 35.5 12.999 59.5l50 -4c-1.33301 -24 -5.33301 -46 -12 -66s-16.834 -36 -30.501 -48s-32.167 -18 -55.5 -18z" />
    <glyph glyph-name="ograve" unicode="&#xf2;" horiz-adv-x="540" 
d="M270 -12c-39.333 0 -76 10 -110 30s-61.333 48.833 -82 86.5s-31 83.5 -31 137.5c0 53.333 10.333 99.166 31 137.499s48 67.5 82 87.5s70.667 30 110 30s75.833 -10 109.5 -30s61 -49.167 82 -87.5s31.5 -84.166 31.5 -137.499c0 -54 -10.5 -99.833 -31.5 -137.5
s-48.333 -66.5 -82 -86.5s-70.167 -30 -109.5 -30zM270 49c29.333 0 55.166 8 77.499 24s39.666 38.5 51.999 67.5s18.5 62.833 18.5 101.5c0 38 -6.16699 71.667 -18.5 101s-29.666 52.166 -51.999 68.499s-48.166 24.5 -77.499 24.5
c-28.667 0 -54.167 -8.16699 -76.5 -24.5s-39.666 -39.166 -51.999 -68.499s-18.5 -63 -18.5 -101c0 -38.667 6.16699 -72.5 18.5 -101.5s29.666 -51.5 51.999 -67.5s47.833 -24 76.5 -24zM288 573l-154 153l52 48l140 -164z" />
    <glyph glyph-name="oacute" unicode="&#xf3;" horiz-adv-x="540" 
d="M270 -12c-39.333 0 -76 10 -110 30s-61.333 48.833 -82 86.5s-31 83.5 -31 137.5c0 53.333 10.333 99.166 31 137.499s48 67.5 82 87.5s70.667 30 110 30s75.833 -10 109.5 -30s61 -49.167 82 -87.5s31.5 -84.166 31.5 -137.499c0 -54 -10.5 -99.833 -31.5 -137.5
s-48.333 -66.5 -82 -86.5s-70.167 -30 -109.5 -30zM270 49c29.333 0 55.166 8 77.499 24s39.666 38.5 51.999 67.5s18.5 62.833 18.5 101.5c0 38 -6.16699 71.667 -18.5 101s-29.666 52.166 -51.999 68.499s-48.166 24.5 -77.499 24.5
c-28.667 0 -54.167 -8.16699 -76.5 -24.5s-39.666 -39.166 -51.999 -68.499s-18.5 -63 -18.5 -101c0 -38.667 6.16699 -72.5 18.5 -101.5s29.666 -51.5 51.999 -67.5s47.833 -24 76.5 -24zM252 573l-38 37l140 164l52 -48z" />
    <glyph glyph-name="ocircumflex" unicode="&#xf4;" horiz-adv-x="540" 
d="M270 -12c-39.333 0 -76 10 -110 30s-61.333 48.833 -82 86.5s-31 83.5 -31 137.5c0 53.333 10.333 99.166 31 137.499s48 67.5 82 87.5s70.667 30 110 30s75.833 -10 109.5 -30s61 -49.167 82 -87.5s31.5 -84.166 31.5 -137.499c0 -54 -10.5 -99.833 -31.5 -137.5
s-48.333 -66.5 -82 -86.5s-70.167 -30 -109.5 -30zM270 49c29.333 0 55.166 8 77.499 24s39.666 38.5 51.999 67.5s18.5 62.833 18.5 101.5c0 38 -6.16699 71.667 -18.5 101s-29.666 52.166 -51.999 68.499s-48.166 24.5 -77.499 24.5
c-28.667 0 -54.167 -8.16699 -76.5 -24.5s-39.666 -39.166 -51.999 -68.499s-18.5 -63 -18.5 -101c0 -38.667 6.16699 -72.5 18.5 -101.5s29.666 -51.5 51.999 -67.5s47.833 -24 76.5 -24zM151 569l-32 29l115 141h72l115 -141l-32 -29l-117 116h-4z" />
    <glyph glyph-name="otilde" unicode="&#xf5;" horiz-adv-x="540" 
d="M270 -12c-39.333 0 -76 10 -110 30s-61.333 48.833 -82 86.5s-31 83.5 -31 137.5c0 53.333 10.333 99.166 31 137.499s48 67.5 82 87.5s70.667 30 110 30s75.833 -10 109.5 -30s61 -49.167 82 -87.5s31.5 -84.166 31.5 -137.499c0 -54 -10.5 -99.833 -31.5 -137.5
s-48.333 -66.5 -82 -86.5s-70.167 -30 -109.5 -30zM270 49c29.333 0 55.166 8 77.499 24s39.666 38.5 51.999 67.5s18.5 62.833 18.5 101.5c0 38 -6.16699 71.667 -18.5 101s-29.666 52.166 -51.999 68.499s-48.166 24.5 -77.499 24.5
c-28.667 0 -54.167 -8.16699 -76.5 -24.5s-39.666 -39.166 -51.999 -68.499s-18.5 -63 -18.5 -101c0 -38.667 6.16699 -72.5 18.5 -101.5s29.666 -51.5 51.999 -67.5s47.833 -24 76.5 -24zM343 578c-18 0 -33.4971 4.33496 -46.4971 13.002s-24.833 18.667 -35.5 30
s-20.834 21.333 -30.501 30s-20.834 13 -33.501 13c-15.333 0 -26.833 -7.5 -34.5 -22.5s-12.167 -34.833 -13.5 -59.5l-50 3c1.33301 25.333 5.33301 47.833 12 67.5s17 35.5 31 47.5s32.667 18 56 18c18 0 33.333 -4.33301 46 -13s24.334 -18.834 35.001 -30.501
s21 -21.834 31 -30.501s21 -13 33 -13c16 0 27.667 7.83301 35 23.5s11.666 35.5 12.999 59.5l50 -4c-1.33301 -24 -5.33301 -46 -12 -66s-16.834 -36 -30.501 -48s-32.167 -18 -55.5 -18z" />
    <glyph glyph-name="odieresis" unicode="&#xf6;" horiz-adv-x="540" 
d="M270 -12c-39.333 0 -76 10 -110 30s-61.333 48.833 -82 86.5s-31 83.5 -31 137.5c0 53.333 10.333 99.166 31 137.499s48 67.5 82 87.5s70.667 30 110 30s75.833 -10 109.5 -30s61 -49.167 82 -87.5s31.5 -84.166 31.5 -137.499c0 -54 -10.5 -99.833 -31.5 -137.5
s-48.333 -66.5 -82 -86.5s-70.167 -30 -109.5 -30zM270 49c29.333 0 55.166 8 77.499 24s39.666 38.5 51.999 67.5s18.5 62.833 18.5 101.5c0 38 -6.16699 71.667 -18.5 101s-29.666 52.166 -51.999 68.499s-48.166 24.5 -77.499 24.5
c-28.667 0 -54.167 -8.16699 -76.5 -24.5s-39.666 -39.166 -51.999 -68.499s-18.5 -63 -18.5 -101c0 -38.667 6.16699 -72.5 18.5 -101.5s29.666 -51.5 51.999 -67.5s47.833 -24 76.5 -24zM364 590c-12.667 0 -23.5 4.5 -32.5 13.5s-13.5 19.833 -13.5 32.5
c0 13.333 4.5 24.5 13.5 33.5s19.833 13.5 32.5 13.5c14 0 25.333 -4.5 34 -13.5s13 -20.167 13 -33.5c0 -12.667 -4.33301 -23.5 -13 -32.5s-20 -13.5 -34 -13.5zM176 590c-13.333 0 -24.5 4.5 -33.5 13.5s-13.5 19.833 -13.5 32.5c0 13.333 4.5 24.5 13.5 33.5
s20.167 13.5 33.5 13.5s24.333 -4.5 33 -13.5s13 -20.167 13 -33.5c0 -12.667 -4.33301 -23.5 -13 -32.5s-19.667 -13.5 -33 -13.5z" />
    <glyph glyph-name="divide" unicode="&#xf7;" horiz-adv-x="492" 
d="M34 302v56h424v-56h-424zM246 99c-14 0 -25.833 4.83301 -35.5 14.5s-14.5 21.834 -14.5 36.501s4.83301 26.667 14.5 36s21.5 14 35.5 14c14.667 0 26.667 -4.66699 36 -14s14 -21.333 14 -36s-4.66699 -26.834 -14 -36.501s-21.333 -14.5 -36 -14.5zM246 459
c-14 0 -25.833 4.83301 -35.5 14.5s-14.5 21.834 -14.5 36.501s4.83301 26.667 14.5 36s21.5 14 35.5 14c14.667 0 26.667 -4.66699 36 -14s14 -21.333 14 -36s-4.66699 -26.834 -14 -36.501s-21.333 -14.5 -36 -14.5z" />
    <glyph glyph-name="oslash" unicode="&#xf8;" horiz-adv-x="540" 
d="M80 -23l-34 27l414 503l34 -27zM270 -12c-39.333 0 -76 10 -110 30s-61.333 48.833 -82 86.5s-31 83.5 -31 137.5c0 53.333 10.333 99.166 31 137.499s48 67.5 82 87.5s70.667 30 110 30s75.833 -10 109.5 -30s61 -49.167 82 -87.5s31.5 -84.166 31.5 -137.499
c0 -54 -10.5 -99.833 -31.5 -137.5s-48.333 -66.5 -82 -86.5s-70.167 -30 -109.5 -30zM270 47c29.333 0 55.335 8 78.002 24s40.5 38.5 53.5 67.5s19.5 62.5 19.5 100.5c0 40.667 -6.33301 75.834 -19 105.501s-30.5 52.5 -53.5 68.5s-49.167 24 -78.5 24
c-28.667 0 -54.334 -8 -77.001 -24s-40.5 -38.5 -53.5 -67.5s-19.5 -62.5 -19.5 -100.5c0 -40.667 6.5 -75.834 19.5 -105.501s30.667 -52.5 53 -68.5s48.166 -24 77.499 -24z" />
    <glyph glyph-name="ugrave" unicode="&#xf9;" horiz-adv-x="540" 
d="M225 -12c-50 0 -87 16.001 -111 48.001s-36 79 -36 141v308h72v-299c0 -46.667 7.66699 -80.834 23 -102.501s40 -32.5 74 -32.5c25.333 0 48.333 6.83301 69 20.5s43 35.5 67 65.5v348h73v-485h-61l-6 77h-3c-22.667 -26.667 -46.667 -48.167 -72 -64.5
s-55 -24.5 -89 -24.5zM291 573.001l-154 153l52 48l140 -164z" />
    <glyph glyph-name="uacute" unicode="&#xfa;" horiz-adv-x="540" 
d="M225 -12c-50 0 -87 16.001 -111 48.001s-36 79 -36 141v308h72v-299c0 -46.667 7.66699 -80.834 23 -102.501s40 -32.5 74 -32.5c25.333 0 48.333 6.83301 69 20.5s43 35.5 67 65.5v348h73v-485h-61l-6 77h-3c-22.667 -26.667 -46.667 -48.167 -72 -64.5
s-55 -24.5 -89 -24.5zM255 573.001l-38 37l140 164l52 -48z" />
    <glyph glyph-name="ucircumflex" unicode="&#xfb;" horiz-adv-x="540" 
d="M225 -12c-50 0 -87 16.001 -111 48.001s-36 79 -36 141v308h72v-299c0 -46.667 7.66699 -80.834 23 -102.501s40 -32.5 74 -32.5c25.333 0 48.333 6.83301 69 20.5s43 35.5 67 65.5v348h73v-485h-61l-6 77h-3c-22.667 -26.667 -46.667 -48.167 -72 -64.5
s-55 -24.5 -89 -24.5zM154 569.001l-32 29l115 141h72l115 -141l-32 -29l-117 116h-4z" />
    <glyph glyph-name="udieresis" unicode="&#xfc;" horiz-adv-x="540" 
d="M225 -12c-50 0 -87 16.001 -111 48.001s-36 79 -36 141v308h72v-299c0 -46.667 7.66699 -80.834 23 -102.501s40 -32.5 74 -32.5c25.333 0 48.333 6.83301 69 20.5s43 35.5 67 65.5v348h73v-485h-61l-6 77h-3c-22.667 -26.667 -46.667 -48.167 -72 -64.5
s-55 -24.5 -89 -24.5zM367 590.001c-12.667 0 -23.5 4.5 -32.5 13.5s-13.5 19.833 -13.5 32.5c0 13.333 4.5 24.5 13.5 33.5s19.833 13.5 32.5 13.5c14 0 25.333 -4.5 34 -13.5s13 -20.167 13 -33.5c0 -12.667 -4.33301 -23.5 -13 -32.5s-20 -13.5 -34 -13.5zM179 590.001
c-13.333 0 -24.5 4.5 -33.5 13.5s-13.5 19.833 -13.5 32.5c0 13.333 4.5 24.5 13.5 33.5s20.167 13.5 33.5 13.5s24.333 -4.5 33 -13.5s13 -20.167 13 -33.5c0 -12.667 -4.33301 -23.5 -13 -32.5s-19.667 -13.5 -33 -13.5z" />
    <glyph glyph-name="yacute" unicode="&#xfd;" horiz-adv-x="459" 
d="M86 -212c-10.667 0 -20.6709 1.00098 -30.0039 3.00098s-17.666 4.33301 -24.999 7l14 59c5.33301 -2 11.5 -3.83301 18.5 -5.5s13.5 -2.5 19.5 -2.5c28 0 51.333 10.5 70 31.5s33 47.5 43 79.5l12 37l-196 488h75l104 -278l24 -66.5
c8.66699 -23.667 16.667 -46.834 24 -69.501h4c7.33301 22 14.5 44.833 21.5 68.5l20.5 67.5l91 278h71l-184 -530c-11.333 -30.667 -24.666 -58.667 -39.999 -84s-34.166 -45.5 -56.499 -60.5s-49.166 -22.5 -80.499 -22.5zM222.996 573.001l-38 37l140 164l52 -48z" />
    <glyph glyph-name="thorn" unicode="&#xfe;" horiz-adv-x="552" 
d="M85 -208l0.000976562 921.998h72v-197l-1 -85c22 17.333 46 32.5 72 45.5s52.667 19.5 80 19.5c42.667 0 78.5 -10.167 107.5 -30.5s50.833 -49.166 65.5 -86.499s22 -80.666 22 -129.999c0 -55.333 -9.83301 -102.5 -29.5 -141.5s-45.5 -68.833 -77.5 -89.5
s-66.333 -31 -103 -31c-23.333 0 -46.333 4.83301 -69 14.5s-45.334 23.167 -68.001 40.5l1 -84v-167h-72zM281.001 49.998c28.667 0 53.998 8 75.998 24s39.333 39 52 69s19 65.333 19 106c0 36.667 -4.5 69 -13.5 97s-23.333 49.833 -43 65.5s-45.5 23.5 -77.5 23.5
c-21.333 0 -43.166 -5.83301 -65.499 -17.5s-46.166 -29.167 -71.499 -52.5v-262c23.333 -19.333 45.833 -33 67.5 -41s40.5 -12 56.5 -12z" />
    <glyph glyph-name="ydieresis" unicode="&#xff;" horiz-adv-x="459" 
d="M86 -212c-10.667 0 -20.6709 1.00098 -30.0039 3.00098s-17.666 4.33301 -24.999 7l14 59c5.33301 -2 11.5 -3.83301 18.5 -5.5s13.5 -2.5 19.5 -2.5c28 0 51.333 10.5 70 31.5s33 47.5 43 79.5l12 37l-196 488h75l104 -278l24 -66.5
c8.66699 -23.667 16.667 -46.834 24 -69.501h4c7.33301 22 14.5 44.833 21.5 68.5l20.5 67.5l91 278h71l-184 -530c-11.333 -30.667 -24.666 -58.667 -39.999 -84s-34.166 -45.5 -56.499 -60.5s-49.166 -22.5 -80.499 -22.5zM334.996 590.001
c-12.667 0 -23.5 4.5 -32.5 13.5s-13.5 19.833 -13.5 32.5c0 13.333 4.5 24.5 13.5 33.5s19.833 13.5 32.5 13.5c14 0 25.333 -4.5 34 -13.5s13 -20.167 13 -33.5c0 -12.667 -4.33301 -23.5 -13 -32.5s-20 -13.5 -34 -13.5zM146.996 590.001c-13.333 0 -24.5 4.5 -33.5 13.5
s-13.5 19.833 -13.5 32.5c0 13.333 4.5 24.5 13.5 33.5s20.167 13.5 33.5 13.5s24.333 -4.5 33 -13.5s13 -20.167 13 -33.5c0 -12.667 -4.33301 -23.5 -13 -32.5s-19.667 -13.5 -33 -13.5z" />
    <glyph glyph-name="Amacron" unicode="&#x100;" horiz-adv-x="539" 
d="M4 0l225 656.999h82l224 -657h-78l-119 372l-34.5 110.5l-33.5 112.5h-4c-10 -38.667 -20.5 -76.167 -31.5 -112.5s-22.833 -73.166 -35.5 -110.499l-120 -372h-75zM118 206.999v59h300v-59h-300zM137 736.999v52h262v-52h-262z" />
    <glyph glyph-name="amacron" unicode="&#x101;" horiz-adv-x="501" 
d="M195 -12c-26.667 0 -50.667 5.33594 -72 16.0029s-38.333 26.167 -51 46.5s-19 44.833 -19 73.5c0 53.333 24.167 94.166 72.5 122.499s124.833 48.166 229.5 59.499c0 21.333 -2.83301 42.166 -8.5 62.499s-16 36.666 -31 48.999s-36.5 18.5 -64.5 18.5
c-29.333 0 -56.5 -5.66699 -81.5 -17s-46.833 -23.333 -65.5 -36l-29 50c14 9.33301 30.667 19 50 29s40.666 18.333 63.999 25s48 10 74 10c38.667 0 70.167 -8.33301 94.5 -25s42 -39.667 53 -69s16.5 -63.666 16.5 -102.999v-300h-60l-6 59h-3
c-23.333 -19.333 -48.666 -36 -75.999 -50s-56.333 -21 -87 -21zM214 47.0029c24.667 0 47.999 5.83496 69.999 17.502s45.667 28.5 71 50.5v142c-57.333 -6.66699 -102.666 -15.834 -135.999 -27.501s-57.333 -25.834 -72 -42.501s-22 -36 -22 -58
c0 -28.667 8.83301 -49.5 26.5 -62.5s38.5 -19.5 62.5 -19.5zM138.999 602.005v52h260v-52h-260z" />
    <glyph glyph-name="Abreve" unicode="&#x102;" horiz-adv-x="539" 
d="M4 0l225 656.999h82l224 -657h-78l-119 372l-34.5 110.5l-33.5 112.5h-4c-10 -38.667 -20.5 -76.167 -31.5 -112.5s-22.833 -73.166 -35.5 -110.499l-120 -372h-75zM118 206.999v59h300v-59h-300zM268 706.999c-30 0 -55.167 5.83301 -75.5 17.5s-36 27.334 -47 47.001
s-17.833 40.5 -20.5 62.5l45 8c4 -24 14 -44.667 30 -62s38.667 -26 68 -26s52 8.66699 68 26s26 38 30 62l45 -8c-2 -22 -8.66699 -42.833 -20 -62.5s-27 -35.334 -47 -47.001s-45.333 -17.5 -76 -17.5z" />
    <glyph glyph-name="abreve" unicode="&#x103;" horiz-adv-x="501" 
d="M195 -12c-26.667 0 -50.667 5.33594 -72 16.0029s-38.333 26.167 -51 46.5s-19 44.833 -19 73.5c0 53.333 24.167 94.166 72.5 122.499s124.833 48.166 229.5 59.499c0 21.333 -2.83301 42.166 -8.5 62.499s-16 36.666 -31 48.999s-36.5 18.5 -64.5 18.5
c-29.333 0 -56.5 -5.66699 -81.5 -17s-46.833 -23.333 -65.5 -36l-29 50c14 9.33301 30.667 19 50 29s40.666 18.333 63.999 25s48 10 74 10c38.667 0 70.167 -8.33301 94.5 -25s42 -39.667 53 -69s16.5 -63.666 16.5 -102.999v-300h-60l-6 59h-3
c-23.333 -19.333 -48.666 -36 -75.999 -50s-56.333 -21 -87 -21zM214 47.0029c24.667 0 47.999 5.83496 69.999 17.502s45.667 28.5 71 50.5v142c-57.333 -6.66699 -102.666 -15.834 -135.999 -27.501s-57.333 -25.834 -72 -42.501s-22 -36 -22 -58
c0 -28.667 8.83301 -49.5 26.5 -62.5s38.5 -19.5 62.5 -19.5zM268.999 571.005c-34.667 0 -63.167 7.5 -85.5 22.5s-38.833 34 -49.5 57s-17 46.5 -19 70.5l47 7c2 -17.333 7.33301 -34.166 16 -50.499s20.5 -29.833 35.5 -40.5s33.5 -16 55.5 -16
c22.667 0 41.5 5.33301 56.5 16s26.667 24.167 35 40.5s13.5 33.166 15.5 50.499l47 -7c-2 -24 -8.33301 -47.5 -19 -70.5s-27 -42 -49 -57s-50.667 -22.5 -86 -22.5z" />
    <glyph glyph-name="Ccaron" unicode="&#x10c;" horiz-adv-x="569" 
d="M336 -12c-54.667 0 -103.331 13.5 -145.998 40.5s-76.334 66 -101.001 117s-37 111.833 -37 182.5c0 53.333 7.16699 100.833 21.5 142.5s34.5 77.5 60.5 107.5s56.667 52.667 92 68s73.666 23 114.999 23c40 0 75.167 -8.16699 105.5 -24.5s54.5 -34.833 72.5 -55.5
l-41 -49c-17.333 19.333 -37.166 34.833 -59.499 46.5s-47.833 17.5 -76.5 17.5c-42.667 0 -80 -11.167 -112 -33.5s-56.833 -54 -74.5 -95s-26.5 -89.5 -26.5 -145.5c0 -56.667 8.5 -105.667 25.5 -147s41.333 -73.333 73 -96s68.834 -34 111.501 -34
c32 0 60.667 6.66699 86 20s48.666 32 69.999 56l41 -46c-25.333 -30 -54.333 -53.333 -87 -70s-70.334 -25 -113.001 -25zM289.003 707l-106 113l32 24l110 -94h4l110 94l32 -24l-106 -113h-76z" />
    <glyph glyph-name="ccaron" unicode="&#x10d;" horiz-adv-x="454" 
d="M273 -12c-42.667 0 -80.999 10.001 -114.999 30.001s-61 48.833 -81 86.5s-30 83.5 -30 137.5c0 53.333 10.833 99.166 32.5 137.499s49.834 67.5 84.501 87.5s72.667 30 114 30c32 0 59.333 -5.83301 82 -17.5s42.334 -25.167 59.001 -40.5l-38 -48
c-14 13.333 -29.167 24.166 -45.5 32.499s-34.5 12.5 -54.5 12.5c-30.667 0 -57.834 -8.16699 -81.501 -24.5s-42.334 -39.166 -56.001 -68.499s-20.5 -63 -20.5 -101c0 -38.667 6.5 -72.5 19.5 -101.5s31.167 -51.5 54.5 -67.5s50.666 -24 81.999 -24
c23.333 0 45 4.83301 65 14.5s37.667 21.5 53 35.5l32 -49c-21.333 -19.333 -45.333 -34.5 -72 -45.5s-54.667 -16.5 -84 -16.5zM236.001 574.001l-115 140l32 30l117 -117h4l117 117l32 -30l-115 -140h-72z" />
    <glyph glyph-name="Emacron" unicode="&#x112;" horiz-adv-x="524" 
d="M92 0v657h373v-63h-299v-217h252v-62h-252v-252h309v-63h-383zM153 737v52h262v-52h-262z" />
    <glyph glyph-name="emacron" unicode="&#x113;" horiz-adv-x="492" 
d="M277 -12c-42.667 0 -81.3311 10.1709 -115.998 30.5039s-62.334 49.333 -83.001 87s-31 83.167 -31 136.5c0 52 10.333 97.167 31 135.5s47.5 67.833 80.5 88.5s68.167 31 105.5 31c40 0 74.333 -9.33301 103 -28s50.5 -44.834 65.5 -78.501s22.5 -73.834 22.5 -120.501
c0 -7.33301 -0.333008 -15 -1 -23s-1.66699 -15 -3 -21h-347l-1 53h287c0 52 -11 91.5 -33 118.5s-52.667 40.5 -92 40.5c-24 0 -47.333 -6.83301 -70 -20.5s-41.334 -35 -56.001 -64s-22 -66.167 -22 -111.5c0 -43.333 7.66699 -79.333 23 -108
s35.833 -50.334 61.5 -65.001s53.834 -22 84.501 -22c24 0 46 3.66699 66 11s39 16.666 57 27.999l27 -48c-20.667 -13.333 -43.834 -25 -69.501 -35s-55.5 -15 -89.5 -15zM136.003 602.004v52h260v-52h-260z" />
    <glyph glyph-name="Ebreve" unicode="&#x114;" horiz-adv-x="524" 
d="M92 0v657h373v-63h-299v-217h252v-62h-252v-252h309v-63h-383zM284 707c-30 0 -55.167 5.83301 -75.5 17.5s-36 27.334 -47 47.001s-17.833 40.5 -20.5 62.5l45 8c4 -24 14 -44.667 30 -62s38.667 -26 68 -26s52 8.66699 68 26s26 38 30 62l45 -8
c-2 -22 -8.66699 -42.833 -20 -62.5s-27 -35.334 -47 -47.001s-45.333 -17.5 -76 -17.5z" />
    <glyph glyph-name="ebreve" unicode="&#x115;" horiz-adv-x="492" 
d="M277 -12c-42.667 0 -81.3311 10.1709 -115.998 30.5039s-62.334 49.333 -83.001 87s-31 83.167 -31 136.5c0 52 10.333 97.167 31 135.5s47.5 67.833 80.5 88.5s68.167 31 105.5 31c40 0 74.333 -9.33301 103 -28s50.5 -44.834 65.5 -78.501s22.5 -73.834 22.5 -120.501
c0 -7.33301 -0.333008 -15 -1 -23s-1.66699 -15 -3 -21h-347l-1 53h287c0 52 -11 91.5 -33 118.5s-52.667 40.5 -92 40.5c-24 0 -47.333 -6.83301 -70 -20.5s-41.334 -35 -56.001 -64s-22 -66.167 -22 -111.5c0 -43.333 7.66699 -79.333 23 -108
s35.833 -50.334 61.5 -65.001s53.834 -22 84.501 -22c24 0 46 3.66699 66 11s39 16.666 57 27.999l27 -48c-20.667 -13.333 -43.834 -25 -69.501 -35s-55.5 -15 -89.5 -15zM266.003 571.004c-34.667 0 -63.167 7.5 -85.5 22.5s-38.833 34 -49.5 57s-17 46.5 -19 70.5l47 7
c2 -17.333 7.33301 -34.166 16 -50.499s20.5 -29.833 35.5 -40.5s33.5 -16 55.5 -16c22.667 0 41.5 5.33301 56.5 16s26.667 24.167 35 40.5s13.5 33.166 15.5 50.499l47 -7c-2 -24 -8.33301 -47.5 -19 -70.5s-27 -42 -49 -57s-50.667 -22.5 -86 -22.5z" />
    <glyph glyph-name="Eogonek" unicode="&#x118;" horiz-adv-x="524" 
d="M414 -210c-25.333 0 -46.998 7.33203 -64.998 21.999s-27 36 -27 64c0 18 3.5 34.833 10.5 50.5s16.167 29.834 27.5 42.501s23.333 23 36 31h-304v657h373v-63h-299v-217h252v-62h-252v-252h309v-63h-3c-14.667 -2.66699 -29.167 -9.16699 -43.5 -19.5
s-26 -23.333 -35 -39s-13.5 -32.5 -13.5 -50.5c0 -16.667 5 -28.834 15 -36.501s21 -11.5 33 -11.5c8.66699 0 16.167 1.33301 22.5 4s12.5 6 18.5 10l21 -40c-8.66699 -7.33301 -20.334 -13.666 -35.001 -18.999s-28.334 -8 -41.001 -8z" />
    <glyph glyph-name="eogonek" unicode="&#x119;" horiz-adv-x="492" 
d="M357 -205c-24.667 0 -45.4961 7.00195 -62.4961 21.002s-25.5 35 -25.5 63c0 25.333 6.83301 48.166 20.5 68.499s27.167 36.5 40.5 48.5c-8.66699 -3.33301 -17.334 -5.5 -26.001 -6.5s-17.667 -1.5 -27 -1.5c-42.667 0 -81.334 10.167 -116.001 30.5
s-62.334 49.333 -83.001 87s-31 83.167 -31 136.5c0 52 10.333 97.167 31 135.5s47.5 67.833 80.5 88.5s68.167 31 105.5 31c40 0 74.333 -9.33301 103 -28s50.5 -44.834 65.5 -78.501s22.5 -73.834 22.5 -120.501c0 -7.33301 -0.333008 -15 -1 -23s-1.66699 -15 -3 -21
h-331c1.33301 -36 9.16602 -67.333 23.499 -94s33.666 -47.5 57.999 -62.5s52.5 -22.5 84.5 -22.5c24 0 46 3.66699 66 11s39 16.666 57 27.999l27 -48c-29.333 -21.333 -52.166 -40.166 -68.499 -56.499s-27.666 -31.666 -33.999 -45.999s-9.5 -28.5 -9.5 -42.5
c0 -16 4.83301 -28 14.5 -36s20.5 -12 32.5 -12c8.66699 0 16.167 1.16699 22.5 3.5s12.5 5.5 18.5 9.5l20 -37c-8.66699 -7.33301 -20.334 -13.5 -35.001 -18.5s-28 -7.5 -40 -7.5zM119.004 279.002h271c0 52 -11 91.5 -33 118.5s-52.667 40.5 -92 40.5
c-24 0 -46.5 -6.16699 -67.5 -18.5s-38.5 -30.5 -52.5 -54.5s-22.667 -52.667 -26 -86z" />
    <glyph glyph-name="Gdotaccent" unicode="&#x120;" horiz-adv-x="614" 
d="M345 -12c-57.333 0 -107.996 13.501 -151.996 40.501s-78.5 66 -103.5 117s-37.5 111.833 -37.5 182.5c0 53.333 7.5 100.833 22.5 142.5s35.833 77.5 62.5 107.5s58.167 52.667 94.5 68s76.166 23 119.499 23c45.333 0 83.166 -8.5 113.499 -25.5
s54.833 -35.167 73.5 -54.5l-41 -49c-16.667 18 -36.334 33.167 -59.001 45.5s-51 18.5 -85 18.5c-46 0 -85.667 -11.167 -119 -33.5s-59.166 -54 -77.499 -95s-27.5 -89.5 -27.5 -145.5c0 -56.667 8.66699 -105.667 26 -147s42.666 -73.333 75.999 -96
s73.666 -34 120.999 -34c25.333 0 49.333 3.66699 72 11s40.667 17.666 54 30.999v179h-144v62h212v-272c-20.667 -22 -48.167 -40.167 -82.5 -54.5s-73.833 -21.5 -118.5 -21.5zM351.004 716.001c-14.667 0 -27.167 4.66699 -37.5 14s-15.5 21.666 -15.5 36.999
c0 14 5.16699 25.667 15.5 35s22.833 14 37.5 14s27.167 -4.66699 37.5 -14s15.5 -21 15.5 -35c0 -15.333 -5.16699 -27.666 -15.5 -36.999s-22.833 -14 -37.5 -14z" />
    <glyph glyph-name="gdotaccent" unicode="&#x121;" horiz-adv-x="500" 
d="M247 -226c-40 0 -75 5.33008 -105 15.9971s-53.333 25.667 -70 45s-25 42.666 -25 69.999c0 21.333 6.33301 41.666 19 60.999s30 36.333 52 51v4c-12 8 -22.167 18.5 -30.5 31.5s-12.5 28.833 -12.5 47.5c0 20.667 5.83301 38.667 17.5 54s23.5 27.333 35.5 36v4
c-15.333 12.667 -29.5 30.334 -42.5 53.001s-19.5 48.334 -19.5 77.001c0 35.333 8.16699 65.833 24.5 91.5s38 45.667 65 60s56.833 21.5 89.5 21.5c13.333 0 25.833 -1.16699 37.5 -3.5s21.5 -5.16602 29.5 -8.49902h168v-57h-103c12.667 -12 23 -27 31 -45s12 -38 12 -60
c0 -34.667 -7.83301 -64.5 -23.5 -89.5s-36.667 -44.5 -63 -58.5s-55.833 -21 -88.5 -21c-12.667 0 -25.334 1.5 -38.001 4.5s-24.667 7.16699 -36 12.5c-9.33301 -7.33301 -17.166 -15.666 -23.499 -24.999s-9.5 -21 -9.5 -35c0 -16 6.16699 -29.167 18.5 -39.5
s34.833 -15.5 67.5 -15.5h97c56 0 97.833 -9.16699 125.5 -27.5s41.5 -47.5 41.5 -87.5c0 -29.333 -9.83301 -56.666 -29.5 -81.999s-47.5 -45.833 -83.5 -61.5s-78.667 -23.5 -128 -23.5zM257 -174.003c32 0 59.8311 5.00098 83.498 15.001s42.167 23 55.5 39s20 33 20 51
c0 23.333 -8.5 39.666 -25.5 48.999s-42.167 14 -75.5 14h-89c-7.33301 0 -16.666 0.666992 -27.999 2s-22.666 3.33301 -33.999 6c-18.667 -13.333 -32.167 -27.5 -40.5 -42.5s-12.5 -29.833 -12.5 -44.5c0 -27.333 13 -49 39 -65s61.667 -24 107 -24zM244.998 203.998
c19.333 0 37.167 4.99805 53.5 14.998s29.5 24 39.5 42s15 39 15 63c0 24.667 -4.83301 45.834 -14.5 63.501s-22.667 31.334 -39 41.001s-34.5 14.5 -54.5 14.5c-30 0 -55.667 -10.5 -77 -31.5s-32 -50.167 -32 -87.5c0 -24 5 -45 15 -63s23.167 -32 39.5 -42
s34.5 -15 54.5 -15zM257.999 588.996c-14 0 -25.833 4.66699 -35.5 14s-14.5 21.666 -14.5 36.999c0 14 4.83301 25.667 14.5 35s21.5 14 35.5 14c14.667 0 26.667 -4.66699 36 -14s14 -21 14 -35c0 -15.333 -4.66699 -27.666 -14 -36.999s-21.333 -14 -36 -14z" />
    <glyph glyph-name="Hbar" unicode="&#x126;" horiz-adv-x="683" 
d="M33 492v39l81 5h536v-44h-617zM112 0v657h74v-278h317v278h74v-657h-74v314h-317v-314h-74z" />
    <glyph glyph-name="hbar" unicode="&#x127;" horiz-adv-x="540" 
d="M85 0v714h72v-236l-2 -102c23.333 23.333 48 43 74 59s55.333 24 88 24c51.333 0 88.833 -16 112.5 -48s35.5 -79 35.5 -141v-270h-73v261c0 46.667 -7.5 80.667 -22.5 102s-39.5 32 -73.5 32c-26 0 -49.167 -6.5 -69.5 -19.5s-43.5 -32.5 -69.5 -58.5v-317h-72zM10 574
v39l78 4h253v-43h-331z" />
    <glyph glyph-name="Imacron" unicode="&#x12a;" horiz-adv-x="257" 
d="M92 0v657h74v-657h-74zM-2 737v52h262v-52h-262z" />
    <glyph glyph-name="imacron" unicode="&#x12b;" horiz-adv-x="242" 
d="M85 0v485h72v-485h-72zM-8 602v52h260v-52h-260z" />
    <glyph glyph-name="dotlessi" unicode="&#x131;" horiz-adv-x="242" 
d="M85 0v485h72v-485h-72z" />
    <glyph glyph-name="Lslash" unicode="&#x141;" horiz-adv-x="483" 
d="M24 204l-27 47l110 59l49 21l193 103l27 -48l-220 -116l-49 -20zM97 0v657h74v-594h291v-63h-365z" />
    <glyph glyph-name="lslash" unicode="&#x142;" horiz-adv-x="256" 
d="M29 302l-28 47l96 60l48 22l70 45l27 -47l-97 -61l-48 -23zM168 -12c-18.667 0 -33.832 3.83301 -45.499 11.5s-20.334 19 -26.001 34s-8.5 33.5 -8.5 55.5v625h73v-631c0 -12 2.16699 -20.667 6.5 -26s9.5 -8 15.5 -8c2.66699 0 5.16699 0.166992 7.5 0.5l10.5 1.5
l10 -56c-5.33301 -2 -11.333 -3.66699 -18 -5s-15 -2 -25 -2z" />
    <glyph glyph-name="Omacron" unicode="&#x14c;" horiz-adv-x="661" 
d="M331 -12c-54.667 0 -102.834 14 -144.501 42s-74.5 67.667 -98.5 119s-36 112 -36 182s12 130.333 36 181s56.833 89.5 98.5 116.5s89.834 40.5 144.501 40.5c54 0 102 -13.5 144 -40.5s74.833 -65.833 98.5 -116.5s35.5 -111 35.5 -181s-11.833 -130.667 -35.5 -182
s-56.5 -91 -98.5 -119s-90 -42 -144 -42zM331 53c40 0 75.167 11.5 105.5 34.5s53.833 55.333 70.5 97s25 90.5 25 146.5s-8.33301 104.333 -25 145s-40.167 72.167 -70.5 94.5s-65.5 33.5 -105.5 33.5c-40.667 0 -76.167 -11.167 -106.5 -33.5s-53.833 -53.833 -70.5 -94.5
s-25 -89 -25 -145s8.33301 -104.833 25 -146.5s40.167 -74 70.5 -97s65.833 -34.5 106.5 -34.5zM200 737v52h262v-52h-262z" />
    <glyph glyph-name="omacron" unicode="&#x14d;" horiz-adv-x="540" 
d="M270 -12c-39.333 0 -76 10 -110 30s-61.333 48.833 -82 86.5s-31 83.5 -31 137.5c0 53.333 10.333 99.166 31 137.499s48 67.5 82 87.5s70.667 30 110 30s75.833 -10 109.5 -30s61 -49.167 82 -87.5s31.5 -84.166 31.5 -137.499c0 -54 -10.5 -99.833 -31.5 -137.5
s-48.333 -66.5 -82 -86.5s-70.167 -30 -109.5 -30zM270 49c29.333 0 55.166 8 77.499 24s39.666 38.5 51.999 67.5s18.5 62.833 18.5 101.5c0 38 -6.16699 71.667 -18.5 101s-29.666 52.166 -51.999 68.499s-48.166 24.5 -77.499 24.5
c-28.667 0 -54.167 -8.16699 -76.5 -24.5s-39.666 -39.166 -51.999 -68.499s-18.5 -63 -18.5 -101c0 -38.667 6.16699 -72.5 18.5 -101.5s29.666 -51.5 51.999 -67.5s47.833 -24 76.5 -24zM140 602v52h260v-52h-260z" />
    <glyph glyph-name="Obreve" unicode="&#x14e;" horiz-adv-x="661" 
d="M331 -12c-54.667 0 -102.834 14 -144.501 42s-74.5 67.667 -98.5 119s-36 112 -36 182s12 130.333 36 181s56.833 89.5 98.5 116.5s89.834 40.5 144.501 40.5c54 0 102 -13.5 144 -40.5s74.833 -65.833 98.5 -116.5s35.5 -111 35.5 -181s-11.833 -130.667 -35.5 -182
s-56.5 -91 -98.5 -119s-90 -42 -144 -42zM331 53c40 0 75.167 11.5 105.5 34.5s53.833 55.333 70.5 97s25 90.5 25 146.5s-8.33301 104.333 -25 145s-40.167 72.167 -70.5 94.5s-65.5 33.5 -105.5 33.5c-40.667 0 -76.167 -11.167 -106.5 -33.5s-53.833 -53.833 -70.5 -94.5
s-25 -89 -25 -145s8.33301 -104.833 25 -146.5s40.167 -74 70.5 -97s65.833 -34.5 106.5 -34.5zM331 707c-30 0 -55.167 5.83301 -75.5 17.5s-36 27.334 -47 47.001s-17.833 40.5 -20.5 62.5l45 8c4 -24 14 -44.667 30 -62s38.667 -26 68 -26s52 8.66699 68 26s26 38 30 62
l45 -8c-2 -22 -8.66699 -42.833 -20 -62.5s-27 -35.334 -47 -47.001s-45.333 -17.5 -76 -17.5z" />
    <glyph glyph-name="obreve" unicode="&#x14f;" horiz-adv-x="540" 
d="M270 -12c-39.333 0 -76 10 -110 30s-61.333 48.833 -82 86.5s-31 83.5 -31 137.5c0 53.333 10.333 99.166 31 137.499s48 67.5 82 87.5s70.667 30 110 30s75.833 -10 109.5 -30s61 -49.167 82 -87.5s31.5 -84.166 31.5 -137.499c0 -54 -10.5 -99.833 -31.5 -137.5
s-48.333 -66.5 -82 -86.5s-70.167 -30 -109.5 -30zM270 49c29.333 0 55.166 8 77.499 24s39.666 38.5 51.999 67.5s18.5 62.833 18.5 101.5c0 38 -6.16699 71.667 -18.5 101s-29.666 52.166 -51.999 68.499s-48.166 24.5 -77.499 24.5
c-28.667 0 -54.167 -8.16699 -76.5 -24.5s-39.666 -39.166 -51.999 -68.499s-18.5 -63 -18.5 -101c0 -38.667 6.16699 -72.5 18.5 -101.5s29.666 -51.5 51.999 -67.5s47.833 -24 76.5 -24zM270 571c-34.667 0 -63.167 7.5 -85.5 22.5s-38.833 34 -49.5 57s-17 46.5 -19 70.5
l47 7c2 -17.333 7.33301 -34.166 16 -50.499s20.5 -29.833 35.5 -40.5s33.5 -16 55.5 -16c22.667 0 41.5 5.33301 56.5 16s26.667 24.167 35 40.5s13.5 33.166 15.5 50.499l47 -7c-2 -24 -8.33301 -47.5 -19 -70.5s-27 -42 -49 -57s-50.667 -22.5 -86 -22.5z" />
    <glyph glyph-name="OE" unicode="&#x152;" horiz-adv-x="844" 
d="M368 0c-66.667 0 -123.667 13.1641 -171 39.4971s-83.333 64.333 -108 114s-37 108.834 -37 177.501s12.5 127.334 37.5 176.001s61.167 85.834 108.5 111.501s105 38.5 173 38.5h414v-63h-282v-217h235v-62h-235v-252h292v-63h-427zM377 60.9971l52 0.000976562v535h-52
c-54.667 0 -100.5 -10.333 -137.5 -31s-64.667 -50.834 -83 -90.501s-27.5 -87.5 -27.5 -143.5s9.16699 -104.167 27.5 -144.5s46 -71.333 83 -93s82.833 -32.5 137.5 -32.5z" />
    <glyph glyph-name="oe" unicode="&#x153;" horiz-adv-x="841" 
d="M264 -12c-38.667 0 -74.4971 9.99902 -107.497 29.999s-59.5 48.833 -79.5 86.5s-30 83.5 -30 137.5c0 53.333 10.167 99.166 30.5 137.499s47 67.5 80 87.5s68.833 30 107.5 30c38 0 73 -10.833 105 -32.5s56.667 -53.5 74 -95.5c18.667 39.333 43.167 70.5 73.5 93.5
s63.5 34.5 99.5 34.5c39.333 0 73 -9.33301 101 -28s49.333 -45 64 -79s22 -74.333 22 -121c0 -8 -0.333008 -15.667 -1 -23s-1.66699 -14 -3 -20h-323c0.666992 -35.333 8.16699 -66.333 22.5 -93s33.333 -47.5 57 -62.5s49.834 -22.5 78.501 -22.5
c24 0 45.833 3.83301 65.5 11.5s38.5 17.5 56.5 29.5l27 -51c-20 -13.333 -42.833 -25 -68.5 -35s-55.5 -15 -89.5 -15c-38.667 0 -73.834 11.333 -105.501 34s-56.834 53.334 -75.501 92.001c-18.667 -41.333 -43.334 -72.666 -74.001 -93.999s-66.334 -32 -107.001 -32z
M265.003 48.999c28 0 52.833 8 74.5 24s38.667 38.5 51 67.5s18.5 62.833 18.5 101.5c0 38 -6.16699 71.667 -18.5 101s-29.333 52.166 -51 68.499s-46.5 24.5 -74.5 24.5s-52.667 -8.16699 -74 -24.5s-38.166 -39.166 -50.499 -68.499s-18.5 -63 -18.5 -101
c0 -38.667 6.16699 -72.5 18.5 -101.5s29.166 -51.5 50.499 -67.5s46 -24 74 -24zM477.003 274.999l262 -0.00195312c0 53.333 -10.833 93.833 -32.5 121.5s-52.167 41.5 -91.5 41.5c-23.333 0 -44.833 -6.66699 -64.5 -20s-36 -32.166 -49 -56.499
s-21.167 -53.166 -24.5 -86.499z" />
    <glyph glyph-name="Sacute" unicode="&#x15a;" horiz-adv-x="530" 
d="M271 -12c-46 0 -88.3281 8.99902 -126.995 26.999s-72.334 41.667 -101.001 71l45 51c24 -25.333 51.833 -45.666 83.5 -60.999s65.167 -23 100.5 -23c45.333 0 80.666 10.5 105.999 31.5s38 48.5 38 82.5c0 23.333 -5 42.166 -15 56.499s-23.333 26.333 -40 36
s-35.667 19.167 -57 28.5l-95 42c-20 8.66699 -40.333 20 -61 34s-37.834 31.667 -51.501 53s-20.5 48.333 -20.5 81c0 33.333 8.83301 62.833 26.5 88.5s41.667 45.834 72 60.501s64.833 22 103.5 22c39.333 0 75.5 -7.66699 108.5 -23s60.5 -34.666 82.5 -57.999l-40 -47
c-19.333 19.333 -41.5 34.666 -66.5 45.999s-53.167 17 -84.5 17c-38 0 -68.833 -9.16699 -92.5 -27.5s-35.5 -43.166 -35.5 -74.499c0 -22 5.66699 -40 17 -54s25.5 -25.5 42.5 -34.5s33.833 -17.167 50.5 -24.5l95 -42c25.333 -10.667 48.166 -23.334 68.499 -38.001
s36.666 -33 48.999 -55s18.5 -49.333 18.5 -82c0 -34 -8.83301 -65 -26.5 -93s-43 -50.167 -76 -66.5s-72.167 -24.5 -117.5 -24.5zM258.005 698.999l-32 37l137 127l42 -49z" />
    <glyph glyph-name="sacute" unicode="&#x15b;" horiz-adv-x="416" 
d="M209 -12c-34.667 0 -67.6641 6.50098 -98.9971 19.501s-58.333 28.833 -81 47.5l37 49c20.667 -16.667 42.5 -30.667 65.5 -42s49.833 -17 80.5 -17c33.333 0 58.333 8 75 24s25 35 25 57c0 17.333 -5.66699 31.833 -17 43.5s-25.5 21.667 -42.5 30
s-34.833 15.833 -53.5 22.5c-22.667 8 -45.334 17.667 -68.001 29s-41.5 25.666 -56.5 42.999s-22.5 39.666 -22.5 66.999c0 38 14.5 70.167 43.5 96.5s69.5 39.5 121.5 39.5c29.333 0 56.666 -5.33301 81.999 -16s47 -23.334 65 -38.001l-35 -47
c-16.667 12 -33.834 22.167 -51.501 30.5s-37.834 12.5 -60.501 12.5c-32 0 -55.667 -7.5 -71 -22.5s-23 -32.167 -23 -51.5c0 -16 5.16699 -29.167 15.5 -39.5s23.833 -19.166 40.5 -26.499s34.334 -14.666 53.001 -21.999c24 -8.66699 47.5 -18.5 70.5 -29.5
s42.167 -25.5 57.5 -43.5s23 -42.667 23 -74c0 -25.333 -6.66699 -48.833 -20 -70.5s-33 -39 -59 -52s-57.667 -19.5 -95 -19.5zM201.003 573.001l-38 37l140 164l52 -48z" />
    <glyph glyph-name="Scaron" unicode="&#x160;" horiz-adv-x="530" 
d="M271 -12c-46 0 -88.3281 8.99902 -126.995 26.999s-72.334 41.667 -101.001 71l45 51c24 -25.333 51.833 -45.666 83.5 -60.999s65.167 -23 100.5 -23c45.333 0 80.666 10.5 105.999 31.5s38 48.5 38 82.5c0 23.333 -5 42.166 -15 56.499s-23.333 26.333 -40 36
s-35.667 19.167 -57 28.5l-95 42c-20 8.66699 -40.333 20 -61 34s-37.834 31.667 -51.501 53s-20.5 48.333 -20.5 81c0 33.333 8.83301 62.833 26.5 88.5s41.667 45.834 72 60.501s64.833 22 103.5 22c39.333 0 75.5 -7.66699 108.5 -23s60.5 -34.666 82.5 -57.999l-40 -47
c-19.333 19.333 -41.5 34.666 -66.5 45.999s-53.167 17 -84.5 17c-38 0 -68.833 -9.16699 -92.5 -27.5s-35.5 -43.166 -35.5 -74.499c0 -22 5.66699 -40 17 -54s25.5 -25.5 42.5 -34.5s33.833 -17.167 50.5 -24.5l95 -42c25.333 -10.667 48.166 -23.334 68.499 -38.001
s36.666 -33 48.999 -55s18.5 -49.333 18.5 -82c0 -34 -8.83301 -65 -26.5 -93s-43 -50.167 -76 -66.5s-72.167 -24.5 -117.5 -24.5zM238.005 706.999l-106 113l32 24l110 -94h4l110 94l32 -24l-106 -113h-76z" />
    <glyph glyph-name="scaron" unicode="&#x161;" horiz-adv-x="416" 
d="M209 -12c-34.667 0 -67.6641 6.50098 -98.9971 19.501s-58.333 28.833 -81 47.5l37 49c20.667 -16.667 42.5 -30.667 65.5 -42s49.833 -17 80.5 -17c33.333 0 58.333 8 75 24s25 35 25 57c0 17.333 -5.66699 31.833 -17 43.5s-25.5 21.667 -42.5 30
s-34.833 15.833 -53.5 22.5c-22.667 8 -45.334 17.667 -68.001 29s-41.5 25.666 -56.5 42.999s-22.5 39.666 -22.5 66.999c0 38 14.5 70.167 43.5 96.5s69.5 39.5 121.5 39.5c29.333 0 56.666 -5.33301 81.999 -16s47 -23.334 65 -38.001l-35 -47
c-16.667 12 -33.834 22.167 -51.501 30.5s-37.834 12.5 -60.501 12.5c-32 0 -55.667 -7.5 -71 -22.5s-23 -32.167 -23 -51.5c0 -16 5.16699 -29.167 15.5 -39.5s23.833 -19.166 40.5 -26.499s34.334 -14.666 53.001 -21.999c24 -8.66699 47.5 -18.5 70.5 -29.5
s42.167 -25.5 57.5 -43.5s23 -42.667 23 -74c0 -25.333 -6.66699 -48.833 -20 -70.5s-33 -39 -59 -52s-57.667 -19.5 -95 -19.5zM183.003 574.001l-115 140l32 30l117 -117h4l117 117l32 -30l-115 -140h-72z" />
    <glyph glyph-name="Umacron" unicode="&#x16a;" horiz-adv-x="643" 
d="M321 -12c-32 0 -62.167 4.83301 -90.5 14.5s-53 25.167 -74 46.5s-37.5 49.833 -49.5 85.5s-18 79.5 -18 131.5v391h74v-391c0 -54 7.16699 -96.5 21.5 -127.5s33.333 -53 57 -66s50.167 -19.5 79.5 -19.5c30 0 57.167 6.5 81.5 19.5s43.833 35 58.5 66s22 73.5 22 127.5
v391h71v-391c0 -52 -6.16699 -95.833 -18.5 -131.5s-29 -64.167 -50 -85.5s-45.5 -36.833 -73.5 -46.5s-58.333 -14.5 -91 -14.5zM190 737v52h262v-52h-262z" />
    <glyph glyph-name="umacron" unicode="&#x16b;" horiz-adv-x="540" 
d="M225 -12c-50 0 -87 16.001 -111 48.001s-36 79 -36 141v308h72v-299c0 -46.667 7.66699 -80.834 23 -102.501s40 -32.5 74 -32.5c25.333 0 48.333 6.83301 69 20.5s43 35.5 67 65.5v348h73v-485h-61l-6 77h-3c-22.667 -26.667 -46.667 -48.167 -72 -64.5
s-55 -24.5 -89 -24.5zM143 602.001v52h260v-52h-260z" />
    <glyph glyph-name="Ydieresis" unicode="&#x178;" horiz-adv-x="468" 
d="M197 0v258l-197 399h79l88 -191l32.5 -71l32.5 -72h4l35 72l33 71l88 191h77l-198 -399v-258h-74zM335 718c-12.667 0 -23.334 4.16699 -32.001 12.5s-13 19.5 -13 33.5c0 13.333 4.33301 24.166 13 32.499s19.334 12.5 32.001 12.5c14 0 25.167 -4.16699 33.5 -12.5
s12.5 -19.166 12.5 -32.499c0 -14 -4.16699 -25.167 -12.5 -33.5s-19.5 -12.5 -33.5 -12.5zM133 718c-13.333 0 -24.333 4.16699 -33 12.5s-13 19.5 -13 33.5c0 13.333 4.33301 24.166 13 32.499s19.667 12.5 33 12.5s24.166 -4.16699 32.499 -12.5
s12.5 -19.166 12.5 -32.499c0 -14 -4.16699 -25.167 -12.5 -33.5s-19.166 -12.5 -32.499 -12.5z" />
    <glyph glyph-name="Zcaron" unicode="&#x17d;" horiz-adv-x="539" 
d="M46 0v44l354 550h-322v63h414v-44l-354 -550h357v-63h-449zM242 707l-106 113l32 24l110 -94h4l110 94l32 -24l-106 -113h-76z" />
    <glyph glyph-name="zcaron" unicode="&#x17e;" horiz-adv-x="419" 
d="M30 0v39l263 386h-234v60h326v-39l-263 -386h272v-60h-364zM193 574l-115 140l32 30l117 -117h4l117 117l32 -30l-115 -140h-72z" />
    <glyph glyph-name="uni018F" unicode="&#x18f;" horiz-adv-x="655" 
d="M326 -12c-56 0 -103.831 13.834 -143.498 41.501s-70.167 66.834 -91.5 117.501s-32 110 -32 178c0 3.33301 0.166992 6.83301 0.5 10.5s0.5 7.16699 0.5 10.5h486v-56h-412c2 -50.667 11.333 -93.834 28 -129.501s39 -63 67 -82s60.333 -28.5 97 -28.5
c63.333 0 113.166 24.167 149.499 72.5s54.5 117.5 54.5 207.5c0 89.333 -17.333 157.833 -52 205.5s-85.667 71.5 -153 71.5c-32.667 0 -63 -6 -91 -18s-52 -27.667 -72 -47l-36 51c23.333 22 52.166 40.167 86.499 54.5s73.5 21.5 117.5 21.5
c56.667 0 105.5 -13 146.5 -39s72.333 -64.333 94 -115s32.5 -112.334 32.5 -185.001s-11.5 -134.5 -34.5 -185.5s-55.167 -89.833 -96.5 -116.5s-90 -40 -146 -40z" />
    <glyph glyph-name="florin" unicode="&#x192;" horiz-adv-x="492" 
d="M87 -97c-14.667 0 -27.9951 1.50391 -39.9951 4.50391s-22.333 6.5 -31 10.5l15 55c7.33301 -3.33301 15.333 -5.83301 24 -7.5s17.334 -2.83398 26.001 -3.50098c21.333 0.666992 38.666 7.33398 51.999 20.001s23.666 30.667 30.999 54s13 51.666 17 84.999l37 344
c5.33301 44 14.166 81.167 26.499 111.5s29.5 53.333 51.5 69s50 23.5 84 23.5c15.333 0 29.666 -1.83301 42.999 -5.5s24.666 -7.83398 33.999 -12.501l-16 -57c-7.33301 3.33301 -15.5 6.66602 -24.5 9.99902s-20.167 5 -33.5 5c-20.667 0 -37.334 -6.5 -50.001 -19.5
s-22.5 -30 -29.5 -51s-11.833 -43.5 -14.5 -67.5l-41 -364c-4 -41.333 -11.833 -77.333 -23.5 -108s-28.5 -54.334 -50.5 -71.001s-51 -25 -87 -25zM116.005 351.004v52l69 5h226v-57h-295z" />
    <glyph glyph-name="Gcaron" unicode="&#x1e6;" horiz-adv-x="614" 
d="M345 -12c-57.333 0 -107.996 13.501 -151.996 40.501s-78.5 66 -103.5 117s-37.5 111.833 -37.5 182.5c0 53.333 7.5 100.833 22.5 142.5s35.833 77.5 62.5 107.5s58.167 52.667 94.5 68s76.166 23 119.499 23c45.333 0 83.166 -8.5 113.499 -25.5
s54.833 -35.167 73.5 -54.5l-41 -49c-16.667 18 -36.334 33.167 -59.001 45.5s-51 18.5 -85 18.5c-46 0 -85.667 -11.167 -119 -33.5s-59.166 -54 -77.499 -95s-27.5 -89.5 -27.5 -145.5c0 -56.667 8.66699 -105.667 26 -147s42.666 -73.333 75.999 -96
s73.666 -34 120.999 -34c25.333 0 49.333 3.66699 72 11s40.667 17.666 54 30.999v179h-144v62h212v-272c-20.667 -22 -48.167 -40.167 -82.5 -54.5s-73.833 -21.5 -118.5 -21.5zM313.004 707.001l-106 113l32 24l110 -94h4l110 94l32 -24l-106 -113h-76z" />
    <glyph glyph-name="gcaron" unicode="&#x1e7;" horiz-adv-x="500" 
d="M247 -226c-40 0 -75 5.33008 -105 15.9971s-53.333 25.667 -70 45s-25 42.666 -25 69.999c0 21.333 6.33301 41.666 19 60.999s30 36.333 52 51v4c-12 8 -22.167 18.5 -30.5 31.5s-12.5 28.833 -12.5 47.5c0 20.667 5.83301 38.667 17.5 54s23.5 27.333 35.5 36v4
c-15.333 12.667 -29.5 30.334 -42.5 53.001s-19.5 48.334 -19.5 77.001c0 35.333 8.16699 65.833 24.5 91.5s38 45.667 65 60s56.833 21.5 89.5 21.5c13.333 0 25.833 -1.16699 37.5 -3.5s21.5 -5.16602 29.5 -8.49902h168v-57h-103c12.667 -12 23 -27 31 -45s12 -38 12 -60
c0 -34.667 -7.83301 -64.5 -23.5 -89.5s-36.667 -44.5 -63 -58.5s-55.833 -21 -88.5 -21c-12.667 0 -25.334 1.5 -38.001 4.5s-24.667 7.16699 -36 12.5c-9.33301 -7.33301 -17.166 -15.666 -23.499 -24.999s-9.5 -21 -9.5 -35c0 -16 6.16699 -29.167 18.5 -39.5
s34.833 -15.5 67.5 -15.5h97c56 0 97.833 -9.16699 125.5 -27.5s41.5 -47.5 41.5 -87.5c0 -29.333 -9.83301 -56.666 -29.5 -81.999s-47.5 -45.833 -83.5 -61.5s-78.667 -23.5 -128 -23.5zM257 -174.003c32 0 59.8311 5.00098 83.498 15.001s42.167 23 55.5 39s20 33 20 51
c0 23.333 -8.5 39.666 -25.5 48.999s-42.167 14 -75.5 14h-89c-7.33301 0 -16.666 0.666992 -27.999 2s-22.666 3.33301 -33.999 6c-18.667 -13.333 -32.167 -27.5 -40.5 -42.5s-12.5 -29.833 -12.5 -44.5c0 -27.333 13 -49 39 -65s61.667 -24 107 -24zM244.998 203.998
c19.333 0 37.167 4.99805 53.5 14.998s29.5 24 39.5 42s15 39 15 63c0 24.667 -4.83301 45.834 -14.5 63.501s-22.667 31.334 -39 41.001s-34.5 14.5 -54.5 14.5c-30 0 -55.667 -10.5 -77 -31.5s-32 -50.167 -32 -87.5c0 -24 5 -45 15 -63s23.167 -32 39.5 -42
s34.5 -15 54.5 -15zM221.999 573.996l-115 140l32 30l117 -117h4l117 117l32 -30l-115 -140h-72z" />
    <glyph glyph-name="uni0237" unicode="&#x237;" horiz-adv-x="231" 
d="M33 -220c-14 0 -26.8311 1.33105 -38.498 3.99805s-21.834 5.33398 -30.501 8.00098l15 56c6 -2 13.167 -3.83301 21.5 -5.5s16.833 -2.5 25.5 -2.5c24.667 0 41 8.83301 49 26.5s12 41.167 12 70.5l1 548h72v-549c0 -32.667 -4.33301 -60.667 -13 -84
s-22.334 -41.166 -41.001 -53.499s-43 -18.5 -73 -18.5z" />
    <glyph glyph-name="uni0250" unicode="&#x250;" horiz-adv-x="508" 
d="M269 -12c-46 0 -83.168 8.66602 -111.501 25.999s-48.833 41.5 -61.5 72.5s-19 66.167 -19 105.5v293h60l7 -70h2c24 24.667 51 44.5 81 59.5s61.333 22.5 94 22.5c37.333 0 68.333 -10.667 93 -32s37 -52.666 37 -93.999c0 -55.333 -24.167 -98.333 -72.5 -129
s-124.5 -52 -228.5 -64c0 -15.333 2 -30.666 6 -45.999s10.667 -29.333 20 -42s22.333 -22.834 39 -30.501s37.667 -11.5 63 -11.5c28 0 53.833 5.83301 77.5 17.5s44.167 23.834 61.5 36.501l30 -51c-13.333 -9.33301 -29.166 -18.833 -47.499 -28.5
s-38.5 -17.834 -60.5 -24.501s-45.333 -10 -70 -10zM149.999 227.999c57.333 6.66699 102.833 16.165 136.5 28.498s57.667 27.333 72 45s21.5 37.834 21.5 60.501c0 26.667 -8 45.834 -24 57.501s-35 17.5 -57 17.5c-24 0 -48.167 -6.16699 -72.5 -18.5
s-49.833 -32.5 -76.5 -60.5v-130z" />
    <glyph glyph-name="uni0254" unicode="&#x254;" horiz-adv-x="454" 
d="M181 -12c-29.333 0 -57.333 5.5 -84 16.5s-50.667 26.167 -72 45.5l32 49c16 -14 34 -25.833 54 -35.5s41.333 -14.5 64 -14.5c30.667 0 57.834 8 81.501 24s42 38.5 55 67.5s19.5 62.833 19.5 101.5s-6.5 72.5 -19.5 101.5s-30.667 51.667 -53 68s-47.5 24.5 -75.5 24.5
c-24 0 -44.5 -4 -61.5 -12s-33.5 -19 -49.5 -33l-38 48c18.667 16 40.167 29.667 64.5 41s55.166 17 92.499 17c38 0 73.333 -10 106 -30s59 -49 79 -87s30 -84 30 -138s-10 -99.833 -30 -137.5s-47 -66.5 -81 -86.5s-72 -30 -114 -30z" />
    <glyph glyph-name="uni0259" unicode="&#x259;" horiz-adv-x="492" 
d="M236 -12c-40 0 -74.833 9.33105 -104.5 27.998s-52.834 45.334 -69.501 80.001s-25 76.667 -25 126c0 8 0.5 16 1.5 24s1.83301 15 2.5 21h332c-1.33301 33.333 -8.16602 62.833 -20.499 88.5s-29.333 45.834 -51 60.501s-47.834 22 -78.501 22
c-24.667 0 -47.5 -3.83301 -68.5 -11.5s-40.833 -18.167 -59.5 -31.5l-27 52c22 14.667 46.5 26.667 73.5 36s57.833 14 92.5 14c40 0 76 -10 108 -30s57.167 -49 75.5 -87s27.5 -83.667 27.5 -137c0 -52.667 -9.33301 -98 -28 -136s-43.667 -67.333 -75 -88
s-66.666 -31 -105.999 -31zM235 46.998c39.333 0 71 14.667 95 44s38.333 70.333 43 123h-271c0 -56 12.167 -97.833 36.5 -125.5s56.5 -41.5 96.5 -41.5z" />
    <glyph glyph-name="uni025B" unicode="&#x25b;" horiz-adv-x="436" 
d="M247 -12c-36.667 0 -69.8271 6.00195 -99.4941 18.002s-53.167 28.667 -70.5 50s-26 47 -26 77c0 23.333 5.16699 43.166 15.5 59.499s23.666 29.666 39.999 39.999s33.833 17.833 52.5 22.5v4c-26 9.33301 -46.167 24 -60.5 44s-21.5 41.333 -21.5 64
c0 29.333 8 53.5 24 72.5s37.167 33.333 63.5 43s54.833 14.5 85.5 14.5c29.333 0 55.666 -4.33301 78.999 -13s45.666 -20.667 66.999 -36l-30 -49c-18.667 12 -36.834 21.5 -54.501 28.5s-37.5 10.5 -59.5 10.5c-28.667 0 -52.834 -6.5 -72.501 -19.5
s-29.5 -32.833 -29.5 -59.5c0 -23.333 9.66699 -42.5 29 -57.5s49.333 -22.5 90 -22.5h53v-53h-67c-42 0 -74.333 -7.5 -97 -22.5s-34 -36.5 -34 -64.5c0 -28.667 12.167 -51.167 36.5 -67.5s55.5 -24.5 93.5 -24.5c23.333 0 45.166 3.66699 65.499 11s41.833 19 64.5 35
l32 -49c-28 -20 -55 -34.333 -81 -43s-55.333 -13 -88 -13z" />
    <glyph glyph-name="uni0283" unicode="&#x283;" horiz-adv-x="242" 
d="M31 -220c-14 0 -26.8301 1.33105 -38.4971 3.99805s-21.834 5.33398 -30.501 8.00098l15 56c6 -2 13.167 -3.83301 21.5 -5.5s16.833 -2.5 25.5 -2.5c25.333 0 41.833 8.83301 49.5 26.5s11.5 41.167 11.5 70.5v634c0 32.667 4.66699 60.667 14 84s24 41.333 44 54
s46.333 19 79 19c12 0 23 -1.33301 33 -4s18.667 -5.66699 26 -9l-15 -56c-4.66699 2 -10.334 4 -17.001 6s-13.334 3 -20.001 3c-28.667 0 -47.667 -8.83301 -57 -26.5s-14 -41.5 -14 -71.5v-634c0 -32.667 -4.33301 -60.667 -13 -84s-22.167 -41.166 -40.5 -53.499
s-42.833 -18.5 -73.5 -18.5z" />
    <glyph glyph-name="uni028E" unicode="&#x28e;" horiz-adv-x="459" 
d="M12 0l196.002 560c10.667 30.667 23.667 58.5 39 83.5s34.166 45 56.499 60s49.166 22.5 80.499 22.5c11.333 0 21.5 -0.833008 30.5 -2.5s17.167 -4.16699 24.5 -7.5l-14 -58c-4.66699 1.33301 -10.5 2.83301 -17.5 4.5s-13.833 2.5 -20.5 2.5
c-28 0 -51 -10.333 -69 -31s-32.667 -47 -44 -79l-22 -67l195 -488h-75l-103 277l-24.5 68l-24.5 69h-4c-7.33301 -22 -14.333 -45 -21 -69s-13.667 -46.667 -21 -68l-90 -277h-72z" />
    <glyph glyph-name="uni0292" unicode="&#x292;" horiz-adv-x="419" 
d="M198 -220c-48.667 0 -88.166 8.00293 -118.499 24.0029s-55.833 33.667 -76.5 53l37 47c17.333 -16 38 -30.5 62 -43.5s54.333 -19.5 91 -19.5c24.667 0 47.167 6.33301 67.5 19s36.666 30.667 48.999 54s18.5 50.333 18.5 81c0 43.333 -12 77.166 -36 101.499
s-58.667 36.5 -104 36.5c-14 0 -25.333 -1.33301 -34 -4s-18.667 -7 -30 -13l-30 43l197 266h-247v60h336v-39l-194 -262c44.667 6 83 1.5 115 -13.5s56.833 -37.5 74.5 -67.5s26.5 -65 26.5 -105c0 -46.667 -9.66699 -86.334 -29 -119.001s-44.5 -57.334 -75.5 -74.001
s-64.167 -25 -99.5 -25z" />
    <glyph glyph-name="uni0294" unicode="&#x294;" horiz-adv-x="412" 
d="M149 0l0.00292969 325c38.667 22 70.5 43.5 95.5 64.5s43.5 43.167 55.5 66.5s18 49.666 18 78.999c0 39.333 -11.333 70.833 -34 94.5s-54.667 35.5 -96 35.5c-35.333 0 -64.833 -7.5 -88.5 -22.5s-44.167 -32.167 -61.5 -51.5l-39 48
c13.333 14.667 29.166 28.667 47.499 42s39.333 24.166 63 32.499s51.167 12.5 82.5 12.5c37.333 0 71.166 -7.16699 101.499 -21.5s54.333 -35.666 72 -63.999s26.5 -63.166 26.5 -104.499c0 -38.667 -7.33301 -72.167 -22 -100.5s-34.834 -54 -60.501 -77
s-55.167 -45.5 -88.5 -67.5v-291h-72z" />
    <glyph glyph-name="uni0295" unicode="&#x295;" horiz-adv-x="433" 
d="M200 0v291c-32.667 22 -62 44.5 -88 67.5s-46.333 48.667 -61 77s-22 61.833 -22 100.5c0 41.333 9.33301 76.166 28 104.499s44 49.666 76 63.999s67.333 21.5 106 21.5c30 0 56.333 -4.16699 79 -12.5s42.5 -19.166 59.5 -32.499s31.833 -27.333 44.5 -42l-39 -48
c-15.333 19.333 -34.166 36.5 -56.499 51.5s-49.833 22.5 -82.5 22.5c-44.667 0 -79.334 -11.833 -104.001 -35.5s-37 -55.167 -37 -94.5c0 -29.333 6.16699 -55.666 18.5 -78.999s31 -45.5 56 -66.5s56.833 -42.5 95.5 -64.5v-325h-73z" />
    <glyph glyph-name="uni02A7" unicode="&#x2a7;" horiz-adv-x="418" 
d="M360 -220c-13.333 0 -25.999 1.33105 -37.999 3.99805s-22 5.33398 -30 8.00098l14 56c6.66699 -2 14 -3.83301 22 -5.5s16.333 -2.5 25 -2.5c25.333 0 42 8.83301 50 26.5s12 41.167 12 70.5v634c0 32.667 4.5 60.667 13.5 84s23.5 41.333 43.5 54s46.333 19 79 19
c12.667 0 23.834 -1.33301 33.501 -4s18.167 -5.66699 25.5 -9l-14 -56c-4.66699 2 -10.334 4 -17.001 6s-13.667 3 -21 3c-28.667 0 -47.667 -8.83301 -57 -26.5s-14 -41.5 -14 -71.5v-634c0 -32.667 -4.16699 -60.667 -12.5 -84s-21.833 -41.166 -40.5 -53.499
s-43.334 -18.5 -74.001 -18.5zM232.001 -12.002c-50.667 0 -85.667 14.668 -105 44.001s-29 67.333 -29 114v279h-73v55l76 5l9 137h61v-137h133v-60h-133v-281c0 -30 5.5 -53.5 16.5 -70.5s31.167 -25.5 60.5 -25.5c8.66699 0 18.167 1.33301 28.5 4s19.5 5.66699 27.5 9
l15 -55c-13.333 -4.66699 -27.833 -8.83398 -43.5 -12.501s-30.167 -5.5 -43.5 -5.5z" />
    <glyph glyph-name="uni02B9" unicode="&#x2b9;" horiz-adv-x="242" 
 />
    <glyph glyph-name="circumflex" unicode="&#x2c6;" horiz-adv-x="540" 
d="M151 569l-32 29l115 141h72l115 -141l-32 -29l-117 116h-4z" />
    <glyph glyph-name="caron" unicode="&#x2c7;" horiz-adv-x="540" 
d="M234 574l-115 140l32 30l117 -117h4l117 117l32 -30l-115 -140h-72z" />
    <glyph glyph-name="uni02C8" unicode="&#x2c8;" horiz-adv-x="110" 
d="M29 532l-6 194h63l-6 -194h-51z" />
    <glyph glyph-name="uni02D0" unicode="&#x2d0;" horiz-adv-x="242" 
d="M51 0l65 130h10l64 -130h-139zM116 331l-65 128h139l-64 -128h-10z" />
    <glyph glyph-name="breve" unicode="&#x2d8;" horiz-adv-x="540" 
d="M270 571c-34.667 0 -63.167 7.5 -85.5 22.5s-38.833 34 -49.5 57s-17 46.5 -19 70.5l47 7c2 -17.333 7.33301 -34.166 16 -50.499s20.5 -29.833 35.5 -40.5s33.5 -16 55.5 -16c22.667 0 41.5 5.33301 56.5 16s26.667 24.167 35 40.5s13.5 33.166 15.5 50.499l47 -7
c-2 -24 -8.33301 -47.5 -19 -70.5s-27 -42 -49 -57s-50.667 -22.5 -86 -22.5z" />
    <glyph glyph-name="dotaccent" unicode="&#x2d9;" horiz-adv-x="540" 
d="M270 589c-14 0 -25.833 4.66699 -35.5 14s-14.5 21.666 -14.5 36.999c0 14 4.83301 25.667 14.5 35s21.5 14 35.5 14c14.667 0 26.667 -4.66699 36 -14s14 -21 14 -35c0 -15.333 -4.66699 -27.666 -14 -36.999s-21.333 -14 -36 -14z" />
    <glyph glyph-name="ring" unicode="&#x2da;" horiz-adv-x="540" 
d="M270 553c-32 0 -57.667 9.16699 -77 27.5s-29 41.5 -29 69.5c0 28.667 9.66699 52.167 29 70.5s45 27.5 77 27.5c32.667 0 58.5 -9.16699 77.5 -27.5s28.5 -41.833 28.5 -70.5c0 -28 -9.5 -51.167 -28.5 -69.5s-44.833 -27.5 -77.5 -27.5zM270 587
c16.667 0 30.667 5.66699 42 17s17 26.666 17 45.999s-5.66699 34.833 -17 46.5s-25.333 17.5 -42 17.5c-16 0 -29.833 -5.83301 -41.5 -17.5s-17.5 -27.167 -17.5 -46.5s5.83301 -34.666 17.5 -45.999s25.5 -17 41.5 -17z" />
    <glyph glyph-name="ogonek" unicode="&#x2db;" horiz-adv-x="540" 
 />
    <glyph glyph-name="tilde" unicode="&#x2dc;" horiz-adv-x="540" 
d="M343 578c-18 0 -33.4971 4.33496 -46.4971 13.002s-24.833 18.667 -35.5 30s-20.834 21.333 -30.501 30s-20.834 13 -33.501 13c-15.333 0 -26.833 -7.5 -34.5 -22.5s-12.167 -34.833 -13.5 -59.5l-50 3c1.33301 25.333 5.33301 47.833 12 67.5s17 35.5 31 47.5
s32.667 18 56 18c18 0 33.333 -4.33301 46 -13s24.334 -18.834 35.001 -30.501s21 -21.834 31 -30.501s21 -13 33 -13c16 0 27.667 7.83301 35 23.5s11.666 35.5 12.999 59.5l50 -4c-1.33301 -24 -5.33301 -46 -12 -66s-16.834 -36 -30.501 -48s-32.167 -18 -55.5 -18z" />
    <glyph glyph-name="hungarumlaut" unicode="&#x2dd;" horiz-adv-x="540" 
d="M366 568l-41 19l87 172l52 -27zM219 568l-41 19l87 172l52 -27z" />
    <glyph glyph-name="gravecomb" unicode="&#x300;" 
d="M18 573l-154 153l52 48l140 -164z" />
    <glyph glyph-name="acutecomb" unicode="&#x301;" 
d="M-18 573l-38 37l140 164l52 -48z" />
    <glyph glyph-name="uni0302" unicode="&#x302;" 
d="M-119 569l-32 29l115 141h72l115 -141l-32 -29l-117 116h-4z" />
    <glyph glyph-name="tildecomb" unicode="&#x303;" 
d="M73 578c-18 0 -33.4971 4.33496 -46.4971 13.002s-24.833 18.667 -35.5 30s-20.834 21.333 -30.501 30s-20.834 13 -33.501 13c-15.333 0 -26.833 -7.5 -34.5 -22.5s-12.167 -34.833 -13.5 -59.5l-50 3c1.33301 25.333 5.33301 47.833 12 67.5s17 35.5 31 47.5
s32.667 18 56 18c18 0 33.333 -4.33301 46 -13s24.334 -18.834 35.001 -30.501s21 -21.834 31 -30.501s21 -13 33 -13c16 0 27.667 7.83301 35 23.5s11.666 35.5 12.999 59.5l50 -4c-1.33301 -24 -5.33301 -46 -12 -66s-16.834 -36 -30.501 -48s-32.167 -18 -55.5 -18z" />
    <glyph glyph-name="uni0304" unicode="&#x304;" 
d="M-130 602v52h260v-52h-260z" />
    <glyph glyph-name="uni0306" unicode="&#x306;" 
d="M0 571c-34.667 0 -63.167 7.5 -85.5 22.5s-38.833 34 -49.5 57s-17 46.5 -19 70.5l47 7c2 -17.333 7.33301 -34.166 16 -50.499s20.5 -29.833 35.5 -40.5s33.5 -16 55.5 -16c22.667 0 41.5 5.33301 56.5 16s26.667 24.167 35 40.5s13.5 33.166 15.5 50.499l47 -7
c-2 -24 -8.33301 -47.5 -19 -70.5s-27 -42 -49 -57s-50.667 -22.5 -86 -22.5z" />
    <glyph glyph-name="uni0307" unicode="&#x307;" 
d="M0 589c-14 0 -25.833 4.66699 -35.5 14s-14.5 21.666 -14.5 36.999c0 14 4.83301 25.667 14.5 35s21.5 14 35.5 14c14.667 0 26.667 -4.66699 36 -14s14 -21 14 -35c0 -15.333 -4.66699 -27.666 -14 -36.999s-21.333 -14 -36 -14z" />
    <glyph glyph-name="uni0308" unicode="&#x308;" 
d="M94 590c-12.667 0 -23.5 4.5 -32.5 13.5s-13.5 19.833 -13.5 32.5c0 13.333 4.5 24.5 13.5 33.5s19.833 13.5 32.5 13.5c14 0 25.333 -4.5 34 -13.5s13 -20.167 13 -33.5c0 -12.667 -4.33301 -23.5 -13 -32.5s-20 -13.5 -34 -13.5zM-94 590
c-13.333 0 -24.5 4.5 -33.5 13.5s-13.5 19.833 -13.5 32.5c0 13.333 4.5 24.5 13.5 33.5s20.167 13.5 33.5 13.5s24.333 -4.5 33 -13.5s13 -20.167 13 -33.5c0 -12.667 -4.33301 -23.5 -13 -32.5s-19.667 -13.5 -33 -13.5z" />
    <glyph glyph-name="uni030A" unicode="&#x30a;" 
d="M0 553c-32 0 -57.667 9.16699 -77 27.5s-29 41.5 -29 69.5c0 28.667 9.66699 52.167 29 70.5s45 27.5 77 27.5c32.667 0 58.5 -9.16699 77.5 -27.5s28.5 -41.833 28.5 -70.5c0 -28 -9.5 -51.167 -28.5 -69.5s-44.833 -27.5 -77.5 -27.5zM0 587
c16.667 0 30.667 5.66699 42 17s17 26.666 17 45.999s-5.66699 34.833 -17 46.5s-25.333 17.5 -42 17.5c-16 0 -29.833 -5.83301 -41.5 -17.5s-17.5 -27.167 -17.5 -46.5s5.83301 -34.666 17.5 -45.999s25.5 -17 41.5 -17z" />
    <glyph glyph-name="uni030B" unicode="&#x30b;" 
d="M96 568l-41 19l87 172l52 -27zM-51 568l-41 19l87 172l52 -27z" />
    <glyph glyph-name="uni030C" unicode="&#x30c;" 
d="M-36 574l-115 140l32 30l117 -117h4l117 117l32 -30l-115 -140h-72z" />
    <glyph glyph-name="uni031E" unicode="&#x31e;" 
d="M-23 -247v105h-71v44h188v-44h-71v-105h-46z" />
    <glyph glyph-name="dotbelowcomb" unicode="&#x323;" 
d="M0 -203c-14 0 -25.833 4.66699 -35.5 14s-14.5 21.666 -14.5 36.999c0 14 4.83301 25.667 14.5 35s21.5 14 35.5 14c14.667 0 26.667 -4.66699 36 -14s14 -21 14 -35c0 -15.333 -4.66699 -27.666 -14 -36.999s-21.333 -14 -36 -14z" />
    <glyph glyph-name="uni0327" unicode="&#x327;" 
d="M-84 -224l-8.00098 38.002c42 2.66699 70.833 8 86.5 16s23.5 19.333 23.5 34c0 13.333 -5.83301 23.666 -17.5 30.999s-31.834 13 -60.501 17l43 91h49l-29 -67c22.667 -5.33301 40.334 -13.333 53.001 -24s19 -26.334 19 -47.001c0 -28 -13.667 -49.167 -41 -63.5
s-66.666 -22.833 -117.999 -25.5z" />
    <glyph glyph-name="uni032E" unicode="&#x32e;" 
d="M0 -231c-34.667 0 -63.167 7.5 -85.5 22.5s-38.833 34 -49.5 57s-17 46.5 -19 70.5l47 7c2 -17.333 7.33301 -34.166 16 -50.499s20.5 -29.833 35.5 -40.5s33.5 -16 55.5 -16c22.667 0 41.5 5.33301 56.5 16s26.667 24.167 35 40.5s13.5 33.166 15.5 50.499l47 -7
c-2 -24 -8.33301 -47.5 -19 -70.5s-27 -42 -49 -57s-50.667 -22.5 -86 -22.5z" />
    <glyph glyph-name="uni0331" unicode="&#x331;" 
d="M-130 -168v52h260v-52h-260z" />
    <glyph glyph-name="uni0361" unicode="&#x361;" 
d="M-432 552l-21.999 38c67.333 41.333 138.5 72.833 213.5 94.5s155.167 32.5 240.5 32.5s165.666 -10.833 240.999 -32.5s146.333 -53.167 213 -94.5l-22 -38c-42 26 -87.167 47.333 -135.5 64s-97.5 29 -147.5 37s-99.667 12 -149 12s-99 -4 -149 -12
s-99.167 -20.333 -147.5 -37s-93.5 -38 -135.5 -64z" />
    <glyph glyph-name="theta" unicode="&#x3b8;" horiz-adv-x="518" 
d="M101 335v53h316v-53h-316zM259 -12c-61.333 0 -109.666 29.665 -144.999 88.998s-53 153.666 -53 282.999c0 79.333 8 146.333 24 201s38.667 95.834 68 123.501s64.666 41.5 105.999 41.5s76.666 -14 105.999 -42s52 -69.167 68 -123.5s24 -121.166 24 -200.499
c0 -129.333 -17.667 -223.666 -53 -282.999s-83.666 -89 -144.999 -89zM259 48.998c24 0 45.667 9.83301 65 29.5s34.333 52.167 45 97.5s16 106.666 16 183.999c0 53.333 -3.16699 99.333 -9.5 138s-15 70.334 -26 95.001s-24.333 42.834 -40 54.501s-32.5 17.5 -50.5 17.5
s-34.833 -5.83301 -50.5 -17.5s-29 -29.834 -40 -54.501s-19.667 -56.334 -26 -95.001s-9.5 -84.667 -9.5 -138c0 -77.333 5.33301 -138.666 16 -183.999s25.5 -77.833 44.5 -97.5s40.833 -29.5 65.5 -29.5z" />
    <glyph glyph-name="pi" unicode="&#x3c0;" horiz-adv-x="578" 
d="M479 -12c-23.333 0 -42.3311 4.33594 -56.998 13.0029s-25.334 21.5 -32.001 38.5s-10 38.167 -10 63.5c0 13.333 0.166992 32.166 0.5 56.499s0.833008 51.666 1.5 81.999s1.16699 61.333 1.5 93s0.833008 61.167 1.5 88.5h-181c0 -68.667 -3 -140 -9 -214
s-12.667 -145 -20 -213l-74 4c11.333 68.667 20 139.667 26 213s9 143.333 9 210h-113v57l69 5h462v-62h-99c-1.33301 -28 -2.5 -58.167 -3.5 -90.5s-1.66699 -64.166 -2 -95.499s-0.666016 -59.333 -0.999023 -84s-0.5 -43.334 -0.5 -56.001
c0 -16.667 3.66699 -28.834 11 -36.501s18.666 -11.5 33.999 -11.5c4.66699 0 10.167 0.5 16.5 1.5s14.166 2.16699 23.499 3.5l10 -56c-8 -2.66699 -17.167 -5 -27.5 -7s-22.5 -3 -36.5 -3z" />
    <glyph glyph-name="chi" unicode="&#x3c7;" horiz-adv-x="474" 
d="M82 -191l-73 12l194 342l-190 314l72 20l152 -268h4l130 256h78l-173 -321l204 -336l-70 -19l-169 294h-4z" />
    <glyph glyph-name="uni05B0" unicode="&#x5b0;" 
d="M64 -75c8.66699 0 15.667 -3.16699 21 -9.5s8 -13.5 8 -21.5s-2.66699 -15.167 -8 -21.5s-12.333 -9.5 -21 -9.5s-15.834 3.16699 -21.501 9.5s-8.5 13.5 -8.5 21.5s2.83301 15.167 8.5 21.5s12.834 9.5 21.501 9.5zM64 -169c8.66699 0 15.667 -3.5 21 -10.5
s8 -14.5 8 -22.5s-2.66699 -15.167 -8 -21.5s-12.333 -9.5 -21 -9.5s-15.834 3.16699 -21.501 9.5s-8.5 13.5 -8.5 21.5s2.83301 15.5 8.5 22.5s12.834 10.5 21.501 10.5z" />
    <glyph glyph-name="uni05B1" unicode="&#x5b1;" 
d="M272 -75c8.66699 0 15.667 -3.16699 21 -9.5s8 -13.5 8 -21.5s-2.66699 -15.167 -8 -21.5s-12.333 -9.5 -21 -9.5s-15.834 3.16699 -21.501 9.5s-8.5 13.5 -8.5 21.5s2.83301 15.167 8.5 21.5s12.834 9.5 21.501 9.5zM115 -169c8.66699 0 15.667 -3.5 21 -10.5
s8 -14.5 8 -22.5s-2.66699 -15.167 -8 -21.5s-12.333 -9.5 -21 -9.5s-15.834 3.16699 -21.501 9.5s-8.5 13.5 -8.5 21.5s2.83301 15.5 8.5 22.5s12.834 10.5 21.501 10.5zM64 -75c8.66699 0 15.667 -3.16699 21 -9.5s8 -13.5 8 -21.5s-2.66699 -15.167 -8 -21.5
s-12.333 -9.5 -21 -9.5s-15.834 3.16699 -21.501 9.5s-8.5 13.5 -8.5 21.5s2.83301 15.167 8.5 21.5s12.834 9.5 21.501 9.5zM272 -169c8.66699 0 15.667 -3.5 21 -10.5s8 -14.5 8 -22.5s-2.66699 -15.167 -8 -21.5s-12.333 -9.5 -21 -9.5s-15.834 3.16699 -21.501 9.5
s-8.5 13.5 -8.5 21.5s2.83301 15.5 8.5 22.5s12.834 10.5 21.501 10.5zM168 -75c8.66699 0 15.667 -3.16699 21 -9.5s8 -13.5 8 -21.5s-2.66699 -15.167 -8 -21.5s-12.333 -9.5 -21 -9.5s-15.834 3.16699 -21.501 9.5s-8.5 13.5 -8.5 21.5s2.83301 15.167 8.5 21.5
s12.834 9.5 21.501 9.5z" />
    <glyph glyph-name="uni05B2" unicode="&#x5b2;" 
d="M192 -85v-35h-158v35h158zM261 -169c8.66699 0 15.667 -3.5 21 -10.5s8 -14.5 8 -22.5s-2.66699 -15.167 -8 -21.5s-12.333 -9.5 -21 -9.5s-15.834 3.16699 -21.501 9.5s-8.5 13.5 -8.5 21.5s2.83301 15.5 8.5 22.5s12.834 10.5 21.501 10.5zM261 -75
c8.66699 0 15.667 -3.16699 21 -9.5s8 -13.5 8 -21.5s-2.66699 -15.167 -8 -21.5s-12.333 -9.5 -21 -9.5s-15.834 3.16699 -21.501 9.5s-8.5 13.5 -8.5 21.5s2.83301 15.167 8.5 21.5s12.834 9.5 21.501 9.5z" />
    <glyph glyph-name="uni05B3" unicode="&#x5b3;" 
d="M192 -85v-35h-67l7 -100h-39l7 100h-66v35h158zM261 -169c8.66699 0 15.667 -3.5 21 -10.5s8 -14.5 8 -22.5s-2.66699 -15.167 -8 -21.5s-12.333 -9.5 -21 -9.5s-15.834 3.16699 -21.501 9.5s-8.5 13.5 -8.5 21.5s2.83301 15.5 8.5 22.5s12.834 10.5 21.501 10.5z
M261 -75c8.66699 0 15.667 -3.16699 21 -9.5s8 -13.5 8 -21.5s-2.66699 -15.167 -8 -21.5s-12.333 -9.5 -21 -9.5s-15.834 3.16699 -21.501 9.5s-8.5 13.5 -8.5 21.5s2.83301 15.167 8.5 21.5s12.834 9.5 21.501 9.5z" />
    <glyph glyph-name="uni05B4" unicode="&#x5b4;" 
d="M64 -75c8.66699 0 15.667 -3.16699 21 -9.5s8 -13.5 8 -21.5s-2.66699 -15.167 -8 -21.5s-12.333 -9.5 -21 -9.5s-15.834 3.16699 -21.501 9.5s-8.5 13.5 -8.5 21.5s2.83301 15.167 8.5 21.5s12.834 9.5 21.501 9.5z" />
    <glyph glyph-name="uni05B5" unicode="&#x5b5;" 
d="M171 -75c8.66699 0 15.667 -3.16699 21 -9.5s8 -13.5 8 -21.5s-2.66699 -15.167 -8 -21.5s-12.333 -9.5 -21 -9.5s-15.834 3.16699 -21.501 9.5s-8.5 13.5 -8.5 21.5s2.83301 15.167 8.5 21.5s12.834 9.5 21.501 9.5zM64 -75c8.66699 0 15.667 -3.16699 21 -9.5
s8 -13.5 8 -21.5s-2.66699 -15.167 -8 -21.5s-12.333 -9.5 -21 -9.5s-15.834 3.16699 -21.501 9.5s-8.5 13.5 -8.5 21.5s2.83301 15.167 8.5 21.5s12.834 9.5 21.501 9.5z" />
    <glyph glyph-name="uni05B6" unicode="&#x5b6;" 
d="M171 -75c8.66699 0 15.667 -3.16699 21 -9.5s8 -13.5 8 -21.5s-2.66699 -15.167 -8 -21.5s-12.333 -9.5 -21 -9.5s-15.834 3.16699 -21.501 9.5s-8.5 13.5 -8.5 21.5s2.83301 15.167 8.5 21.5s12.834 9.5 21.501 9.5zM117 -160c8.66699 0 15.667 -3.16699 21 -9.5
s8 -13.5 8 -21.5c0 -8.66699 -2.66699 -16.167 -8 -22.5s-12.333 -9.5 -21 -9.5s-15.834 3.16699 -21.501 9.5s-8.5 13.833 -8.5 22.5c0 8 2.83301 15.167 8.5 21.5s12.834 9.5 21.501 9.5zM64 -75c8.66699 0 15.667 -3.16699 21 -9.5s8 -13.5 8 -21.5
s-2.66699 -15.167 -8 -21.5s-12.333 -9.5 -21 -9.5s-15.834 3.16699 -21.501 9.5s-8.5 13.5 -8.5 21.5s2.83301 15.167 8.5 21.5s12.834 9.5 21.501 9.5z" />
    <glyph glyph-name="uni05B7" unicode="&#x5b7;" 
d="M192 -69v-35h-158v35h158z" />
    <glyph glyph-name="uni05B8" unicode="&#x5b8;" 
d="M192 -69v-35h-67l7 -100h-39l7 100h-66v35h158z" />
    <glyph glyph-name="uni05B9" unicode="&#x5b9;" 
d="M64 574c8.66699 0 15.667 -3.16699 21 -9.5s8 -13.5 8 -21.5c0 -8.66699 -2.66699 -16.167 -8 -22.5s-12.333 -9.5 -21 -9.5s-15.834 3.16699 -21.501 9.5s-8.5 13.833 -8.5 22.5c0 8 2.83301 15.167 8.5 21.5s12.834 9.5 21.501 9.5z" />
    <glyph glyph-name="uni05BA" unicode="&#x5ba;" 
d="M64 511c-8.66699 0 -15.834 3.33301 -21.501 10s-8.5 14 -8.5 22s2.83301 15.167 8.5 21.5s12.834 9.5 21.501 9.5s15.667 -3.16699 21 -9.5s8 -13.5 8 -21.5s-2.66699 -15.333 -8 -22s-12.333 -10 -21 -10z" />
    <glyph glyph-name="uni05BB" unicode="&#x5bb;" 
d="M197 -196c8.66699 0 15.667 -3.16699 21 -9.5s8 -13.833 8 -22.5c0 -8 -2.66699 -15.167 -8 -21.5s-12.333 -9.5 -21 -9.5s-16 3.16699 -22 9.5s-9 13.5 -9 21.5c0 8.66699 3 16.167 9 22.5s13.333 9.5 22 9.5zM64 -75c8.66699 0 15.667 -3.16699 21 -9.5
s8 -13.5 8 -21.5s-2.66699 -15.167 -8 -21.5s-12.333 -9.5 -21 -9.5s-15.834 3.16699 -21.501 9.5s-8.5 13.5 -8.5 21.5s2.83301 15.167 8.5 21.5s12.834 9.5 21.501 9.5zM130 -135c9.33301 0 16.666 -3.33301 21.999 -10s8 -14 8 -22s-2.66699 -15.167 -8 -21.5
s-12.666 -9.5 -21.999 -9.5c-8.66699 0 -15.834 3.16699 -21.501 9.5s-8.5 13.5 -8.5 21.5s2.83301 15.333 8.5 22s12.834 10 21.501 10z" />
    <glyph glyph-name="uni05BC" unicode="&#x5bc;" 
d="M64 322c8.66699 0 15.667 -3.33301 21 -10s8 -14 8 -22s-2.66699 -15.333 -8 -22s-12.333 -10 -21 -10s-15.834 3.16699 -21.501 9.5s-8.5 13.833 -8.5 22.5c0 8 2.83301 15.333 8.5 22s12.834 10 21.501 10z" />
    <glyph glyph-name="uni05BE" unicode="&#x5be;" horiz-adv-x="315" 
d="M45 494v61h225v-61h-225z" />
    <glyph glyph-name="uni05BF" unicode="&#x5bf;" 
d="M221 571v-39h-189v39h189z" />
    <glyph glyph-name="uni05C0" unicode="&#x5c0;" horiz-adv-x="200" 
d="M77 -100v745h46v-745h-46z" />
    <glyph glyph-name="uni05C1" unicode="&#x5c1;" 
d="M64 586c8.66699 0 15.667 -3.33301 21 -10s8 -14 8 -22s-2.66699 -15.333 -8 -22s-12.333 -10 -21 -10s-15.834 3.33301 -21.501 10s-8.5 14 -8.5 22s2.83301 15.333 8.5 22s12.834 10 21.501 10z" />
    <glyph glyph-name="uni05C2" unicode="&#x5c2;" 
d="M64 586c8.66699 0 15.667 -3.33301 21 -10s8 -14 8 -22s-2.66699 -15.333 -8 -22s-12.333 -10 -21 -10s-15.834 3.33301 -21.501 10s-8.5 14 -8.5 22s2.83301 15.333 8.5 22s12.834 10 21.501 10z" />
    <glyph glyph-name="uni05C3" unicode="&#x5c3;" horiz-adv-x="249" 
d="M125 17l-58 58l58 56l56 -56zM125 357l-58 58l58 56l56 -56z" />
    <glyph glyph-name="uni05C7" unicode="&#x5c7;" 
d="M128 -69v-35h-41l13 -100h-39l13 100h-40v35h94z" />
    <glyph glyph-name="uni05D0" unicode="&#x5d0;" horiz-adv-x="560" 
d="M525 0h-84l-228 341l-107 -341h-73l109 344l27 66l-92 145h79l89 -140l94 -140l23 84l60 196h74l-112 -347z" />
    <glyph glyph-name="uni05D1" unicode="&#x5d1;" horiz-adv-x="526" 
d="M339 0l0.00195312 371.999c0 46 -9.83301 77.833 -29.5 95.5s-45.834 26.5 -78.501 26.5h-180v61h197c33.333 0 62.666 -6 87.999 -18s45 -31.667 59 -59s21 -63.666 21 -108.999v-369h-77zM51.002 -0.000976562v61h436v-61h-436z" />
    <glyph glyph-name="uni05D2" unicode="&#x5d2;" horiz-adv-x="372" 
d="M252 0l-37.999 209.002v186c0 31.333 -3.83301 55.166 -11.5 71.499s-23.834 26.166 -48.501 29.499l-64 10l11 60l83 -13c40 -6 67.667 -21.333 83 -46s23 -60 23 -106v-193l36 -208h-74zM54.001 -13.998l-28 61.999c46 16.667 84.833 38.834 116.5 66.501
s57.5 64.167 77.5 109.5l25 -49c-12.667 -32.667 -28 -61 -46 -85s-39 -44.5 -63 -61.5s-51.333 -31.167 -82 -42.5z" />
    <glyph glyph-name="uni05D3" unicode="&#x5d3;" horiz-adv-x="535" 
d="M306 0l-0.000976562 377.001c0 25.333 2.33301 47.833 7 67.5s11.334 36.167 20.001 49.5h-280v61h428v-61h-74c-10 -16.667 -16.667 -35.834 -20 -57.501s-5 -41.5 -5 -59.5v-377h-76z" />
    <glyph glyph-name="uni05D4" unicode="&#x5d4;" horiz-adv-x="546" 
d="M403 0l0.000976562 371.999c0 46 -10 77.833 -30 95.5s-46.333 26.5 -79 26.5h-233v61h250c33.333 0 62.666 -6 87.999 -18s45 -31.667 59 -59s21 -63.666 21 -108.999v-369h-76zM60.001 -0.000976562v270l11 67h65v-67v-270h-76z" />
    <glyph glyph-name="uni05D5" unicode="&#x5d5;" horiz-adv-x="224" 
d="M78 0v438l-13 117h76l14 -117v-438h-77z" />
    <glyph glyph-name="uni05D6" unicode="&#x5d6;" horiz-adv-x="361" 
d="M127 0v377.001c0 25.333 2.5 47.833 7.5 67.5s11.833 36.167 20.5 49.5h-100v61h251v-61h-79c-10 -16.667 -16.333 -35.834 -19 -57.501s-4 -41.5 -4 -59.5v-377h-77z" />
    <glyph glyph-name="uni05D7" unicode="&#x5d7;" horiz-adv-x="563" 
d="M418 0l0.000976562 358c0 90.667 -36 136 -108 136h-247v61h264c34.667 0 64.667 -7.16699 90 -21.5s44.666 -36.333 57.999 -66s20 -67.167 20 -112.5v-355h-77zM63.001 0v529h77v-529h-77z" />
    <glyph glyph-name="uni05D8" unicode="&#x5d8;" horiz-adv-x="553" 
d="M116 -10l-67.002 565.001h77l58 -494c34.667 3.33301 67.334 10.5 98.001 21.5s57.834 27.167 81.501 48.5s41.834 48.5 54.501 81.5s18 72.833 16 119.5v25c0 27.333 -4.5 51.166 -13.5 71.499s-23 36.666 -42 48.999s-43.5 19.5 -73.5 21.5l-49 3l5 62l56 -4
c38 -2 71.167 -10.333 99.5 -25s50.5 -35.667 66.5 -63s24.667 -62.333 26 -105l1 -28c2 -60.667 -6.66699 -112.667 -26 -156s-47 -78.666 -83 -105.999s-78.333 -48 -127 -62s-101.334 -22.333 -158.001 -25z" />
    <glyph glyph-name="uni05D9" unicode="&#x5d9;" horiz-adv-x="224" 
d="M78 210v79v149l-13 117h76l14 -117v-149l-1 -63z" />
    <glyph glyph-name="uni05DA" unicode="&#x5da;" horiz-adv-x="503" 
d="M357 -200l0.000976562 571.999c0 46 -10 77.833 -30 95.5s-46 26.5 -78 26.5h-194v61h210c33.333 0 62.666 -6 87.999 -18s45 -31.667 59 -59s21 -63.666 21 -108.999v-569h-76z" />
    <glyph glyph-name="uni05DB" unicode="&#x5db;" horiz-adv-x="471" 
d="M45 0v61h132c36.667 0 67 7 91 21s42 34.833 54 62.5s18 61.5 18 101.5v63c0 40.667 -6 74.667 -18 102s-30 48 -54 62s-54.333 21 -91 21h-132v61h147c48 0 88.667 -9.33301 122 -28s58.833 -46.667 76.5 -84s26.5 -83 26.5 -137v-57c0 -54 -8.83301 -99.667 -26.5 -137
s-43.167 -65.333 -76.5 -84s-74 -28 -122 -28h-147z" />
    <glyph glyph-name="uni05DC" unicode="&#x5dc;" horiz-adv-x="476" 
d="M160 0l193 494h-310v61h387v-65l-193 -490h-77zM43 494v223h70v-223h-70z" />
    <glyph glyph-name="uni05DD" unicode="&#x5dd;" horiz-adv-x="580" 
d="M435 0l0.000976562 371.999c0 46 -9.83301 77.833 -29.5 95.5s-45.834 26.5 -78.501 26.5h-206v61h223c33.333 0 62.5 -6 87.5 -18s44.667 -31.667 59 -59s21.5 -63.666 21.5 -108.999v-310v-59h-77zM95.001 -0.000976562v61h391l-7 -61h-384zM75.001 -0.000976562v502
v53h77v-56v-499h-77z" />
    <glyph glyph-name="uni05DE" unicode="&#x5de;" horiz-adv-x="605" 
d="M242 -2l7.99902 60.999c55.333 -12 100 -10.667 134 4s59 41.667 75 81s23 90.333 21 153c-0.666992 51.333 -7.5 91.5 -20.5 120.5s-30 49.667 -51 62s-44.833 18.5 -71.5 18.5c-27.333 0 -50.333 -5.83301 -69 -17.5s-33.167 -26.834 -43.5 -45.501
s-17.833 -39 -22.5 -61l-23 42c12 50.667 33.833 87.5 65.5 110.5s66.167 34.5 103.5 34.5c28.667 0 55.167 -4.66699 79.5 -14s45.833 -24.166 64.5 -44.499s33.5 -47.5 44.5 -81.5s16.833 -75.333 17.5 -124c2 -77.333 -9 -140.666 -33 -189.999
s-59.667 -83.5 -107 -102.5s-104.666 -21.167 -171.999 -6.5zM56.999 -0.000976562l74 389l-77 166h79l71 -169l-70 -386h-77z" />
    <glyph glyph-name="uni05DF" unicode="&#x5df;" horiz-adv-x="224" 
d="M78 -200v638l-13 117h76l14 -117v-638h-77z" />
    <glyph glyph-name="uni05E0" unicode="&#x5e0;" horiz-adv-x="368" 
d="M48 0l0.000976562 61h174v333c0 34 -6.83301 58.5 -20.5 73.5s-32.834 24.5 -57.501 28.5l-67 10l11 60l87 -13c40 -6 70.667 -22.167 92 -48.5s32 -62.5 32 -108.5v-396h-251z" />
    <glyph glyph-name="uni05E1" unicode="&#x5e1;" horiz-adv-x="565" 
d="M117 -10l-60.998 504.004l72 40l57 -473c27.333 2.66699 53.666 7.16699 78.999 13.5s48.833 15.666 70.5 27.999s40.5 28.166 56.5 47.499s28 43.166 36 71.499s11 62.166 9 101.499v24c0 28 -4.5 53 -13.5 75s-22.5 39.5 -40.5 52.5s-40.333 19.5 -67 19.5h-259l-7 61
h273c60 0 106.167 -18.667 138.5 -56s49.5 -86.666 51.5 -147.999l1 -30c2 -60.667 -7 -111.834 -27 -153.501s-48.333 -75 -85 -100s-79.334 -43.5 -128.001 -55.5s-100.667 -19.333 -156 -22z" />
    <glyph glyph-name="uni05E2" unicode="&#x5e2;" horiz-adv-x="531" 
d="M37 -29l-10.998 62l178 34c39.333 7.33301 71.5 18.333 96.5 33s44.333 34 58 58s23.667 54 30 90s10.166 79.333 11.499 130s2 109.667 2 177h76c0 -72 -1.33301 -135.667 -4 -191s-8.66699 -103.5 -18 -144.5s-23.833 -75.5 -43.5 -103.5
s-46.334 -51.167 -80.001 -69.5s-76.167 -32.5 -127.5 -42.5zM205.002 61l-131 494h77l129 -494h-75z" />
    <glyph glyph-name="uni05E3" unicode="&#x5e3;" horiz-adv-x="547" 
d="M278 555c42.667 0 78.835 -9.33105 108.502 -27.998s52.334 -46.334 68.001 -83.001s23.5 -82.334 23.5 -137.001v-507h-77v509c0 40.667 -4.83301 74.667 -14.5 102s-24.834 48 -45.501 62s-47 21 -79 21h-106l-18 -92c-4.66699 -26 -6.5 -48.333 -5.5 -67s6 -34 15 -46
s22.5 -20.333 40.5 -25l-19 -50c-24.667 4 -44.834 11.167 -60.501 21.5s-27.5 23.5 -35.5 39.5s-12.333 34.833 -13 56.5s1.66602 46.167 6.99902 73.5l32 150h179z" />
    <glyph glyph-name="uni05E4" unicode="&#x5e4;" horiz-adv-x="541" 
d="M76 0l-0.000976562 61.002h163c24.667 0 47.334 3.16699 68.001 9.5s38.667 16.666 54 30.999s27.5 33.5 36.5 57.5s13.5 53.667 13.5 89v61c0 40.667 -5.16699 74.667 -15.5 102s-26 48 -47 62s-47.167 21 -78.5 21h-105l-26 -111
c-8 -38.667 -7.16699 -68.167 2.5 -88.5s33.5 -34.166 71.5 -41.499l-16 -53c-39.333 4 -69.5 14 -90.5 30s-34.167 37.333 -39.5 64s-4.33301 58 3 94l38 167h175c42.667 0 79.167 -9.33301 109.5 -28s53.833 -46.334 70.5 -83.001s25 -82.334 25 -137.001v-56
c0 -46 -6.16699 -85 -18.5 -117s-29.333 -57.833 -51 -77.5s-46.667 -34 -75 -43s-58.5 -13.5 -90.5 -13.5h-177z" />
    <glyph glyph-name="uni05E5" unicode="&#x5e5;" horiz-adv-x="466" 
d="M295 -200l-249 755h75l250 -755h-76zM251 85l-47 57l164 413h74z" />
    <glyph glyph-name="uni05E6" unicode="&#x5e6;" horiz-adv-x="516" 
d="M390 0l-331 555h79l331 -555h-79zM39 0v61h379l23 -61h-402zM317 232l-43 68l109 255h78z" />
    <glyph glyph-name="uni05E7" unicode="&#x5e7;" horiz-adv-x="549" 
d="M228 0l-7.99805 61.001c22.667 2.66699 44.167 7.5 64.5 14.5s38.5 18.333 54.5 34s29.167 37.667 39.5 66s17.166 64.5 20.499 108.5l17 210h-360v61h442l-3 -55l-16 -201c-2.66699 -49.333 -10.5 -92.5 -23.5 -129.5s-30.333 -67.833 -52 -92.5
s-47.334 -43.334 -77.001 -56.001s-62.5 -19.667 -98.5 -21zM58.002 -199.999v484l11 68h66v-67v-485h-77z" />
    <glyph glyph-name="uni05E8" unicode="&#x5e8;" horiz-adv-x="472" 
d="M326 0l0.000976562 371.999c0 46 -9.83301 77.833 -29.5 95.5s-45.834 26.5 -78.501 26.5h-177v61h194c33.333 0 62.5 -6 87.5 -18s44.667 -31.667 59 -59s21.5 -63.666 21.5 -108.999v-369h-77z" />
    <glyph glyph-name="uni05E9" unicode="&#x5e9;" horiz-adv-x="630" 
d="M119 -10l-69.999 565h74l60 -498c52 3.33301 97.667 12.833 137 28.5s72.5 37.667 99.5 66s47.167 64 60.5 107s19.666 93.167 18.999 150.5l-1 146h77l1 -143c0.666992 -94.667 -15.833 -173 -49.5 -235s-84.5 -108.5 -152.5 -139.5s-153 -46.833 -255 -47.5z
M150.001 206l-18 53.9971c35.333 16.667 63.5 34.334 84.5 53.001s36.167 42.334 45.5 71.001s14.333 65.334 15 110.001l1 59h74l-1 -58c-0.666992 -50 -7.66699 -93 -21 -129s-34.5 -66.667 -63.5 -92s-67.833 -48 -116.5 -68z" />
    <glyph glyph-name="uni05EA" unicode="&#x5ea;" horiz-adv-x="605" 
d="M30 -14l-7.99902 55c27.333 2.66699 48.5 8.66699 63.5 18s25.5 22.5 31.5 39.5s9 37.833 9 62.5v394h245c33.333 0 62.5 -6 87.5 -18s44.667 -31.667 59 -59s21.5 -63.666 21.5 -108.999v-369h-77v372c0 46 -9.83301 77.833 -29.5 95.5s-45.834 26.5 -78.501 26.5h-151
v-325c0 -39.333 -6.16699 -71.833 -18.5 -97.5s-31 -45.334 -56 -59.001s-57.833 -22.5 -98.5 -26.5z" />
    <glyph glyph-name="uni05F3" unicode="&#x5f3;" horiz-adv-x="213" 
d="M91 502l-41 19l87 172l52 -27z" />
    <glyph glyph-name="uni05F4" unicode="&#x5f4;" horiz-adv-x="388" 
d="M238 502l-41 19l86 172l53 -27zM91 502l-41 19l87 172l52 -27z" />
    <glyph glyph-name="uni1E06" unicode="&#x1e06;" horiz-adv-x="585" 
d="M92 0l-0.00195312 656.999h190c44.667 0 83.834 -5.5 117.501 -16.5s59.834 -28.333 78.501 -52s28 -54.5 28 -92.5c0 -32.667 -8.5 -62 -25.5 -88s-41.167 -44 -72.5 -54v-4c40.667 -7.33301 73.5 -24.166 98.5 -50.499s37.5 -62.166 37.5 -107.499
c0 -42.667 -10.333 -78.334 -31 -107.001s-49.667 -50 -87 -64s-80.333 -21 -129 -21h-205zM165.998 58.999h118.999c58.667 0 104.334 11 137.001 33s49 56 49 102c0 42.667 -16 74 -48 94s-78 30 -138 30h-119v-259zM165.997 374.999l100.999 -0.000976562
c58.667 0 101 10.167 127 30.5s39 47.5 39 81.5c0 40.667 -13.667 69.334 -41 86.001s-67.666 25 -120.999 25h-105v-223zM169.996 -168.002v52h260v-52h-260z" />
    <glyph glyph-name="uni1E07" unicode="&#x1e07;" horiz-adv-x="551" 
d="M293 -12c-22.667 0 -46.1689 5.5 -70.502 16.5s-47.5 26.167 -69.5 45.5h-3l-7 -50h-58v714h72v-198l-2 -89c22.667 20 47.334 36.667 74.001 50s53.667 20 81 20c42.667 0 78.334 -10.167 107.001 -30.5s50.167 -49 64.5 -86s21.5 -80.5 21.5 -130.5
c0 -55.333 -9.83301 -102.5 -29.5 -141.5s-45.5 -68.833 -77.5 -89.5s-66.333 -31 -103 -31zM280.998 50c28.667 0 54.001 8 76.001 24s39.333 39 52 69s19 65.333 19 106c0 36.667 -4.5 69 -13.5 97s-23.333 49.833 -43 65.5s-45.5 23.5 -77.5 23.5
c-21.333 0 -43.333 -5.83301 -66 -17.5s-46.334 -29.167 -71.001 -52.5v-262c22.667 -19.333 45 -33 67 -41s41 -12 57 -12zM149.999 -168v52h260v-52h-260z" />
    <glyph glyph-name="uni1E0C" unicode="&#x1e0c;" horiz-adv-x="613" 
d="M92 0v657.003h161c67.333 0 123.833 -12.833 169.5 -38.5s80 -62.834 103 -111.501s34.5 -107.334 34.5 -176.001s-11.5 -127.834 -34.5 -177.501s-57.167 -87.667 -102.5 -114s-101 -39.5 -167 -39.5h-164zM166 61.0029h81c53.333 0 97.5 11 132.5 33s61.167 53 78.5 93
s26 88 26 144s-8.66699 103.667 -26 143s-43.5 69.5 -78.5 90.5s-79.167 31.5 -132.5 31.5h-81v-535zM303 -202.997c-14 0 -25.833 4.66699 -35.5 14s-14.5 21.666 -14.5 36.999c0 14 4.83301 25.667 14.5 35s21.5 14 35.5 14c14.667 0 26.667 -4.66699 36 -14
s14 -21 14 -35c0 -15.333 -4.66699 -27.666 -14 -36.999s-21.333 -14 -36 -14z" />
    <glyph glyph-name="uni1E0D" unicode="&#x1e0d;" horiz-adv-x="552" 
d="M248 -12c-60 0 -108.166 22.167 -144.499 66.5s-54.5 106.833 -54.5 187.5c0 52 9.83301 97 29.5 135s45.5 67.5 77.5 88.5s66.667 31.5 104 31.5c28.667 0 53.5 -5 74.5 -15s42.167 -24 63.5 -42l-3 84v190h72v-714h-60l-6 59h-3
c-18.667 -19.333 -40.834 -36 -66.501 -50s-53.5 -21 -83.5 -21zM264.001 50c23.333 0 45.667 5.83105 67 17.498s42.666 28.834 63.999 51.501v263c-22 19.333 -42.833 33 -62.5 41s-40.167 12 -61.5 12c-27.333 0 -52.166 -8.16699 -74.499 -24.5s-40 -39 -53 -68
s-19.5 -62.5 -19.5 -100.5c0 -59.333 12.167 -106.166 36.5 -140.499s58.833 -51.5 103.5 -51.5zM294.002 -203.002c-14 0 -25.833 4.66699 -35.5 14s-14.5 21.666 -14.5 36.999c0 14 4.83301 25.667 14.5 35s21.5 14 35.5 14c14.667 0 26.667 -4.66699 36 -14
s14 -21 14 -35c0 -15.333 -4.66699 -27.666 -14 -36.999s-21.333 -14 -36 -14z" />
    <glyph glyph-name="uni1E0E" unicode="&#x1e0e;" horiz-adv-x="613" 
d="M92 0v657.003h161c67.333 0 123.833 -12.833 169.5 -38.5s80 -62.834 103 -111.501s34.5 -107.334 34.5 -176.001s-11.5 -127.834 -34.5 -177.501s-57.167 -87.667 -102.5 -114s-101 -39.5 -167 -39.5h-164zM166 61.0029h81c53.333 0 97.5 11 132.5 33s61.167 53 78.5 93
s26 88 26 144s-8.66699 103.667 -26 143s-43.5 69.5 -78.5 90.5s-79.167 31.5 -132.5 31.5h-81v-535zM173 -167.997v52h260v-52h-260z" />
    <glyph glyph-name="uni1E0F" unicode="&#x1e0f;" horiz-adv-x="552" 
d="M248 -12c-60 0 -108.166 22.167 -144.499 66.5s-54.5 106.833 -54.5 187.5c0 52 9.83301 97 29.5 135s45.5 67.5 77.5 88.5s66.667 31.5 104 31.5c28.667 0 53.5 -5 74.5 -15s42.167 -24 63.5 -42l-3 84v190h72v-714h-60l-6 59h-3
c-18.667 -19.333 -40.834 -36 -66.501 -50s-53.5 -21 -83.5 -21zM264.001 50c23.333 0 45.667 5.83105 67 17.498s42.666 28.834 63.999 51.501v263c-22 19.333 -42.833 33 -62.5 41s-40.167 12 -61.5 12c-27.333 0 -52.166 -8.16699 -74.499 -24.5s-40 -39 -53 -68
s-19.5 -62.5 -19.5 -100.5c0 -59.333 12.167 -106.166 36.5 -140.499s58.833 -51.5 103.5 -51.5zM164.002 -168.002v52h260v-52h-260z" />
    <glyph glyph-name="uni1E20" unicode="&#x1e20;" horiz-adv-x="614" 
d="M345 -12c-57.333 0 -107.996 13.501 -151.996 40.501s-78.5 66 -103.5 117s-37.5 111.833 -37.5 182.5c0 53.333 7.5 100.833 22.5 142.5s35.833 77.5 62.5 107.5s58.167 52.667 94.5 68s76.166 23 119.499 23c45.333 0 83.166 -8.5 113.499 -25.5
s54.833 -35.167 73.5 -54.5l-41 -49c-16.667 18 -36.334 33.167 -59.001 45.5s-51 18.5 -85 18.5c-46 0 -85.667 -11.167 -119 -33.5s-59.166 -54 -77.499 -95s-27.5 -89.5 -27.5 -145.5c0 -56.667 8.66699 -105.667 26 -147s42.666 -73.333 75.999 -96
s73.666 -34 120.999 -34c25.333 0 49.333 3.66699 72 11s40.667 17.666 54 30.999v179h-144v62h212v-272c-20.667 -22 -48.167 -40.167 -82.5 -54.5s-73.833 -21.5 -118.5 -21.5zM220.004 737.001v52h262v-52h-262z" />
    <glyph glyph-name="uni1E21" unicode="&#x1e21;" horiz-adv-x="500" 
d="M247 -226c-40 0 -75 5.33008 -105 15.9971s-53.333 25.667 -70 45s-25 42.666 -25 69.999c0 21.333 6.33301 41.666 19 60.999s30 36.333 52 51v4c-12 8 -22.167 18.5 -30.5 31.5s-12.5 28.833 -12.5 47.5c0 20.667 5.83301 38.667 17.5 54s23.5 27.333 35.5 36v4
c-15.333 12.667 -29.5 30.334 -42.5 53.001s-19.5 48.334 -19.5 77.001c0 35.333 8.16699 65.833 24.5 91.5s38 45.667 65 60s56.833 21.5 89.5 21.5c13.333 0 25.833 -1.16699 37.5 -3.5s21.5 -5.16602 29.5 -8.49902h168v-57h-103c12.667 -12 23 -27 31 -45s12 -38 12 -60
c0 -34.667 -7.83301 -64.5 -23.5 -89.5s-36.667 -44.5 -63 -58.5s-55.833 -21 -88.5 -21c-12.667 0 -25.334 1.5 -38.001 4.5s-24.667 7.16699 -36 12.5c-9.33301 -7.33301 -17.166 -15.666 -23.499 -24.999s-9.5 -21 -9.5 -35c0 -16 6.16699 -29.167 18.5 -39.5
s34.833 -15.5 67.5 -15.5h97c56 0 97.833 -9.16699 125.5 -27.5s41.5 -47.5 41.5 -87.5c0 -29.333 -9.83301 -56.666 -29.5 -81.999s-47.5 -45.833 -83.5 -61.5s-78.667 -23.5 -128 -23.5zM257 -174.003c32 0 59.8311 5.00098 83.498 15.001s42.167 23 55.5 39s20 33 20 51
c0 23.333 -8.5 39.666 -25.5 48.999s-42.167 14 -75.5 14h-89c-7.33301 0 -16.666 0.666992 -27.999 2s-22.666 3.33301 -33.999 6c-18.667 -13.333 -32.167 -27.5 -40.5 -42.5s-12.5 -29.833 -12.5 -44.5c0 -27.333 13 -49 39 -65s61.667 -24 107 -24zM244.998 203.998
c19.333 0 37.167 4.99805 53.5 14.998s29.5 24 39.5 42s15 39 15 63c0 24.667 -4.83301 45.834 -14.5 63.501s-22.667 31.334 -39 41.001s-34.5 14.5 -54.5 14.5c-30 0 -55.667 -10.5 -77 -31.5s-32 -50.167 -32 -87.5c0 -24 5 -45 15 -63s23.167 -32 39.5 -42
s34.5 -15 54.5 -15zM127.999 601.996v52h260v-52h-260z" />
    <glyph glyph-name="uni1E24" unicode="&#x1e24;" horiz-adv-x="648" 
d="M92 0v657h74v-278h317v278h74v-657h-74v314h-317v-314h-74zM323 -203c-14 0 -25.833 4.66699 -35.5 14s-14.5 21.666 -14.5 36.999c0 14 4.83301 25.667 14.5 35s21.5 14 35.5 14c14.667 0 26.667 -4.66699 36 -14s14 -21 14 -35c0 -15.333 -4.66699 -27.666 -14 -36.999
s-21.333 -14 -36 -14z" />
    <glyph glyph-name="uni1E25" unicode="&#x1e25;" horiz-adv-x="540" 
d="M85 0v714h72v-198l-2 -102c23.333 23.333 48 43 74 59s55.333 24 88 24c51.333 0 88.833 -16 112.5 -48s35.5 -79 35.5 -141v-308h-73v299c0 46.667 -7.5 80.667 -22.5 102s-39.5 32 -73.5 32c-26 0 -49.167 -6.5 -69.5 -19.5s-43.5 -32.5 -69.5 -58.5v-355h-72z
M286 -203c-14 0 -25.833 4.66699 -35.5 14s-14.5 21.666 -14.5 36.999c0 14 4.83301 25.667 14.5 35s21.5 14 35.5 14c14.667 0 26.667 -4.66699 36 -14s14 -21 14 -35c0 -15.333 -4.66699 -27.666 -14 -36.999s-21.333 -14 -36 -14z" />
    <glyph glyph-name="uni1E2A" unicode="&#x1e2a;" horiz-adv-x="648" 
d="M92 0v657h74v-278h317v278h74v-657h-74v314h-317v-314h-74zM323 -231c-34.667 0 -63.167 7.5 -85.5 22.5s-38.833 34 -49.5 57s-17 46.5 -19 70.5l47 7c2 -17.333 7.33301 -34.166 16 -50.499s20.5 -29.833 35.5 -40.5s33.5 -16 55.5 -16c22.667 0 41.5 5.33301 56.5 16
s26.667 24.167 35 40.5s13.5 33.166 15.5 50.499l47 -7c-2 -24 -8.33301 -47.5 -19 -70.5s-27 -42 -49 -57s-50.667 -22.5 -86 -22.5z" />
    <glyph glyph-name="uni1E2B" unicode="&#x1e2b;" horiz-adv-x="540" 
d="M85 0v714h72v-198l-2 -102c23.333 23.333 48 43 74 59s55.333 24 88 24c51.333 0 88.833 -16 112.5 -48s35.5 -79 35.5 -141v-308h-73v299c0 46.667 -7.5 80.667 -22.5 102s-39.5 32 -73.5 32c-26 0 -49.167 -6.5 -69.5 -19.5s-43.5 -32.5 -69.5 -58.5v-355h-72z
M286 -231c-34.667 0 -63.167 7.5 -85.5 22.5s-38.833 34 -49.5 57s-17 46.5 -19 70.5l47 7c2 -17.333 7.33301 -34.166 16 -50.499s20.5 -29.833 35.5 -40.5s33.5 -16 55.5 -16c22.667 0 41.5 5.33301 56.5 16s26.667 24.167 35 40.5s13.5 33.166 15.5 50.499l47 -7
c-2 -24 -8.33301 -47.5 -19 -70.5s-27 -42 -49 -57s-50.667 -22.5 -86 -22.5z" />
    <glyph glyph-name="uni1E32" unicode="&#x1e32;" horiz-adv-x="573" 
d="M92 0v657h74v-339h2l285 339h84l-207 -249l238 -408h-83l-201 351l-118 -139v-212h-74zM327 -203c-14 0 -25.833 4.66699 -35.5 14s-14.5 21.666 -14.5 36.999c0 14 4.83301 25.667 14.5 35s21.5 14 35.5 14c14.667 0 26.667 -4.66699 36 -14s14 -21 14 -35
c0 -15.333 -4.66699 -27.666 -14 -36.999s-21.333 -14 -36 -14z" />
    <glyph glyph-name="uni1E33" unicode="&#x1e33;" horiz-adv-x="487" 
d="M85 0v714h71v-494h3l215 265h81l-162 -194l184 -291h-79l-147 240l-95 -112v-128h-71zM268 -203c-14 0 -25.833 4.66699 -35.5 14s-14.5 21.666 -14.5 36.999c0 14 4.83301 25.667 14.5 35s21.5 14 35.5 14c14.667 0 26.667 -4.66699 36 -14s14 -21 14 -35
c0 -15.333 -4.66699 -27.666 -14 -36.999s-21.333 -14 -36 -14z" />
    <glyph glyph-name="uni1E34" unicode="&#x1e34;" horiz-adv-x="573" 
d="M92 0v657h74v-339h2l285 339h84l-207 -249l238 -408h-83l-201 351l-118 -139v-212h-74zM197 -168v52h260v-52h-260z" />
    <glyph glyph-name="uni1E35" unicode="&#x1e35;" horiz-adv-x="487" 
d="M85 0v714h71v-494h3l215 265h81l-162 -194l184 -291h-79l-147 240l-95 -112v-128h-71zM138 -168v52h260v-52h-260z" />
    <glyph glyph-name="uni1E62" unicode="&#x1e62;" horiz-adv-x="530" 
d="M271 -12c-46 0 -88.3281 8.99902 -126.995 26.999s-72.334 41.667 -101.001 71l45 51c24 -25.333 51.833 -45.666 83.5 -60.999s65.167 -23 100.5 -23c45.333 0 80.666 10.5 105.999 31.5s38 48.5 38 82.5c0 23.333 -5 42.166 -15 56.499s-23.333 26.333 -40 36
s-35.667 19.167 -57 28.5l-95 42c-20 8.66699 -40.333 20 -61 34s-37.834 31.667 -51.501 53s-20.5 48.333 -20.5 81c0 33.333 8.83301 62.833 26.5 88.5s41.667 45.834 72 60.501s64.833 22 103.5 22c39.333 0 75.5 -7.66699 108.5 -23s60.5 -34.666 82.5 -57.999l-40 -47
c-19.333 19.333 -41.5 34.666 -66.5 45.999s-53.167 17 -84.5 17c-38 0 -68.833 -9.16699 -92.5 -27.5s-35.5 -43.166 -35.5 -74.499c0 -22 5.66699 -40 17 -54s25.5 -25.5 42.5 -34.5s33.833 -17.167 50.5 -24.5l95 -42c25.333 -10.667 48.166 -23.334 68.499 -38.001
s36.666 -33 48.999 -55s18.5 -49.333 18.5 -82c0 -34 -8.83301 -65 -26.5 -93s-43 -50.167 -76 -66.5s-72.167 -24.5 -117.5 -24.5zM272.005 -203.001c-14 0 -25.833 4.66699 -35.5 14s-14.5 21.666 -14.5 36.999c0 14 4.83301 25.667 14.5 35s21.5 14 35.5 14
c14.667 0 26.667 -4.66699 36 -14s14 -21 14 -35c0 -15.333 -4.66699 -27.666 -14 -36.999s-21.333 -14 -36 -14z" />
    <glyph glyph-name="uni1E63" unicode="&#x1e63;" horiz-adv-x="416" 
d="M209 -12c-34.667 0 -67.6641 6.50098 -98.9971 19.501s-58.333 28.833 -81 47.5l37 49c20.667 -16.667 42.5 -30.667 65.5 -42s49.833 -17 80.5 -17c33.333 0 58.333 8 75 24s25 35 25 57c0 17.333 -5.66699 31.833 -17 43.5s-25.5 21.667 -42.5 30
s-34.833 15.833 -53.5 22.5c-22.667 8 -45.334 17.667 -68.001 29s-41.5 25.666 -56.5 42.999s-22.5 39.666 -22.5 66.999c0 38 14.5 70.167 43.5 96.5s69.5 39.5 121.5 39.5c29.333 0 56.666 -5.33301 81.999 -16s47 -23.334 65 -38.001l-35 -47
c-16.667 12 -33.834 22.167 -51.501 30.5s-37.834 12.5 -60.501 12.5c-32 0 -55.667 -7.5 -71 -22.5s-23 -32.167 -23 -51.5c0 -16 5.16699 -29.167 15.5 -39.5s23.833 -19.166 40.5 -26.499s34.334 -14.666 53.001 -21.999c24 -8.66699 47.5 -18.5 70.5 -29.5
s42.167 -25.5 57.5 -43.5s23 -42.667 23 -74c0 -25.333 -6.66699 -48.833 -20 -70.5s-33 -39 -59 -52s-57.667 -19.5 -95 -19.5zM220.003 -202.999c-14 0 -25.833 4.66699 -35.5 14s-14.5 21.666 -14.5 36.999c0 14 4.83301 25.667 14.5 35s21.5 14 35.5 14
c14.667 0 26.667 -4.66699 36 -14s14 -21 14 -35c0 -15.333 -4.66699 -27.666 -14 -36.999s-21.333 -14 -36 -14z" />
    <glyph glyph-name="uni1E6C" unicode="&#x1e6c;" horiz-adv-x="533" 
d="M230 0v594h-202v63h477v-63h-201v-594h-74zM267 -203c-14 0 -25.833 4.66699 -35.5 14s-14.5 21.666 -14.5 36.999c0 14 4.83301 25.667 14.5 35s21.5 14 35.5 14c14.667 0 26.667 -4.66699 36 -14s14 -21 14 -35c0 -15.333 -4.66699 -27.666 -14 -36.999
s-21.333 -14 -36 -14z" />
    <glyph glyph-name="uni1E6D" unicode="&#x1e6d;" horiz-adv-x="331" 
d="M232 -12c-50.667 0 -85.667 14.668 -105 44.001s-29 67.333 -29 114v279h-73v55l76 5l9 137h61v-137h133v-60h-133v-281c0 -30 5.5 -53.5 16.5 -70.5s31.167 -25.5 60.5 -25.5c8.66699 0 18.167 1.33301 28.5 4s19.5 5.66699 27.5 9l15 -55
c-13.333 -4.66699 -27.833 -8.83398 -43.5 -12.501s-30.167 -5.5 -43.5 -5.5zM205 -202.999c-14 0 -25.833 4.66699 -35.5 14s-14.5 21.666 -14.5 36.999c0 14 4.83301 25.667 14.5 35s21.5 14 35.5 14c14.667 0 26.667 -4.66699 36 -14s14 -21 14 -35
c0 -15.333 -4.66699 -27.666 -14 -36.999s-21.333 -14 -36 -14z" />
    <glyph glyph-name="uni1E6E" unicode="&#x1e6e;" horiz-adv-x="533" 
d="M230 0v594h-202v63h477v-63h-201v-594h-74zM137 -168v52h260v-52h-260z" />
    <glyph glyph-name="uni1E6F" unicode="&#x1e6f;" horiz-adv-x="331" 
d="M232 -12c-50.667 0 -85.667 14.668 -105 44.001s-29 67.333 -29 114v279h-73v55l76 5l9 137h61v-137h133v-60h-133v-281c0 -30 5.5 -53.5 16.5 -70.5s31.167 -25.5 60.5 -25.5c8.66699 0 18.167 1.33301 28.5 4s19.5 5.66699 27.5 9l15 -55
c-13.333 -4.66699 -27.833 -8.83398 -43.5 -12.501s-30.167 -5.5 -43.5 -5.5zM75 -167.999v52h260v-52h-260z" />
    <glyph glyph-name="uni1E7E" unicode="&#x1e7e;" horiz-adv-x="509" 
d="M213 0l-212.001 657h79l110 -362c12 -39.333 22.667 -75.833 32 -109.5s20 -69.834 32 -108.501h4c12.667 38.667 23.834 74.834 33.501 108.501l31.5 109.5l110 362h75l-210 -657h-85zM254.999 -203c-14 0 -25.833 4.66699 -35.5 14s-14.5 21.666 -14.5 36.999
c0 14 4.83301 25.667 14.5 35s21.5 14 35.5 14c14.667 0 26.667 -4.66699 36 -14s14 -21 14 -35c0 -15.333 -4.66699 -27.666 -14 -36.999s-21.333 -14 -36 -14z" />
    <glyph glyph-name="uni1E7F" unicode="&#x1e7f;" horiz-adv-x="459" 
d="M189 0l-177 485h75l96 -283l23 -71l23 -71h4l23 71l23 71l96 283h72l-174 -485h-84zM231 -203c-14 0 -25.833 4.66699 -35.5 14s-14.5 21.666 -14.5 36.999c0 14 4.83301 25.667 14.5 35s21.5 14 35.5 14c14.667 0 26.667 -4.66699 36 -14s14 -21 14 -35
c0 -15.333 -4.66699 -27.666 -14 -36.999s-21.333 -14 -36 -14z" />
    <glyph glyph-name="uni1E92" unicode="&#x1e92;" horiz-adv-x="539" 
d="M46 0v44l354 550h-322v63h414v-44l-354 -550h357v-63h-449zM282 -203c-14 0 -25.833 4.66699 -35.5 14s-14.5 21.666 -14.5 36.999c0 14 4.83301 25.667 14.5 35s21.5 14 35.5 14c14.667 0 26.667 -4.66699 36 -14s14 -21 14 -35c0 -15.333 -4.66699 -27.666 -14 -36.999
s-21.333 -14 -36 -14z" />
    <glyph glyph-name="uni1E93" unicode="&#x1e93;" horiz-adv-x="419" 
d="M30 0v39l263 386h-234v60h326v-39l-263 -386h272v-60h-364zM225 -203c-14 0 -25.833 4.66699 -35.5 14s-14.5 21.666 -14.5 36.999c0 14 4.83301 25.667 14.5 35s21.5 14 35.5 14c14.667 0 26.667 -4.66699 36 -14s14 -21 14 -35c0 -15.333 -4.66699 -27.666 -14 -36.999
s-21.333 -14 -36 -14z" />
    <glyph glyph-name="uni1E94" unicode="&#x1e94;" horiz-adv-x="539" 
d="M46 0v44l354 550h-322v63h414v-44l-354 -550h357v-63h-449zM152 -168v52h260v-52h-260z" />
    <glyph glyph-name="uni1E95" unicode="&#x1e95;" horiz-adv-x="419" 
d="M30 0v39l263 386h-234v60h326v-39l-263 -386h272v-60h-364zM95 -168v52h260v-52h-260z" />
    <glyph glyph-name="uni1E96" unicode="&#x1e96;" horiz-adv-x="540" 
d="M85 0v714h72v-198l-2 -102c23.333 23.333 48 43 74 59s55.333 24 88 24c51.333 0 88.833 -16 112.5 -48s35.5 -79 35.5 -141v-308h-73v299c0 46.667 -7.5 80.667 -22.5 102s-39.5 32 -73.5 32c-26 0 -49.167 -6.5 -69.5 -19.5s-43.5 -32.5 -69.5 -58.5v-355h-72z
M156 -168v52h260v-52h-260z" />
    <glyph glyph-name="uni1EA0" unicode="&#x1ea0;" horiz-adv-x="539" 
d="M4 0l225 656.999h82l224 -657h-78l-119 372l-34.5 110.5l-33.5 112.5h-4c-10 -38.667 -20.5 -76.167 -31.5 -112.5s-22.833 -73.166 -35.5 -110.499l-120 -372h-75zM118 206.999v59h300v-59h-300zM268 -203.001c-14 0 -25.833 4.66699 -35.5 14
s-14.5 21.666 -14.5 36.999c0 14 4.83301 25.667 14.5 35s21.5 14 35.5 14c14.667 0 26.667 -4.66699 36 -14s14 -21 14 -35c0 -15.333 -4.66699 -27.666 -14 -36.999s-21.333 -14 -36 -14z" />
    <glyph glyph-name="uni1EA1" unicode="&#x1ea1;" horiz-adv-x="501" 
d="M195 -12c-26.667 0 -50.667 5.33594 -72 16.0029s-38.333 26.167 -51 46.5s-19 44.833 -19 73.5c0 53.333 24.167 94.166 72.5 122.499s124.833 48.166 229.5 59.499c0 21.333 -2.83301 42.166 -8.5 62.499s-16 36.666 -31 48.999s-36.5 18.5 -64.5 18.5
c-29.333 0 -56.5 -5.66699 -81.5 -17s-46.833 -23.333 -65.5 -36l-29 50c14 9.33301 30.667 19 50 29s40.666 18.333 63.999 25s48 10 74 10c38.667 0 70.167 -8.33301 94.5 -25s42 -39.667 53 -69s16.5 -63.666 16.5 -102.999v-300h-60l-6 59h-3
c-23.333 -19.333 -48.666 -36 -75.999 -50s-56.333 -21 -87 -21zM214 47.0029c24.667 0 47.999 5.83496 69.999 17.502s45.667 28.5 71 50.5v142c-57.333 -6.66699 -102.666 -15.834 -135.999 -27.501s-57.333 -25.834 -72 -42.501s-22 -36 -22 -58
c0 -28.667 8.83301 -49.5 26.5 -62.5s38.5 -19.5 62.5 -19.5zM246.999 -202.995c-14 0 -25.833 4.66699 -35.5 14s-14.5 21.666 -14.5 36.999c0 14 4.83301 25.667 14.5 35s21.5 14 35.5 14c14.667 0 26.667 -4.66699 36 -14s14 -21 14 -35
c0 -15.333 -4.66699 -27.666 -14 -36.999s-21.333 -14 -36 -14z" />
    <glyph glyph-name="uni1EB8" unicode="&#x1eb8;" horiz-adv-x="524" 
d="M92 0v657h373v-63h-299v-217h252v-62h-252v-252h309v-63h-383zM290 -203c-14 0 -25.833 4.66699 -35.5 14s-14.5 21.666 -14.5 36.999c0 14 4.83301 25.667 14.5 35s21.5 14 35.5 14c14.667 0 26.667 -4.66699 36 -14s14 -21 14 -35
c0 -15.333 -4.66699 -27.666 -14 -36.999s-21.333 -14 -36 -14z" />
    <glyph glyph-name="uni1EB9" unicode="&#x1eb9;" horiz-adv-x="492" 
d="M277 -12c-42.667 0 -81.3311 10.1709 -115.998 30.5039s-62.334 49.333 -83.001 87s-31 83.167 -31 136.5c0 52 10.333 97.167 31 135.5s47.5 67.833 80.5 88.5s68.167 31 105.5 31c40 0 74.333 -9.33301 103 -28s50.5 -44.834 65.5 -78.501s22.5 -73.834 22.5 -120.501
c0 -7.33301 -0.333008 -15 -1 -23s-1.66699 -15 -3 -21h-347l-1 53h287c0 52 -11 91.5 -33 118.5s-52.667 40.5 -92 40.5c-24 0 -47.333 -6.83301 -70 -20.5s-41.334 -35 -56.001 -64s-22 -66.167 -22 -111.5c0 -43.333 7.66699 -79.333 23 -108
s35.833 -50.334 61.5 -65.001s53.834 -22 84.501 -22c24 0 46 3.66699 66 11s39 16.666 57 27.999l27 -48c-20.667 -13.333 -43.834 -25 -69.501 -35s-55.5 -15 -89.5 -15zM256.003 -202.996c-14 0 -25.833 4.66699 -35.5 14s-14.5 21.666 -14.5 36.999
c0 14 4.83301 25.667 14.5 35s21.5 14 35.5 14c14.667 0 26.667 -4.66699 36 -14s14 -21 14 -35c0 -15.333 -4.66699 -27.666 -14 -36.999s-21.333 -14 -36 -14z" />
    <glyph glyph-name="uni1ECC" unicode="&#x1ecc;" horiz-adv-x="661" 
d="M331 -12c-54.667 0 -102.834 14 -144.501 42s-74.5 67.667 -98.5 119s-36 112 -36 182s12 130.333 36 181s56.833 89.5 98.5 116.5s89.834 40.5 144.501 40.5c54 0 102 -13.5 144 -40.5s74.833 -65.833 98.5 -116.5s35.5 -111 35.5 -181s-11.833 -130.667 -35.5 -182
s-56.5 -91 -98.5 -119s-90 -42 -144 -42zM331 53c40 0 75.167 11.5 105.5 34.5s53.833 55.333 70.5 97s25 90.5 25 146.5s-8.33301 104.333 -25 145s-40.167 72.167 -70.5 94.5s-65.5 33.5 -105.5 33.5c-40.667 0 -76.167 -11.167 -106.5 -33.5s-53.833 -53.833 -70.5 -94.5
s-25 -89 -25 -145s8.33301 -104.833 25 -146.5s40.167 -74 70.5 -97s65.833 -34.5 106.5 -34.5zM331 -203c-14 0 -25.833 4.66699 -35.5 14s-14.5 21.666 -14.5 36.999c0 14 4.83301 25.667 14.5 35s21.5 14 35.5 14c14.667 0 26.667 -4.66699 36 -14s14 -21 14 -35
c0 -15.333 -4.66699 -27.666 -14 -36.999s-21.333 -14 -36 -14z" />
    <glyph glyph-name="uni1ECD" unicode="&#x1ecd;" horiz-adv-x="540" 
d="M270 -12c-39.333 0 -76 10 -110 30s-61.333 48.833 -82 86.5s-31 83.5 -31 137.5c0 53.333 10.333 99.166 31 137.499s48 67.5 82 87.5s70.667 30 110 30s75.833 -10 109.5 -30s61 -49.167 82 -87.5s31.5 -84.166 31.5 -137.499c0 -54 -10.5 -99.833 -31.5 -137.5
s-48.333 -66.5 -82 -86.5s-70.167 -30 -109.5 -30zM270 49c29.333 0 55.166 8 77.499 24s39.666 38.5 51.999 67.5s18.5 62.833 18.5 101.5c0 38 -6.16699 71.667 -18.5 101s-29.666 52.166 -51.999 68.499s-48.166 24.5 -77.499 24.5
c-28.667 0 -54.167 -8.16699 -76.5 -24.5s-39.666 -39.166 -51.999 -68.499s-18.5 -63 -18.5 -101c0 -38.667 6.16699 -72.5 18.5 -101.5s29.666 -51.5 51.999 -67.5s47.833 -24 76.5 -24zM270 -203c-14 0 -25.833 4.66699 -35.5 14s-14.5 21.666 -14.5 36.999
c0 14 4.83301 25.667 14.5 35s21.5 14 35.5 14c14.667 0 26.667 -4.66699 36 -14s14 -21 14 -35c0 -15.333 -4.66699 -27.666 -14 -36.999s-21.333 -14 -36 -14z" />
    <glyph glyph-name="uni200E" unicode="&#x200e;" 
d="M39 767l-25 25l63 66h-191v36h191l-63 63l25 27l105 -109z" />
    <glyph glyph-name="uni200F" unicode="&#x200f;" 
d="M-39 768l-105 107l105 109l25 -26l-63 -64h193v-36h-192l62 -66z" />
    <glyph glyph-name="uni2010" unicode="&#x2010;" horiz-adv-x="308" 
d="M41 222v57h227v-57h-227z" />
    <glyph glyph-name="endash" unicode="&#x2013;" horiz-adv-x="480" 
d="M41 225v52h398v-52h-398z" />
    <glyph glyph-name="emdash" unicode="&#x2014;" horiz-adv-x="800" 
d="M41 225v52h718v-52h-718z" />
    <glyph glyph-name="quoteleft" unicode="&#x2018;" horiz-adv-x="242" 
d="M115 441c-18 0 -32.166 7.33398 -42.499 22.001s-15.5 35.667 -15.5 63c0 38.667 8.66699 72.167 26 100.5s42.333 52.166 75 71.499l22 -35c-24 -16.667 -42.167 -34.5 -54.5 -53.5s-18.5 -42.833 -18.5 -71.5l12 -64l-40 49c6 6 11.667 10.333 17 13s11.666 4 18.999 4
c12.667 0 24.167 -4 34.5 -12s15.5 -19.667 15.5 -35c0 -16 -4.66699 -28.667 -14 -38s-21.333 -14 -36 -14z" />
    <glyph glyph-name="quoteright" unicode="&#x2019;" horiz-adv-x="242" 
d="M83 442l-22.001 35c24.667 16.667 43.167 34.667 55.5 54s18.5 43 18.5 71l-13 64l41 -49c-6 -6 -11.667 -10.333 -17 -13s-12 -4 -20 -4c-12.667 0 -24 4.16699 -34 12.5s-15 19.833 -15 34.5c0 16.667 4.66699 29.5 14 38.5s21 13.5 35 13.5
c18.667 0 33.167 -7.33301 43.5 -22s15.5 -35.667 15.5 -63c0 -38.667 -8.66699 -72 -26 -100s-42.666 -52 -75.999 -72z" />
    <glyph glyph-name="quotesinglbase" unicode="&#x201a;" horiz-adv-x="242" 
d="M83 -142l-22.001 35c24.667 16.667 43.167 34.667 55.5 54s18.5 43 18.5 71l-13 64l41 -49c-6 -6 -11.667 -10.333 -17 -13s-12 -4 -20 -4c-12.667 0 -24 4.16699 -34 12.5s-15 19.833 -15 34.5c0 16.667 4.66699 29.5 14 38.5s21 13.5 35 13.5
c18.667 0 33.167 -7.33301 43.5 -22s15.5 -35.667 15.5 -63c0 -38.667 -8.66699 -72 -26 -100s-42.666 -52 -75.999 -72z" />
    <glyph glyph-name="quotedblleft" unicode="&#x201c;" horiz-adv-x="409" 
d="M115 441c-18 0 -32.166 7.33398 -42.499 22.001s-15.5 35.667 -15.5 63c0 38.667 8.66699 72.167 26 100.5s42.333 52.166 75 71.499l22 -35c-24 -16.667 -42.167 -34.5 -54.5 -53.5s-18.5 -42.833 -18.5 -71.5l12 -64l-40 49c6 6 11.667 10.333 17 13s11.666 4 18.999 4
c12.667 0 24.167 -4 34.5 -12s15.5 -19.667 15.5 -35c0 -16 -4.66699 -28.667 -14 -38s-21.333 -14 -36 -14zM283.001 441.001c-18 0 -32.166 7.33398 -42.499 22.001s-15.5 35.667 -15.5 63c0 38.667 8.66699 72.167 26 100.5s42.333 52.166 75 71.499l22 -35
c-24 -16.667 -42.167 -34.5 -54.5 -53.5s-18.5 -42.833 -18.5 -71.5l12 -64l-40 49c6 6 11.667 10.333 17 13s11.666 4 18.999 4c12.667 0 24.167 -4 34.5 -12s15.5 -19.667 15.5 -35c0 -16 -4.66699 -28.667 -14 -38s-21.333 -14 -36 -14z" />
    <glyph glyph-name="quotedblright" unicode="&#x201d;" horiz-adv-x="409" 
d="M83 442l-22.001 35c24.667 16.667 43.167 34.667 55.5 54s18.5 43 18.5 71l-13 64l41 -49c-6 -6 -11.667 -10.333 -17 -13s-12 -4 -20 -4c-12.667 0 -24 4.16699 -34 12.5s-15 19.833 -15 34.5c0 16.667 4.66699 29.5 14 38.5s21 13.5 35 13.5
c18.667 0 33.167 -7.33301 43.5 -22s15.5 -35.667 15.5 -63c0 -38.667 -8.66699 -72 -26 -100s-42.666 -52 -75.999 -72zM250.999 442l-22.001 35c24.667 16.667 43.167 34.667 55.5 54s18.5 43 18.5 71l-13 64l41 -49c-6 -6 -11.667 -10.333 -17 -13s-12 -4 -20 -4
c-12.667 0 -24 4.16699 -34 12.5s-15 19.833 -15 34.5c0 16.667 4.66699 29.5 14 38.5s21 13.5 35 13.5c18.667 0 33.167 -7.33301 43.5 -22s15.5 -35.667 15.5 -63c0 -38.667 -8.66699 -72 -26 -100s-42.666 -52 -75.999 -72z" />
    <glyph glyph-name="quotedblbase" unicode="&#x201e;" horiz-adv-x="409" 
d="M83 -142l-22.001 35c24.667 16.667 43.167 34.667 55.5 54s18.5 43 18.5 71l-13 64l41 -49c-6 -6 -11.667 -10.333 -17 -13s-12 -4 -20 -4c-12.667 0 -24 4.16699 -34 12.5s-15 19.833 -15 34.5c0 16.667 4.66699 29.5 14 38.5s21 13.5 35 13.5
c18.667 0 33.167 -7.33301 43.5 -22s15.5 -35.667 15.5 -63c0 -38.667 -8.66699 -72 -26 -100s-42.666 -52 -75.999 -72zM250.999 -142l-22.001 35c24.667 16.667 43.167 34.667 55.5 54s18.5 43 18.5 71l-13 64l41 -49c-6 -6 -11.667 -10.333 -17 -13s-12 -4 -20 -4
c-12.667 0 -24 4.16699 -34 12.5s-15 19.833 -15 34.5c0 16.667 4.66699 29.5 14 38.5s21 13.5 35 13.5c18.667 0 33.167 -7.33301 43.5 -22s15.5 -35.667 15.5 -63c0 -38.667 -8.66699 -72 -26 -100s-42.666 -52 -75.999 -72z" />
    <glyph glyph-name="dagger" unicode="&#x2020;" horiz-adv-x="445" 
d="M191 -80l4 579l-140 -4v63l140 -4l-4 158h63l-4 -158l140 4v-63l-140 4l4 -579h-63z" />
    <glyph glyph-name="daggerdbl" unicode="&#x2021;" horiz-adv-x="445" 
d="M191 -80l4 158l-140 -4v63l140 -5l-4 184l4 184l-140 -5v63l140 -4l-4 158h63l-4 -158l140 4v-63l-140 5l4 -184l-4 -184l140 5v-63l-140 4l4 -158h-63z" />
    <glyph glyph-name="bullet" unicode="&#x2022;" horiz-adv-x="298" 
d="M149 145c-19.333 0 -37.166 5 -53.499 15s-29.666 23.833 -39.999 41.5s-15.5 38.167 -15.5 61.5c0 24 5.16699 44.667 15.5 62s23.666 31 39.999 41s34.166 15 53.499 15s37.333 -5 54 -15s30 -23.667 40 -41s15 -38 15 -62c0 -23.333 -5 -43.833 -15 -61.5
s-23.333 -31.5 -40 -41.5s-34.667 -15 -54 -15z" />
    <glyph glyph-name="ellipsis" unicode="&#x2026;" horiz-adv-x="998" 
d="M166 -12c-14.667 0 -27.5 5.33301 -38.5 16s-16.5 24.667 -16.5 42c0 18 5.5 32.333 16.5 43s23.833 16 38.5 16c15.333 0 28.333 -5.33301 39 -16s16 -25 16 -43c0 -17.333 -5.33301 -31.333 -16 -42s-23.667 -16 -39 -16zM500 -12c-14.667 0 -27.5 5.33301 -38.5 16
s-16.5 24.667 -16.5 42c0 18 5.5 32.333 16.5 43s23.833 16 38.5 16c15.333 0 28.333 -5.33301 39 -16s16 -25 16 -43c0 -17.333 -5.33301 -31.333 -16 -42s-23.667 -16 -39 -16zM834 -12c-14.667 0 -27.5 5.33301 -38.5 16s-16.5 24.667 -16.5 42c0 18 5.5 32.333 16.5 43
s23.833 16 38.5 16c15.333 0 28.333 -5.33301 39 -16s16 -25 16 -43c0 -17.333 -5.33301 -31.333 -16 -42s-23.667 -16 -39 -16z" />
    <glyph glyph-name="uni202D" unicode="&#x202d;" 
d="M-31 767l-26 25l63 66h-162v36h160l-61 63l26 27l104 -109zM66 767l-25 25l82 83l-82 82l25 27l105 -109z" />
    <glyph glyph-name="uni202E" unicode="&#x202e;" 
d="M31 805l-102 109l102 107l28 -26l-63 -66h161v-34h-161l63 -64zM-66 805l-105 109l105 107l25 -26l-80 -81l80 -83z" />
    <glyph glyph-name="perthousand" unicode="&#x2030;" horiz-adv-x="1183" 
d="M198 -12l363 681h51l-363 -681h-51zM189 259c-30 0 -56.002 8.16699 -78.002 24.5s-39 40 -51 71s-18 68.5 -18 112.5c0 66 13.5 116.833 40.5 152.5s62.5 53.5 106.5 53.5c44.667 0 80.334 -17.833 107.001 -53.5s40 -86.5 40 -152.5c0 -44 -6 -81.5 -18 -112.5
s-29.167 -54.667 -51.5 -71s-48.166 -24.5 -77.499 -24.5zM188.998 306c27.333 0 49.333 13.667 66 41s25 67.333 25 120c0 53.333 -8.33301 93.333 -25 120s-38.667 40 -66 40c-26.667 0 -48.5 -13.333 -65.5 -40s-25.5 -66.667 -25.5 -120
c0 -52.667 8.5 -92.667 25.5 -120s38.833 -41 65.5 -41zM630.998 -12c-30 0 -56.002 8.16699 -78.002 24.5s-39 40 -51 71s-18 68.5 -18 112.5c0 66 13.333 116.833 40 152.5s62.334 53.5 107.001 53.5s80.334 -17.833 107.001 -53.5s40 -86.5 40 -152.5
c0 -44 -6.16699 -81.5 -18.5 -112.5s-29.5 -54.667 -51.5 -71s-47.667 -24.5 -77 -24.5zM630.996 34c27.333 0 49.166 13.833 65.499 41.5s24.5 67.834 24.5 120.501c0 53.333 -8.16699 93.333 -24.5 120s-38.166 40 -65.499 40c-26.667 0 -48.5 -13.333 -65.5 -40
s-25.5 -66.667 -25.5 -120c0 -52.667 8.5 -92.834 25.5 -120.501s38.833 -41.5 65.5 -41.5zM993.996 -12c-30 0 -56.002 8.16699 -78.002 24.5s-39 40 -51 71s-18 68.5 -18 112.5c0 66 13.5 116.833 40.5 152.5s62.5 53.5 106.5 53.5c44.667 0 80.334 -17.833 107.001 -53.5
s40 -86.5 40 -152.5c0 -44 -6 -81.5 -18 -112.5s-29.167 -54.667 -51.5 -71s-48.166 -24.5 -77.499 -24.5zM993.994 34c27.333 0 49.333 13.833 66 41.5s25 67.834 25 120.501c0 53.333 -8.33301 93.333 -25 120s-38.667 40 -66 40c-26.667 0 -48.5 -13.333 -65.5 -40
s-25.5 -66.667 -25.5 -120c0 -52.667 8.5 -92.834 25.5 -120.501s38.833 -41.5 65.5 -41.5z" />
    <glyph glyph-name="guilsinglleft" unicode="&#x2039;" horiz-adv-x="268" 
d="M181 67l-137 157v56l137 157l33 -28l-119 -157l119 -158z" />
    <glyph glyph-name="guilsinglright" unicode="&#x203a;" horiz-adv-x="268" 
d="M87 67l-33 27l119 158l-119 157l33 28l136 -157v-56z" />
    <glyph glyph-name="fraction" unicode="&#x2044;" horiz-adv-x="85" 
d="M-166 -12l363 681h51l-363 -681h-51z" />
    <glyph glyph-name="foursuperior" unicode="&#x2074;" horiz-adv-x="372" 
d="M226 407v224l5 107h-4l-51 -82l-65 -100h226v-42h-288v29l167 254h63v-390h-53z" />
    <glyph glyph-name="newsheqel" unicode="&#x20aa;" horiz-adv-x="734" 
d="M69 0v555h244c35.333 0 64.5 -7.16699 87.5 -21.5s39.833 -36.333 50.5 -66s16 -67.167 16 -112.5v-154h-62v157c0 44.667 -6.66699 78.5 -20 101.5s-38 34.5 -74 34.5h-165v-494h-77zM240 0l0.00195312 364.001h62v-297c60.667 2.66699 110.667 11.167 150 25.5
s69.666 35.666 90.999 63.999s36.166 63.333 44.499 105s12.5 90.834 12.5 147.501l-2 146h77l1 -146c0.666992 -96.667 -13 -175 -41 -235s-73.833 -103.833 -137.5 -131.5s-149.5 -41.834 -257.5 -42.501z" />
    <glyph glyph-name="Euro" unicode="&#x20ac;" horiz-adv-x="492" 
d="M316 -12c-46 0 -86.668 13.333 -122.001 40s-62.833 64.667 -82.5 114s-29.5 108.333 -29.5 177s10.333 127.667 31 177s49.5 87.333 86.5 114s80.5 40 130.5 40c30 0 57.833 -7.5 83.5 -22.5s46.834 -33.5 63.501 -55.5l-43 -41c-14 18 -29.667 32.5 -47 43.5
s-37 16.5 -59 16.5c-36.667 0 -67.667 -11 -93 -33s-44.666 -53.167 -57.999 -93.5s-20 -88.166 -20 -143.499c0 -56 6.5 -104.5 19.5 -145.5s31.667 -72.667 56 -95s53.5 -33.5 87.5 -33.5c26 0 48.5 6.16699 67.5 18.5s37.5 30.5 55.5 54.5l44 -39
c-22 -28.667 -46.833 -51.334 -74.5 -68.001s-59.834 -25 -96.501 -25zM22.999 237v41l67 4h293v-45h-360zM22.999 351v41l69 4h331v-45h-400z" />
    <glyph glyph-name="uni210A" unicode="&#x210a;" horiz-adv-x="556" 
d="M259 -220c-30.667 0 -60.8311 4.66797 -90.498 14.001s-57.167 22.666 -82.5 39.999l28 51c24 -16 48.167 -27.667 72.5 -35s48.5 -11 72.5 -11c46 0 80.167 12.333 102.5 37s34.166 57.667 35.499 99l1 96c-18.667 -18.667 -40.5 -34.667 -65.5 -48s-52.5 -20 -82.5 -20
c-40 0 -75 9.83301 -105 29.5s-53.333 47.834 -70 84.501s-25 80.667 -25 132c0 50.667 10 94.5 30 131.5s46.167 65.667 78.5 86s67.166 30.5 104.499 30.5c27.333 0 51.666 -4.83301 72.999 -14.5s42.333 -23.834 63 -42.501h3l6 45h61v-514
c0 -58.667 -18.167 -105.167 -54.5 -139.5s-88.166 -51.5 -155.499 -51.5zM265.003 64.001c24 0 46.5 6.00098 67.5 18.001s42.5 29.667 64.5 53v247c-22 19.333 -43 33 -63 41s-40.333 12 -61 12c-28 0 -53 -8 -75 -24s-39.667 -37.833 -53 -65.5s-20 -59.834 -20 -96.501
c0 -55.333 12.167 -100 36.5 -134s58.833 -51 103.5 -51z" />
    <glyph glyph-name="trademark" unicode="&#x2122;" horiz-adv-x="630" 
d="M310 367v309h67l49 -119l28 -80h4l28 80l48 119h67v-309h-51v143l6 103h-4l-75 -199h-44l-75 199h-4l7 -103v-143h-51zM104 367v259h-101v50h257v-50h-102v-259h-54z" />
    <glyph glyph-name="estimated" unicode="&#x212e;" horiz-adv-x="800" 
d="M400 -12c-48.667 0 -94.499 8.66504 -137.499 25.998s-80.667 41.333 -113 72s-57.666 66.334 -75.999 107.001s-27.5 84.334 -27.5 131.001s9.16699 90.334 27.5 131.001s43.666 76.334 75.999 107.001s70 54.667 113 72s88.833 26 137.5 26
c49.333 0 95.333 -8.66699 138 -26s80.167 -41.333 112.5 -72s57.666 -66.334 75.999 -107.001s27.5 -84.334 27.5 -131.001v-3.5v-4.5h-574c-2.66699 0 -4 -1.33301 -4 -4v-184c0 -4 0.833008 -7.5 2.5 -10.5l5.5 -9.5c27.333 -30.667 59.833 -55 97.5 -73
s77.834 -27 120.501 -27c45.333 0 87.666 10.167 126.999 30.5s73 47.5 101 81.5h52c-32.667 -40 -73.5 -72 -122.5 -96s-102.167 -36 -159.5 -36zM180.001 333.998h440c4 0 6 2 6 6v184c0 4 -0.833008 8 -2.5 12s-4.16699 7.33301 -7.5 10
c-28 29.333 -60.333 52.333 -97 69s-75.667 25 -117 25c-42.667 0 -82.667 -8.83301 -120 -26.5s-70 -41.5 -98 -71.5c-2 -2.66699 -3.83301 -6 -5.5 -10s-2.5 -8 -2.5 -12v-180c0 -4 1.33301 -6 4 -6z" />
    <glyph glyph-name="partialdiff" unicode="&#x2202;" horiz-adv-x="520" 
d="M219 -12c-32 0 -61.665 7.66699 -88.998 23s-49.333 37.333 -66 66s-25 62.667 -25 102c0 44 8.66699 82.667 26 116s42.166 59.666 74.499 78.999s71.166 29 116.499 29c29.333 0 57.833 -7 85.5 -21s51.834 -33.333 72.501 -58l-9 -61c-23.333 30 -47.333 51 -72 63
s-48.667 18 -72 18c-34.667 0 -63.334 -7.16699 -86.001 -21.5s-39.334 -33.5 -50.001 -57.5s-16 -51 -16 -81c0 -27.333 5.33301 -51.166 16 -71.499s24.834 -36 42.501 -47s37.167 -16.5 58.5 -16.5c28 0 53.167 7.5 75.5 22.5s41.666 36.167 57.999 63.5
s28.666 60.666 36.999 99.999s12.5 83 12.5 131c0 58.667 -6 105.667 -18 141s-28.667 61 -50 77s-46.666 24 -75.999 24c-21.333 0 -41.666 -4.33301 -60.999 -13s-37 -21.334 -53 -38.001l-34 46c20.667 20.667 44 36.834 70 48.501s54.333 17.5 85 17.5
c42 0 78.5 -10.667 109.5 -32s55.167 -54.166 72.5 -98.499s26 -101.5 26 -171.5c0 -75.333 -10.833 -141.5 -32.5 -198.5s-52.167 -101.333 -91.5 -133s-85 -47.5 -137 -47.5z" />
    <glyph glyph-name="product" unicode="&#x220f;" horiz-adv-x="668" 
d="M90 -120v758h488v-758h-75v694h-339v-694h-74z" />
    <glyph glyph-name="summation" unicode="&#x2211;" horiz-adv-x="500" 
d="M21 -120v48l243 331l-232 331v48h437v-63h-345v-4l219 -311l-229 -313v-4h384v-63h-477z" />
    <glyph glyph-name="minus" unicode="&#x2212;" horiz-adv-x="492" 
d="M34 302v56h424v-56h-424z" />
    <glyph glyph-name="uni2215" unicode="&#x2215;" horiz-adv-x="85" 
d="M-166 -12l363 681h51l-363 -681h-51z" />
    <glyph glyph-name="uni2219" unicode="&#x2219;" horiz-adv-x="498" 
d="M245 267c-14.667 0 -27.5 5.33301 -38.5 16s-16.5 24.667 -16.5 42c0 18 5.5 32.333 16.5 43s23.833 16 38.5 16c15.333 0 28.333 -5.33301 39 -16s16 -25 16 -43c0 -17.333 -5.33301 -31.333 -16 -42s-23.667 -16 -39 -16z" />
    <glyph glyph-name="radical" unicode="&#x221a;" horiz-adv-x="552" 
d="M282 -98l-150.001 431l-71 -32l-18 42l127 56l119 -353c3.33301 -10 6.33301 -20.167 9 -30.5s5 -20.5 7 -30.5h4c2 10 3.83301 20.167 5.5 30.5s3.83398 20.5 6.50098 30.5l181 774h54l-217 -918h-57z" />
    <glyph glyph-name="infinity" unicode="&#x221e;" horiz-adv-x="777" 
d="M568 152c-28 0 -53.4961 5.16602 -76.4961 15.499s-44.5 24.666 -64.5 42.999s-40 39.833 -60 64.5h-4c-12 -13.333 -26.167 -28.166 -42.5 -44.499s-35.333 -30.5 -57 -42.5s-46.834 -18 -75.501 -18c-26.667 0 -51.167 7 -73.5 21s-40.333 32.667 -54 56
s-20.5 49.333 -20.5 78c0 34 7 63.333 21 88s33 43.834 57 57.501s51.333 20.5 82 20.5c26.667 0 50.667 -5.66699 72 -17s40 -25.166 56 -41.499s30 -32.5 42 -48.5h4c15.333 21.333 32.666 41.166 51.999 59.499s40.833 33.5 64.5 45.5s49.5 18 77.5 18
c33.333 0 62.666 -7.5 87.999 -22.5s45.166 -35.333 59.499 -61s21.5 -55.167 21.5 -88.5c0 -36 -7.33301 -67.833 -22 -95.5s-34.667 -49.167 -60 -64.5s-54.333 -23 -87 -23zM196.004 226.999c28.667 0 54.5 9.33301 77.5 28s43.5 41 61.5 67
c-22 29.333 -44.333 53.166 -67 71.499s-47.334 27.5 -74.001 27.5c-27.333 0 -50.166 -8.16699 -68.499 -24.5s-27.5 -39.166 -27.5 -68.499s9.5 -53.5 28.5 -72.5s42.167 -28.5 69.5 -28.5zM569.004 221.999c34.667 0 61.666 10.833 80.999 32.5s29 47.5 29 77.5
c0 34.667 -10.167 63 -30.5 85s-49.166 33 -86.499 33c-30 0 -58 -9.66699 -84 -29s-51.333 -46.666 -76 -81.999c28.667 -38.667 56 -67.834 82 -87.501s54.333 -29.5 85 -29.5z" />
    <glyph glyph-name="integral" unicode="&#x222b;" horiz-adv-x="324" 
d="M100 -158c-10 0 -19.165 0.666016 -27.498 1.99902s-14.833 3 -19.5 5l9 55c4.66699 -0.666992 10 -1.5 16 -2.5s12.333 -1.5 19 -1.5c28.667 0 47.167 14.333 55.5 43s12.5 69 12.5 121c0 36.667 -2.16699 76.167 -6.5 118.5s-9.33301 86 -15 131
s-10.667 88.833 -15 131.5s-6.5 82 -6.5 118c0 42.667 3.33301 81 10 115s19.5 61 38.5 81s46.833 30 83.5 30c9.33301 0 18.166 -0.666992 26.499 -2s14.5 -2.66602 18.5 -3.99902l-9 -56c-4.66699 1.33301 -9.83398 2.33301 -15.501 3s-12.167 1 -19.5 1
c-27.333 0 -45.166 -14.5 -53.499 -43.5s-12.5 -69.5 -12.5 -121.5c0 -36 2 -75.333 6 -118s8.83301 -86.167 14.5 -130.5s10.5 -88 14.5 -131s6 -82.5 6 -118.5c0 -42.667 -3.33301 -81.167 -10 -115.5s-19.334 -61.333 -38.001 -81s-46 -29.5 -82 -29.5z" />
    <glyph glyph-name="approxequal" unicode="&#x2248;" horiz-adv-x="492" 
d="M334 365c-19.333 0 -36.834 4.33301 -52.501 13s-30.334 18.667 -44.001 30s-27.167 21.333 -40.5 30s-27 13 -41 13s-27.5 -4.66699 -40.5 -14s-25.167 -25 -36.5 -47l-42 28c17.333 31.333 36.666 54 57.999 68s42.333 21 63 21c20 0 37.833 -4.33301 53.5 -13
s30.334 -18.667 44.001 -30s27 -21.333 40 -30s26.5 -13 40.5 -13c14.667 0 28.334 4.83301 41.001 14.5s24.667 25.167 36 46.5l42 -30c-16.667 -30 -35.667 -52 -57 -66s-42.666 -21 -63.999 -21zM333.999 153c-19.333 0 -36.834 4.33301 -52.501 13
s-30.334 18.667 -44.001 30s-27.167 21.333 -40.5 30s-27 13 -41 13s-27.5 -4.66699 -40.5 -14s-25.167 -25 -36.5 -47l-42 28c17.333 31.333 36.666 54 57.999 68s42.333 21 63 21c20 0 37.833 -4.33301 53.5 -13s30.334 -18.667 44.001 -30s27 -21.333 40 -30
s26.5 -13 40.5 -13c14.667 0 28.334 4.83301 41.001 14.5s24.667 25.167 36 46.5l42 -30c-16.667 -30 -35.667 -52 -57 -66s-42.666 -21 -63.999 -21z" />
    <glyph glyph-name="notequal" unicode="&#x2260;" horiz-adv-x="492" 
d="M62 69l77 127h-105v56h137l94 156h-231v56h264l77 127h55l-77 -127h105v-56h-137l-94 -156h231v-56h-263l-77 -127h-56z" />
    <glyph glyph-name="lessequal" unicode="&#x2264;" horiz-adv-x="492" 
d="M458 153l-424 154v68l424 154v-64l-215 -77l-134 -45v-4l134 -45l215 -77v-64zM34 0v56h424v-56h-424z" />
    <glyph glyph-name="greaterequal" unicode="&#x2265;" horiz-adv-x="492" 
d="M34 153v64l215 77l135 45v4l-135 45l-215 77v64l424 -154v-68zM34 0v56h424v-56h-424z" />
    <glyph glyph-name="lozenge" unicode="&#x25ca;" horiz-adv-x="512" 
d="M222 -10l-165 340l165 340h69l164 -340l-164 -340h-69zM254 51h4l64 135l68 144l-68 143l-64 136h-4l-64 -136l-67 -143l67 -144z" />
    </font>
</defs>
</svg>
