<?xml version="1.0" standalone="no"?>
<!DOCTYPE svg PUBLIC "-//W3C//DTD SVG 1.1//EN" "http://www.w3.org/Graphics/SVG/1.1/DTD/svg11.dtd" >
<svg>
<metadata>
Created by FontForge 20090914 at Mon Jan 11 12:49:21 2021
 By www-data
Copyright 2020 The Assistant Project Authors (https://github.com/hafontia/Assistant). Copyright 2010 The Source Sans Pro Authors (https://github.com/adobe-fonts/source-sans-pro), with Reserved Font Name 'Source'. Source is a trademark of Adobe Systems Incorporated in the United States and/or other countries.
</metadata>
<defs>
<font id="Assistant-Bold" horiz-adv-x="0" >
  <font-face 
    font-family="Assistant"
    font-weight="700"
    font-stretch="normal"
    units-per-em="1000"
    panose-1="0 0 0 0 0 0 0 0 0 0"
    ascent="800"
    descent="-200"
    x-height="495"
    cap-height="653"
    bbox="-455.996 -277 1191 1021"
    underline-thickness="50"
    underline-position="-75"
    unicode-range="U+000D-U+FB4B"
  />
<missing-glyph horiz-adv-x="684" 
d="M81 0v660h522v-660h-522zM252 86h179l-44 86l-43 99h-4l-43 -99zM175 148l100 192l-100 194v-386zM509 148v386l-99 -194zM340 410h4l44 95l37 69h-166l37 -69z" />
    <glyph glyph-name="fi" unicode="fi" horiz-adv-x="605" 
d="M91 0l-0.000976562 529.002c0 34.667 5.83301 66 17.5 94s30.334 50.333 56.001 67s59.834 25 102.501 25c20 0 38.333 -1.83301 55 -5.5s30.334 -7.83398 41.001 -12.501l-25 -101c-8.66699 4 -17.334 6.83301 -26.001 8.5s-17.334 2.5 -26.001 2.5
c-18.667 0 -33 -5.83301 -43 -17.5s-15 -30.834 -15 -57.501v-532h-137zM24.999 387.002v102l74 6h220v-108h-294zM400.999 0.00195312v495h136v-495h-136zM468.999 572.002c-22 0 -40.333 6.83301 -55 20.5s-22 31.167 -22 52.5s7.33301 38.833 22 52.5s33 20.5 55 20.5
c22.667 0 41.167 -6.83301 55.5 -20.5s21.5 -31.167 21.5 -52.5s-7.16699 -38.833 -21.5 -52.5s-32.833 -20.5 -55.5 -20.5z" />
    <glyph glyph-name="fl" unicode="fl" horiz-adv-x="614" 
d="M91 0l-0.000976562 529.002c0 34.667 5.83301 66 17.5 94s30.334 50.333 56.001 67s59.834 25 102.501 25c20 0 38.333 -1.83301 55 -5.5s30.334 -7.83398 41.001 -12.501l-25 -101c-8.66699 4 -17.334 6.83301 -26.001 8.5s-17.334 2.5 -26.001 2.5
c-18.667 0 -33 -5.83301 -43 -17.5s-15 -30.834 -15 -57.501v-532h-137zM24.999 387.002v102l74 6h220v-108h-294zM527.999 -11.998c-31.333 0 -56.332 6.49902 -74.999 19.499s-32 31.167 -40 54.5s-12 51 -12 83v558h136v-564c0 -14.667 2.83301 -25 8.5 -31
s11.5 -9 17.5 -9c3.33301 0 6.16602 0.166992 8.49902 0.5s5.5 0.833008 9.5 1.5l17 -101c-8 -3.33301 -17.667 -6.16602 -29 -8.49902s-25 -3.5 -41 -3.5z" />
    <glyph glyph-name=".notdef" horiz-adv-x="684" 
d="M81 0v660h522v-660h-522zM252 86h179l-44 86l-43 99h-4l-43 -99zM175 148l100 192l-100 194v-386zM509 148v386l-99 -194zM340 410h4l44 95l37 69h-166l37 -69z" />
    <glyph glyph-name="CR" unicode="&#xd;" horiz-adv-x="250" 
 />
    <glyph glyph-name="space" unicode=" " horiz-adv-x="200" 
 />
    <glyph glyph-name="exclam" unicode="!" horiz-adv-x="332" 
d="M121 226l-19 318l-4 126h137l-5 -126l-19 -318h-90zM166 -12c-23.333 0 -43.166 8.5 -59.499 25.5s-24.5 37.833 -24.5 62.5c0 25.333 8.16699 46.333 24.5 63s36.166 25 59.499 25c24.667 0 44.834 -8.33301 60.501 -25s23.5 -37.667 23.5 -63
c0 -24.667 -7.83301 -45.5 -23.5 -62.5s-35.834 -25.5 -60.501 -25.5z" />
    <glyph glyph-name="quotedbl" unicode="&#x22;" horiz-adv-x="519" 
d="M108 367l-27 194l-4 126h138l-4 -126l-27 -194h-76zM335 367l-27 194l-4 126h138l-4 -126l-27 -194h-76z" />
    <glyph glyph-name="numbersign" unicode="#" horiz-adv-x="523" 
d="M87 0l23 190h-75v88h85l14 116h-79v88h90l22 168h79l-20 -168h108l21 168h79l-20 -168h79v-88h-90l-14 -116h84v-88h-94l-23 -190h-81l23 190h-108l-23 -190h-80zM200 278h108l15 116h-108z" />
    <glyph glyph-name="dollar" unicode="$" horiz-adv-x="523" 
d="M246 -12c-22 0 -45.3301 2.99609 -69.9971 8.99609s-48.667 14.833 -72 26.5s-44.333 25.834 -63 42.501l60 93c25.333 -19.333 49.666 -34.166 72.999 -44.499s47.333 -15.5 72 -15.5c30 0 51.833 6.33301 65.5 19s20.5 31 20.5 55c0 18.667 -6.33301 34.667 -19 48
s-29.167 25.333 -49.5 36l-64.5 33.5c-22.667 11.667 -44.167 24.834 -64.5 39.501s-36.833 32.5 -49.5 53.5s-19 46.833 -19 77.5c0 38 8.33301 71 25 99s40.167 49.667 70.5 65s65.833 23 106.5 23c42.667 0 78.667 -7.83301 108 -23.5s55.666 -35.834 78.999 -60.501
l-69 -78c-18 16.667 -35.5 29.334 -52.5 38.001s-36.5 13 -58.5 13c-24.667 0 -43.834 -5.66699 -57.501 -17s-20.5 -28.666 -20.5 -51.999c0 -17.333 6.33301 -32 19 -44s29.167 -23 49.5 -33l64.5 -31.5c22.667 -11 44.167 -24 64.5 -39s36.833 -33.5 49.5 -55.5
s19 -49.333 19 -82c0 -38 -8.33301 -71.667 -25 -101s-41.167 -52.333 -73.5 -69s-71.833 -25 -118.5 -25zM216.003 -110.004v153h92v-153h-92zM216.003 603.996v142h92v-142h-92z" />
    <glyph glyph-name="percent" unicode="%" horiz-adv-x="845" 
d="M205 -12l354 677h80l-354 -677h-80zM188 266c-31.333 0 -59.167 8.16699 -83.5 24.5s-43.333 40 -57 71s-20.5 68.5 -20.5 112.5c0 65.333 15.167 116 45.5 152s68.833 54 115.5 54s85 -18 115 -54s45 -86.667 45 -152c0 -44 -6.83301 -81.5 -20.5 -112.5
s-32.667 -54.667 -57 -71s-51.833 -24.5 -82.5 -24.5zM187.999 343c18 0 33.167 10 45.5 30s18.5 53.667 18.5 101s-6.16699 80.666 -18.5 99.999s-27.5 29 -45.5 29s-33.333 -9.66699 -46 -29s-19 -52.666 -19 -99.999s6.33301 -81 19 -101s28 -30 46 -30zM656.999 -12
c-31.333 0 -59 8.33301 -83 25s-42.833 40.5 -56.5 71.5s-20.5 68.167 -20.5 111.5c0 65.333 15 116 45 152s68.333 54 115 54s85.167 -18 115.5 -54s45.5 -86.667 45.5 -152c0 -43.333 -7 -80.5 -21 -111.5s-33 -54.833 -57 -71.5s-51.667 -25 -83 -25zM656.999 65
c18.667 0 34.167 10 46.5 30s18.5 53.667 18.5 101s-6.16699 80.666 -18.5 99.999s-27.833 29 -46.5 29c-17.333 0 -32.333 -9.66699 -45 -29s-19 -52.666 -19 -99.999s6.33301 -81 19 -101s27.667 -30 45 -30z" />
    <glyph glyph-name="ampersand" unicode="&#x26;" horiz-adv-x="658" 
d="M241 -12c-46 0 -85.001 8.50488 -117.001 25.5049s-56.333 39.5 -73 67.5s-25 59 -25 93c0 34.667 7.33301 64.5 22 89.5s33.5 46.5 56.5 64.5s47.5 34.167 73.5 48.5l73.5 42c23 13.667 41.833 28.667 56.5 45s22 35.166 22 56.499c0 16 -3.83301 29 -11.5 39
s-19.834 15 -36.501 15c-17.333 0 -32.166 -6.83301 -44.499 -20.5s-18.5 -32.5 -18.5 -56.5c0 -26.667 7.83301 -55 23.5 -85s36.667 -60.167 63 -90.5s55.666 -59 87.999 -86s64.833 -50.833 97.5 -71.5c26.667 -16.667 52.834 -30.667 78.501 -42s49.167 -19 70.5 -23
l-33 -111c-31.333 6.66699 -63.833 17.5 -97.5 32.5s-67.167 33.833 -100.5 56.5c-40 27.333 -78.167 58.166 -114.5 92.499s-68.666 70.5 -96.999 108.5s-50.666 75.667 -66.999 113s-24.5 72.666 -24.5 105.999c0 30 7.16699 57.833 21.5 83.5s34.5 46.167 60.5 61.5
s56.667 23 92 23c47.333 0 85 -13.167 113 -39.5s42 -61.5 42 -105.5c0 -28.667 -6.83301 -54.167 -20.5 -76.5s-31 -42.5 -52 -60.5s-43.5 -34.833 -67.5 -50.5s-46.5 -31.167 -67.5 -46.5s-38.167 -31.333 -51.5 -48s-20 -35.334 -20 -56.001
c0 -18 4.16699 -33.667 12.5 -47s20.333 -23.666 36 -30.999s33.5 -11 53.5 -11c23.333 0 46.833 6.16699 70.5 18.5s46.167 28.833 67.5 49.5c26 26 48.833 56.167 68.5 90.5s35.167 72.5 46.5 114.5h125c-14.667 -48.667 -33.834 -95.334 -57.501 -140.001
s-53.167 -87 -88.5 -127c-30.667 -32.667 -66.5 -59.334 -107.5 -80.001s-88.167 -31 -141.5 -31z" />
    <glyph glyph-name="quotesingle" unicode="'" horiz-adv-x="292" 
d="M108 367l-27 194l-4 126h138l-4 -126l-27 -194h-76z" />
    <glyph glyph-name="parenleft" unicode="(" horiz-adv-x="338" 
d="M206 -178c-42 68 -74.5 139 -97.5 213s-34.5 155 -34.5 243s11.5 169.167 34.5 243.5s55.5 145.5 97.5 213.5l85 -36c-36.667 -64.667 -63.667 -133 -81 -205s-26 -144 -26 -216c0 -71.333 8.66699 -143 26 -215s44.333 -140.333 81 -205z" />
    <glyph glyph-name="parenright" unicode=")" horiz-adv-x="338" 
d="M132 -178l-85 36c36.667 64.667 63.667 133 81 205s26 143.667 26 215c0 72 -8.66699 144 -26 216s-44.333 140.333 -81 205l85 36c42 -68 74.5 -139.167 97.5 -213.5s34.5 -155.5 34.5 -243.5s-11.5 -169 -34.5 -243s-55.5 -145 -97.5 -213z" />
    <glyph glyph-name="asterisk" unicode="*" horiz-adv-x="451" 
d="M147 360l-58 43l58 101l-106 48l22 68l114 -24l12 116h73l12 -117l113 25l23 -68l-107 -48l59 -101l-58 -43l-78 89z" />
    <glyph glyph-name="plus" unicode="+" horiz-adv-x="523" 
d="M211 96v186h-177v97h177v186h101v-186h177v-97h-177v-186h-101z" />
    <glyph glyph-name="comma" unicode="," horiz-adv-x="292" 
d="M75 -190l-27.999 73.001c35.333 13.333 62.333 31 81 53s27.667 45.667 27 71l-3 95l47 -79c-7.33301 -6 -15.333 -10.5 -24 -13.5s-18 -4.5 -28 -4.5c-22 0 -41.5 6.83301 -58.5 20.5s-25.5 33.167 -25.5 58.5c0 24 8.66699 43.333 26 58s37.666 22 60.999 22
c31.333 0 55.333 -11.667 72 -35s25 -56 25 -98c0 -52.667 -14.833 -98.334 -44.5 -137.001s-72.167 -66.667 -127.5 -84z" />
    <glyph glyph-name="hyphen" unicode="-" horiz-adv-x="329" 
d="M43 204v98h243v-98h-243z" />
    <glyph glyph-name="period" unicode="." horiz-adv-x="292" 
d="M146 -12c-23.333 0 -43.166 8.5 -59.499 25.5s-24.5 37.833 -24.5 62.5c0 25.333 8.16699 46.333 24.5 63s36.166 25 59.499 25c24.667 0 44.834 -8.33301 60.501 -25s23.5 -37.667 23.5 -63c0 -24.667 -7.83301 -45.5 -23.5 -62.5s-35.834 -25.5 -60.501 -25.5z" />
    <glyph glyph-name="slash" unicode="/" horiz-adv-x="341" 
d="M13 -160l212 870h90l-212 -870h-90z" />
    <glyph glyph-name="zero" unicode="0" horiz-adv-x="523" 
d="M262 -12c-68 0 -122.333 28.499 -163 85.499s-61 139.5 -61 247.5s20.333 189.5 61 244.5s95 82.5 163 82.5c67.333 0 121.333 -27.667 162 -83s61 -136.666 61 -243.999c0 -108 -20.333 -190.5 -61 -247.5s-94.667 -85.5 -162 -85.5zM262 93.999
c17.333 0 33.166 6.66699 47.499 20s25.666 36.5 33.999 69.5s12.5 78.833 12.5 137.5c0 58 -4.16699 103 -12.5 135s-19.666 54.333 -33.999 67s-30.166 19 -47.499 19c-18 0 -34.167 -6.33301 -48.5 -19s-25.5 -35 -33.5 -67s-12 -77 -12 -135
c0 -58.667 4 -104.5 12 -137.5s19.167 -56.167 33.5 -69.5s30.5 -20 48.5 -20z" />
    <glyph glyph-name="one" unicode="1" horiz-adv-x="478" 
d="M40 0v111h140v384h-118v85c33.333 6 61.833 13.5 85.5 22.5s46.5 20.167 68.5 33.5h101v-525h121v-111h-398z" />
    <glyph glyph-name="two" unicode="2" horiz-adv-x="523" 
d="M38 0l-0.00195312 78.9971l146 143.5c42 43 74.667 82.333 98 118s35 68.834 35 99.501c0 32 -8.16699 56.667 -24.5 74s-39.833 26 -70.5 26c-22.667 0 -43.667 -6.66699 -63 -20s-37 -28.666 -53 -45.999l-75 74c30.667 32.667 62.167 57.5 94.5 74.5
s70.833 25.5 115.5 25.5c41.333 0 77.5 -8.33301 108.5 -25s55.167 -40 72.5 -70s26 -65 26 -105c0 -36.667 -10 -73.667 -30 -111s-46.167 -75.166 -78.5 -113.499s-67.166 -76.833 -104.499 -115.5c16.667 2 34.834 3.66699 54.501 5s37.167 2 52.5 2h137v-115h-441z" />
    <glyph glyph-name="three" unicode="3" horiz-adv-x="523" 
d="M242 -12c-34 0 -64.6699 3.99902 -92.0029 11.999s-51.5 18.667 -72.5 32s-39.167 28.666 -54.5 45.999l63 87c19.333 -18.667 40.833 -34.334 64.5 -47.001s49.834 -19 78.501 -19c32.667 0 58.834 7.16699 78.501 21.5s29.5 34.5 29.5 60.5c0 20 -5 37.167 -15 51.5
s-27.5 25.333 -52.5 33s-61.167 11.5 -108.5 11.5v98c39.333 0 70.166 3.83301 92.499 11.5s38.333 18.334 48 32.001s14.5 29.167 14.5 46.5c0 24 -7.33301 42.5 -22 55.5s-35 19.5 -61 19.5c-23.333 0 -44.666 -5 -63.999 -15s-38.666 -24 -57.999 -42l-69 84
c28.667 24.667 59 44.334 91 59.001s67.333 22 106 22c42.667 0 80 -6.83301 112 -20.5s57 -33.167 75 -58.5s27 -56.666 27 -93.999c0 -33.333 -9.33301 -61.833 -28 -85.5s-45 -42.5 -79 -56.5v-4c24.667 -7.33301 46.667 -17.833 66 -31.5s34.5 -31 45.5 -52
s16.5 -45.167 16.5 -72.5c0 -39.333 -10.5 -72.833 -31.5 -100.5s-49.167 -48.667 -84.5 -63s-74 -21.5 -116 -21.5z" />
    <glyph glyph-name="four" unicode="4" horiz-adv-x="523" 
d="M296 0v377c0 19.333 0.666992 42.5 2 69.5s2.33301 50.167 3 69.5h-4c-8 -17.333 -16.333 -34.5 -25 -51.5l-27 -52.5l-94 -152h348v-104h-480v94l239 386h165v-636h-127z" />
    <glyph glyph-name="five" unicode="5" horiz-adv-x="523" 
d="M245 -12c-34.667 0 -65.6699 4 -93.0029 12s-51.5 18.833 -72.5 32.5s-39.833 28.5 -56.5 44.5l62 87c19.333 -18 40.5 -33.333 63.5 -46s48.833 -19 77.5 -19c22.667 0 42.334 4.16699 59.001 12.5s29.667 20.333 39 36s14 35.167 14 58.5c0 34 -9.66699 60 -29 78
s-44.666 27 -75.999 27c-18.667 0 -34.667 -2.5 -48 -7.5s-29.666 -13.833 -48.999 -26.5l-62 40l18 319h354v-115h-236l-11 -131c12.667 6 24.667 10.333 36 13s24.333 4 39 4c36 0 69.333 -7.16699 100 -21.5s55.167 -36 73.5 -65s27.5 -66.167 27.5 -111.5
c0 -46.667 -10.667 -86.5 -32 -119.5s-49.5 -58.167 -84.5 -75.5s-72.833 -26 -113.5 -26z" />
    <glyph glyph-name="six" unicode="6" horiz-adv-x="523" 
d="M279 -12c-30.667 0 -60.168 6.00293 -88.501 18.0029s-53.666 30.833 -75.999 56.5s-40 58.167 -53 97.5s-19.5 86.666 -19.5 141.999c0 60 7 111.833 21 155.5s33 79.5 57 107.5s51.167 48.833 81.5 62.5s62.166 20.5 95.499 20.5c40.667 0 76 -7.5 106 -22.5
s54.667 -32.5 74 -52.5l-72 -82c-11.333 12.667 -26.166 23.5 -44.499 32.5s-36.833 13.5 -55.5 13.5c-25.333 0 -48.5 -7.33301 -69.5 -22s-37.667 -39.167 -50 -73.5s-18.5 -80.833 -18.5 -139.5c0 -52.667 5 -94.334 15 -125.001s23.333 -52.667 40 -66s35 -20 55 -20
c15.333 0 29.5 4 42.5 12s23.333 20 31 36s11.5 36.333 11.5 61c0 23.333 -3.83301 42.166 -11.5 56.499s-18.167 25 -31.5 32s-28.666 10.5 -45.999 10.5s-35.333 -5.33301 -54 -16s-35.667 -29.334 -51 -56.001l-6 91c17.333 24.667 39 43.834 65 57.501s50 20.5 72 20.5
c36 0 68.167 -7 96.5 -21s50.666 -35.5 66.999 -64.5s24.5 -65.833 24.5 -110.5c0 -44 -9.5 -81.833 -28.5 -113.5s-44.167 -56 -75.5 -73s-66 -25.5 -104 -25.5z" />
    <glyph glyph-name="seven" unicode="7" horiz-adv-x="523" 
d="M162 0c4 72 11.8311 136.669 23.498 194.002s29.334 112.166 53.001 164.499s55.5 106.5 95.5 162.5h-290v115h437v-84c-37.333 -45.333 -67.166 -88 -89.499 -128s-39.666 -80.833 -51.999 -122.5s-21.333 -86.834 -27 -135.501s-9.83398 -104 -12.501 -166h-138z" />
    <glyph glyph-name="eight" unicode="8" horiz-adv-x="523" 
d="M261 -12c-41.333 0 -78.668 7.50293 -112.001 22.5029s-59.5 35.5 -78.5 61.5s-28.5 56.333 -28.5 91c0 25.333 5 47.833 15 67.5s23.333 37 40 52s35 27.833 55 38.5v4c-24 18.667 -44.333 40 -61 64s-25 52.333 -25 85c0 35.333 8.66699 66.166 26 92.499
s41 46.5 71 60.5s64.333 21 103 21c58 0 104.333 -15.833 139 -47.5s52 -73.834 52 -126.501c0 -20.667 -4.16699 -39.834 -12.5 -57.501s-18.666 -33.5 -30.999 -47.5s-25.833 -26 -40.5 -36v-4c20 -10.667 38.333 -23.5 55 -38.5s30 -33 40 -54s15 -45.5 15 -73.5
c0 -33.333 -9.33301 -63 -28 -89s-44.5 -46.833 -77.5 -62.5s-71.833 -23.5 -116.5 -23.5zM263.998 84.0029c17.333 0 32.832 3.16504 46.499 9.49805s24.5 15.666 32.5 27.999s12 27.833 12 46.5c0 20 -5.83301 36.5 -17.5 49.5s-28.167 24.667 -49.5 35
s-45.666 21.166 -72.999 32.499c-15.333 -13.333 -28.333 -29.166 -39 -47.499s-16 -38.166 -16 -59.499c0 -19.333 4.66699 -36.166 14 -50.499s21.833 -25.166 37.5 -32.499s33.167 -11 52.5 -11zM301.997 366.001c14 16 24.665 32.1699 31.998 48.5029
s11 33.166 11 50.499s-3.16699 32.5 -9.5 45.5s-15.666 23.167 -27.999 30.5s-27.166 11 -44.499 11c-21.333 0 -39.333 -6.66699 -54 -20s-22 -32.666 -22 -57.999c0 -18.667 4.83301 -34.334 14.5 -47.001s23.167 -23.834 40.5 -33.501s37.333 -18.834 60 -27.501z" />
    <glyph glyph-name="nine" unicode="9" horiz-adv-x="523" 
d="M225 -12c-40.667 0 -76 7.5 -106 22.5s-54.667 32.5 -74 52.5l72 82c11.333 -12.667 26.166 -23.5 44.499 -32.5s36.833 -13.5 55.5 -13.5c25.333 0 48.5 7.33301 69.5 22s37.667 39.167 50 73.5s18.5 80.833 18.5 139.5c0 52.667 -5 94.334 -15 125.001
s-23.333 52.667 -40 66s-35 20 -55 20c-15.333 0 -29.5 -4 -42.5 -12s-23.333 -20 -31 -36s-11.5 -36.333 -11.5 -61c0 -22.667 3.83301 -41.334 11.5 -56.001s18.167 -25.5 31.5 -32.5s28.666 -10.5 45.999 -10.5s35.333 5.33301 54 16s35.667 29.334 51 56.001l6 -91
c-16.667 -24.667 -38.167 -43.834 -64.5 -57.501s-50.5 -20.5 -72.5 -20.5c-36 0 -68.167 7 -96.5 21s-50.666 35.5 -66.999 64.5s-24.5 65.833 -24.5 110.5c0 43.333 9.5 81 28.5 113s44.167 56.5 75.5 73.5s66 25.5 104 25.5c30.667 0 60.167 -6.16699 88.5 -18.5
s53.5 -31.166 75.5 -56.499s39.667 -57.833 53 -97.5s20 -86.834 20 -141.501c0 -60 -7 -111.833 -21 -155.5s-33 -79.5 -57 -107.5s-51.167 -48.833 -81.5 -62.5s-62.166 -20.5 -95.499 -20.5z" />
    <glyph glyph-name="colon" unicode=":" horiz-adv-x="292" 
d="M146 318c-23.333 0 -43.166 8.5 -59.499 25.5s-24.5 37.833 -24.5 62.5c0 25.333 8.16699 46.333 24.5 63s36.166 25 59.499 25c24.667 0 44.834 -8.33301 60.501 -25s23.5 -37.667 23.5 -63c0 -24.667 -7.83301 -45.5 -23.5 -62.5s-35.834 -25.5 -60.501 -25.5zM146 -12
c-23.333 0 -43.166 8.5 -59.499 25.5s-24.5 37.833 -24.5 62.5c0 25.333 8.16699 46.333 24.5 63s36.166 25 59.499 25c24.667 0 44.834 -8.33301 60.501 -25s23.5 -37.667 23.5 -63c0 -24.667 -7.83301 -45.5 -23.5 -62.5s-35.834 -25.5 -60.501 -25.5z" />
    <glyph glyph-name="semicolon" unicode=";" horiz-adv-x="292" 
d="M146 318c-23.333 0 -43.166 8.5 -59.499 25.5s-24.5 37.833 -24.5 62.5c0 25.333 8.16699 46.333 24.5 63s36.166 25 59.499 25c24.667 0 44.834 -8.33301 60.501 -25s23.5 -37.667 23.5 -63c0 -24.667 -7.83301 -45.5 -23.5 -62.5s-35.834 -25.5 -60.501 -25.5zM75 -190
l-27.999 73.001c35.333 13.333 62.333 31 81 53s27.667 45.667 27 71l-3 95l47 -79c-7.33301 -6 -15.333 -10.5 -24 -13.5s-18 -4.5 -28 -4.5c-22 0 -41.5 6.83301 -58.5 20.5s-25.5 33.167 -25.5 58.5c0 24 8.66699 43.333 26 58s37.666 22 60.999 22
c31.333 0 55.333 -11.667 72 -35s25 -56 25 -98c0 -52.667 -14.833 -98.334 -44.5 -137.001s-72.167 -66.667 -127.5 -84z" />
    <glyph glyph-name="less" unicode="&#x3c;" horiz-adv-x="523" 
d="M489 109l-455 175v96l455 176v-113l-181 -61l-135 -48v-4l135 -47l181 -61v-113z" />
    <glyph glyph-name="equal" unicode="=" horiz-adv-x="523" 
d="M34 397v97h455v-97h-455zM34 167v97h455v-97h-455z" />
    <glyph glyph-name="greater" unicode="&#x3e;" horiz-adv-x="523" 
d="M34 109v113l182 61l135 47v4l-135 48l-182 61v113l455 -176v-96z" />
    <glyph glyph-name="question" unicode="?" horiz-adv-x="457" 
d="M155 226c-4 28 -2.3291 53 5.00391 75s17.666 42 30.999 60s27.166 34.833 41.499 50.5s26.333 30.834 36 45.501s14.5 30 14.5 46c0 14.667 -2.83301 27 -8.5 37s-14 17.833 -25 23.5s-23.833 8.5 -38.5 8.5c-18.667 0 -35.5 -4.5 -50.5 -13.5
s-29.833 -20.5 -44.5 -34.5l-75 69c23.333 26 50.666 47.333 81.999 64s66.333 25 105 25c35.333 0 67.166 -6 95.499 -18s50.5 -30.667 66.5 -56s24 -57 24 -95c0 -25.333 -5 -47.5 -15 -66.5s-22.5 -36.833 -37.5 -53.5l-43.5 -49.5
c-14 -16.333 -25.333 -33.833 -34 -52.5s-11.667 -40.334 -9 -65.001h-120zM215.004 -12c-23.333 0 -43.166 8.5 -59.499 25.5s-24.5 37.833 -24.5 62.5c0 25.333 8.16699 46.333 24.5 63s36.166 25 59.499 25c24.667 0 44.834 -8.33301 60.501 -25s23.5 -37.667 23.5 -63
c0 -24.667 -7.83301 -45.5 -23.5 -62.5s-35.834 -25.5 -60.501 -25.5z" />
    <glyph glyph-name="at" unicode="@" horiz-adv-x="894" 
d="M424 -169c-50 0 -97.5 7.67285 -142.5 23.0059s-85 38.5 -120 69.5s-62.5 70 -82.5 117s-30 101.833 -30 164.5c0 70 11.833 133.167 35.5 189.5s56 104.666 97 144.999s88.333 71.5 142 93.5s110.834 33 171.501 33c71.333 0 133.166 -15 185.499 -45
s92.833 -71.5 121.5 -124.5s43 -114.167 43 -183.5c0 -45.333 -6.83301 -85 -20.5 -119s-31.334 -62.333 -53.001 -85s-45.667 -39.834 -72 -51.501s-52.166 -17.5 -77.499 -17.5c-28.667 0 -53.5 6.5 -74.5 19.5s-34.167 31.833 -39.5 56.5h-2
c-14 -19.333 -32.333 -35.333 -55 -48s-44.334 -19 -65.001 -19c-38 0 -69.167 13.5 -93.5 40.5s-36.5 63.167 -36.5 108.5c0 30 5 59.5 15 88.5s24 55 42 78s39.167 41.5 63.5 55.5s50.833 21 79.5 21c16.667 0 31.5 -3.83301 44.5 -11.5s23.833 -20.167 32.5 -37.5h2
l14 41h84l-44 -217c-15.333 -60.667 0.333984 -91 47.001 -91c20 0 39.333 7.5 58 22.5s34 36.333 46 64s18 60.5 18 98.5c0 36 -5.33301 70.5 -16 103.5s-27 62 -49 87s-50.167 44.833 -84.5 59.5s-75.833 22 -124.5 22c-43.333 0 -85.333 -8.83301 -126 -26.5
s-77.167 -42.834 -109.5 -75.501s-58.166 -72 -77.499 -118s-29 -97 -29 -153c0 -49.333 7.83301 -92.333 23.5 -129s37 -67.334 64 -92.001s58.167 -43 93.5 -55s72.666 -18 111.999 -18c26.667 0 53.667 3.66699 81 11s51.666 16.666 72.999 27.999l30 -75
c-30 -16.667 -61.167 -28.834 -93.5 -36.501s-66.166 -11.5 -101.499 -11.5zM415 136.006c11.333 0 22.5 3.66699 33.5 11s23.167 19.333 36.5 36l25 139c-6 10.667 -13 18.5 -21 23.5s-17.667 7.5 -29 7.5c-20.667 0 -38.667 -7.83301 -54 -23.5s-27 -35 -35 -58
s-12 -44.833 -12 -65.5c0 -24 5.16699 -41.667 15.5 -53s23.833 -17 40.5 -17z" />
    <glyph glyph-name="A" unicode="A" horiz-adv-x="568" 
d="M-5 0l208 653h163l207 -653h-145l-90 336c-9.33301 33.333 -18.5 68.333 -27.5 105l-27.5 107h-4l-25.5 -107c-9 -36.667 -18.167 -71.667 -27.5 -105l-91 -336h-140zM127 163v106h312v-106h-312z" />
    <glyph glyph-name="B" unicode="B" horiz-adv-x="603" 
d="M79 0v652.998h219c44.667 0 85 -5 121 -15s64.5 -26.667 85.5 -50s31.5 -55.666 31.5 -96.999c0 -29.333 -7.83301 -57.666 -23.5 -84.999s-37.167 -46 -64.5 -56v-4c34.667 -8 63.5 -24.667 86.5 -50s34.5 -60 34.5 -104s-11.333 -80.167 -34 -108.5
s-53 -49.333 -91 -63s-80.667 -20.5 -128 -20.5h-237zM216 105.998h88c42.667 0 75.167 7.83301 97.5 23.5s33.5 39.5 33.5 71.5c0 30 -11 51.833 -33 65.5s-54.667 20.5 -98 20.5h-88v-181zM216 388.998h73.999c38.667 0 67 7.33301 85 22s27 34.667 27 60
c0 27.333 -9.16699 46.833 -27.5 58.5s-46.166 17.5 -83.499 17.5h-75v-158z" />
    <glyph glyph-name="C" unicode="C" horiz-adv-x="580" 
d="M348 -12c-55.333 0 -105.668 12.667 -151.001 38s-81.666 63 -108.999 113s-41 111.333 -41 184c0 54 8 102.167 24 144.5s38.167 78.166 66.5 107.499s61 51.666 98 66.999s75.833 23 116.5 23c42 0 79.5 -8.5 112.5 -25.5s60.167 -36.5 81.5 -58.5l-73 -88
c-16.667 15.333 -34.334 28 -53.001 38s-40.334 15 -65.001 15c-31.333 0 -59.666 -8.83301 -84.999 -26.5s-45.333 -42.667 -60 -75s-22 -71.166 -22 -116.499c0 -46.667 6.66699 -86.5 20 -119.5s32.5 -58.167 57.5 -75.5s54.167 -26 87.5 -26c27.333 0 51.833 6 73.5 18
s40.834 27 57.501 45l73 -86c-26.667 -31.333 -57.667 -55.166 -93 -71.499s-74 -24.5 -116 -24.5z" />
    <glyph glyph-name="D" unicode="D" horiz-adv-x="632" 
d="M79 0l-0.00195312 653h181c66.667 0 124.334 -11.667 173.001 -35s86.167 -58.833 112.5 -106.5s39.5 -108.5 39.5 -182.5s-13.167 -135.333 -39.5 -184s-63.166 -85 -110.499 -109s-103 -36 -167 -36h-189zM215.998 111l36 -0.00195312c38.667 0 72.5 7.33301 101.5 22
s51.333 37.834 67 69.501s23.5 73.834 23.5 126.501s-7.83301 94.5 -23.5 125.5s-38 53.333 -67 67s-62.833 20.5 -101.5 20.5h-36v-431z" />
    <glyph glyph-name="E" unicode="E" horiz-adv-x="545" 
d="M79 0v653h404v-115h-267v-143h227v-115h-227v-165h277v-115h-414z" />
    <glyph glyph-name="F" unicode="F" horiz-adv-x="520" 
d="M79 0v653h406v-115h-269v-163h230v-115h-230v-260h-137z" />
    <glyph glyph-name="G" unicode="G" horiz-adv-x="635" 
d="M363 -12c-60 0 -113.831 12.668 -161.498 38.001s-85.334 63 -113.001 113s-41.5 111.333 -41.5 184c0 54 8.16699 102.167 24.5 144.5s39 78.166 68 107.499s62.5 51.666 100.5 66.999s78.667 23 122 23c47.333 0 87.666 -8.5 120.999 -25.5s60.666 -36.5 81.999 -58.5
l-72 -88c-16.667 15.333 -34.667 28 -54 38s-43.333 15 -72 15c-35.333 0 -66.5 -8.83301 -93.5 -26.5s-48 -42.667 -63 -75s-22.5 -71.166 -22.5 -116.499c0 -46.667 7 -86.5 21 -119.5s35 -58.167 63 -75.5s63 -26 105 -26c14.667 0 29 1.83301 43 5.5
s25.333 9.16699 34 16.5v122h-113v112h235v-296c-22 -22 -51.667 -40.667 -89 -56s-78.666 -23 -123.999 -23z" />
    <glyph glyph-name="H" unicode="H" horiz-adv-x="670" 
d="M79 0v653h137v-255h238v255h137v-653h-137v278h-238v-278h-137z" />
    <glyph glyph-name="I" unicode="I" horiz-adv-x="295" 
d="M79 0v653h137v-653h-137z" />
    <glyph glyph-name="J" unicode="J" horiz-adv-x="504" 
d="M224 -12c-48 0 -88.6689 9.66797 -122.002 29.001s-61 48.333 -83 87l93 69c12.667 -22.667 27.167 -39.334 43.5 -50.001s33.5 -16 51.5 -16c28 0 49.167 8.5 63.5 25.5s21.5 47.833 21.5 92.5v428h137v-440c0 -41.333 -7.16699 -79 -21.5 -113
s-36.666 -61.167 -66.999 -81.5s-69.166 -30.5 -116.499 -30.5z" />
    <glyph glyph-name="K" unicode="K" horiz-adv-x="609" 
d="M79 0v653h137v-277h4l207 277h151l-199 -259l234 -394h-150l-165 286l-82 -106v-180h-137z" />
    <glyph glyph-name="L" unicode="L" horiz-adv-x="513" 
d="M79 0v653h137v-538h262v-115h-399z" />
    <glyph glyph-name="M" unicode="M" horiz-adv-x="757" 
d="M79 0v653h151l109 -300c6.66699 -19.333 13.167 -39.5 19.5 -60.5l19.5 -62.5h4l19.5 62.5c6.33301 21 12.833 41.167 19.5 60.5l106 300h151v-653h-125v259c0 20.667 1 43.834 3 69.501s4.33301 51.5 7 77.5l7 70h-4l-53 -153l-97 -265h-78l-97 265l-52 153h-4l7 -70
c2.66699 -26 5 -51.833 7 -77.5s3 -48.834 3 -69.501v-259h-123z" />
    <glyph glyph-name="N" unicode="N" horiz-adv-x="662" 
d="M79 0l0.000976562 653h141l181 -339l65 -142h4l-11 114c-4 41.333 -6 81 -6 119v248h130v-653h-140l-181 339l-66 142h-4c3.33301 -35.333 7.16602 -73.333 11.499 -114s6.5 -79.667 6.5 -117v-250h-131z" />
    <glyph glyph-name="O" unicode="O" horiz-adv-x="681" 
d="M341 -12c-58 0 -109.167 13.667 -153.5 41s-78.833 66.5 -103.5 117.5s-37 111.833 -37 182.5s12.333 131 37 181s59.167 88.333 103.5 115s95.5 40 153.5 40s109 -13.333 153 -40s78.333 -65 103 -115s37 -110.333 37 -181s-12.333 -131.5 -37 -182.5
s-59 -90.167 -103 -117.5s-95 -41 -153 -41zM341 107c30.667 0 57.5 9 80.5 27s40.833 43.667 53.5 77s19 72.666 19 117.999s-6.33301 84.166 -19 116.499s-30.5 57.166 -53.5 74.499s-49.833 26 -80.5 26c-31.333 0 -58.5 -8.66699 -81.5 -26s-40.667 -42.166 -53 -74.499
s-18.5 -71.166 -18.5 -116.499s6.16699 -84.666 18.5 -117.999s30 -59 53 -77s50.167 -27 81.5 -27z" />
    <glyph glyph-name="P" unicode="P" horiz-adv-x="592" 
d="M79 0v652.999h218c48 0 91.333 -6.5 130 -19.5s69.5 -34.5 92.5 -64.5s34.5 -71 34.5 -123c0 -50 -11.333 -91.167 -34 -123.5s-53.167 -56.166 -91.5 -71.499s-80.833 -23 -127.5 -23h-85v-228h-137zM216 336.999h75.999c43.333 0 75.5 9.16699 96.5 27.5
s31.5 45.5 31.5 81.5s-11.167 61.333 -33.5 76s-55.166 22 -98.499 22h-72v-207z" />
    <glyph glyph-name="Q" unicode="Q" horiz-adv-x="681" 
d="M341 -12c-58 0 -109.167 13.667 -153.5 41s-78.833 66.5 -103.5 117.5s-37 111.833 -37 182.5s12.333 131 37 181s59.167 88.333 103.5 115s95.5 40 153.5 40s109 -13.333 153 -40s78.333 -65 103 -115s37 -110.333 37 -181s-12.333 -131.5 -37 -182.5
s-59 -90.167 -103 -117.5s-95 -41 -153 -41zM553 -179c-70 0 -128.834 17.501 -176.501 52.501s-82.167 78.833 -103.5 131.5l140 13c8 -20.667 20.167 -37.334 36.5 -50.001s34.833 -22 55.5 -28s42 -9 64 -9c14 0 27 1.16699 39 3.5s23 4.83301 33 7.5l24 -100
c-11.333 -6 -26.666 -11 -45.999 -15s-41.333 -6 -66 -6zM340.999 100.001c30.667 0 57.5 9.16699 80.5 27.5s40.833 44.5 53.5 78.5s19 75 19 123c0 45.333 -6.33301 84.166 -19 116.499s-30.5 57.166 -53.5 74.499s-49.833 26 -80.5 26
c-31.333 0 -58.5 -8.66699 -81.5 -26s-40.667 -42.166 -53 -74.499s-18.5 -71.166 -18.5 -116.499c0 -48 6.16699 -89 18.5 -123s30 -60.167 53 -78.5s50.167 -27.5 81.5 -27.5z" />
    <glyph glyph-name="R" unicode="R" horiz-adv-x="606" 
d="M79 0v653h230c46 0 87.667 -6.16699 125 -18.5s67.166 -33 89.499 -62s33.5 -68.833 33.5 -119.5c0 -48.667 -11.167 -88.667 -33.5 -120s-52.166 -54.333 -89.499 -69s-79 -22 -125 -22h-93v-242h-137zM433 0l-149 278l96 86l207 -364h-154zM216 351h81
c40.667 0 71.834 8.5 93.501 25.5s32.5 42.5 32.5 76.5s-10.833 57.667 -32.5 71s-52.834 20 -93.501 20h-81v-193z" />
    <glyph glyph-name="S" unicode="S" horiz-adv-x="552" 
d="M276 -12c-42.667 0 -85.1699 8.16699 -127.503 24.5s-79.833 39.833 -112.5 70.5l79 94c23.333 -21.333 49.5 -38.333 78.5 -51s57.5 -19 85.5 -19c32.667 0 57.334 6.16699 74.001 18.5s25 29.5 25 51.5c0 15.333 -4.16699 27.5 -12.5 36.5s-19.666 17 -33.999 24
s-31.166 14.5 -50.499 22.5l-86 37c-22 9.33301 -43.167 21.666 -63.5 36.999s-36.833 34.5 -49.5 57.5s-19 50.5 -19 82.5c0 35.333 9.83301 67.333 29.5 96s46.667 51.667 81 69s73.5 26 117.5 26c38 0 75.167 -7.33301 111.5 -22s68.166 -35.667 95.499 -63l-69 -87
c-21.333 17.333 -43 30.5 -65 39.5s-46.333 13.5 -73 13.5s-48.167 -5.66699 -64.5 -17s-24.5 -27 -24.5 -47c0 -14.667 4.33301 -26.667 13 -36s20.834 -17.5 36.501 -24.5l51.5 -22.5l84 -34c26.667 -10.667 49.667 -24 69 -40s34.5 -35.167 45.5 -57.5
s16.5 -48.833 16.5 -79.5c0 -36 -9.5 -69.167 -28.5 -99.5s-46.667 -54.666 -83 -72.999s-79.833 -27.5 -130.5 -27.5z" />
    <glyph glyph-name="T" unicode="T" horiz-adv-x="553" 
d="M208 0v538h-182v115h502v-115h-183v-538h-137z" />
    <glyph glyph-name="U" unicode="U" horiz-adv-x="662" 
d="M332 -12c-40.667 0 -76.998 6 -108.998 18s-58.833 30.333 -80.5 55s-38.167 56.667 -49.5 96s-17 86 -17 140v356h137v-369c0 -44 4.66699 -79 14 -105s23 -44.5 41 -55.5s39.333 -16.5 64 -16.5c25.333 0 47 5.5 65 16.5s32 29.5 42 55.5s15 61 15 105v369h132v-356
c0 -54 -5.5 -100.667 -16.5 -140s-27.333 -71.333 -49 -96s-48.334 -43 -80.001 -55s-67.834 -18 -108.501 -18z" />
    <glyph glyph-name="V" unicode="V" horiz-adv-x="550" 
d="M193 0l-199.001 653.001h145l83 -312c10.667 -36.667 19.834 -71.834 27.501 -105.501s16.5 -68.834 26.5 -105.501h4c10.667 36.667 20 71.834 28 105.501l26 105.5l82 312h140l-199 -653h-164z" />
    <glyph glyph-name="W" unicode="W" horiz-adv-x="809" 
d="M139 0l-124.001 653h141l49 -313c4 -34.667 8.5 -69.334 13.5 -104.001l14.5 -103h4l20 103.5l20 103.5l74 313h117l73 -313l20.5 -103l20.5 -104h4c4 34.667 8.5 69.334 13.5 104.001l14.5 103l49 313h131l-119 -653h-172l-69 312
c-5.33301 25.333 -10.166 50.666 -14.499 75.999l-12.5 75h-4c-4 -24.667 -8.33301 -49.667 -13 -75s-9.66699 -50.666 -15 -75.999l-67 -312h-169z" />
    <glyph glyph-name="X" unicode="X" horiz-adv-x="559" 
d="M12 0l181.999 335.999l-171 317h153l62 -131l22.5 -47l25.5 -56h4l22 56c6.66699 16.667 13.334 32.334 20.001 47.001l58 131h146l-171 -323l182 -330h-153l-69 140l-25 51.5l-25 55.5h-4c-8 -20 -15.833 -38.5 -23.5 -55.5l-22.5 -51.5l-67 -140h-146z" />
    <glyph glyph-name="Y" unicode="Y" horiz-adv-x="517" 
d="M190 0v236l-196 417h146l63 -156l26.5 -72l27.5 -72h4l29 72l28 72l63 156h143l-197 -417v-236h-137z" />
    <glyph glyph-name="Z" unicode="Z" horiz-adv-x="541" 
d="M37 0v83l298 455h-270v115h439v-83l-298 -455h300v-115h-469z" />
    <glyph glyph-name="bracketleft" unicode="[" horiz-adv-x="338" 
d="M88 -152v860h206v-73h-104v-714h104v-73h-206z" />
    <glyph glyph-name="backslash" unicode="\" horiz-adv-x="341" 
d="M238 -160l-212 870h90l212 -870h-90z" />
    <glyph glyph-name="bracketright" unicode="]" horiz-adv-x="338" 
d="M44 -152v73h104v714h-104v73h206v-860h-206z" />
    <glyph glyph-name="asciicircum" unicode="^" horiz-adv-x="523" 
d="M52 276l154 394h111l155 -394h-113l-49 136l-46 135h-4l-46 -135l-49 -136h-113z" />
    <glyph glyph-name="underscore" unicode="_" horiz-adv-x="500" 
d="M12 -138v79h476v-79h-476z" />
    <glyph glyph-name="grave" unicode="`" horiz-adv-x="553" 
d="M271 573l-177 156l93 90l151 -179z" />
    <glyph glyph-name="a" unicode="a" horiz-adv-x="524" 
d="M191 -12c-30 0 -56.0029 6.49902 -78.0029 19.499s-39 30.667 -51 53s-18 47.5 -18 75.5c0 52 22.333 92.667 67 122s116.334 49.333 215.001 60c-0.666992 15.333 -3.66699 29 -9 41s-14 21.5 -26 28.5s-27.667 10.5 -47 10.5c-22 0 -43.833 -4.33301 -65.5 -13
s-44.167 -19.667 -67.5 -33l-49 90c20 12 41.167 23 63.5 33s45.5 17.833 69.5 23.5s49 8.5 75 8.5c42 0 77.333 -8.33301 106 -25s50.334 -41.167 65.001 -73.5s22 -73.166 22 -122.499v-286h-112l-10 52h-3c-21.333 -18.667 -44.166 -34 -68.499 -46s-50.5 -18 -78.5 -18z
M235.997 93.999c18 0 33.832 4.16602 47.499 12.499s27.834 19.5 42.501 33.5v95c-38 -5.33301 -68 -12.166 -90 -20.499s-37.667 -18.333 -47 -30s-14 -24.167 -14 -37.5c0 -18 5.66699 -31.333 17 -40s26 -13 44 -13z" />
    <glyph glyph-name="b" unicode="b" horiz-adv-x="570" 
d="M321 -12c-22.667 0 -45.167 5.50098 -67.5 16.501s-43.5 27.167 -63.5 48.5h-4l-11 -53h-107v703h136v-175l-3 -78c19.333 17.333 40.5 31.166 63.5 41.499s46.5 15.5 70.5 15.5c40.667 0 75.5 -10.5 104.5 -31.5s51.333 -50.167 67 -87.5s23.5 -81.333 23.5 -132
c0 -56.667 -10 -105 -30 -145s-45.833 -70.5 -77.5 -91.5s-65.5 -31.5 -101.5 -31.5zM290 100.001c18.667 0 35.501 5.5 50.501 16.5s27 27.833 36 50.5s13.5 51.667 13.5 87c0 30.667 -3.33301 56.334 -10 77.001s-16.834 36.5 -30.501 47.5s-31.167 16.5 -52.5 16.5
c-16 0 -31.5 -3.83301 -46.5 -11.5s-30.5 -19.834 -46.5 -36.501v-212c14.667 -12.667 29.5 -21.667 44.5 -27s28.833 -8 41.5 -8z" />
    <glyph glyph-name="c" unicode="c" horiz-adv-x="466" 
d="M280 -12c-45.333 0 -86.3369 10.1611 -123.004 30.4941s-65.667 49.833 -87 88.5s-32 85.334 -32 140.001s11.833 101.334 35.5 140.001s54.834 68.334 93.501 89.001s80.334 31 125.001 31c30.667 0 58 -5.16699 82 -15.5s45 -23.166 63 -38.499l-65 -88
c-12 10.667 -23.667 18.5 -35 23.5s-23.666 7.5 -36.999 7.5c-24.667 0 -46.167 -6.16699 -64.5 -18.5s-32.5 -29.666 -42.5 -51.999s-15 -48.5 -15 -78.5s5 -56.167 15 -78.5s23.833 -39.5 41.5 -51.5s37.834 -18 60.501 -18c17.333 0 34 3.66699 50 11
s30.667 16.333 44 27l54 -89c-24 -21.333 -50.333 -36.666 -79 -45.999s-56.667 -14 -84 -14z" />
    <glyph glyph-name="d" unicode="d" horiz-adv-x="570" 
d="M243 -12c-61.333 0 -110.331 23 -146.998 69s-55 109.333 -55 190c0 54 9.83301 100.333 29.5 139s45.167 68.5 76.5 89.5s64.666 31.5 99.999 31.5c28 0 51.333 -4.66699 70 -14s36.667 -22.333 54 -39l-5 77v172h137v-703h-112l-10 51h-3
c-18 -18 -38.833 -33 -62.5 -45s-47.834 -18 -72.501 -18zM278.002 100c17.333 0 33 3.66797 47 11.001s27.667 19.666 41 36.999v212c-14 13.333 -28.5 22.5 -43.5 27.5s-29.833 7.5 -44.5 7.5c-17.333 0 -33.333 -5.5 -48 -16.5s-26.5 -27.333 -35.5 -49
s-13.5 -48.5 -13.5 -80.5c0 -50 8.5 -87.333 25.5 -112s40.833 -37 71.5 -37z" />
    <glyph glyph-name="e" unicode="e" horiz-adv-x="514" 
d="M286 -12c-46.667 0 -88.8311 10.333 -126.498 31s-67.334 50.167 -89.001 88.5s-32.5 84.833 -32.5 139.5c0 53.333 11 99.333 33 138s50.667 68.667 86 90s72.666 32 111.999 32c46 0 84.5 -10.333 115.5 -31s54.333 -48.834 70 -84.501s23.5 -76.167 23.5 -121.5
c0 -12 -0.666992 -23.833 -2 -35.5s-2.66602 -20.5 -3.99902 -26.5h-327l-1 91h217c0 31.333 -7.16699 56.333 -21.5 75s-36.833 28 -67.5 28c-18 0 -35.333 -5 -52 -15s-30.334 -26.333 -41.001 -49s-16 -53 -16 -91s6.83301 -68.167 20.5 -90.5s31.167 -38.5 52.5 -48.5
s44 -15 68 -15c20 0 38.833 2.83301 56.5 8.5s35.5 13.834 53.5 24.501l45 -83c-24.667 -16.667 -52.167 -30 -82.5 -40s-60.5 -15 -90.5 -15z" />
    <glyph glyph-name="f" unicode="f" horiz-adv-x="333" 
d="M91 0l-0.000976562 529.002c0 34.667 5.83301 66 17.5 94s30.334 50.333 56.001 67s59.834 25 102.501 25c20 0 38.333 -1.83301 55 -5.5s30.334 -7.83398 41.001 -12.501l-25 -101c-8.66699 4 -17.334 6.83301 -26.001 8.5s-17.334 2.5 -26.001 2.5
c-18.667 0 -33 -5.83301 -43 -17.5s-15 -30.834 -15 -57.501v-532h-137zM24.999 387.002v102l74 6h220v-108h-294z" />
    <glyph glyph-name="g" unicode="g" horiz-adv-x="530" 
d="M243 -213c-38.667 0 -73.6709 4.5 -105.004 13.5s-56.166 22.833 -74.499 41.5s-27.5 42.667 -27.5 72c0 20.667 6.16699 39.5 18.5 56.5s29.833 31.833 52.5 44.5v4c-12.667 8.66699 -23.334 19.834 -32.001 33.501s-13 30.5 -13 50.5c0 18 5.33301 35.167 16 51.5
s23.667 29.833 39 40.5v4c-17.333 12.667 -32.666 30.167 -45.999 52.5s-20 47.833 -20 76.5c0 39.333 9.33301 72.166 28 98.499s43.334 46.333 74.001 60s63.667 20.5 99 20.5c14 0 27.5 -1.16699 40.5 -3.5s24.833 -5.16602 35.5 -8.49902h179v-100h-83
c6 -8 11 -18.333 15 -31s6 -26 6 -40c0 -38 -8.66699 -69.333 -26 -94s-40.5 -43 -69.5 -55s-61.5 -18 -97.5 -18c-9.33301 0 -19.166 0.833008 -29.499 2.5s-21.166 4.16699 -32.499 7.5c-6.66699 -5.33301 -11.667 -10.833 -15 -16.5s-5 -13.5 -5 -23.5
c0 -12.667 5.83301 -22.334 17.5 -29.001s31.167 -10 58.5 -10h83c60 0 106 -9.83301 138 -29.5s48 -51.167 48 -94.5c0 -34 -11.167 -64.333 -33.5 -91s-53.833 -47.667 -94.5 -63s-88.667 -23 -144 -23zM263.996 -126c23.333 0 44.001 2.83301 62.001 8.5
s32.167 13.667 42.5 24s15.5 21.833 15.5 34.5c0 16.667 -6.83301 27.834 -20.5 33.501s-33.167 8.5 -58.5 8.5h-57c-15.333 0 -28.333 0.5 -39 1.5s-20.334 2.5 -29.001 4.5c-10.667 -8.66699 -18.5 -17.334 -23.5 -26.001s-7.5 -18 -7.5 -28
c0 -20 10.5 -35.167 31.5 -45.5s48.833 -15.5 83.5 -15.5zM251.997 240c14 0 26.5 3.33105 37.5 9.99805s19.833 16.667 26.5 30s10 29.333 10 48s-3.33301 34.334 -10 47.001s-15.5 22.334 -26.5 29.001s-23.5 10 -37.5 10c-20.667 0 -38 -7.16699 -52 -21.5
s-21 -35.833 -21 -64.5c0 -18.667 3.16699 -34.667 9.5 -48s15 -23.333 26 -30s23.5 -10 37.5 -10z" />
    <glyph glyph-name="h" unicode="h" horiz-adv-x="567" 
d="M68 0v703.001h136v-175l-6 -92c19.333 18 41.5 34.333 66.5 49s54.5 22 88.5 22c53.333 0 92.166 -17.667 116.499 -53s36.5 -84 36.5 -146v-308h-137v291c0 37.333 -5.16699 63.166 -15.5 77.499s-27.166 21.5 -50.499 21.5c-20 0 -37 -4.5 -51 -13.5
s-30 -21.833 -48 -38.5v-338h-136z" />
    <glyph glyph-name="i" unicode="i" horiz-adv-x="272" 
d="M68 0v495h136v-495h-136zM136 572c-22 0 -40.333 6.83301 -55 20.5s-22 31.167 -22 52.5s7.33301 38.833 22 52.5s33 20.5 55 20.5c22.667 0 41.167 -6.83301 55.5 -20.5s21.5 -31.167 21.5 -52.5s-7.16699 -38.833 -21.5 -52.5s-32.833 -20.5 -55.5 -20.5z" />
    <glyph glyph-name="j" unicode="j" horiz-adv-x="273" 
d="M40 -199c-19.333 0 -35.666 1.33105 -48.999 3.99805s-25.333 5.66699 -36 9l25 101c6.66699 -2 13.167 -3.66699 19.5 -5s13.166 -2 20.499 -2c20 0 34 6.83301 42 20.5s12 34.5 12 62.5l1 504h137l-2 -501c0 -35.333 -5.16699 -67.666 -15.5 -96.999
s-27.833 -52.666 -52.5 -69.999s-58.667 -26 -102 -26zM40 -199.002c-19.333 0 -35.666 1.33105 -48.999 3.99805s-25.333 5.66699 -36 9l25 101c6.66699 -2 13.167 -3.66699 19.5 -5s13.166 -2 20.499 -2c20 0 34 6.83301 42 20.5s12 34.5 12 62.5l1 504h137l-2 -501
c0 -35.333 -5.16699 -67.666 -15.5 -96.999s-27.833 -52.666 -52.5 -69.999s-58.667 -26 -102 -26zM138 571.996c-22.667 0 -41.167 6.83301 -55.5 20.5s-21.5 31.167 -21.5 52.5s7.16699 38.833 21.5 52.5s32.833 20.5 55.5 20.5s41.167 -6.83301 55.5 -20.5
s21.5 -31.167 21.5 -52.5s-7.16699 -38.833 -21.5 -52.5s-32.833 -20.5 -55.5 -20.5z" />
    <glyph glyph-name="k" unicode="k" horiz-adv-x="539" 
d="M68 0v703h133v-415h4l165 207h149l-172 -203l186 -292h-148l-116 200l-68 -77v-123h-133z" />
    <glyph glyph-name="l" unicode="l" horiz-adv-x="281" 
d="M195 -12c-31.333 0 -56.332 6.49902 -74.999 19.499s-32 31.167 -40 54.5s-12 51 -12 83v558h136v-564c0 -14.667 2.83301 -25 8.5 -31s11.5 -9 17.5 -9c3.33301 0 6.16602 0.166992 8.49902 0.5s5.5 0.833008 9.5 1.5l17 -101
c-8 -3.33301 -17.667 -6.16602 -29 -8.49902s-25 -3.5 -41 -3.5z" />
    <glyph glyph-name="m" unicode="m" horiz-adv-x="853" 
d="M68 0l0.000976562 495.002h111l10 -65h4c20 20.667 42 38.667 66 54s52 23 84 23c35.333 0 64 -7.5 86 -22.5s39 -35.833 51 -62.5c22 23.333 45.5 43.333 70.5 60s53.5 25 85.5 25c53.333 0 92.333 -17.667 117 -53s37 -84 37 -146v-308h-136v291
c0 37.333 -5.33301 63.166 -16 77.499s-27.334 21.5 -50.001 21.5c-14 0 -28.333 -4.16699 -43 -12.5s-30.667 -21.5 -48 -39.5v-338h-136v291c0 37.333 -5.33301 63.166 -16 77.499s-27.334 21.5 -50.001 21.5c-27.333 0 -57.666 -17.333 -90.999 -52v-338h-136z" />
    <glyph glyph-name="n" unicode="n" horiz-adv-x="568" 
d="M68 0v495.001h111l10 -64h4c21.333 20.667 44.833 38.5 70.5 53.5s55.5 22.5 89.5 22.5c53.333 0 92.166 -17.667 116.499 -53s36.5 -84 36.5 -146v-308h-137v291c0 37.333 -5.16699 63.166 -15.5 77.499s-27.166 21.5 -50.499 21.5c-20 0 -37 -4.5 -51 -13.5
s-30 -21.833 -48 -38.5v-338h-136z" />
    <glyph glyph-name="o" unicode="o" horiz-adv-x="553" 
d="M277 -12c-42 0 -81.167 10.167 -117.5 30.5s-65.666 49.833 -87.999 88.5s-33.5 85.334 -33.5 140.001s11.167 101.334 33.5 140.001s51.666 68.334 87.999 89.001s75.5 31 117.5 31c41.333 0 80.166 -10.333 116.499 -31s65.833 -50.334 88.5 -89.001
s34 -85.334 34 -140.001s-11.333 -101.334 -34 -140.001s-52.167 -68.167 -88.5 -88.5s-75.166 -30.5 -116.499 -30.5zM277 99c21.333 0 39.333 6 54 18s25.834 29.167 33.501 51.5s11.5 48.5 11.5 78.5s-3.83301 56.167 -11.5 78.5s-18.834 39.666 -33.501 51.999
s-32.667 18.5 -54 18.5c-22 0 -40.333 -6.16699 -55 -18.5s-25.667 -29.666 -33 -51.999s-11 -48.5 -11 -78.5s3.66699 -56.167 11 -78.5s18.333 -39.5 33 -51.5s33 -18 55 -18z" />
    <glyph glyph-name="p" unicode="p" horiz-adv-x="570" 
d="M68 -187l-0.00195312 682.002h111l10 -50h4c20 17.333 42.333 32 67 44s50 18 76 18c40.667 0 75.334 -10.5 104.001 -31.5s50.834 -50.333 66.501 -88s23.5 -81.834 23.5 -132.501c0 -56.667 -10 -104.834 -30 -144.501s-45.833 -70 -77.5 -91s-65.5 -31.5 -101.5 -31.5
c-21.333 0 -42.333 4.66699 -63 14s-40 22.333 -58 39l4 -80v-148h-136zM289.998 100.002c18.667 0 35.502 5.5 50.502 16.5s27 27.833 36 50.5s13.5 51.667 13.5 87c0 30.667 -3.33301 56.334 -10 77.001s-16.834 36.5 -30.501 47.5s-31.167 16.5 -52.5 16.5
c-16 0 -31.333 -3.83301 -46 -11.5s-30.334 -19.834 -47.001 -36.501v-212c14.667 -12.667 29.5 -21.667 44.5 -27s28.833 -8 41.5 -8z" />
    <glyph glyph-name="q" unicode="q" horiz-adv-x="570" 
d="M366 -187l0.00195312 154l5 78c-16.667 -16 -36.334 -29.5 -59.001 -40.5s-45.667 -16.5 -69 -16.5c-61.333 0 -110.333 23 -147 69s-55 109.333 -55 190c0 54 9.83301 100.333 29.5 139s45.167 68.5 76.5 89.5s64.666 31.5 99.999 31.5c27.333 0 51.5 -5 72.5 -15
s41.5 -25.333 61.5 -46h3l12 49h107v-682h-137zM278.002 100c17.333 0 33 3.66797 47 11.001s27.667 19.666 41 36.999v212c-14 13.333 -28.5 22.5 -43.5 27.5s-29.833 7.5 -44.5 7.5c-17.333 0 -33.333 -5.5 -48 -16.5s-26.5 -27.333 -35.5 -49s-13.5 -48.5 -13.5 -80.5
c0 -50 8.5 -87.333 25.5 -112s40.833 -37 71.5 -37z" />
    <glyph glyph-name="r" unicode="r" horiz-adv-x="390" 
d="M68 0l0.00195312 494.999h111l10 -87h4c18 32.667 39.5 57.334 64.5 74.001s50.167 25 75.5 25c13.333 0 24.666 -0.833008 33.999 -2.5s17.333 -4.16699 24 -7.5l-23 -118l-24.5 5.5c-7.66699 1.66699 -16.834 2.5 -27.501 2.5c-19.333 0 -39.333 -7 -60 -21
s-38 -38.667 -52 -74v-292h-136z" />
    <glyph glyph-name="s" unicode="s" horiz-adv-x="439" 
d="M211 -12c-32.667 0 -66.1631 6.5 -100.496 19.5s-63.833 29.5 -88.5 49.5l62 86c22.667 -16.667 44.667 -29.667 66 -39s43 -14 65 -14c23.333 0 40.5 4.33301 51.5 13s16.5 20.334 16.5 35.001c0 11.333 -5 21.166 -15 29.499s-22.833 15.666 -38.5 21.999l-48.5 19.5
c-20.667 8 -41.334 18 -62.001 30s-37.834 27.333 -51.501 46s-20.5 41.667 -20.5 69c0 45.333 17 82.166 51 110.499s79 42.5 135 42.5c37.333 0 70 -6.33301 98 -19s52.333 -27 73 -43l-61 -82c-18 12.667 -35.667 22.834 -53 30.501s-35 11.5 -53 11.5
c-20.667 0 -36.167 -4 -46.5 -12s-15.5 -18.667 -15.5 -32c0 -11.333 4.66699 -20.666 14 -27.999s21.666 -14 36.999 -20s31.666 -12 48.999 -18c21.333 -8 42.333 -17.833 63 -29.5s38 -27 52 -46s21 -43.5 21 -73.5c0 -29.333 -7.66699 -56 -23 -80
s-37.833 -43 -67.5 -57s-66.167 -21 -109.5 -21z" />
    <glyph glyph-name="t" unicode="t" horiz-adv-x="376" 
d="M253 -12c-60 0 -102.67 17.333 -128.003 52s-38 80 -38 136v211h-69v102l76 6l16 132h113v-132h121v-108h-121v-210c0 -28 5.83301 -48.5 17.5 -61.5s27.834 -19.5 48.501 -19.5c8.66699 0 17.334 1 26.001 3s16.334 4.33301 23.001 7l22 -100c-13.333 -4 -29 -8 -47 -12
s-38 -6 -60 -6z" />
    <glyph glyph-name="u" unicode="u" horiz-adv-x="565" 
d="M216 -12c-53.333 0 -92.167 17.666 -116.5 52.999s-36.5 84 -36.5 146v308h136v-291c0 -37.333 5.5 -63.166 16.5 -77.499s27.833 -21.5 50.5 -21.5c19.333 0 36 4.5 50 13.5s29 24.167 45 45.5v331h136v-495h-111l-10 70h-4c-20.667 -24.667 -43.5 -44.5 -68.5 -59.5
s-54.167 -22.5 -87.5 -22.5z" />
    <glyph glyph-name="v" unicode="v" horiz-adv-x="514" 
d="M181 0l-169 495h138l69 -241l19 -75l20 -76h4l20 76l20 75l69 241h131l-164 -495h-157z" />
    <glyph glyph-name="w" unicode="w" horiz-adv-x="767" 
d="M150 0l-126 495h136l52 -238c4 -24 7.83301 -48.167 11.5 -72.5l11.5 -73.5h4l14 73.5c4.66699 24.333 10 48.5 16 72.5l58 238h120l59 -238c6 -24 11.5 -48.167 16.5 -72.5l14.5 -73.5h4c4.66699 24.667 8.66699 49.167 12 73.5s7.33301 48.5 12 72.5l51 238h127
l-121 -495h-160l-50 209l-13.5 70l-13.5 74h-4l-13 -74.5c-4 -23.667 -8.66699 -47.167 -14 -70.5l-47 -208h-157z" />
    <glyph glyph-name="x" unicode="x" horiz-adv-x="503" 
d="M14 0l154.002 258.002l-144 237h146l48 -85l21 -41.5l22 -42.5h4c5.33301 14 11.166 28.167 17.499 42.5s12.166 28.166 17.499 41.499l38 85h142l-144 -253l153 -242h-146l-53 87l-23 44l-24 43h-4l-20.5 -43c-7 -14.667 -13.5 -29.334 -19.5 -44.001l-43 -87h-142z" />
    <glyph glyph-name="y" unicode="y" horiz-adv-x="513" 
d="M116 -196c-14.667 0 -27.332 1 -37.999 3s-21 4.33301 -31 7l25 104c4.66699 -0.666992 10.167 -1.83398 16.5 -3.50098s12.166 -2.5 17.499 -2.5c24.667 0 44.167 6.66699 58.5 20s24.833 30.333 31.5 51l8 28l-192 484h138l75 -223c7.33301 -22 14.333 -44.667 21 -68
l20 -72h4l17.5 70.5c5.66699 23.667 11.5 46.834 17.5 69.501l65 223h131l-174 -506c-15.333 -39.333 -32 -72.833 -50 -100.5s-40 -48.667 -66 -63s-57.667 -21.5 -95 -21.5z" />
    <glyph glyph-name="z" unicode="z" horiz-adv-x="455" 
d="M37 0v73l216 314h-192v108h362v-73l-216 -314h223v-108h-393z" />
    <glyph glyph-name="braceleft" unicode="{" horiz-adv-x="338" 
d="M234 -152c-43.333 0 -75.166 10.1699 -95.499 30.5029s-30.5 57.166 -30.5 110.499c0 24 0.833008 45 2.5 63l5 53c1.66699 17.333 2.5 36.666 2.5 57.999c0 18.667 -6.16699 35.667 -18.5 51s-34.833 23.333 -67.5 24v81c21.333 0 38.333 3.83301 51 11.5
s21.667 17 27 28s8 22.5 8 34.5c0 21.333 -0.833008 40.666 -2.5 57.999l-5 53.5c-1.66699 18.333 -2.5 39.166 -2.5 62.499c0 54 10.167 91 30.5 111s52.166 30 95.499 30h60v-73h-20c-22 0 -36.833 -5.16699 -44.5 -15.5s-11.5 -29.5 -11.5 -57.5
c0 -27.333 0.833008 -54 2.5 -80s2.5 -54.667 2.5 -86c0 -37.333 -5.83301 -64.5 -17.5 -81.5s-29.834 -28.5 -54.501 -34.5v-4c24.667 -6 42.834 -17.5 54.501 -34.5s17.5 -43.833 17.5 -80.5c0 -30.667 -0.833008 -59.167 -2.5 -85.5s-2.5 -53.166 -2.5 -80.499
c0 -28.667 3.83301 -48.167 11.5 -58.5s22.5 -15.5 44.5 -15.5h20v-73h-60z" />
    <glyph glyph-name="bar" unicode="|" horiz-adv-x="264" 
d="M87 -250v1000h90v-1000h-90z" />
    <glyph glyph-name="braceright" unicode="}" horiz-adv-x="338" 
d="M44 -152l0.000976562 72.9971h20c22 0 36.833 5.16699 44.5 15.5s11.5 29.833 11.5 58.5c0 27.333 -0.833008 54.166 -2.5 80.499s-2.5 54.833 -2.5 85.5c0 36.667 5.83301 63.5 17.5 80.5s29.834 28.5 54.501 34.5v4c-24.667 6 -42.834 17.5 -54.501 34.5
s-17.5 44.167 -17.5 81.5c0 31.333 0.833008 60 2.5 86s2.5 52.667 2.5 80c0 28 -3.83301 47.167 -11.5 57.5s-22.5 15.5 -44.5 15.5h-20v73h60c43.333 0 75.166 -10 95.499 -30s30.5 -57 30.5 -111c0 -23.333 -0.833008 -44.166 -2.5 -62.499l-5 -53.5
c-1.66699 -17.333 -2.5 -36.666 -2.5 -57.999c0 -12 2.66699 -23.5 8 -34.5s14.166 -20.333 26.499 -28s29.5 -11.5 51.5 -11.5v-81c-32.667 -0.666992 -55.167 -8.66699 -67.5 -24s-18.5 -32.333 -18.5 -51c0 -21.333 0.833008 -40.666 2.5 -57.999l5 -53
c1.66699 -18 2.5 -39 2.5 -63c0 -53.333 -10.167 -90.166 -30.5 -110.499s-52.166 -30.5 -95.499 -30.5h-60z" />
    <glyph glyph-name="asciitilde" unicode="~" horiz-adv-x="523" 
d="M347 243c-20 0 -37.834 4 -53.501 12s-30 17 -43 27s-25.5 18.833 -37.5 26.5s-25 11.5 -39 11.5c-13.333 0 -26.166 -4.83301 -38.499 -14.5s-23.5 -24.167 -33.5 -43.5l-72 54c24 36.667 48.333 62.667 73 78s49 23 73 23c20.667 0 38.834 -3.83301 54.501 -11.5
s29.834 -16.5 42.501 -26.5s25.167 -19 37.5 -27s25.166 -12 38.499 -12c14 0 27 5 39 15s23.333 24.333 34 43l71 -54c-23.333 -36.667 -47.333 -62.667 -72 -78s-49.334 -23 -74.001 -23z" />
    <glyph glyph-name="uni00A0" unicode="&#xa0;" horiz-adv-x="200" 
 />
    <glyph glyph-name="exclamdown" unicode="&#xa1;" horiz-adv-x="332" 
d="M98 -175l4 126l19 318h90l19 -318l5 -126h-137zM166 331c-23.333 0 -43.166 8.5 -59.499 25.5s-24.5 37.833 -24.5 62.5c0 25.333 8.16699 46.333 24.5 63s36.166 25 59.499 25c24.667 0 44.834 -8.33301 60.501 -25s23.5 -37.667 23.5 -63
c0 -24.667 -7.83301 -45.5 -23.5 -62.5s-35.834 -25.5 -60.501 -25.5z" />
    <glyph glyph-name="cent" unicode="&#xa2;" horiz-adv-x="523" 
d="M318 54c-51.333 0 -96.1729 10.002 -134.506 30.002s-68.333 48.833 -90 86.5s-32.5 83.5 -32.5 137.5c0 53.333 12 99 36 137s56.333 66.833 97 86.5s86 29.5 136 29.5c30.667 0 58.334 -5.33301 83.001 -16s45.334 -24.334 62.001 -41.001l-63 -84
c-12 10.667 -24 18.5 -36 23.5s-24.667 7.5 -38 7.5c-32 0 -58.667 -5.83301 -80 -17.5s-37.5 -28.334 -48.5 -50.001s-16.5 -46.834 -16.5 -75.501c0 -44 12.333 -78.833 37 -104.5s59 -38.5 103 -38.5c18.667 0 35.834 3.83301 51.501 11.5s29.834 16.5 42.501 26.5
l55 -86c-23.333 -21.333 -49.666 -37.166 -78.999 -47.499s-57.666 -15.5 -84.999 -15.5zM272.993 -38.998v694h76v-694h-76z" />
    <glyph glyph-name="sterling" unicode="&#xa3;" horiz-adv-x="523" 
d="M49 0l-0.000976562 84c30.667 14.667 56 35.834 76 63.501s30 59.167 30 94.5c0 22.667 -3.66699 45.667 -11 69l-22 69c-7.33301 22.667 -11 44.667 -11 66c0 41.333 9 77.166 27 107.499s42.667 53.666 74 69.999s67.333 24.5 108 24.5
c36.667 0 68.667 -7.16699 96 -21.5s52 -34.166 74 -59.499l-75 -74c-11.333 14.667 -23.666 25.667 -36.999 33s-28.333 11 -45 11c-28 0 -50.167 -8.16699 -66.5 -24.5s-24.5 -40.833 -24.5 -73.5c0 -21.333 2.66699 -42.5 8 -63.5l16.5 -65
c5.66699 -22.333 8.5 -45.5 8.5 -69.5c0 -26 -3.83301 -48.167 -11.5 -66.5s-19.5 -36.833 -35.5 -55.5v-4h262v-115h-441zM52.999 274v80l67 5h285v-85h-352z" />
    <glyph glyph-name="currency" unicode="&#xa4;" horiz-adv-x="523" 
d="M90 87l-69 69l61 62c-10.667 15.333 -19 32.333 -25 51s-9 39 -9 61s3 42.167 9 60.5s14.333 35.166 25 50.499l-61 62l69 69l69 -70c32 18 66.333 27 103 27c36 0 70.333 -9 103 -27l69 70l68 -69l-61 -62c10.667 -15.333 19 -32.166 25 -50.499s9 -38.5 9 -60.5
s-3.16699 -42.333 -9.5 -61s-14.833 -35.667 -25.5 -51l62 -62l-68 -69l-70 70c-15.333 -8.66699 -31.833 -15.167 -49.5 -19.5s-35.167 -6.5 -52.5 -6.5c-38 0 -72.333 8.66699 -103 26zM262 226c16.667 0 32 4.16699 46 12.5s25 20.333 33 36s12 34.167 12 55.5
c0 20.667 -4 38.834 -12 54.501s-19 27.834 -33 36.501s-29.333 13 -46 13c-17.333 0 -32.833 -4.33301 -46.5 -13s-24.667 -20.834 -33 -36.501s-12.5 -33.834 -12.5 -54.501c0 -21.333 4.16699 -39.833 12.5 -55.5s19.333 -27.667 33 -36s29.167 -12.5 46.5 -12.5z" />
    <glyph glyph-name="yen" unicode="&#xa5;" horiz-adv-x="523" 
d="M193 0v149h-154v67h154v56h-154v67h124l-149 297h141l55 -139l25 -66l26 -66h4l26 66l26 66l55 139h137l-149 -297h125v-67h-155v-56h155v-67h-155v-149h-137z" />
    <glyph glyph-name="brokenbar" unicode="&#xa6;" horiz-adv-x="264" 
d="M87 309v441h90v-441h-90zM87 -250v456h90v-456h-90z" />
    <glyph glyph-name="section" unicode="&#xa7;" horiz-adv-x="523" 
d="M377 138l-76.999 57.998c23.333 8.66699 40.666 18.834 51.999 30.501s17 27.167 17 46.5s-6.66699 35.333 -20 48s-30.5 24 -51.5 34s-43.5 20 -67.5 30s-46.667 21.333 -68 34s-38.666 28.834 -51.999 48.501s-20 43.834 -20 72.501s6.83301 54.334 20.5 77.001
s33.5 40.334 59.5 53.001s57.333 19 94 19c37.333 0 71 -6.5 101 -19.5s55 -27.833 75 -44.5l-63 -85c-16 13.333 -33.167 24.666 -51.5 33.999s-36.5 14 -54.5 14c-20 0 -34.667 -3.83301 -44 -11.5s-14 -18.167 -14 -31.5s6.66699 -24.833 20 -34.5
s30.166 -18.834 50.499 -27.501l65 -29c23 -10.667 44.833 -23.5 65.5 -38.5s37.667 -33 51 -54s20 -46.833 20 -77.5c0 -22.667 -4.33301 -42.834 -13 -60.501s-21 -33.5 -37 -47.5s-35.333 -26.667 -58 -38zM240.001 -81.002c-36 0 -71.168 6.99805 -105.501 20.998
s-62.833 34.667 -85.5 62l79 70c16.667 -16.667 34.334 -29.334 53.001 -38.001s38.334 -13 59.001 -13c21.333 0 37.333 4.33301 48 13s16 19.667 16 33c0 14 -6.33301 26 -19 36s-29.167 19.333 -49.5 28l-64.5 28c-22.667 10 -44 22.333 -64 37
s-36.333 32.834 -49 54.501s-19 47.834 -19 78.501c0 31.333 10.5 60 31.5 86s48.5 45.333 82.5 58l68 -58c-22 -8 -38.667 -18.167 -50 -30.5s-17 -27.5 -17 -45.5s6.66699 -33.333 20 -46s30.333 -23.834 51 -33.501l65.5 -29.5c23 -10 44.833 -21.667 65.5 -35
s37.667 -29.666 51 -48.999s20 -43.333 20 -72c0 -29.333 -7.33301 -55.666 -22 -78.999s-35.834 -41.833 -63.501 -55.5s-61.5 -20.5 -101.5 -20.5z" />
    <glyph glyph-name="dieresis" unicode="&#xa8;" horiz-adv-x="553" 
d="M384 572c-19.333 0 -35.5 6.5 -48.5 19.5s-19.5 29.167 -19.5 48.5s6.5 35.5 19.5 48.5s29.167 19.5 48.5 19.5c20 0 36.333 -6.5 49 -19.5s19 -29.167 19 -48.5s-6.33301 -35.5 -19 -48.5s-29 -19.5 -49 -19.5zM170 572c-19.333 0 -35.5 6.5 -48.5 19.5
s-19.5 29.167 -19.5 48.5s6.5 35.5 19.5 48.5s29.167 19.5 48.5 19.5c20 0 36.333 -6.5 49 -19.5s19 -29.167 19 -48.5s-6.33301 -35.5 -19 -48.5s-29 -19.5 -49 -19.5z" />
    <glyph glyph-name="copyright" unicode="&#xa9;" horiz-adv-x="749" 
d="M375 -9c-44.667 0 -86.667 7.66699 -126 23s-74.333 37.5 -105 66.5s-54.667 64.167 -72 105.5s-26 87.666 -26 138.999s8.66699 97.333 26 138s41.333 75.334 72 104.001s65.667 50.5 105 65.5s81.333 22.5 126 22.5c44 0 85.833 -7.5 125.5 -22.5
s74.667 -36.833 105 -65.5s54.166 -63.334 71.499 -104.001s26 -86.667 26 -138s-8.66699 -97.666 -26 -138.999s-41.166 -76.5 -71.499 -105.5s-65.333 -51.167 -105 -66.5s-81.5 -23 -125.5 -23zM386 127c-36.667 0 -69.332 7.99805 -97.999 23.998
s-51.334 38.667 -68.001 68s-25 64.333 -25 105c0 38.667 9 72.334 27 101.001s41.5 51 70.5 67s60.167 24 93.5 24c30.667 0 56.334 -5.83301 77.001 -17.5s39 -25.5 55 -41.5l-52 -58c-11.333 11.333 -22.5 20.166 -33.5 26.499s-23.5 9.5 -37.5 9.5
c-32.667 0 -57.667 -10.667 -75 -32s-26 -47.666 -26 -78.999c0 -36 8.66699 -64.333 26 -85s40.666 -31 69.999 -31c17.333 0 32.333 3.33301 45 10s25.667 15.334 39 26.001l44 -64c-18.667 -15.333 -38.667 -28 -60 -38s-45.333 -15 -72 -15zM375.002 48.998
c36.667 0 71 6.5 103 19.5s60 31.667 84 56s42.833 53.5 56.5 87.5s20.5 71.667 20.5 113s-6.83301 78.833 -20.5 112.5s-32.5 62.334 -56.5 86.001s-52 42 -84 55s-66.333 19.5 -103 19.5c-37.333 0 -72 -6.5 -104 -19.5s-60 -31.333 -84 -55s-42.667 -52.334 -56 -86.001
s-20 -71.167 -20 -112.5s6.66699 -79 20 -113s32 -63.167 56 -87.5s52 -43 84 -56s66.667 -19.5 104 -19.5z" />
    <glyph glyph-name="ordfeminine" unicode="&#xaa;" horiz-adv-x="357" 
d="M131 371c-30.667 0 -54.999 9.66797 -72.999 29.001s-27 42.666 -27 69.999c0 35.333 14.833 62.5 44.5 81.5s77.5 31.5 143.5 37.5c-0.666992 15.333 -5 27.333 -13 36s-20.667 13 -38 13c-14 0 -28.833 -2.83301 -44.5 -8.5s-31.5 -13.167 -47.5 -22.5l-34 64
c20.667 12.667 43.167 23.167 67.5 31.5s49.5 12.5 75.5 12.5c42 0 74.333 -12.167 97 -36.5s34 -60.833 34 -109.5v-190h-77l-9 34h-4c-12.667 -12 -26.834 -22 -42.501 -30s-33.167 -12 -52.5 -12zM163.001 445.001c10.667 0 20.333 2.33398 29 7.00098
s17.667 11.667 27 21v60c-36 -4 -60.833 -11 -74.5 -21s-20.5 -21.333 -20.5 -34c0 -10.667 3.5 -18.834 10.5 -24.501s16.5 -8.5 28.5 -8.5z" />
    <glyph glyph-name="guillemotleft" unicode="&#xab;" horiz-adv-x="472" 
d="M183 58l-135 146v97l135 146l52 -42l-112 -153l112 -153zM367 58l-135 146v97l135 146l52 -42l-112 -153l112 -153z" />
    <glyph glyph-name="logicalnot" unicode="&#xac;" horiz-adv-x="523" 
d="M388 96v186h-354v97h455v-283h-101z" />
    <glyph glyph-name="uni00AD" unicode="&#xad;" horiz-adv-x="329" 
d="M43 204v98h243v-98h-243z" />
    <glyph glyph-name="registered" unicode="&#xae;" horiz-adv-x="456" 
d="M228 313c-36.667 0 -69.834 8.5 -99.501 25.5s-53.334 40.667 -71.001 71s-26.5 65.166 -26.5 104.499c0 38.667 8.83301 73.167 26.5 103.5s41.334 54.166 71.001 71.499s62.834 26 99.501 26c36 0 68.833 -8.66699 98.5 -26s53.334 -41.166 71.001 -71.499
s26.5 -64.833 26.5 -103.5c0 -39.333 -8.83301 -74.166 -26.5 -104.499s-41.334 -54 -71.001 -71s-62.5 -25.5 -98.5 -25.5zM228 360c28 0 52.833 6.33301 74.5 19s38.667 30.5 51 53.5s18.5 50.167 18.5 81.5c0 30.667 -6.16699 57.5 -18.5 80.5s-29.333 41 -51 54
s-46.5 19.5 -74.5 19.5s-53 -6.5 -75 -19.5s-39.167 -31 -51.5 -54s-18.5 -49.833 -18.5 -80.5c0 -31.333 6.16699 -58.5 18.5 -81.5s29.5 -40.833 51.5 -53.5s47 -19 75 -19zM148 417l-0.000976562 197h87c22.667 0 41.834 -5.16699 57.501 -15.5s23.5 -26.833 23.5 -49.5
c0 -11.333 -3 -22 -9 -32s-15 -17.667 -27 -23l43 -77h-58l-31 61h-31v-61h-55zM202.999 517h21.001c11.333 0 19.666 2.66699 24.999 8s8 12 8 20s-2.66699 14.5 -8 19.5s-13.333 7.5 -24 7.5h-22v-55z" />
    <glyph glyph-name="macron" unicode="&#xaf;" horiz-adv-x="553" 
d="M132 593v88h291v-88h-291z" />
    <glyph glyph-name="degree" unicode="&#xb0;" horiz-adv-x="360" 
d="M181 403c-26.667 0 -50.667 6 -72 18s-38.333 28.667 -51 50s-19 45.666 -19 72.999c0 28 6.33301 52.667 19 74s29.667 38 51 50s45.333 18 72 18c26 0 49.667 -6 71 -18s38.333 -28.667 51 -50s19 -46 19 -74c0 -27.333 -6.33301 -51.666 -19 -72.999
s-29.667 -38 -51 -50s-45 -18 -71 -18zM181 470c20 0 36.333 7 49 21s19 31.667 19 53c0 22.667 -6.33301 40.834 -19 54.501s-29 20.5 -49 20.5s-36.5 -6.83301 -49.5 -20.5s-19.5 -31.834 -19.5 -54.501c0 -21.333 6.5 -39 19.5 -53s29.5 -21 49.5 -21z" />
    <glyph glyph-name="plusminus" unicode="&#xb1;" horiz-adv-x="523" 
d="M211 153v143h-177v97h177v172h101v-172h177v-97h-177v-143h-101zM34 0v97h455v-97h-455z" />
    <glyph glyph-name="twosuperior" unicode="&#xb2;" horiz-adv-x="390" 
d="M60 403v54c34.667 28.667 65 55 91 79s46.333 46 61 66s22 38.333 22 55c0 20 -5.33301 35.833 -16 47.5s-25.334 17.5 -44.001 17.5c-14 0 -26.833 -4.5 -38.5 -13.5s-23.167 -20.833 -34.5 -35.5l-58 52c19.333 26 41.333 45.833 66 59.5s51.334 20.5 80.001 20.5
c43.333 0 77.833 -11.5 103.5 -34.5s38.5 -55.167 38.5 -96.5c0 -22 -5 -43.167 -15 -63.5s-23.333 -40.5 -40 -60.5l-55 -63h125v-84h-286z" />
    <glyph glyph-name="threesuperior" unicode="&#xb3;" horiz-adv-x="374" 
d="M185 391c-33.333 0 -63.5 6.83105 -90.5 20.498s-48.833 32.834 -65.5 57.501l61 48c12 -16.667 25 -29 39 -37s29.333 -12 46 -12s30.834 4.33301 42.501 13s17.5 21 17.5 37c0 18.667 -8.16699 32.334 -24.5 41.001s-40.5 13 -72.5 13v59c25.333 0 45.5 4.5 60.5 13.5
s22.5 21.833 22.5 38.5c0 14 -4.83301 25 -14.5 33s-22.167 12 -37.5 12c-13.333 0 -25.5 -4 -36.5 -12s-21.167 -17.667 -30.5 -29l-57 51c20.667 22.667 41.834 39.5 63.501 50.5s47.5 16.5 77.5 16.5c23.333 0 45.333 -4.5 66 -13.5s37.167 -21.5 49.5 -37.5
s18.5 -35 18.5 -57c0 -21.333 -5.16699 -39.333 -15.5 -54s-24.833 -27 -43.5 -37c20.667 -8 38 -20 52 -36s21 -35.667 21 -59c0 -24 -6.83301 -45 -20.5 -63s-31.834 -32 -54.501 -42s-47.334 -15 -74.001 -15z" />
    <glyph glyph-name="acute" unicode="&#xb4;" horiz-adv-x="553" 
d="M284 573l-68 67l152 179l93 -90z" />
    <glyph glyph-name="mu" unicode="&#xb5;" horiz-adv-x="565" 
d="M39 -175l5 126l19 318h90l19 -318l4 -126h-137zM216 -12c-53.333 0 -92.167 17.666 -116.5 52.999s-36.5 84 -36.5 146v308h136v-291c0 -37.333 5.5 -63.166 16.5 -77.499s27.833 -21.5 50.5 -21.5c19.333 0 36 4.5 50 13.5s29 24.167 45 45.5v331h136v-495h-111l-10 70
h-4c-20.667 -24.667 -43.5 -44.5 -68.5 -59.5s-54.167 -22.5 -87.5 -22.5z" />
    <glyph glyph-name="paragraph" unicode="&#xb6;" horiz-adv-x="624" 
d="M296 202c-47.333 0 -90.333 8.50098 -129 25.501s-69.667 42.5 -93 76.5s-35 76.667 -35 128c0 55.333 11.5 99.166 34.5 131.499s53.5 55.333 91.5 69s80.333 20.5 127 20.5h44v-451h-40zM391 -79.999v733h137v-733h-137z" />
    <glyph glyph-name="periodcentered" unicode="&#xb7;" horiz-adv-x="292" 
d="M146 233c-23.333 0 -43.166 8.5 -59.499 25.5s-24.5 37.833 -24.5 62.5c0 25.333 8.16699 46.333 24.5 63s36.166 25 59.499 25c24.667 0 44.834 -8.33301 60.501 -25s23.5 -37.667 23.5 -63c0 -24.667 -7.83301 -45.5 -23.5 -62.5s-35.834 -25.5 -60.501 -25.5z" />
    <glyph glyph-name="cedilla" unicode="&#xb8;" horiz-adv-x="553" 
d="M178 -237l-10.999 55.999c39.333 2.66699 66.5 7.33398 81.5 14.001s22.5 17 22.5 31c0 10.667 -5.16699 19.5 -15.5 26.5s-30.833 12.5 -61.5 16.5l48 97h80l-28 -65c24.667 -6 43.5 -14.667 56.5 -26s19.5 -27.333 19.5 -48c0 -33.333 -16.833 -58 -50.5 -74
s-80.834 -25.333 -141.501 -28z" />
    <glyph glyph-name="onesuperior" unicode="&#xb9;" horiz-adv-x="330" 
d="M151 403v285h-88v62c26.667 4 47.5 9.33301 62.5 16s30.833 15.667 47.5 27h80v-390h-102z" />
    <glyph glyph-name="ordmasculine" unicode="&#xba;" horiz-adv-x="372" 
d="M186 371c-28.667 0 -55.167 6.66699 -79.5 20s-44 32.833 -59 58.5s-22.5 56.5 -22.5 92.5s7.5 66.833 22.5 92.5s34.667 45.5 59 59.5s50.833 21 79.5 21c28 0 54.167 -7 78.5 -21s44 -33.833 59 -59.5s22.5 -56.5 22.5 -92.5s-7.5 -66.833 -22.5 -92.5
s-34.667 -45.167 -59 -58.5s-50.5 -20 -78.5 -20zM186 448c20.667 0 36 8.66699 46 26s15 40 15 68c0 28.667 -5 51.834 -15 69.501s-25.333 26.5 -46 26.5c-21.333 0 -37 -8.83301 -47 -26.5s-15 -40.834 -15 -69.501c0 -28 5 -50.667 15 -68s25.667 -26 47 -26z" />
    <glyph glyph-name="guillemotright" unicode="&#xbb;" horiz-adv-x="472" 
d="M106 58l-52 41l112 153l-112 153l52 42l135 -146v-97zM290 58l-52 41l112 153l-112 153l52 42l135 -146v-97z" />
    <glyph glyph-name="onequarter" unicode="&#xbc;" horiz-adv-x="835" 
d="M200 -12l354 677h80l-354 -677h-80zM161 293v285h-88v62c26.667 4 47.5 9.33301 62.5 16s30.833 15.667 47.5 27h80v-390h-102zM675 0v202l5 116h-4l-41 -78l-45 -84h232v-66h-326v50l144 250h124v-390h-89z" />
    <glyph glyph-name="onehalf" unicode="&#xbd;" horiz-adv-x="840" 
d="M194 -12l354 677h80l-354 -677h-80zM161 293v285h-88v62c26.667 4 47.5 9.33301 62.5 16s30.833 15.667 47.5 27h80v-390h-102zM511 0l0.00292969 54.9961c34 28.667 64 55 90 79s46.333 45.833 61 65.5s22 37.834 22 54.501c0 20.667 -5.33301 36.667 -16 48
s-25.334 17 -44.001 17c-13.333 0 -26 -4.5 -38 -13.5s-23.667 -20.833 -35 -35.5l-57 53c19.333 25.333 41.166 44.833 65.499 58.5s51.166 20.5 80.499 20.5c42.667 0 77 -11.333 103 -34s39 -55 39 -97c0 -21.333 -5.16699 -42.166 -15.5 -62.499
s-23.833 -40.666 -40.5 -60.999s-35 -41.166 -55 -62.499h126v-85h-286z" />
    <glyph glyph-name="threequarters" unicode="&#xbe;" horiz-adv-x="840" 
d="M213 -12l353 677h80l-353 -677h-80zM185 281c-33.333 0 -63.5 6.83105 -90.5 20.498s-48.833 32.834 -65.5 57.501l61 48c12 -16.667 25 -29 39 -37s29.333 -12 46 -12s30.834 4.33301 42.501 13s17.5 21 17.5 37c0 18.667 -8.16699 32.334 -24.5 41.001
s-40.5 13 -72.5 13v59c25.333 0 45.5 4.5 60.5 13.5s22.5 21.833 22.5 38.5c0 14 -4.83301 25 -14.5 33s-22.167 12 -37.5 12c-13.333 0 -25.5 -4 -36.5 -12s-21.167 -17.667 -30.5 -29l-57 51c20.667 22.667 41.834 39.5 63.501 50.5s47.5 16.5 77.5 16.5
c23.333 0 45.333 -4.5 66 -13.5s37.167 -21.5 49.5 -37.5s18.5 -35 18.5 -57c0 -21.333 -5.16699 -39.333 -15.5 -54s-24.833 -27 -43.5 -37c20.667 -8 38 -20 52 -36s21 -35.667 21 -59c0 -24 -6.83301 -45 -20.5 -63s-31.834 -32 -54.501 -42s-47.334 -15 -74.001 -15z
M680 -0.00195312v202l5 116h-4l-41 -78l-45 -84h232v-66h-326v50l144 250h124v-390h-89z" />
    <glyph glyph-name="questiondown" unicode="&#xbf;" horiz-adv-x="457" 
d="M229 -187c-35.333 0 -66.999 6.16699 -94.999 18.5s-50.167 31 -66.5 56s-24.5 56.5 -24.5 94.5c0 24.667 5 46.667 15 66s22.5 37.333 37.5 54l43.5 49.5c14 16.333 25.333 33.833 34 52.5s12 40.334 10 65.001h119c4 -28 2.33301 -53.167 -5 -75.5
s-17.666 -42.333 -30.999 -60s-27 -34.334 -41 -50.001s-26 -30.834 -36 -45.501s-15 -30 -15 -46c0 -14.667 3 -27.167 9 -37.5s14.333 -18.166 25 -23.499s23.334 -8 38.001 -8c19.333 0 36.666 4.5 51.999 13.5s29.666 20.5 42.999 34.5l76 -69
c-23.333 -26 -50.833 -47.333 -82.5 -64s-66.834 -25 -105.501 -25zM242.001 331c-23.333 0 -43.166 8.5 -59.499 25.5s-24.5 37.833 -24.5 62.5c0 25.333 8.16699 46.333 24.5 63s36.166 25 59.499 25c24.667 0 44.834 -8.33301 60.501 -25s23.5 -37.667 23.5 -63
c0 -24.667 -7.83301 -45.5 -23.5 -62.5s-35.834 -25.5 -60.501 -25.5z" />
    <glyph glyph-name="Agrave" unicode="&#xc0;" horiz-adv-x="568" 
d="M-5 0l208 653h163l207 -653h-145l-90 336c-9.33301 33.333 -18.5 68.333 -27.5 105l-27.5 107h-4l-25.5 -107c-9 -36.667 -18.167 -71.667 -27.5 -105l-91 -336h-140zM127 163v106h312v-106h-312zM293 683l-179 118l73 89l166 -138z" />
    <glyph glyph-name="Aacute" unicode="&#xc1;" horiz-adv-x="568" 
d="M-5 0l208 653h163l207 -653h-145l-90 336c-9.33301 33.333 -18.5 68.333 -27.5 105l-27.5 107h-4l-25.5 -107c-9 -36.667 -18.167 -71.667 -27.5 -105l-91 -336h-140zM127 163v106h312v-106h-312zM270 683l-61 69l166 138l73 -89z" />
    <glyph glyph-name="Acircumflex" unicode="&#xc2;" horiz-adv-x="568" 
d="M-5 0l208 653h163l207 -653h-145l-90 336c-9.33301 33.333 -18.5 68.333 -27.5 105l-27.5 107h-4l-25.5 -107c-9 -36.667 -18.167 -71.667 -27.5 -105l-91 -336h-140zM127 163v106h312v-106h-312zM174 688l-59 37l92 111h148l92 -111l-59 -37l-105 85h-4z" />
    <glyph glyph-name="Atilde" unicode="&#xc3;" horiz-adv-x="568" 
d="M-5 0l208 653h163l207 -653h-145l-90 336c-9.33301 33.333 -18.5 68.333 -27.5 105l-27.5 107h-4l-25.5 -107c-9 -36.667 -18.167 -71.667 -27.5 -105l-91 -336h-140zM127 163v106h312v-106h-312zM353 695c-18 0 -33.667 3 -47 9s-25.333 12.833 -36 20.5l-29.5 21
c-9 6.33301 -17.833 9.5 -26.5 9.5c-10 0 -18.5 -3.83301 -25.5 -11.5s-11.5 -21.167 -13.5 -40.5l-88 7c2.66699 48.667 15.167 84.167 37.5 106.5s50.5 33.5 84.5 33.5c18 0 33.833 -3 47.5 -9s25.834 -12.833 36.501 -20.5l29.5 -20.5c9 -6 17.833 -9 26.5 -9
c9.33301 0 17.5 3.83301 24.5 11.5s11.5 20.834 13.5 39.501l89 -6c-2.66699 -48.667 -15.334 -84.334 -38.001 -107.001s-51 -34 -85 -34z" />
    <glyph glyph-name="Adieresis" unicode="&#xc4;" horiz-adv-x="568" 
d="M-5 0l208 653h163l207 -653h-145l-90 336c-9.33301 33.333 -18.5 68.333 -27.5 105l-27.5 107h-4l-25.5 -107c-9 -36.667 -18.167 -71.667 -27.5 -105l-91 -336h-140zM127 163v106h312v-106h-312zM391 703c-19.333 0 -35.333 6.33301 -48 19s-19 28.334 -19 47.001
c0 19.333 6.33301 35.333 19 48s28.667 19 48 19s35.166 -6.33301 47.499 -19s18.5 -28.667 18.5 -48c0 -18.667 -6.16699 -34.334 -18.5 -47.001s-28.166 -19 -47.499 -19zM172 703c-19.333 0 -35.333 6.33301 -48 19s-19 28.334 -19 47.001c0 19.333 6.33301 35.333 19 48
s28.667 19 48 19s35.166 -6.33301 47.499 -19s18.5 -28.667 18.5 -48c0 -18.667 -6.16699 -34.334 -18.5 -47.001s-28.166 -19 -47.499 -19z" />
    <glyph glyph-name="Aring" unicode="&#xc5;" horiz-adv-x="568" 
d="M-5 0l208 653h163l207 -653h-145l-90 336c-9.33301 33.333 -18.5 68.333 -27.5 105l-27.5 107h-4l-25.5 -107c-9 -36.667 -18.167 -71.667 -27.5 -105l-91 -336h-140zM127 163v106h312v-106h-312zM281 697c-32.667 0 -59.334 9 -80.001 27s-31 41.667 -31 71
s10.333 52.833 31 70.5s47.334 26.5 80.001 26.5s59.334 -8.83301 80.001 -26.5s31 -41.167 31 -70.5s-10.333 -53 -31 -71s-47.334 -27 -80.001 -27zM281 749c12 0 22.167 4 30.5 12s12.5 19.333 12.5 34c0 13.333 -4.16699 24.166 -12.5 32.499s-18.5 12.5 -30.5 12.5
s-22.167 -4.16699 -30.5 -12.5s-12.5 -19.166 -12.5 -32.499c0 -14.667 4.16699 -26 12.5 -34s18.5 -12 30.5 -12z" />
    <glyph glyph-name="AE" unicode="&#xc6;" horiz-adv-x="842" 
d="M-10 0l315 653h475v-115h-254v-143h214v-115h-214v-165h264v-115h-401v549h-4l-42.5 -97l-41.5 -93l-167 -359h-144zM141 156v106h321v-106h-321z" />
    <glyph glyph-name="Ccedilla" unicode="&#xc7;" horiz-adv-x="580" 
d="M348 -12c-55.333 0 -105.668 12.667 -151.001 38s-81.666 63 -108.999 113s-41 111.333 -41 184c0 54 8 102.167 24 144.5s38.167 78.166 66.5 107.499s61 51.666 98 66.999s75.833 23 116.5 23c42 0 79.5 -8.5 112.5 -25.5s60.167 -36.5 81.5 -58.5l-73 -88
c-16.667 15.333 -34.334 28 -53.001 38s-40.334 15 -65.001 15c-31.333 0 -59.666 -8.83301 -84.999 -26.5s-45.333 -42.667 -60 -75s-22 -71.166 -22 -116.499c0 -46.667 6.66699 -86.5 20 -119.5s32.5 -58.167 57.5 -75.5s54.167 -26 87.5 -26c27.333 0 51.833 6 73.5 18
s40.834 27 57.501 45l73 -86c-26.667 -31.333 -57.667 -55.166 -93 -71.499s-74 -24.5 -116 -24.5z" />
    <glyph glyph-name="Egrave" unicode="&#xc8;" horiz-adv-x="545" 
d="M79 0v653h404v-115h-267v-143h227v-115h-227v-165h277v-115h-414zM300 683l-179 118l73 89l166 -138z" />
    <glyph glyph-name="Eacute" unicode="&#xc9;" horiz-adv-x="545" 
d="M79 0v653h404v-115h-267v-143h227v-115h-227v-165h277v-115h-414zM277 683l-61 69l166 138l73 -89z" />
    <glyph glyph-name="Ecircumflex" unicode="&#xca;" horiz-adv-x="545" 
d="M79 0v653h404v-115h-267v-143h227v-115h-227v-165h277v-115h-414zM181 688l-59 37l92 111h148l92 -111l-59 -37l-105 85h-4z" />
    <glyph glyph-name="Edieresis" unicode="&#xcb;" horiz-adv-x="545" 
d="M79 0v653h404v-115h-267v-143h227v-115h-227v-165h277v-115h-414zM398 703c-19.333 0 -35.333 6.33301 -48 19s-19 28.334 -19 47.001c0 19.333 6.33301 35.333 19 48s28.667 19 48 19s35.166 -6.33301 47.499 -19s18.5 -28.667 18.5 -48
c0 -18.667 -6.16699 -34.334 -18.5 -47.001s-28.166 -19 -47.499 -19zM179 703c-19.333 0 -35.333 6.33301 -48 19s-19 28.334 -19 47.001c0 19.333 6.33301 35.333 19 48s28.667 19 48 19s35.166 -6.33301 47.499 -19s18.5 -28.667 18.5 -48
c0 -18.667 -6.16699 -34.334 -18.5 -47.001s-28.166 -19 -47.499 -19z" />
    <glyph glyph-name="Igrave" unicode="&#xcc;" horiz-adv-x="295" 
d="M79 0v653h137v-653h-137zM160 683l-179 118l73 89l166 -138z" />
    <glyph glyph-name="Iacute" unicode="&#xcd;" horiz-adv-x="295" 
d="M79 0v653h137v-653h-137zM137 683l-61 69l166 138l73 -89z" />
    <glyph glyph-name="Icircumflex" unicode="&#xce;" horiz-adv-x="295" 
d="M79 0v653h137v-653h-137zM41 688l-59 37l92 111h148l92 -111l-59 -37l-105 85h-4z" />
    <glyph glyph-name="Idieresis" unicode="&#xcf;" horiz-adv-x="295" 
d="M79 0v653h137v-653h-137zM258 703c-19.333 0 -35.333 6.33301 -48 19s-19 28.334 -19 47.001c0 19.333 6.33301 35.333 19 48s28.667 19 48 19s35.166 -6.33301 47.499 -19s18.5 -28.667 18.5 -48c0 -18.667 -6.16699 -34.334 -18.5 -47.001s-28.166 -19 -47.499 -19z
M39 703c-19.333 0 -35.333 6.33301 -48 19s-19 28.334 -19 47.001c0 19.333 6.33301 35.333 19 48s28.667 19 48 19s35.166 -6.33301 47.499 -19s18.5 -28.667 18.5 -48c0 -18.667 -6.16699 -34.334 -18.5 -47.001s-28.166 -19 -47.499 -19z" />
    <glyph glyph-name="Eth" unicode="&#xd0;" horiz-adv-x="656" 
d="M28 305v62l78 5h264v-67h-342zM104 0l-0.000976562 653h181c66 0 123.333 -11.667 172 -35s86.167 -58.833 112.5 -106.5s39.5 -108.5 39.5 -182.5s-13.167 -135.333 -39.5 -184s-63.166 -85 -110.499 -109s-103 -36 -167 -36h-188zM240.999 111l35 -0.00195312
c39.333 0 73.333 7.33301 102 22s51 37.834 67 69.501s24 73.834 24 126.501s-8 94.5 -24 125.5s-38.333 53.333 -67 67s-62.667 20.5 -102 20.5h-35v-431z" />
    <glyph glyph-name="Ntilde" unicode="&#xd1;" horiz-adv-x="662" 
d="M79 0l0.000976562 653h141l181 -339l65 -142h4l-11 114c-4 41.333 -6 81 -6 119v248h130v-653h-140l-181 339l-66 142h-4c3.33301 -35.333 7.16602 -73.333 11.499 -114s6.5 -79.667 6.5 -117v-250h-131zM405.001 695c-18 0 -33.667 3 -47 9s-25.333 12.833 -36 20.5
l-29.5 21c-9 6.33301 -17.833 9.5 -26.5 9.5c-10 0 -18.5 -3.83301 -25.5 -11.5s-11.5 -21.167 -13.5 -40.5l-88 7c2.66699 48.667 15.167 84.167 37.5 106.5s50.5 33.5 84.5 33.5c18 0 33.833 -3 47.5 -9s25.834 -12.833 36.501 -20.5l29.5 -20.5c9 -6 17.833 -9 26.5 -9
c9.33301 0 17.5 3.83301 24.5 11.5s11.5 20.834 13.5 39.501l89 -6c-2.66699 -48.667 -15.334 -84.334 -38.001 -107.001s-51 -34 -85 -34z" />
    <glyph glyph-name="Ograve" unicode="&#xd2;" horiz-adv-x="681" 
d="M341 -12c-58 0 -109.167 13.667 -153.5 41s-78.833 66.5 -103.5 117.5s-37 111.833 -37 182.5s12.333 131 37 181s59.167 88.333 103.5 115s95.5 40 153.5 40s109 -13.333 153 -40s78.333 -65 103 -115s37 -110.333 37 -181s-12.333 -131.5 -37 -182.5
s-59 -90.167 -103 -117.5s-95 -41 -153 -41zM341 107c30.667 0 57.5 9 80.5 27s40.833 43.667 53.5 77s19 72.666 19 117.999s-6.33301 84.166 -19 116.499s-30.5 57.166 -53.5 74.499s-49.833 26 -80.5 26c-31.333 0 -58.5 -8.66699 -81.5 -26s-40.667 -42.166 -53 -74.499
s-18.5 -71.166 -18.5 -116.499s6.16699 -84.666 18.5 -117.999s30 -59 53 -77s50.167 -27 81.5 -27zM353 683l-179 118l73 89l166 -138z" />
    <glyph glyph-name="Oacute" unicode="&#xd3;" horiz-adv-x="681" 
d="M341 -12c-58 0 -109.167 13.667 -153.5 41s-78.833 66.5 -103.5 117.5s-37 111.833 -37 182.5s12.333 131 37 181s59.167 88.333 103.5 115s95.5 40 153.5 40s109 -13.333 153 -40s78.333 -65 103 -115s37 -110.333 37 -181s-12.333 -131.5 -37 -182.5
s-59 -90.167 -103 -117.5s-95 -41 -153 -41zM341 107c30.667 0 57.5 9 80.5 27s40.833 43.667 53.5 77s19 72.666 19 117.999s-6.33301 84.166 -19 116.499s-30.5 57.166 -53.5 74.499s-49.833 26 -80.5 26c-31.333 0 -58.5 -8.66699 -81.5 -26s-40.667 -42.166 -53 -74.499
s-18.5 -71.166 -18.5 -116.499s6.16699 -84.666 18.5 -117.999s30 -59 53 -77s50.167 -27 81.5 -27zM330 683l-61 69l166 138l73 -89z" />
    <glyph glyph-name="Ocircumflex" unicode="&#xd4;" horiz-adv-x="681" 
d="M341 -12c-58 0 -109.167 13.667 -153.5 41s-78.833 66.5 -103.5 117.5s-37 111.833 -37 182.5s12.333 131 37 181s59.167 88.333 103.5 115s95.5 40 153.5 40s109 -13.333 153 -40s78.333 -65 103 -115s37 -110.333 37 -181s-12.333 -131.5 -37 -182.5
s-59 -90.167 -103 -117.5s-95 -41 -153 -41zM341 107c30.667 0 57.5 9 80.5 27s40.833 43.667 53.5 77s19 72.666 19 117.999s-6.33301 84.166 -19 116.499s-30.5 57.166 -53.5 74.499s-49.833 26 -80.5 26c-31.333 0 -58.5 -8.66699 -81.5 -26s-40.667 -42.166 -53 -74.499
s-18.5 -71.166 -18.5 -116.499s6.16699 -84.666 18.5 -117.999s30 -59 53 -77s50.167 -27 81.5 -27zM234 688l-59 37l92 111h148l92 -111l-59 -37l-105 85h-4z" />
    <glyph glyph-name="Otilde" unicode="&#xd5;" horiz-adv-x="681" 
d="M341 -12c-58 0 -109.167 13.667 -153.5 41s-78.833 66.5 -103.5 117.5s-37 111.833 -37 182.5s12.333 131 37 181s59.167 88.333 103.5 115s95.5 40 153.5 40s109 -13.333 153 -40s78.333 -65 103 -115s37 -110.333 37 -181s-12.333 -131.5 -37 -182.5
s-59 -90.167 -103 -117.5s-95 -41 -153 -41zM341 107c30.667 0 57.5 9 80.5 27s40.833 43.667 53.5 77s19 72.666 19 117.999s-6.33301 84.166 -19 116.499s-30.5 57.166 -53.5 74.499s-49.833 26 -80.5 26c-31.333 0 -58.5 -8.66699 -81.5 -26s-40.667 -42.166 -53 -74.499
s-18.5 -71.166 -18.5 -116.499s6.16699 -84.666 18.5 -117.999s30 -59 53 -77s50.167 -27 81.5 -27zM413 695c-18 0 -33.667 3 -47 9s-25.333 12.833 -36 20.5l-29.5 21c-9 6.33301 -17.833 9.5 -26.5 9.5c-10 0 -18.5 -3.83301 -25.5 -11.5s-11.5 -21.167 -13.5 -40.5
l-88 7c2.66699 48.667 15.167 84.167 37.5 106.5s50.5 33.5 84.5 33.5c18 0 33.833 -3 47.5 -9s25.834 -12.833 36.501 -20.5l29.5 -20.5c9 -6 17.833 -9 26.5 -9c9.33301 0 17.5 3.83301 24.5 11.5s11.5 20.834 13.5 39.501l89 -6
c-2.66699 -48.667 -15.334 -84.334 -38.001 -107.001s-51 -34 -85 -34z" />
    <glyph glyph-name="Odieresis" unicode="&#xd6;" horiz-adv-x="681" 
d="M341 -12c-58 0 -109.167 13.667 -153.5 41s-78.833 66.5 -103.5 117.5s-37 111.833 -37 182.5s12.333 131 37 181s59.167 88.333 103.5 115s95.5 40 153.5 40s109 -13.333 153 -40s78.333 -65 103 -115s37 -110.333 37 -181s-12.333 -131.5 -37 -182.5
s-59 -90.167 -103 -117.5s-95 -41 -153 -41zM341 107c30.667 0 57.5 9 80.5 27s40.833 43.667 53.5 77s19 72.666 19 117.999s-6.33301 84.166 -19 116.499s-30.5 57.166 -53.5 74.499s-49.833 26 -80.5 26c-31.333 0 -58.5 -8.66699 -81.5 -26s-40.667 -42.166 -53 -74.499
s-18.5 -71.166 -18.5 -116.499s6.16699 -84.666 18.5 -117.999s30 -59 53 -77s50.167 -27 81.5 -27zM451 703c-19.333 0 -35.333 6.33301 -48 19s-19 28.334 -19 47.001c0 19.333 6.33301 35.333 19 48s28.667 19 48 19s35.166 -6.33301 47.499 -19s18.5 -28.667 18.5 -48
c0 -18.667 -6.16699 -34.334 -18.5 -47.001s-28.166 -19 -47.499 -19zM232 703c-19.333 0 -35.333 6.33301 -48 19s-19 28.334 -19 47.001c0 19.333 6.33301 35.333 19 48s28.667 19 48 19s35.166 -6.33301 47.499 -19s18.5 -28.667 18.5 -48
c0 -18.667 -6.16699 -34.334 -18.5 -47.001s-28.166 -19 -47.499 -19z" />
    <glyph glyph-name="multiply" unicode="&#xd7;" horiz-adv-x="523" 
d="M117 114l-69 69l145 146l-145 146l69 70l145 -147l144 147l69 -70l-145 -146l145 -146l-69 -69l-144 147z" />
    <glyph glyph-name="Oslash" unicode="&#xd8;" horiz-adv-x="681" 
d="M113 -39l-71 55l540 676l72 -55zM342 -12c-58 0 -109.167 13.667 -153.5 41s-78.833 66.5 -103.5 117.5s-37 111.833 -37 182.5s12.333 131 37 181s59.167 88.333 103.5 115s95.5 40 153.5 40s109 -13.333 153 -40s78.333 -65 103 -115s37 -110.333 37 -181
s-12.333 -131.5 -37 -182.5s-59 -90.167 -103 -117.5s-95 -41 -153 -41zM342 107c30.667 0 57.5 9 80.5 27s40.833 43.667 53.5 77s19 72.666 19 117.999s-6.33301 84.166 -19 116.499s-30.5 57.166 -53.5 74.499s-49.833 26 -80.5 26c-31.333 0 -58.5 -8.66699 -81.5 -26
s-40.667 -42.166 -53 -74.499s-18.5 -71.166 -18.5 -116.499s6.16699 -84.666 18.5 -117.999s30 -59 53 -77s50.167 -27 81.5 -27z" />
    <glyph glyph-name="Ugrave" unicode="&#xd9;" horiz-adv-x="662" 
d="M332 -12c-40.667 0 -76.998 6 -108.998 18s-58.833 30.333 -80.5 55s-38.167 56.667 -49.5 96s-17 86 -17 140v356h137v-369c0 -44 4.66699 -79 14 -105s23 -44.5 41 -55.5s39.333 -16.5 64 -16.5c25.333 0 47 5.5 65 16.5s32 29.5 42 55.5s15 61 15 105v369h132v-356
c0 -54 -5.5 -100.667 -16.5 -140s-27.333 -71.333 -49 -96s-48.334 -43 -80.001 -55s-67.834 -18 -108.501 -18zM343.002 683l-179 118l73 89l166 -138z" />
    <glyph glyph-name="Uacute" unicode="&#xda;" horiz-adv-x="662" 
d="M332 -12c-40.667 0 -76.998 6 -108.998 18s-58.833 30.333 -80.5 55s-38.167 56.667 -49.5 96s-17 86 -17 140v356h137v-369c0 -44 4.66699 -79 14 -105s23 -44.5 41 -55.5s39.333 -16.5 64 -16.5c25.333 0 47 5.5 65 16.5s32 29.5 42 55.5s15 61 15 105v369h132v-356
c0 -54 -5.5 -100.667 -16.5 -140s-27.333 -71.333 -49 -96s-48.334 -43 -80.001 -55s-67.834 -18 -108.501 -18zM320.002 683l-61 69l166 138l73 -89z" />
    <glyph glyph-name="Ucircumflex" unicode="&#xdb;" horiz-adv-x="662" 
d="M332 -12c-40.667 0 -76.998 6 -108.998 18s-58.833 30.333 -80.5 55s-38.167 56.667 -49.5 96s-17 86 -17 140v356h137v-369c0 -44 4.66699 -79 14 -105s23 -44.5 41 -55.5s39.333 -16.5 64 -16.5c25.333 0 47 5.5 65 16.5s32 29.5 42 55.5s15 61 15 105v369h132v-356
c0 -54 -5.5 -100.667 -16.5 -140s-27.333 -71.333 -49 -96s-48.334 -43 -80.001 -55s-67.834 -18 -108.501 -18zM224.002 688l-59 37l92 111h148l92 -111l-59 -37l-105 85h-4z" />
    <glyph glyph-name="Udieresis" unicode="&#xdc;" horiz-adv-x="662" 
d="M332 -12c-40.667 0 -76.998 6 -108.998 18s-58.833 30.333 -80.5 55s-38.167 56.667 -49.5 96s-17 86 -17 140v356h137v-369c0 -44 4.66699 -79 14 -105s23 -44.5 41 -55.5s39.333 -16.5 64 -16.5c25.333 0 47 5.5 65 16.5s32 29.5 42 55.5s15 61 15 105v369h132v-356
c0 -54 -5.5 -100.667 -16.5 -140s-27.333 -71.333 -49 -96s-48.334 -43 -80.001 -55s-67.834 -18 -108.501 -18zM441.002 703c-19.333 0 -35.333 6.33301 -48 19s-19 28.334 -19 47.001c0 19.333 6.33301 35.333 19 48s28.667 19 48 19s35.166 -6.33301 47.499 -19
s18.5 -28.667 18.5 -48c0 -18.667 -6.16699 -34.334 -18.5 -47.001s-28.166 -19 -47.499 -19zM222.002 703c-19.333 0 -35.333 6.33301 -48 19s-19 28.334 -19 47.001c0 19.333 6.33301 35.333 19 48s28.667 19 48 19s35.166 -6.33301 47.499 -19s18.5 -28.667 18.5 -48
c0 -18.667 -6.16699 -34.334 -18.5 -47.001s-28.166 -19 -47.499 -19z" />
    <glyph glyph-name="Yacute" unicode="&#xdd;" horiz-adv-x="517" 
d="M190 0v236l-196 417h146l63 -156l26.5 -72l27.5 -72h4l29 72l28 72l63 156h143l-197 -417v-236h-137zM248 683l-61 69l166 138l73 -89z" />
    <glyph glyph-name="Thorn" unicode="&#xde;" horiz-adv-x="612" 
d="M79 0l0.00195312 653h137v-101h95c47.333 0 90.166 -6.5 128.499 -19.5s68.666 -34.5 90.999 -64.5s33.5 -71 33.5 -123c0 -50 -11.333 -91 -34 -123s-53.167 -55.833 -91.5 -71.5s-80.833 -23.5 -127.5 -23.5h-95v-127h-137zM216.002 236h86
c43.333 0 75.5 9.33301 96.5 28s31.5 45.667 31.5 81c0 36.667 -10.833 62.167 -32.5 76.5s-53.5 21.5 -95.5 21.5h-86v-207z" />
    <glyph glyph-name="germandbls" unicode="&#xdf;" horiz-adv-x="623" 
d="M416 -12c-29.333 0 -55.667 3.99805 -79 11.998s-46.666 19.333 -69.999 34l48 93c16.667 -12.667 32.834 -22 48.501 -28s31.5 -9 47.5 -9c19.333 0 34.166 5.16699 44.499 15.5s15.5 22.833 15.5 37.5c0 14 -4.33301 25.833 -13 35.5s-19.834 18.334 -33.501 26.001
l-43 24c-15 8.33301 -29.5 17.833 -43.5 28.5s-25.167 23.667 -33.5 39s-12.5 34 -12.5 56c0 20 3.66699 37.167 11 51.5s15.833 27.833 25.5 40.5s18.167 26.167 25.5 40.5s11 30.833 11 49.5c0 20.667 -5.66699 37.667 -17 51s-28 20 -50 20
c-31.333 0 -55 -11.5 -71 -34.5s-24 -54.833 -24 -95.5v-475h-135v492c0 42.667 8.33301 80.5 25 113.5s42.167 59.167 76.5 78.5s77.5 29 129.5 29c43.333 0 79.666 -7.66699 108.999 -23s51.333 -35.5 66 -60.5s22 -51.5 22 -79.5c0 -24 -4 -44.5 -12 -61.5
s-17.167 -32 -27.5 -45s-19.5 -25.167 -27.5 -36.5s-12 -24 -12 -38c0 -11.333 4.16699 -21.333 12.5 -30s19.5 -16.667 33.5 -24s28.5 -15.333 43.5 -24s29.333 -19.167 43 -31.5s24.834 -27.166 33.501 -44.499s13 -39 13 -65c0 -30 -6.83301 -57.167 -20.5 -81.5
s-34 -43.833 -61 -58.5s-59.833 -22 -98.5 -22z" />
    <glyph glyph-name="agrave" unicode="&#xe0;" horiz-adv-x="524" 
d="M191 -12c-30 0 -56.0029 6.49902 -78.0029 19.499s-39 30.667 -51 53s-18 47.5 -18 75.5c0 52 22.333 92.667 67 122s116.334 49.333 215.001 60c-0.666992 15.333 -3.66699 29 -9 41s-14 21.5 -26 28.5s-27.667 10.5 -47 10.5c-22 0 -43.833 -4.33301 -65.5 -13
s-44.167 -19.667 -67.5 -33l-49 90c20 12 41.167 23 63.5 33s45.5 17.833 69.5 23.5s49 8.5 75 8.5c42 0 77.333 -8.33301 106 -25s50.334 -41.167 65.001 -73.5s22 -73.166 22 -122.499v-286h-112l-10 52h-3c-21.333 -18.667 -44.166 -34 -68.499 -46s-50.5 -18 -78.5 -18z
M235.997 93.999c18 0 33.832 4.16602 47.499 12.499s27.834 19.5 42.501 33.5v95c-38 -5.33301 -68 -12.166 -90 -20.499s-37.667 -18.333 -47 -30s-14 -24.167 -14 -37.5c0 -18 5.66699 -31.333 17 -40s26 -13 44 -13zM276.996 572.998l-177 156l93 90l151 -179z" />
    <glyph glyph-name="aacute" unicode="&#xe1;" horiz-adv-x="524" 
d="M191 -12c-30 0 -56.0029 6.49902 -78.0029 19.499s-39 30.667 -51 53s-18 47.5 -18 75.5c0 52 22.333 92.667 67 122s116.334 49.333 215.001 60c-0.666992 15.333 -3.66699 29 -9 41s-14 21.5 -26 28.5s-27.667 10.5 -47 10.5c-22 0 -43.833 -4.33301 -65.5 -13
s-44.167 -19.667 -67.5 -33l-49 90c20 12 41.167 23 63.5 33s45.5 17.833 69.5 23.5s49 8.5 75 8.5c42 0 77.333 -8.33301 106 -25s50.334 -41.167 65.001 -73.5s22 -73.166 22 -122.499v-286h-112l-10 52h-3c-21.333 -18.667 -44.166 -34 -68.499 -46s-50.5 -18 -78.5 -18z
M235.997 93.999c18 0 33.832 4.16602 47.499 12.499s27.834 19.5 42.501 33.5v95c-38 -5.33301 -68 -12.166 -90 -20.499s-37.667 -18.333 -47 -30s-14 -24.167 -14 -37.5c0 -18 5.66699 -31.333 17 -40s26 -13 44 -13zM289.996 572.998l-68 67l152 179l93 -90z" />
    <glyph glyph-name="acircumflex" unicode="&#xe2;" horiz-adv-x="524" 
d="M191 -12c-30 0 -56.0029 6.49902 -78.0029 19.499s-39 30.667 -51 53s-18 47.5 -18 75.5c0 52 22.333 92.667 67 122s116.334 49.333 215.001 60c-0.666992 15.333 -3.66699 29 -9 41s-14 21.5 -26 28.5s-27.667 10.5 -47 10.5c-22 0 -43.833 -4.33301 -65.5 -13
s-44.167 -19.667 -67.5 -33l-49 90c20 12 41.167 23 63.5 33s45.5 17.833 69.5 23.5s49 8.5 75 8.5c42 0 77.333 -8.33301 106 -25s50.334 -41.167 65.001 -73.5s22 -73.166 22 -122.499v-286h-112l-10 52h-3c-21.333 -18.667 -44.166 -34 -68.499 -46s-50.5 -18 -78.5 -18z
M235.997 93.999c18 0 33.832 4.16602 47.499 12.499s27.834 19.5 42.501 33.5v95c-38 -5.33301 -68 -12.166 -90 -20.499s-37.667 -18.333 -47 -30s-14 -24.167 -14 -37.5c0 -18 5.66699 -31.333 17 -40s26 -13 44 -13zM156.996 561.998l-52 49l109 133h139l109 -133
l-53 -49l-124 96h-4z" />
    <glyph glyph-name="atilde" unicode="&#xe3;" horiz-adv-x="524" 
d="M191 -12c-30 0 -56.0029 6.49902 -78.0029 19.499s-39 30.667 -51 53s-18 47.5 -18 75.5c0 52 22.333 92.667 67 122s116.334 49.333 215.001 60c-0.666992 15.333 -3.66699 29 -9 41s-14 21.5 -26 28.5s-27.667 10.5 -47 10.5c-22 0 -43.833 -4.33301 -65.5 -13
s-44.167 -19.667 -67.5 -33l-49 90c20 12 41.167 23 63.5 33s45.5 17.833 69.5 23.5s49 8.5 75 8.5c42 0 77.333 -8.33301 106 -25s50.334 -41.167 65.001 -73.5s22 -73.166 22 -122.499v-286h-112l-10 52h-3c-21.333 -18.667 -44.166 -34 -68.499 -46s-50.5 -18 -78.5 -18z
M235.997 93.999c18 0 33.832 4.16602 47.499 12.499s27.834 19.5 42.501 33.5v95c-38 -5.33301 -68 -12.166 -90 -20.499s-37.667 -18.333 -47 -30s-14 -24.167 -14 -37.5c0 -18 5.66699 -31.333 17 -40s26 -13 44 -13zM349.996 573.998
c-15.333 0 -29.499 3.33301 -42.499 10s-24.5 14.5 -34.5 23.5s-19.333 16.833 -28 23.5s-17.334 10 -26.001 10c-10.667 0 -19 -4.66699 -25 -14s-10 -24.333 -12 -45l-86 5c0.666992 33.333 5.83398 61 15.501 83s23.167 38.5 40.5 49.5s38.666 16.5 63.999 16.5
c16.667 0 31.167 -3.33301 43.5 -10s23.666 -14.5 33.999 -23.5s19.833 -16.833 28.5 -23.5s17.334 -10 26.001 -10c10.667 0 19 4.83301 25 14.5s9.66699 24.5 11 44.5l86 -5c-0.666992 -32.667 -5.66699 -60 -15 -82s-22.833 -38.667 -40.5 -50s-39.167 -17 -64.5 -17z
" />
    <glyph glyph-name="adieresis" unicode="&#xe4;" horiz-adv-x="524" 
d="M191 -12c-30 0 -56.0029 6.49902 -78.0029 19.499s-39 30.667 -51 53s-18 47.5 -18 75.5c0 52 22.333 92.667 67 122s116.334 49.333 215.001 60c-0.666992 15.333 -3.66699 29 -9 41s-14 21.5 -26 28.5s-27.667 10.5 -47 10.5c-22 0 -43.833 -4.33301 -65.5 -13
s-44.167 -19.667 -67.5 -33l-49 90c20 12 41.167 23 63.5 33s45.5 17.833 69.5 23.5s49 8.5 75 8.5c42 0 77.333 -8.33301 106 -25s50.334 -41.167 65.001 -73.5s22 -73.166 22 -122.499v-286h-112l-10 52h-3c-21.333 -18.667 -44.166 -34 -68.499 -46s-50.5 -18 -78.5 -18z
M235.997 93.999c18 0 33.832 4.16602 47.499 12.499s27.834 19.5 42.501 33.5v95c-38 -5.33301 -68 -12.166 -90 -20.499s-37.667 -18.333 -47 -30s-14 -24.167 -14 -37.5c0 -18 5.66699 -31.333 17 -40s26 -13 44 -13zM389.996 571.998c-19.333 0 -35.5 6.5 -48.5 19.5
s-19.5 29.167 -19.5 48.5s6.5 35.5 19.5 48.5s29.167 19.5 48.5 19.5c20 0 36.333 -6.5 49 -19.5s19 -29.167 19 -48.5s-6.33301 -35.5 -19 -48.5s-29 -19.5 -49 -19.5zM175.996 571.998c-19.333 0 -35.5 6.5 -48.5 19.5s-19.5 29.167 -19.5 48.5s6.5 35.5 19.5 48.5
s29.167 19.5 48.5 19.5c20 0 36.333 -6.5 49 -19.5s19 -29.167 19 -48.5s-6.33301 -35.5 -19 -48.5s-29 -19.5 -49 -19.5z" />
    <glyph glyph-name="aring" unicode="&#xe5;" horiz-adv-x="524" 
d="M191 -12c-30 0 -56.0029 6.49902 -78.0029 19.499s-39 30.667 -51 53s-18 47.5 -18 75.5c0 52 22.333 92.667 67 122s116.334 49.333 215.001 60c-0.666992 15.333 -3.66699 29 -9 41s-14 21.5 -26 28.5s-27.667 10.5 -47 10.5c-22 0 -43.833 -4.33301 -65.5 -13
s-44.167 -19.667 -67.5 -33l-49 90c20 12 41.167 23 63.5 33s45.5 17.833 69.5 23.5s49 8.5 75 8.5c42 0 77.333 -8.33301 106 -25s50.334 -41.167 65.001 -73.5s22 -73.166 22 -122.499v-286h-112l-10 52h-3c-21.333 -18.667 -44.166 -34 -68.499 -46s-50.5 -18 -78.5 -18z
M235.997 93.999c18 0 33.832 4.16602 47.499 12.499s27.834 19.5 42.501 33.5v95c-38 -5.33301 -68 -12.166 -90 -20.499s-37.667 -18.333 -47 -30s-14 -24.167 -14 -37.5c0 -18 5.66699 -31.333 17 -40s26 -13 44 -13zM282.996 562.998c-41.333 0 -73 10 -95 30
s-33 44.333 -33 73s11 53 33 73s53.667 30 95 30c42 0 73.833 -10 95.5 -30s32.5 -44.333 32.5 -73s-10.833 -53 -32.5 -73s-53.5 -30 -95.5 -30zM282.996 614.998c12.667 0 23.5 4.66699 32.5 14s13.5 21.666 13.5 36.999s-4.5 27.666 -13.5 36.999s-19.833 14 -32.5 14
s-23.334 -4.66699 -32.001 -14s-13 -21.666 -13 -36.999s4.33301 -27.666 13 -36.999s19.334 -14 32.001 -14z" />
    <glyph glyph-name="ae" unicode="&#xe6;" horiz-adv-x="786" 
d="M196 -12c-30 0 -55.999 6.5 -77.999 19.5s-39 30.667 -51 53s-18 47.5 -18 75.5c0 52 22 92.833 66 122.5s115 49.5 213 59.5c-0.666992 16 -3.66699 29.833 -9 41.5s-13.666 21 -24.999 28s-26.666 10.5 -45.999 10.5c-21.333 0 -42.833 -4.33301 -64.5 -13
s-44.167 -19.667 -67.5 -33l-49 90c20 12 40.667 23 62 33s43.5 17.833 66.5 23.5s46.5 8.5 70.5 8.5c32 0 59.667 -7.16699 83 -21.5s42 -33.833 56 -58.5c20.667 25.333 43.167 45 67.5 59s51.5 21 81.5 21c42.667 0 78.667 -10.5 108 -31.5s51.166 -49.667 65.499 -86
s21.5 -77.166 21.5 -122.499c0 -12 -0.666992 -23.333 -2 -34s-2.66602 -19 -3.99902 -25h-290c3.33301 -24.667 10.833 -45.334 22.5 -62.001s26.167 -29.167 43.5 -37.5s36.666 -12.5 57.999 -12.5c19.333 0 37.5 3.33301 54.5 10s34.5 15.334 52.5 26.001l47 -89
c-24.667 -16.667 -52.167 -30 -82.5 -40s-60.5 -15 -90.5 -15c-24.667 0 -47.334 3.33301 -68.001 10s-39.5 16.167 -56.5 28.5s-32.167 26.166 -45.5 41.499c-34.667 -28.667 -67.334 -49.167 -98.001 -61.5s-62 -18.5 -94 -18.5zM241.001 94
c18 0 35.8301 4.33203 53.4971 12.999s33.834 20.334 48.501 35.001c-4 10.667 -7.16699 22.167 -9.5 34.5s-4.16602 24.5 -5.49902 36.5l-1 22c-53.333 -8 -91.166 -19.333 -113.499 -34s-33.5 -32.667 -33.5 -54c0 -18 5.66699 -31.333 17 -40s26 -13 44 -13z
M452.998 292.999h179c0 32.667 -6.66699 59 -20 79s-34.333 30 -63 30c-16.667 0 -31.667 -4.16699 -45 -12.5s-24.5 -20.5 -33.5 -36.5s-14.833 -36 -17.5 -60z" />
    <glyph glyph-name="ccedilla" unicode="&#xe7;" horiz-adv-x="466" 
d="M280 -12c-45.333 0 -86.3369 10.1611 -123.004 30.4941s-65.667 49.833 -87 88.5s-32 85.334 -32 140.001s11.833 101.334 35.5 140.001s54.834 68.334 93.501 89.001s80.334 31 125.001 31c30.667 0 58 -5.16699 82 -15.5s45 -23.166 63 -38.499l-65 -88
c-12 10.667 -23.667 18.5 -35 23.5s-23.666 7.5 -36.999 7.5c-24.667 0 -46.167 -6.16699 -64.5 -18.5s-32.5 -29.666 -42.5 -51.999s-15 -48.5 -15 -78.5s5 -56.167 15 -78.5s23.833 -39.5 41.5 -51.5s37.834 -18 60.501 -18c17.333 0 34 3.66699 50 11
s30.667 16.333 44 27l54 -89c-24 -21.333 -50.333 -36.666 -79 -45.999s-56.667 -14 -84 -14zM177.996 -237.006l-10.999 55.999c39.333 2.66699 66.5 7.33398 81.5 14.001s22.5 17 22.5 31c0 10.667 -5.16699 19.5 -15.5 26.5s-30.833 12.5 -61.5 16.5l48 97h80l-28 -65
c24.667 -6 43.5 -14.667 56.5 -26s19.5 -27.333 19.5 -48c0 -33.333 -16.833 -58 -50.5 -74s-80.834 -25.333 -141.501 -28z" />
    <glyph glyph-name="egrave" unicode="&#xe8;" horiz-adv-x="514" 
d="M286 -12c-46.667 0 -88.8311 10.333 -126.498 31s-67.334 50.167 -89.001 88.5s-32.5 84.833 -32.5 139.5c0 53.333 11 99.333 33 138s50.667 68.667 86 90s72.666 32 111.999 32c46 0 84.5 -10.333 115.5 -31s54.333 -48.834 70 -84.501s23.5 -76.167 23.5 -121.5
c0 -12 -0.666992 -23.833 -2 -35.5s-2.66602 -20.5 -3.99902 -26.5h-327l-1 91h217c0 31.333 -7.16699 56.333 -21.5 75s-36.833 28 -67.5 28c-18 0 -35.333 -5 -52 -15s-30.334 -26.333 -41.001 -49s-16 -53 -16 -91s6.83301 -68.167 20.5 -90.5s31.167 -38.5 52.5 -48.5
s44 -15 68 -15c20 0 38.833 2.83301 56.5 8.5s35.5 13.834 53.5 24.501l45 -83c-24.667 -16.667 -52.167 -30 -82.5 -40s-60.5 -15 -90.5 -15zM269.003 573l-177 156l93 90l151 -179z" />
    <glyph glyph-name="eacute" unicode="&#xe9;" horiz-adv-x="514" 
d="M286 -12c-46.667 0 -88.8311 10.333 -126.498 31s-67.334 50.167 -89.001 88.5s-32.5 84.833 -32.5 139.5c0 53.333 11 99.333 33 138s50.667 68.667 86 90s72.666 32 111.999 32c46 0 84.5 -10.333 115.5 -31s54.333 -48.834 70 -84.501s23.5 -76.167 23.5 -121.5
c0 -12 -0.666992 -23.833 -2 -35.5s-2.66602 -20.5 -3.99902 -26.5h-327l-1 91h217c0 31.333 -7.16699 56.333 -21.5 75s-36.833 28 -67.5 28c-18 0 -35.333 -5 -52 -15s-30.334 -26.333 -41.001 -49s-16 -53 -16 -91s6.83301 -68.167 20.5 -90.5s31.167 -38.5 52.5 -48.5
s44 -15 68 -15c20 0 38.833 2.83301 56.5 8.5s35.5 13.834 53.5 24.501l45 -83c-24.667 -16.667 -52.167 -30 -82.5 -40s-60.5 -15 -90.5 -15zM282.003 573l-68 67l152 179l93 -90z" />
    <glyph glyph-name="ecircumflex" unicode="&#xea;" horiz-adv-x="514" 
d="M286 -12c-46.667 0 -88.8311 10.333 -126.498 31s-67.334 50.167 -89.001 88.5s-32.5 84.833 -32.5 139.5c0 53.333 11 99.333 33 138s50.667 68.667 86 90s72.666 32 111.999 32c46 0 84.5 -10.333 115.5 -31s54.333 -48.834 70 -84.501s23.5 -76.167 23.5 -121.5
c0 -12 -0.666992 -23.833 -2 -35.5s-2.66602 -20.5 -3.99902 -26.5h-327l-1 91h217c0 31.333 -7.16699 56.333 -21.5 75s-36.833 28 -67.5 28c-18 0 -35.333 -5 -52 -15s-30.334 -26.333 -41.001 -49s-16 -53 -16 -91s6.83301 -68.167 20.5 -90.5s31.167 -38.5 52.5 -48.5
s44 -15 68 -15c20 0 38.833 2.83301 56.5 8.5s35.5 13.834 53.5 24.501l45 -83c-24.667 -16.667 -52.167 -30 -82.5 -40s-60.5 -15 -90.5 -15zM149.003 562l-52 49l109 133h139l109 -133l-53 -49l-124 96h-4z" />
    <glyph glyph-name="edieresis" unicode="&#xeb;" horiz-adv-x="514" 
d="M286 -12c-46.667 0 -88.8311 10.333 -126.498 31s-67.334 50.167 -89.001 88.5s-32.5 84.833 -32.5 139.5c0 53.333 11 99.333 33 138s50.667 68.667 86 90s72.666 32 111.999 32c46 0 84.5 -10.333 115.5 -31s54.333 -48.834 70 -84.501s23.5 -76.167 23.5 -121.5
c0 -12 -0.666992 -23.833 -2 -35.5s-2.66602 -20.5 -3.99902 -26.5h-327l-1 91h217c0 31.333 -7.16699 56.333 -21.5 75s-36.833 28 -67.5 28c-18 0 -35.333 -5 -52 -15s-30.334 -26.333 -41.001 -49s-16 -53 -16 -91s6.83301 -68.167 20.5 -90.5s31.167 -38.5 52.5 -48.5
s44 -15 68 -15c20 0 38.833 2.83301 56.5 8.5s35.5 13.834 53.5 24.501l45 -83c-24.667 -16.667 -52.167 -30 -82.5 -40s-60.5 -15 -90.5 -15zM382.003 572c-19.333 0 -35.5 6.5 -48.5 19.5s-19.5 29.167 -19.5 48.5s6.5 35.5 19.5 48.5s29.167 19.5 48.5 19.5
c20 0 36.333 -6.5 49 -19.5s19 -29.167 19 -48.5s-6.33301 -35.5 -19 -48.5s-29 -19.5 -49 -19.5zM168.003 572c-19.333 0 -35.5 6.5 -48.5 19.5s-19.5 29.167 -19.5 48.5s6.5 35.5 19.5 48.5s29.167 19.5 48.5 19.5c20 0 36.333 -6.5 49 -19.5s19 -29.167 19 -48.5
s-6.33301 -35.5 -19 -48.5s-29 -19.5 -49 -19.5z" />
    <glyph glyph-name="igrave" unicode="&#xec;" horiz-adv-x="272" 
d="M68 0v495h136v-495h-136zM130 573l-177 156l93 90l151 -179z" />
    <glyph glyph-name="iacute" unicode="&#xed;" horiz-adv-x="272" 
d="M68 0v495h136v-495h-136zM143 573l-68 67l152 179l93 -90z" />
    <glyph glyph-name="icircumflex" unicode="&#xee;" horiz-adv-x="272" 
d="M68 0v495h136v-495h-136zM10 562l-52 49l109 133h139l109 -133l-53 -49l-124 96h-4z" />
    <glyph glyph-name="idieresis" unicode="&#xef;" horiz-adv-x="272" 
d="M68 0v495h136v-495h-136zM243 572c-19.333 0 -35.5 6.5 -48.5 19.5s-19.5 29.167 -19.5 48.5s6.5 35.5 19.5 48.5s29.167 19.5 48.5 19.5c20 0 36.333 -6.5 49 -19.5s19 -29.167 19 -48.5s-6.33301 -35.5 -19 -48.5s-29 -19.5 -49 -19.5zM29 572
c-19.333 0 -35.5 6.5 -48.5 19.5s-19.5 29.167 -19.5 48.5s6.5 35.5 19.5 48.5s29.167 19.5 48.5 19.5c20 0 36.333 -6.5 49 -19.5s19 -29.167 19 -48.5s-6.33301 -35.5 -19 -48.5s-29 -19.5 -49 -19.5z" />
    <glyph glyph-name="eth" unicode="&#xf0;" horiz-adv-x="558" 
d="M272 -12c-40.667 0 -78.168 9.66406 -112.501 28.9971s-62.166 47 -83.499 83s-32 78.333 -32 127c0 47.333 9.5 88 28.5 122s44 60 75 78s64.5 27 100.5 27c26.667 0 52.5 -6.33301 77.5 -19s43.833 -34.334 56.5 -65.001l1 -74c-16.667 22 -34 36.833 -52 44.5
s-36.667 11.5 -56 11.5c-21.333 0 -40 -4.66699 -56 -14s-28.333 -23.333 -37 -42s-13 -41.667 -13 -69s5 -50.5 15 -69.5s23.167 -33.5 39.5 -43.5s34.166 -15 53.499 -15c20.667 0 38.5 5.83301 53.5 17.5s26.667 29.334 35 53.001s12.5 53.167 12.5 88.5
c0 52 -5.5 97.833 -16.5 137.5s-27.667 75 -50 106s-49.666 58.833 -81.999 83.5s-70.166 48 -113.499 70l60 84c41.333 -21.333 81.666 -46.166 120.999 -74.499s74.833 -61.166 106.5 -98.499s56.667 -80.666 75 -129.999s27.5 -106.333 27.5 -171
c0 -54 -9.5 -101.667 -28.5 -143s-46 -74 -81 -98s-76.5 -36 -124.5 -36zM127.999 478.997l-36 61l365 185l36 -62z" />
    <glyph glyph-name="ntilde" unicode="&#xf1;" horiz-adv-x="568" 
d="M68 0v495.001h111l10 -64h4c21.333 20.667 44.833 38.5 70.5 53.5s55.5 22.5 89.5 22.5c53.333 0 92.166 -17.667 116.499 -53s36.5 -84 36.5 -146v-308h-137v291c0 37.333 -5.16699 63.166 -15.5 77.499s-27.166 21.5 -50.499 21.5c-20 0 -37 -4.5 -51 -13.5
s-30 -21.833 -48 -38.5v-338h-136zM377 574.001c-15.333 0 -29.499 3.33301 -42.499 10s-24.5 14.5 -34.5 23.5s-19.333 16.833 -28 23.5s-17.334 10 -26.001 10c-10.667 0 -19 -4.66699 -25 -14s-10 -24.333 -12 -45l-86 5c0.666992 33.333 5.83398 61 15.501 83
s23.167 38.5 40.5 49.5s38.666 16.5 63.999 16.5c16.667 0 31.167 -3.33301 43.5 -10s23.666 -14.5 33.999 -23.5s19.833 -16.833 28.5 -23.5s17.334 -10 26.001 -10c10.667 0 19 4.83301 25 14.5s9.66699 24.5 11 44.5l86 -5c-0.666992 -32.667 -5.66699 -60 -15 -82
s-22.833 -38.667 -40.5 -50s-39.167 -17 -64.5 -17z" />
    <glyph glyph-name="ograve" unicode="&#xf2;" horiz-adv-x="553" 
d="M277 -12c-42 0 -81.167 10.167 -117.5 30.5s-65.666 49.833 -87.999 88.5s-33.5 85.334 -33.5 140.001s11.167 101.334 33.5 140.001s51.666 68.334 87.999 89.001s75.5 31 117.5 31c41.333 0 80.166 -10.333 116.499 -31s65.833 -50.334 88.5 -89.001
s34 -85.334 34 -140.001s-11.333 -101.334 -34 -140.001s-52.167 -68.167 -88.5 -88.5s-75.166 -30.5 -116.499 -30.5zM277 99c21.333 0 39.333 6 54 18s25.834 29.167 33.501 51.5s11.5 48.5 11.5 78.5s-3.83301 56.167 -11.5 78.5s-18.834 39.666 -33.501 51.999
s-32.667 18.5 -54 18.5c-22 0 -40.333 -6.16699 -55 -18.5s-25.667 -29.666 -33 -51.999s-11 -48.5 -11 -78.5s3.66699 -56.167 11 -78.5s18.333 -39.5 33 -51.5s33 -18 55 -18zM271 573l-177 156l93 90l151 -179z" />
    <glyph glyph-name="oacute" unicode="&#xf3;" horiz-adv-x="553" 
d="M277 -12c-42 0 -81.167 10.167 -117.5 30.5s-65.666 49.833 -87.999 88.5s-33.5 85.334 -33.5 140.001s11.167 101.334 33.5 140.001s51.666 68.334 87.999 89.001s75.5 31 117.5 31c41.333 0 80.166 -10.333 116.499 -31s65.833 -50.334 88.5 -89.001
s34 -85.334 34 -140.001s-11.333 -101.334 -34 -140.001s-52.167 -68.167 -88.5 -88.5s-75.166 -30.5 -116.499 -30.5zM277 99c21.333 0 39.333 6 54 18s25.834 29.167 33.501 51.5s11.5 48.5 11.5 78.5s-3.83301 56.167 -11.5 78.5s-18.834 39.666 -33.501 51.999
s-32.667 18.5 -54 18.5c-22 0 -40.333 -6.16699 -55 -18.5s-25.667 -29.666 -33 -51.999s-11 -48.5 -11 -78.5s3.66699 -56.167 11 -78.5s18.333 -39.5 33 -51.5s33 -18 55 -18zM284 573l-68 67l152 179l93 -90z" />
    <glyph glyph-name="ocircumflex" unicode="&#xf4;" horiz-adv-x="553" 
d="M277 -12c-42 0 -81.167 10.167 -117.5 30.5s-65.666 49.833 -87.999 88.5s-33.5 85.334 -33.5 140.001s11.167 101.334 33.5 140.001s51.666 68.334 87.999 89.001s75.5 31 117.5 31c41.333 0 80.166 -10.333 116.499 -31s65.833 -50.334 88.5 -89.001
s34 -85.334 34 -140.001s-11.333 -101.334 -34 -140.001s-52.167 -68.167 -88.5 -88.5s-75.166 -30.5 -116.499 -30.5zM277 99c21.333 0 39.333 6 54 18s25.834 29.167 33.501 51.5s11.5 48.5 11.5 78.5s-3.83301 56.167 -11.5 78.5s-18.834 39.666 -33.501 51.999
s-32.667 18.5 -54 18.5c-22 0 -40.333 -6.16699 -55 -18.5s-25.667 -29.666 -33 -51.999s-11 -48.5 -11 -78.5s3.66699 -56.167 11 -78.5s18.333 -39.5 33 -51.5s33 -18 55 -18zM151 562l-52 49l109 133h139l109 -133l-53 -49l-124 96h-4z" />
    <glyph glyph-name="otilde" unicode="&#xf5;" horiz-adv-x="553" 
d="M277 -12c-42 0 -81.167 10.167 -117.5 30.5s-65.666 49.833 -87.999 88.5s-33.5 85.334 -33.5 140.001s11.167 101.334 33.5 140.001s51.666 68.334 87.999 89.001s75.5 31 117.5 31c41.333 0 80.166 -10.333 116.499 -31s65.833 -50.334 88.5 -89.001
s34 -85.334 34 -140.001s-11.333 -101.334 -34 -140.001s-52.167 -68.167 -88.5 -88.5s-75.166 -30.5 -116.499 -30.5zM277 99c21.333 0 39.333 6 54 18s25.834 29.167 33.501 51.5s11.5 48.5 11.5 78.5s-3.83301 56.167 -11.5 78.5s-18.834 39.666 -33.501 51.999
s-32.667 18.5 -54 18.5c-22 0 -40.333 -6.16699 -55 -18.5s-25.667 -29.666 -33 -51.999s-11 -48.5 -11 -78.5s3.66699 -56.167 11 -78.5s18.333 -39.5 33 -51.5s33 -18 55 -18zM344 574c-15.333 0 -29.499 3.33301 -42.499 10s-24.5 14.5 -34.5 23.5
s-19.333 16.833 -28 23.5s-17.334 10 -26.001 10c-10.667 0 -19 -4.66699 -25 -14s-10 -24.333 -12 -45l-86 5c0.666992 33.333 5.83398 61 15.501 83s23.167 38.5 40.5 49.5s38.666 16.5 63.999 16.5c16.667 0 31.167 -3.33301 43.5 -10s23.666 -14.5 33.999 -23.5
s19.833 -16.833 28.5 -23.5s17.334 -10 26.001 -10c10.667 0 19 4.83301 25 14.5s9.66699 24.5 11 44.5l86 -5c-0.666992 -32.667 -5.66699 -60 -15 -82s-22.833 -38.667 -40.5 -50s-39.167 -17 -64.5 -17z" />
    <glyph glyph-name="odieresis" unicode="&#xf6;" horiz-adv-x="553" 
d="M277 -12c-42 0 -81.167 10.167 -117.5 30.5s-65.666 49.833 -87.999 88.5s-33.5 85.334 -33.5 140.001s11.167 101.334 33.5 140.001s51.666 68.334 87.999 89.001s75.5 31 117.5 31c41.333 0 80.166 -10.333 116.499 -31s65.833 -50.334 88.5 -89.001
s34 -85.334 34 -140.001s-11.333 -101.334 -34 -140.001s-52.167 -68.167 -88.5 -88.5s-75.166 -30.5 -116.499 -30.5zM277 99c21.333 0 39.333 6 54 18s25.834 29.167 33.501 51.5s11.5 48.5 11.5 78.5s-3.83301 56.167 -11.5 78.5s-18.834 39.666 -33.501 51.999
s-32.667 18.5 -54 18.5c-22 0 -40.333 -6.16699 -55 -18.5s-25.667 -29.666 -33 -51.999s-11 -48.5 -11 -78.5s3.66699 -56.167 11 -78.5s18.333 -39.5 33 -51.5s33 -18 55 -18zM384 572c-19.333 0 -35.5 6.5 -48.5 19.5s-19.5 29.167 -19.5 48.5s6.5 35.5 19.5 48.5
s29.167 19.5 48.5 19.5c20 0 36.333 -6.5 49 -19.5s19 -29.167 19 -48.5s-6.33301 -35.5 -19 -48.5s-29 -19.5 -49 -19.5zM170 572c-19.333 0 -35.5 6.5 -48.5 19.5s-19.5 29.167 -19.5 48.5s6.5 35.5 19.5 48.5s29.167 19.5 48.5 19.5c20 0 36.333 -6.5 49 -19.5
s19 -29.167 19 -48.5s-6.33301 -35.5 -19 -48.5s-29 -19.5 -49 -19.5z" />
    <glyph glyph-name="divide" unicode="&#xf7;" horiz-adv-x="523" 
d="M34 282v97h455v-97h-455zM262 77c-22 0 -40.333 6.83301 -55 20.5s-22 31.167 -22 52.5s7.33301 38.833 22 52.5s33 20.5 55 20.5c21.333 0 39.5 -6.83301 54.5 -20.5s22.5 -31.167 22.5 -52.5s-7.5 -38.833 -22.5 -52.5s-33.167 -20.5 -54.5 -20.5zM262 437
c-22 0 -40.333 6.83301 -55 20.5s-22 31.167 -22 52.5s7.33301 38.833 22 52.5s33 20.5 55 20.5c21.333 0 39.5 -6.83301 54.5 -20.5s22.5 -31.167 22.5 -52.5s-7.5 -38.833 -22.5 -52.5s-33.167 -20.5 -54.5 -20.5z" />
    <glyph glyph-name="oslash" unicode="&#xf8;" horiz-adv-x="553" 
d="M98 -25l-52 41l409 505l52 -41zM277 -12c-42 0 -81.167 10.167 -117.5 30.5s-65.666 49.833 -87.999 88.5s-33.5 85.334 -33.5 140.001s11.167 101.334 33.5 140.001s51.666 68.334 87.999 89.001s75.5 31 117.5 31c41.333 0 80.166 -10.333 116.499 -31
s65.833 -50.334 88.5 -89.001s34 -85.334 34 -140.001s-11.333 -101.334 -34 -140.001s-52.167 -68.167 -88.5 -88.5s-75.166 -30.5 -116.499 -30.5zM277 94c21.333 0 40 6.16699 56 18.5s28.333 29.333 37 51s13 47.167 13 76.5c0 35.333 -4.16699 65 -12.5 89
s-20.5 42 -36.5 54s-35 18 -57 18s-41 -6.16699 -57 -18.5s-28.333 -29.5 -37 -51.5s-13 -47.333 -13 -76c0 -36 4.33301 -65.833 13 -89.5s21 -41.5 37 -53.5s35 -18 57 -18z" />
    <glyph glyph-name="ugrave" unicode="&#xf9;" horiz-adv-x="565" 
d="M216 -12c-53.333 0 -92.167 17.666 -116.5 52.999s-36.5 84 -36.5 146v308h136v-291c0 -37.333 5.5 -63.166 16.5 -77.499s27.833 -21.5 50.5 -21.5c19.333 0 36 4.5 50 13.5s29 24.167 45 45.5v331h136v-495h-111l-10 70h-4c-20.667 -24.667 -43.5 -44.5 -68.5 -59.5
s-54.167 -22.5 -87.5 -22.5zM284.999 572.999l-177 156l93 90l151 -179z" />
    <glyph glyph-name="uacute" unicode="&#xfa;" horiz-adv-x="565" 
d="M216 -12c-53.333 0 -92.167 17.666 -116.5 52.999s-36.5 84 -36.5 146v308h136v-291c0 -37.333 5.5 -63.166 16.5 -77.499s27.833 -21.5 50.5 -21.5c19.333 0 36 4.5 50 13.5s29 24.167 45 45.5v331h136v-495h-111l-10 70h-4c-20.667 -24.667 -43.5 -44.5 -68.5 -59.5
s-54.167 -22.5 -87.5 -22.5zM297.999 572.999l-68 67l152 179l93 -90z" />
    <glyph glyph-name="ucircumflex" unicode="&#xfb;" horiz-adv-x="565" 
d="M216 -12c-53.333 0 -92.167 17.666 -116.5 52.999s-36.5 84 -36.5 146v308h136v-291c0 -37.333 5.5 -63.166 16.5 -77.499s27.833 -21.5 50.5 -21.5c19.333 0 36 4.5 50 13.5s29 24.167 45 45.5v331h136v-495h-111l-10 70h-4c-20.667 -24.667 -43.5 -44.5 -68.5 -59.5
s-54.167 -22.5 -87.5 -22.5zM164.999 561.999l-52 49l109 133h139l109 -133l-53 -49l-124 96h-4z" />
    <glyph glyph-name="udieresis" unicode="&#xfc;" horiz-adv-x="565" 
d="M216 -12c-53.333 0 -92.167 17.666 -116.5 52.999s-36.5 84 -36.5 146v308h136v-291c0 -37.333 5.5 -63.166 16.5 -77.499s27.833 -21.5 50.5 -21.5c19.333 0 36 4.5 50 13.5s29 24.167 45 45.5v331h136v-495h-111l-10 70h-4c-20.667 -24.667 -43.5 -44.5 -68.5 -59.5
s-54.167 -22.5 -87.5 -22.5zM397.999 571.999c-19.333 0 -35.5 6.5 -48.5 19.5s-19.5 29.167 -19.5 48.5s6.5 35.5 19.5 48.5s29.167 19.5 48.5 19.5c20 0 36.333 -6.5 49 -19.5s19 -29.167 19 -48.5s-6.33301 -35.5 -19 -48.5s-29 -19.5 -49 -19.5zM183.999 571.999
c-19.333 0 -35.5 6.5 -48.5 19.5s-19.5 29.167 -19.5 48.5s6.5 35.5 19.5 48.5s29.167 19.5 48.5 19.5c20 0 36.333 -6.5 49 -19.5s19 -29.167 19 -48.5s-6.33301 -35.5 -19 -48.5s-29 -19.5 -49 -19.5z" />
    <glyph glyph-name="yacute" unicode="&#xfd;" horiz-adv-x="513" 
d="M116 -196c-14.667 0 -27.332 1 -37.999 3s-21 4.33301 -31 7l25 104c4.66699 -0.666992 10.167 -1.83398 16.5 -3.50098s12.166 -2.5 17.499 -2.5c24.667 0 44.167 6.66699 58.5 20s24.833 30.333 31.5 51l8 28l-192 484h138l75 -223c7.33301 -22 14.333 -44.667 21 -68
l20 -72h4l17.5 70.5c5.66699 23.667 11.5 46.834 17.5 69.501l65 223h131l-174 -506c-15.333 -39.333 -32 -72.833 -50 -100.5s-40 -48.667 -66 -63s-57.667 -21.5 -95 -21.5zM273.002 573l-68 67l152 179l93 -90z" />
    <glyph glyph-name="thorn" unicode="&#xfe;" horiz-adv-x="570" 
d="M68 -187l0.000976562 890.003h136v-176l-3 -72c18 15.333 38 27.833 60 37.5s44.667 14.5 68 14.5c41.333 0 77.166 -10.5 107.499 -31.5s53.5 -50.333 69.5 -88s24 -81.834 24 -132.501c0 -56.667 -10 -104.834 -30 -144.501s-45.833 -70 -77.5 -91
s-65.5 -31.5 -101.5 -31.5c-24 0 -45.5 4.16699 -64.5 12.5s-37.5 20.166 -55.5 35.499l3 -75v-148h-136zM290.001 100.003c18.667 0 35.502 5.5 50.502 16.5s27 27.833 36 50.5s13.5 51.667 13.5 87c0 30.667 -3.33301 56.334 -10 77.001s-16.834 36.5 -30.501 47.5
s-31.167 16.5 -52.5 16.5c-16 0 -31.333 -3.83301 -46 -11.5s-30.334 -19.834 -47.001 -36.501v-212c14.667 -12.667 29.5 -21.667 44.5 -27s28.833 -8 41.5 -8z" />
    <glyph glyph-name="ydieresis" unicode="&#xff;" horiz-adv-x="513" 
d="M116 -196c-14.667 0 -27.332 1 -37.999 3s-21 4.33301 -31 7l25 104c4.66699 -0.666992 10.167 -1.83398 16.5 -3.50098s12.166 -2.5 17.499 -2.5c24.667 0 44.167 6.66699 58.5 20s24.833 30.333 31.5 51l8 28l-192 484h138l75 -223c7.33301 -22 14.333 -44.667 21 -68
l20 -72h4l17.5 70.5c5.66699 23.667 11.5 46.834 17.5 69.501l65 223h131l-174 -506c-15.333 -39.333 -32 -72.833 -50 -100.5s-40 -48.667 -66 -63s-57.667 -21.5 -95 -21.5zM373.002 572c-19.333 0 -35.5 6.5 -48.5 19.5s-19.5 29.167 -19.5 48.5s6.5 35.5 19.5 48.5
s29.167 19.5 48.5 19.5c20 0 36.333 -6.5 49 -19.5s19 -29.167 19 -48.5s-6.33301 -35.5 -19 -48.5s-29 -19.5 -49 -19.5zM159.002 572c-19.333 0 -35.5 6.5 -48.5 19.5s-19.5 29.167 -19.5 48.5s6.5 35.5 19.5 48.5s29.167 19.5 48.5 19.5c20 0 36.333 -6.5 49 -19.5
s19 -29.167 19 -48.5s-6.33301 -35.5 -19 -48.5s-29 -19.5 -49 -19.5z" />
    <glyph glyph-name="Amacron" unicode="&#x100;" horiz-adv-x="568" 
d="M-5 0l208 653h163l207 -653h-145l-90 336c-9.33301 33.333 -18.5 68.333 -27.5 105l-27.5 107h-4l-25.5 -107c-9 -36.667 -18.167 -71.667 -27.5 -105l-91 -336h-140zM127 163v106h312v-106h-312zM133 724v88h297v-88h-297z" />
    <glyph glyph-name="amacron" unicode="&#x101;" horiz-adv-x="524" 
d="M191 -12c-30 0 -56.0029 6.49902 -78.0029 19.499s-39 30.667 -51 53s-18 47.5 -18 75.5c0 52 22.333 92.667 67 122s116.334 49.333 215.001 60c-0.666992 15.333 -3.66699 29 -9 41s-14 21.5 -26 28.5s-27.667 10.5 -47 10.5c-22 0 -43.833 -4.33301 -65.5 -13
s-44.167 -19.667 -67.5 -33l-49 90c20 12 41.167 23 63.5 33s45.5 17.833 69.5 23.5s49 8.5 75 8.5c42 0 77.333 -8.33301 106 -25s50.334 -41.167 65.001 -73.5s22 -73.166 22 -122.499v-286h-112l-10 52h-3c-21.333 -18.667 -44.166 -34 -68.499 -46s-50.5 -18 -78.5 -18z
M235.997 93.999c18 0 33.832 4.16602 47.499 12.499s27.834 19.5 42.501 33.5v95c-38 -5.33301 -68 -12.166 -90 -20.499s-37.667 -18.333 -47 -30s-14 -24.167 -14 -37.5c0 -18 5.66699 -31.333 17 -40s26 -13 44 -13zM137.996 592.998v88h291v-88h-291z" />
    <glyph glyph-name="Abreve" unicode="&#x102;" horiz-adv-x="568" 
d="M-5 0l208 653h163l207 -653h-145l-90 336c-9.33301 33.333 -18.5 68.333 -27.5 105l-27.5 107h-4l-25.5 -107c-9 -36.667 -18.167 -71.667 -27.5 -105l-91 -336h-140zM127 163v106h312v-106h-312zM281 699c-32.667 0 -60.3311 5.33301 -82.998 16s-40.5 26 -53.5 46
s-20.833 44.333 -23.5 73l75 13c4.66699 -20.667 14.167 -37.167 28.5 -49.5s33.166 -18.5 56.499 -18.5s42.333 6.16699 57 18.5s24 28.833 28 49.5l76 -13c-3.33301 -28.667 -11.5 -53 -24.5 -73s-30.833 -35.333 -53.5 -46s-50.334 -16 -83.001 -16z" />
    <glyph glyph-name="abreve" unicode="&#x103;" horiz-adv-x="524" 
d="M191 -12c-30 0 -56.0029 6.49902 -78.0029 19.499s-39 30.667 -51 53s-18 47.5 -18 75.5c0 52 22.333 92.667 67 122s116.334 49.333 215.001 60c-0.666992 15.333 -3.66699 29 -9 41s-14 21.5 -26 28.5s-27.667 10.5 -47 10.5c-22 0 -43.833 -4.33301 -65.5 -13
s-44.167 -19.667 -67.5 -33l-49 90c20 12 41.167 23 63.5 33s45.5 17.833 69.5 23.5s49 8.5 75 8.5c42 0 77.333 -8.33301 106 -25s50.334 -41.167 65.001 -73.5s22 -73.166 22 -122.499v-286h-112l-10 52h-3c-21.333 -18.667 -44.166 -34 -68.499 -46s-50.5 -18 -78.5 -18z
M235.997 93.999c18 0 33.832 4.16602 47.499 12.499s27.834 19.5 42.501 33.5v95c-38 -5.33301 -68 -12.166 -90 -20.499s-37.667 -18.333 -47 -30s-14 -24.167 -14 -37.5c0 -18 5.66699 -31.333 17 -40s26 -13 44 -13zM282.996 571.998c-37.333 0 -68.168 7 -92.501 21
s-42.5 32.833 -54.5 56.5s-18.667 49.834 -20 78.501l79 13c2 -14.667 6.5 -28.334 13.5 -41.001s16.667 -22.834 29 -30.501s27.5 -11.5 45.5 -11.5c18.667 0 34.167 3.83301 46.5 11.5s21.833 17.834 28.5 30.501s11.334 26.334 14.001 41.001l78 -13
c-1.33301 -28.667 -8 -54.834 -20 -78.501s-30 -42.5 -54 -56.5s-55 -21 -93 -21z" />
    <glyph glyph-name="Ccaron" unicode="&#x10c;" horiz-adv-x="580" 
d="M348 -12c-55.333 0 -105.668 12.667 -151.001 38s-81.666 63 -108.999 113s-41 111.333 -41 184c0 54 8 102.167 24 144.5s38.167 78.166 66.5 107.499s61 51.666 98 66.999s75.833 23 116.5 23c42 0 79.5 -8.5 112.5 -25.5s60.167 -36.5 81.5 -58.5l-73 -88
c-16.667 15.333 -34.334 28 -53.001 38s-40.334 15 -65.001 15c-31.333 0 -59.666 -8.83301 -84.999 -26.5s-45.333 -42.667 -60 -75s-22 -71.166 -22 -116.499c0 -46.667 6.66699 -86.5 20 -119.5s32.5 -58.167 57.5 -75.5s54.167 -26 87.5 -26c27.333 0 51.833 6 73.5 18
s40.834 27 57.501 45l73 -86c-26.667 -31.333 -57.667 -55.166 -93 -71.499s-74 -24.5 -116 -24.5zM266.998 703l-92 111l59 37l105 -85h4l105 85l59 -37l-92 -111h-148z" />
    <glyph glyph-name="ccaron" unicode="&#x10d;" horiz-adv-x="466" 
d="M280 -12c-45.333 0 -86.3369 10.1611 -123.004 30.4941s-65.667 49.833 -87 88.5s-32 85.334 -32 140.001s11.833 101.334 35.5 140.001s54.834 68.334 93.501 89.001s80.334 31 125.001 31c30.667 0 58 -5.16699 82 -15.5s45 -23.166 63 -38.499l-65 -88
c-12 10.667 -23.667 18.5 -35 23.5s-23.666 7.5 -36.999 7.5c-24.667 0 -46.167 -6.16699 -64.5 -18.5s-32.5 -29.666 -42.5 -51.999s-15 -48.5 -15 -78.5s5 -56.167 15 -78.5s23.833 -39.5 41.5 -51.5s37.834 -18 60.501 -18c17.333 0 34 3.66699 50 11
s30.667 16.333 44 27l54 -89c-24 -21.333 -50.333 -36.666 -79 -45.999s-56.667 -14 -84 -14zM207.996 576.994l-109 132l52 49l124 -95h4l124 95l53 -49l-109 -132h-139z" />
    <glyph glyph-name="Emacron" unicode="&#x112;" horiz-adv-x="545" 
d="M79 0v653h404v-115h-267v-143h227v-115h-227v-165h277v-115h-414zM140 724v88h297v-88h-297z" />
    <glyph glyph-name="emacron" unicode="&#x113;" horiz-adv-x="514" 
d="M286 -12c-46.667 0 -88.8311 10.333 -126.498 31s-67.334 50.167 -89.001 88.5s-32.5 84.833 -32.5 139.5c0 53.333 11 99.333 33 138s50.667 68.667 86 90s72.666 32 111.999 32c46 0 84.5 -10.333 115.5 -31s54.333 -48.834 70 -84.501s23.5 -76.167 23.5 -121.5
c0 -12 -0.666992 -23.833 -2 -35.5s-2.66602 -20.5 -3.99902 -26.5h-327l-1 91h217c0 31.333 -7.16699 56.333 -21.5 75s-36.833 28 -67.5 28c-18 0 -35.333 -5 -52 -15s-30.334 -26.333 -41.001 -49s-16 -53 -16 -91s6.83301 -68.167 20.5 -90.5s31.167 -38.5 52.5 -48.5
s44 -15 68 -15c20 0 38.833 2.83301 56.5 8.5s35.5 13.834 53.5 24.501l45 -83c-24.667 -16.667 -52.167 -30 -82.5 -40s-60.5 -15 -90.5 -15zM130.003 593v88h291v-88h-291z" />
    <glyph glyph-name="Ebreve" unicode="&#x114;" horiz-adv-x="545" 
d="M79 0v653h404v-115h-267v-143h227v-115h-227v-165h277v-115h-414zM288 699c-32.667 0 -60.3311 5.33301 -82.998 16s-40.5 26 -53.5 46s-20.833 44.333 -23.5 73l75 13c4.66699 -20.667 14.167 -37.167 28.5 -49.5s33.166 -18.5 56.499 -18.5s42.333 6.16699 57 18.5
s24 28.833 28 49.5l76 -13c-3.33301 -28.667 -11.5 -53 -24.5 -73s-30.833 -35.333 -53.5 -46s-50.334 -16 -83.001 -16z" />
    <glyph glyph-name="ebreve" unicode="&#x115;" horiz-adv-x="514" 
d="M286 -12c-46.667 0 -88.8311 10.333 -126.498 31s-67.334 50.167 -89.001 88.5s-32.5 84.833 -32.5 139.5c0 53.333 11 99.333 33 138s50.667 68.667 86 90s72.666 32 111.999 32c46 0 84.5 -10.333 115.5 -31s54.333 -48.834 70 -84.501s23.5 -76.167 23.5 -121.5
c0 -12 -0.666992 -23.833 -2 -35.5s-2.66602 -20.5 -3.99902 -26.5h-327l-1 91h217c0 31.333 -7.16699 56.333 -21.5 75s-36.833 28 -67.5 28c-18 0 -35.333 -5 -52 -15s-30.334 -26.333 -41.001 -49s-16 -53 -16 -91s6.83301 -68.167 20.5 -90.5s31.167 -38.5 52.5 -48.5
s44 -15 68 -15c20 0 38.833 2.83301 56.5 8.5s35.5 13.834 53.5 24.501l45 -83c-24.667 -16.667 -52.167 -30 -82.5 -40s-60.5 -15 -90.5 -15zM275.003 572c-37.333 0 -68.168 7 -92.501 21s-42.5 32.833 -54.5 56.5s-18.667 49.834 -20 78.501l79 13
c2 -14.667 6.5 -28.334 13.5 -41.001s16.667 -22.834 29 -30.501s27.5 -11.5 45.5 -11.5c18.667 0 34.167 3.83301 46.5 11.5s21.833 17.834 28.5 30.501s11.334 26.334 14.001 41.001l78 -13c-1.33301 -28.667 -8 -54.834 -20 -78.501s-30 -42.5 -54 -56.5s-55 -21 -93 -21
z" />
    <glyph glyph-name="Eogonek" unicode="&#x118;" horiz-adv-x="545" 
d="M412 -221c-31.333 0 -57.833 8.16797 -79.5 24.501s-32.5 39.166 -32.5 68.499c0 20 4 38.333 12 55s18.167 31.167 30.5 43.5s24.166 22.166 35.499 29.499h-299v653h404v-115h-267v-143h227v-115h-227v-165h277v-115h-5c-15.333 -0.666992 -29.666 -5.5 -42.999 -14.5
s-24 -20.5 -32 -34.5s-12 -28.667 -12 -44c0 -13.333 4.5 -23.166 13.5 -29.499s18.833 -9.5 29.5 -9.5c6.66699 0 13 1.5 19 4.5s11.667 6.16699 17 9.5l32 -69c-12 -10 -27.5 -18.167 -46.5 -24.5s-36.833 -9.5 -53.5 -9.5z" />
    <glyph glyph-name="eogonek" unicode="&#x119;" horiz-adv-x="514" 
d="M362 -209c-28.667 0 -52.8301 7.66797 -72.4971 23.001s-29.5 37.666 -29.5 66.999c0 24.667 6.16699 46.667 18.5 66s24.833 34.333 37.5 45c-6 -1.33301 -11.5 -2.33301 -16.5 -3s-9.5 -1 -13.5 -1c-46.667 0 -88.834 10.333 -126.501 31s-67.334 50.167 -89.001 88.5
s-32.5 84.833 -32.5 139.5c0 53.333 11 99.333 33 138s50.667 68.667 86 90s72.666 32 111.999 32c46 0 84.5 -10.333 115.5 -31s54.333 -48.834 70 -84.501s23.5 -76.167 23.5 -121.5c0 -12 -0.666992 -23.833 -2 -35.5s-2.66602 -20.5 -3.99902 -26.5h-302
c4 -25.333 12.167 -46.666 24.5 -63.999s27.833 -30.166 46.5 -38.499s39.667 -12.5 63 -12.5c20 0 38.833 2.83301 56.5 8.5s35.5 13.834 53.5 24.501l45 -83c-29.333 -20 -51.833 -37.333 -67.5 -52s-26.334 -28.334 -32.001 -41.001s-8.5 -25.334 -8.5 -38.001
c0 -13.333 4.33301 -23.166 13 -29.499s18.667 -9.5 30 -9.5c7.33301 0 13.833 1.16699 19.5 3.5s11.167 5.16602 16.5 8.49902l29 -62c-12 -9.33301 -27.333 -17 -46 -23s-35.667 -9 -51 -9zM169.004 299.001h192.002c0 31.333 -7.16699 56.333 -21.5 75
s-36.833 28 -67.5 28c-16.667 0 -32.334 -3.83301 -47.001 -11.5s-26.834 -19.167 -36.501 -34.5s-16.167 -34.333 -19.5 -57z" />
    <glyph glyph-name="Gdotaccent" unicode="&#x120;" horiz-adv-x="635" 
d="M363 -12c-60 0 -113.831 12.668 -161.498 38.001s-85.334 63 -113.001 113s-41.5 111.333 -41.5 184c0 54 8.16699 102.167 24.5 144.5s39 78.166 68 107.499s62.5 51.666 100.5 66.999s78.667 23 122 23c47.333 0 87.666 -8.5 120.999 -25.5s60.666 -36.5 81.999 -58.5
l-72 -88c-16.667 15.333 -34.667 28 -54 38s-43.333 15 -72 15c-35.333 0 -66.5 -8.83301 -93.5 -26.5s-48 -42.667 -63 -75s-22.5 -71.166 -22.5 -116.499c0 -46.667 7 -86.5 21 -119.5s35 -58.167 63 -75.5s63 -26 105 -26c14.667 0 29 1.83301 43 5.5
s25.333 9.16699 34 16.5v122h-113v112h235v-296c-22 -22 -51.667 -40.667 -89 -56s-78.666 -23 -123.999 -23zM365.002 703.001c-23.333 0 -42.5 7 -57.5 21s-22.5 31.667 -22.5 53s7.5 38.833 22.5 52.5s34.167 20.5 57.5 20.5s42.666 -6.83301 57.999 -20.5
s23 -31.167 23 -52.5s-7.66699 -39 -23 -53s-34.666 -21 -57.999 -21z" />
    <glyph glyph-name="gdotaccent" unicode="&#x121;" horiz-adv-x="530" 
d="M243 -213c-38.667 0 -73.6709 4.5 -105.004 13.5s-56.166 22.833 -74.499 41.5s-27.5 42.667 -27.5 72c0 20.667 6.16699 39.5 18.5 56.5s29.833 31.833 52.5 44.5v4c-12.667 8.66699 -23.334 19.834 -32.001 33.501s-13 30.5 -13 50.5c0 18 5.33301 35.167 16 51.5
s23.667 29.833 39 40.5v4c-17.333 12.667 -32.666 30.167 -45.999 52.5s-20 47.833 -20 76.5c0 39.333 9.33301 72.166 28 98.499s43.334 46.333 74.001 60s63.667 20.5 99 20.5c14 0 27.5 -1.16699 40.5 -3.5s24.833 -5.16602 35.5 -8.49902h179v-100h-83
c6 -8 11 -18.333 15 -31s6 -26 6 -40c0 -38 -8.66699 -69.333 -26 -94s-40.5 -43 -69.5 -55s-61.5 -18 -97.5 -18c-9.33301 0 -19.166 0.833008 -29.499 2.5s-21.166 4.16699 -32.499 7.5c-6.66699 -5.33301 -11.667 -10.833 -15 -16.5s-5 -13.5 -5 -23.5
c0 -12.667 5.83301 -22.334 17.5 -29.001s31.167 -10 58.5 -10h83c60 0 106 -9.83301 138 -29.5s48 -51.167 48 -94.5c0 -34 -11.167 -64.333 -33.5 -91s-53.833 -47.667 -94.5 -63s-88.667 -23 -144 -23zM263.996 -126c23.333 0 44.001 2.83301 62.001 8.5
s32.167 13.667 42.5 24s15.5 21.833 15.5 34.5c0 16.667 -6.83301 27.834 -20.5 33.501s-33.167 8.5 -58.5 8.5h-57c-15.333 0 -28.333 0.5 -39 1.5s-20.334 2.5 -29.001 4.5c-10.667 -8.66699 -18.5 -17.334 -23.5 -26.001s-7.5 -18 -7.5 -28
c0 -20 10.5 -35.167 31.5 -45.5s48.833 -15.5 83.5 -15.5zM251.997 240c14 0 26.5 3.33105 37.5 9.99805s19.833 16.667 26.5 30s10 29.333 10 48s-3.33301 34.334 -10 47.001s-15.5 22.334 -26.5 29.001s-23.5 10 -37.5 10c-20.667 0 -38 -7.16699 -52 -21.5
s-21 -35.833 -21 -64.5c0 -18.667 3.16699 -34.667 9.5 -48s15 -23.333 26 -30s23.5 -10 37.5 -10zM271.997 571.998c-22 0 -40.333 6.83301 -55 20.5s-22 31.167 -22 52.5s7.33301 38.833 22 52.5s33 20.5 55 20.5c22.667 0 41.167 -6.83301 55.5 -20.5
s21.5 -31.167 21.5 -52.5s-7.16699 -38.833 -21.5 -52.5s-32.833 -20.5 -55.5 -20.5z" />
    <glyph glyph-name="Hbar" unicode="&#x126;" horiz-adv-x="708" 
d="M26 487v62l78 5h578v-67h-656zM99 0v653h137v-255h238v255h137v-653h-137v278h-238v-278h-137z" />
    <glyph glyph-name="hbar" unicode="&#x127;" horiz-adv-x="567" 
d="M68 0v703.001h136v-222l-6 -92c19.333 18 41.5 34.333 66.5 49s54.5 22 88.5 22c53.333 0 92.166 -17.667 116.499 -53s36.5 -84 36.5 -146v-261h-137v244c0 37.333 -5.16699 63.166 -15.5 77.499s-27.166 21.5 -50.499 21.5c-20 0 -37 -4.5 -51 -13.5
s-30 -21.833 -48 -38.5v-291h-136zM-1 559.001v61l76 6h300v-67h-376z" />
    <glyph glyph-name="Imacron" unicode="&#x12a;" horiz-adv-x="295" 
d="M79 0v653h137v-653h-137zM0 724v88h297v-88h-297z" />
    <glyph glyph-name="imacron" unicode="&#x12b;" horiz-adv-x="272" 
d="M68 0v495h136v-495h-136zM-9 593v88h291v-88h-291z" />
    <glyph glyph-name="dotlessi" unicode="&#x131;" horiz-adv-x="272" 
d="M68 0v495h136v-495h-136z" />
    <glyph glyph-name="Lslash" unicode="&#x141;" horiz-adv-x="519" 
d="M27 180l-47 82l122 69l105 44l176 98l47 -83l-223 -121l-105 -45zM86 0v653h137v-538h262v-115h-399z" />
    <glyph glyph-name="lslash" unicode="&#x142;" horiz-adv-x="296" 
d="M30 257l-47 85l102 59l101 46l76 45l47 -85l-123 -70l-101 -46zM204 -12c-31.333 0 -56.332 6.49902 -74.999 19.499s-32 31.167 -40 54.5s-12 51 -12 83v558h136v-564c0 -14.667 2.83301 -25 8.5 -31s11.5 -9 17.5 -9c3.33301 0 6.16602 0.166992 8.49902 0.5
s5.5 0.833008 9.5 1.5l17 -101c-8 -3.33301 -17.667 -6.16602 -29 -8.49902s-25 -3.5 -41 -3.5z" />
    <glyph glyph-name="Omacron" unicode="&#x14c;" horiz-adv-x="681" 
d="M341 -12c-58 0 -109.167 13.667 -153.5 41s-78.833 66.5 -103.5 117.5s-37 111.833 -37 182.5s12.333 131 37 181s59.167 88.333 103.5 115s95.5 40 153.5 40s109 -13.333 153 -40s78.333 -65 103 -115s37 -110.333 37 -181s-12.333 -131.5 -37 -182.5
s-59 -90.167 -103 -117.5s-95 -41 -153 -41zM341 107c30.667 0 57.5 9 80.5 27s40.833 43.667 53.5 77s19 72.666 19 117.999s-6.33301 84.166 -19 116.499s-30.5 57.166 -53.5 74.499s-49.833 26 -80.5 26c-31.333 0 -58.5 -8.66699 -81.5 -26s-40.667 -42.166 -53 -74.499
s-18.5 -71.166 -18.5 -116.499s6.16699 -84.666 18.5 -117.999s30 -59 53 -77s50.167 -27 81.5 -27zM193 724v88h297v-88h-297z" />
    <glyph glyph-name="omacron" unicode="&#x14d;" horiz-adv-x="553" 
d="M277 -12c-42 0 -81.167 10.167 -117.5 30.5s-65.666 49.833 -87.999 88.5s-33.5 85.334 -33.5 140.001s11.167 101.334 33.5 140.001s51.666 68.334 87.999 89.001s75.5 31 117.5 31c41.333 0 80.166 -10.333 116.499 -31s65.833 -50.334 88.5 -89.001
s34 -85.334 34 -140.001s-11.333 -101.334 -34 -140.001s-52.167 -68.167 -88.5 -88.5s-75.166 -30.5 -116.499 -30.5zM277 99c21.333 0 39.333 6 54 18s25.834 29.167 33.501 51.5s11.5 48.5 11.5 78.5s-3.83301 56.167 -11.5 78.5s-18.834 39.666 -33.501 51.999
s-32.667 18.5 -54 18.5c-22 0 -40.333 -6.16699 -55 -18.5s-25.667 -29.666 -33 -51.999s-11 -48.5 -11 -78.5s3.66699 -56.167 11 -78.5s18.333 -39.5 33 -51.5s33 -18 55 -18zM132 593v88h291v-88h-291z" />
    <glyph glyph-name="Obreve" unicode="&#x14e;" horiz-adv-x="681" 
d="M341 -12c-58 0 -109.167 13.667 -153.5 41s-78.833 66.5 -103.5 117.5s-37 111.833 -37 182.5s12.333 131 37 181s59.167 88.333 103.5 115s95.5 40 153.5 40s109 -13.333 153 -40s78.333 -65 103 -115s37 -110.333 37 -181s-12.333 -131.5 -37 -182.5
s-59 -90.167 -103 -117.5s-95 -41 -153 -41zM341 107c30.667 0 57.5 9 80.5 27s40.833 43.667 53.5 77s19 72.666 19 117.999s-6.33301 84.166 -19 116.499s-30.5 57.166 -53.5 74.499s-49.833 26 -80.5 26c-31.333 0 -58.5 -8.66699 -81.5 -26s-40.667 -42.166 -53 -74.499
s-18.5 -71.166 -18.5 -116.499s6.16699 -84.666 18.5 -117.999s30 -59 53 -77s50.167 -27 81.5 -27zM341 699c-32.667 0 -60.3311 5.33301 -82.998 16s-40.5 26 -53.5 46s-20.833 44.333 -23.5 73l75 13c4.66699 -20.667 14.167 -37.167 28.5 -49.5
s33.166 -18.5 56.499 -18.5s42.333 6.16699 57 18.5s24 28.833 28 49.5l76 -13c-3.33301 -28.667 -11.5 -53 -24.5 -73s-30.833 -35.333 -53.5 -46s-50.334 -16 -83.001 -16z" />
    <glyph glyph-name="obreve" unicode="&#x14f;" horiz-adv-x="553" 
d="M277 -12c-42 0 -81.167 10.167 -117.5 30.5s-65.666 49.833 -87.999 88.5s-33.5 85.334 -33.5 140.001s11.167 101.334 33.5 140.001s51.666 68.334 87.999 89.001s75.5 31 117.5 31c41.333 0 80.166 -10.333 116.499 -31s65.833 -50.334 88.5 -89.001
s34 -85.334 34 -140.001s-11.333 -101.334 -34 -140.001s-52.167 -68.167 -88.5 -88.5s-75.166 -30.5 -116.499 -30.5zM277 99c21.333 0 39.333 6 54 18s25.834 29.167 33.501 51.5s11.5 48.5 11.5 78.5s-3.83301 56.167 -11.5 78.5s-18.834 39.666 -33.501 51.999
s-32.667 18.5 -54 18.5c-22 0 -40.333 -6.16699 -55 -18.5s-25.667 -29.666 -33 -51.999s-11 -48.5 -11 -78.5s3.66699 -56.167 11 -78.5s18.333 -39.5 33 -51.5s33 -18 55 -18zM277 572c-37.333 0 -68.168 7 -92.501 21s-42.5 32.833 -54.5 56.5s-18.667 49.834 -20 78.501
l79 13c2 -14.667 6.5 -28.334 13.5 -41.001s16.667 -22.834 29 -30.501s27.5 -11.5 45.5 -11.5c18.667 0 34.167 3.83301 46.5 11.5s21.833 17.834 28.5 30.501s11.334 26.334 14.001 41.001l78 -13c-1.33301 -28.667 -8 -54.834 -20 -78.501s-30 -42.5 -54 -56.5
s-55 -21 -93 -21z" />
    <glyph glyph-name="OE" unicode="&#x152;" horiz-adv-x="867" 
d="M372 0c-62.667 0 -118.5 12 -167.5 36s-87.5 60.333 -115.5 109s-42 110 -42 184s14.167 134.833 42.5 182.5s67.5 83.167 117.5 106.5s107.667 35 173 35h425v-115h-252v-143h212v-115h-212v-165h262v-115h-443zM388 111h28v431h-28c-40 0 -75 -6.66699 -105 -20
s-53.333 -35.5 -70 -66.5s-25 -73.167 -25 -126.5c0 -52.667 8.33301 -95 25 -127s40 -55.167 70 -69.5s65 -21.5 105 -21.5z" />
    <glyph glyph-name="oe" unicode="&#x153;" horiz-adv-x="825" 
d="M267 -12c-42 0 -80.335 10.167 -115.002 30.5s-62.334 49.833 -83.001 88.5s-31 85.334 -31 140.001s10.667 101.334 32 140.001s49.5 68.334 84.5 89.001s73.5 31 115.5 31c35.333 0 66.666 -8.33301 93.999 -25s50.333 -39.334 69 -68.001
c20 29.333 43.833 52.166 71.5 68.499s56.834 24.5 87.501 24.5c43.333 0 79.666 -10.5 108.999 -31.5s51.333 -49.667 66 -86s22 -77.166 22 -122.499c0 -12 -0.666992 -23.333 -2 -34s-2.66602 -19 -3.99902 -25h-292c3.33301 -24.667 10.833 -45.334 22.5 -62.001
s26.334 -29.167 44.001 -37.5s36.834 -12.5 57.501 -12.5c20 0 38.5 3.33301 55.5 10s34.5 15.334 52.5 26.001l47 -89c-24.667 -16.667 -52.167 -30 -82.5 -40s-60.5 -15 -90.5 -15c-31.333 0 -61.166 8.16699 -89.499 24.5s-52.833 39.166 -73.5 68.499
c-20 -30.667 -43.5 -53.834 -70.5 -69.501s-59.167 -23.5 -96.5 -23.5zM269.998 99c19.333 0 36 6 50 18s25 29.167 33 51.5s12 48.5 12 78.5s-4 56.167 -12 78.5s-19 39.666 -33 51.999s-30.667 18.5 -50 18.5s-36 -6.16699 -50 -18.5s-24.833 -29.666 -32.5 -51.999
s-11.5 -48.5 -11.5 -78.5s3.83301 -56.167 11.5 -78.5s18.5 -39.5 32.5 -51.5s30.667 -18 50 -18zM490.998 293h181.002c0 32.667 -6.83301 59 -20.5 79s-34.834 30 -63.501 30c-16.667 0 -31.834 -4.16699 -45.501 -12.5s-25 -20.5 -34 -36.5s-14.833 -36 -17.5 -60z" />
    <glyph glyph-name="Sacute" unicode="&#x15a;" horiz-adv-x="552" 
d="M276 -12c-42.667 0 -85.1699 8.16699 -127.503 24.5s-79.833 39.833 -112.5 70.5l79 94c23.333 -21.333 49.5 -38.333 78.5 -51s57.5 -19 85.5 -19c32.667 0 57.334 6.16699 74.001 18.5s25 29.5 25 51.5c0 15.333 -4.16699 27.5 -12.5 36.5s-19.666 17 -33.999 24
s-31.166 14.5 -50.499 22.5l-86 37c-22 9.33301 -43.167 21.666 -63.5 36.999s-36.833 34.5 -49.5 57.5s-19 50.5 -19 82.5c0 35.333 9.83301 67.333 29.5 96s46.667 51.667 81 69s73.5 26 117.5 26c38 0 75.167 -7.33301 111.5 -22s68.166 -35.667 95.499 -63l-69 -87
c-21.333 17.333 -43 30.5 -65 39.5s-46.333 13.5 -73 13.5s-48.167 -5.66699 -64.5 -17s-24.5 -27 -24.5 -47c0 -14.667 4.33301 -26.667 13 -36s20.834 -17.5 36.501 -24.5l51.5 -22.5l84 -34c26.667 -10.667 49.667 -24 69 -40s34.5 -35.167 45.5 -57.5
s16.5 -48.833 16.5 -79.5c0 -36 -9.5 -69.167 -28.5 -99.5s-46.667 -54.666 -83 -72.999s-79.833 -27.5 -130.5 -27.5zM277.997 683l-61 69l166 138l73 -89z" />
    <glyph glyph-name="sacute" unicode="&#x15b;" horiz-adv-x="439" 
d="M211 -12c-32.667 0 -66.1631 6.5 -100.496 19.5s-63.833 29.5 -88.5 49.5l62 86c22.667 -16.667 44.667 -29.667 66 -39s43 -14 65 -14c23.333 0 40.5 4.33301 51.5 13s16.5 20.334 16.5 35.001c0 11.333 -5 21.166 -15 29.499s-22.833 15.666 -38.5 21.999l-48.5 19.5
c-20.667 8 -41.334 18 -62.001 30s-37.834 27.333 -51.501 46s-20.5 41.667 -20.5 69c0 45.333 17 82.166 51 110.499s79 42.5 135 42.5c37.333 0 70 -6.33301 98 -19s52.333 -27 73 -43l-61 -82c-18 12.667 -35.667 22.834 -53 30.501s-35 11.5 -53 11.5
c-20.667 0 -36.167 -4 -46.5 -12s-15.5 -18.667 -15.5 -32c0 -11.333 4.66699 -20.666 14 -27.999s21.666 -14 36.999 -20s31.666 -12 48.999 -18c21.333 -8 42.333 -17.833 63 -29.5s38 -27 52 -46s21 -43.5 21 -73.5c0 -29.333 -7.66699 -56 -23 -80
s-37.833 -43 -67.5 -57s-66.167 -21 -109.5 -21zM246.004 573l-68 67l152 179l93 -90z" />
    <glyph glyph-name="Scaron" unicode="&#x160;" horiz-adv-x="552" 
d="M276 -12c-42.667 0 -85.1699 8.16699 -127.503 24.5s-79.833 39.833 -112.5 70.5l79 94c23.333 -21.333 49.5 -38.333 78.5 -51s57.5 -19 85.5 -19c32.667 0 57.334 6.16699 74.001 18.5s25 29.5 25 51.5c0 15.333 -4.16699 27.5 -12.5 36.5s-19.666 17 -33.999 24
s-31.166 14.5 -50.499 22.5l-86 37c-22 9.33301 -43.167 21.666 -63.5 36.999s-36.833 34.5 -49.5 57.5s-19 50.5 -19 82.5c0 35.333 9.83301 67.333 29.5 96s46.667 51.667 81 69s73.5 26 117.5 26c38 0 75.167 -7.33301 111.5 -22s68.166 -35.667 95.499 -63l-69 -87
c-21.333 17.333 -43 30.5 -65 39.5s-46.333 13.5 -73 13.5s-48.167 -5.66699 -64.5 -17s-24.5 -27 -24.5 -47c0 -14.667 4.33301 -26.667 13 -36s20.834 -17.5 36.501 -24.5l51.5 -22.5l84 -34c26.667 -10.667 49.667 -24 69 -40s34.5 -35.167 45.5 -57.5
s16.5 -48.833 16.5 -79.5c0 -36 -9.5 -69.167 -28.5 -99.5s-46.667 -54.666 -83 -72.999s-79.833 -27.5 -130.5 -27.5zM214.997 703l-92 111l59 37l105 -85h4l105 85l59 -37l-92 -111h-148z" />
    <glyph glyph-name="scaron" unicode="&#x161;" horiz-adv-x="439" 
d="M211 -12c-32.667 0 -66.1631 6.5 -100.496 19.5s-63.833 29.5 -88.5 49.5l62 86c22.667 -16.667 44.667 -29.667 66 -39s43 -14 65 -14c23.333 0 40.5 4.33301 51.5 13s16.5 20.334 16.5 35.001c0 11.333 -5 21.166 -15 29.499s-22.833 15.666 -38.5 21.999l-48.5 19.5
c-20.667 8 -41.334 18 -62.001 30s-37.834 27.333 -51.501 46s-20.5 41.667 -20.5 69c0 45.333 17 82.166 51 110.499s79 42.5 135 42.5c37.333 0 70 -6.33301 98 -19s52.333 -27 73 -43l-61 -82c-18 12.667 -35.667 22.834 -53 30.501s-35 11.5 -53 11.5
c-20.667 0 -36.167 -4 -46.5 -12s-15.5 -18.667 -15.5 -32c0 -11.333 4.66699 -20.666 14 -27.999s21.666 -14 36.999 -20s31.666 -12 48.999 -18c21.333 -8 42.333 -17.833 63 -29.5s38 -27 52 -46s21 -43.5 21 -73.5c0 -29.333 -7.66699 -56 -23 -80
s-37.833 -43 -67.5 -57s-66.167 -21 -109.5 -21zM170.004 577l-109 132l52 49l124 -95h4l124 95l53 -49l-109 -132h-139z" />
    <glyph glyph-name="Umacron" unicode="&#x16a;" horiz-adv-x="662" 
d="M332 -12c-40.667 0 -76.998 6 -108.998 18s-58.833 30.333 -80.5 55s-38.167 56.667 -49.5 96s-17 86 -17 140v356h137v-369c0 -44 4.66699 -79 14 -105s23 -44.5 41 -55.5s39.333 -16.5 64 -16.5c25.333 0 47 5.5 65 16.5s32 29.5 42 55.5s15 61 15 105v369h132v-356
c0 -54 -5.5 -100.667 -16.5 -140s-27.333 -71.333 -49 -96s-48.334 -43 -80.001 -55s-67.834 -18 -108.501 -18zM183.002 724v88h297v-88h-297z" />
    <glyph glyph-name="umacron" unicode="&#x16b;" horiz-adv-x="565" 
d="M216 -12c-53.333 0 -92.167 17.666 -116.5 52.999s-36.5 84 -36.5 146v308h136v-291c0 -37.333 5.5 -63.166 16.5 -77.499s27.833 -21.5 50.5 -21.5c19.333 0 36 4.5 50 13.5s29 24.167 45 45.5v331h136v-495h-111l-10 70h-4c-20.667 -24.667 -43.5 -44.5 -68.5 -59.5
s-54.167 -22.5 -87.5 -22.5zM145.999 592.999v88h291v-88h-291z" />
    <glyph glyph-name="Ydieresis" unicode="&#x178;" horiz-adv-x="517" 
d="M190 0v236l-196 417h146l63 -156l26.5 -72l27.5 -72h4l29 72l28 72l63 156h143l-197 -417v-236h-137zM369 703c-19.333 0 -35.333 6.33301 -48 19s-19 28.334 -19 47.001c0 19.333 6.33301 35.333 19 48s28.667 19 48 19s35.166 -6.33301 47.499 -19
s18.5 -28.667 18.5 -48c0 -18.667 -6.16699 -34.334 -18.5 -47.001s-28.166 -19 -47.499 -19zM150 703c-19.333 0 -35.333 6.33301 -48 19s-19 28.334 -19 47.001c0 19.333 6.33301 35.333 19 48s28.667 19 48 19s35.166 -6.33301 47.499 -19s18.5 -28.667 18.5 -48
c0 -18.667 -6.16699 -34.334 -18.5 -47.001s-28.166 -19 -47.499 -19z" />
    <glyph glyph-name="Zcaron" unicode="&#x17d;" horiz-adv-x="541" 
d="M37 0v83l298 455h-270v115h439v-83l-298 -455h300v-115h-469zM209 703l-92 111l59 37l105 -85h4l105 85l59 -37l-92 -111h-148z" />
    <glyph glyph-name="zcaron" unicode="&#x17e;" horiz-adv-x="455" 
d="M37 0v73l216 314h-192v108h362v-73l-216 -314h223v-108h-393zM180 577l-109 132l52 49l124 -95h4l124 95l53 -49l-109 -132h-139z" />
    <glyph glyph-name="uni018F" unicode="&#x18f;" horiz-adv-x="673" 
d="M335 -12c-58 0 -108.163 13 -150.496 39s-75 63.833 -98 113.5s-34.5 110.5 -34.5 182.5c0 7.33301 0.333008 14.833 1 22.5l2 22.5h469v-100h-332c2.66699 -38.667 10.167 -70.334 22.5 -95.001s28.666 -43 48.999 -55s44.166 -18 71.499 -18c47.333 0 85 18.333 113 55
s42 94.334 42 173.001c0 76 -13.833 132.5 -41.5 169.5s-69.5 55.5 -125.5 55.5c-30.667 0 -58 -6.16699 -82 -18.5s-45 -26.833 -63 -43.5l-63 94c25.333 23.333 56.666 42.5 93.999 57.5s80.666 22.5 129.999 22.5c57.333 0 107.5 -12.833 150.5 -38.5
s76.5 -63.5 100.5 -113.5s36 -111.667 36 -185c0 -74 -12.167 -136.167 -36.5 -186.5s-58.333 -88.5 -102 -114.5s-94.5 -39 -152.5 -39z" />
    <glyph glyph-name="florin" unicode="&#x192;" horiz-adv-x="523" 
d="M112 -96c-18.667 0 -35.3311 1.50098 -49.998 4.50098s-26 6.5 -34 10.5l19 101c7.33301 -2.66699 14.833 -4.66699 22.5 -6s15.167 -2.33301 22.5 -3c16.667 0.666992 30.167 5.33398 40.5 14.001s18.666 23.167 24.999 43.5s11.5 49.166 15.5 86.499l34 303
c5.33301 48 15.333 87.167 30 117.5s35.667 52.833 63 67.5s62 22 104 22c12.667 0 27.5 -1.83301 44.5 -5.5s30.5 -7.83398 40.5 -12.501l-26 -103c-6 2.66699 -12.833 5.33398 -20.5 8.00098s-16.834 4 -27.501 4c-16 0 -29.167 -3.83301 -39.5 -11.5
s-18.5 -17.834 -24.5 -30.501s-10 -27.667 -12 -45l-42 -352c-4.66699 -40 -13 -76.167 -25 -108.5s-30.667 -57.833 -56 -76.5s-60 -28 -104 -28zM114.003 313.001v95l73 5h252v-100h-325z" />
    <glyph glyph-name="Gcaron" unicode="&#x1e6;" horiz-adv-x="635" 
d="M363 -12c-60 0 -113.831 12.668 -161.498 38.001s-85.334 63 -113.001 113s-41.5 111.333 -41.5 184c0 54 8.16699 102.167 24.5 144.5s39 78.166 68 107.499s62.5 51.666 100.5 66.999s78.667 23 122 23c47.333 0 87.666 -8.5 120.999 -25.5s60.666 -36.5 81.999 -58.5
l-72 -88c-16.667 15.333 -34.667 28 -54 38s-43.333 15 -72 15c-35.333 0 -66.5 -8.83301 -93.5 -26.5s-48 -42.667 -63 -75s-22.5 -71.166 -22.5 -116.499c0 -46.667 7 -86.5 21 -119.5s35 -58.167 63 -75.5s63 -26 105 -26c14.667 0 29 1.83301 43 5.5
s25.333 9.16699 34 16.5v122h-113v112h235v-296c-22 -22 -51.667 -40.667 -89 -56s-78.666 -23 -123.999 -23zM291.002 703.001l-92 111l59 37l105 -85h4l105 85l59 -37l-92 -111h-148z" />
    <glyph glyph-name="gcaron" unicode="&#x1e7;" horiz-adv-x="530" 
d="M243 -213c-38.667 0 -73.6709 4.5 -105.004 13.5s-56.166 22.833 -74.499 41.5s-27.5 42.667 -27.5 72c0 20.667 6.16699 39.5 18.5 56.5s29.833 31.833 52.5 44.5v4c-12.667 8.66699 -23.334 19.834 -32.001 33.501s-13 30.5 -13 50.5c0 18 5.33301 35.167 16 51.5
s23.667 29.833 39 40.5v4c-17.333 12.667 -32.666 30.167 -45.999 52.5s-20 47.833 -20 76.5c0 39.333 9.33301 72.166 28 98.499s43.334 46.333 74.001 60s63.667 20.5 99 20.5c14 0 27.5 -1.16699 40.5 -3.5s24.833 -5.16602 35.5 -8.49902h179v-100h-83
c6 -8 11 -18.333 15 -31s6 -26 6 -40c0 -38 -8.66699 -69.333 -26 -94s-40.5 -43 -69.5 -55s-61.5 -18 -97.5 -18c-9.33301 0 -19.166 0.833008 -29.499 2.5s-21.166 4.16699 -32.499 7.5c-6.66699 -5.33301 -11.667 -10.833 -15 -16.5s-5 -13.5 -5 -23.5
c0 -12.667 5.83301 -22.334 17.5 -29.001s31.167 -10 58.5 -10h83c60 0 106 -9.83301 138 -29.5s48 -51.167 48 -94.5c0 -34 -11.167 -64.333 -33.5 -91s-53.833 -47.667 -94.5 -63s-88.667 -23 -144 -23zM263.996 -126c23.333 0 44.001 2.83301 62.001 8.5
s32.167 13.667 42.5 24s15.5 21.833 15.5 34.5c0 16.667 -6.83301 27.834 -20.5 33.501s-33.167 8.5 -58.5 8.5h-57c-15.333 0 -28.333 0.5 -39 1.5s-20.334 2.5 -29.001 4.5c-10.667 -8.66699 -18.5 -17.334 -23.5 -26.001s-7.5 -18 -7.5 -28
c0 -20 10.5 -35.167 31.5 -45.5s48.833 -15.5 83.5 -15.5zM251.997 240c14 0 26.5 3.33105 37.5 9.99805s19.833 16.667 26.5 30s10 29.333 10 48s-3.33301 34.334 -10 47.001s-15.5 22.334 -26.5 29.001s-23.5 10 -37.5 10c-20.667 0 -38 -7.16699 -52 -21.5
s-21 -35.833 -21 -64.5c0 -18.667 3.16699 -34.667 9.5 -48s15 -23.333 26 -30s23.5 -10 37.5 -10zM202.997 576.998l-109 132l52 49l124 -95h4l124 95l53 -49l-109 -132h-139z" />
    <glyph glyph-name="uni0237" unicode="&#x237;" horiz-adv-x="269" 
d="M40 -199c-19.333 0 -35.666 1.33105 -48.999 3.99805s-25.333 5.66699 -36 9l25 101c6.66699 -2 13.167 -3.66699 19.5 -5s13.166 -2 20.499 -2c20 0 34 6.83301 42 20.5s12 34.5 12 62.5l1 504h137l-2 -501c0 -35.333 -5.16699 -67.666 -15.5 -96.999
s-27.833 -52.666 -52.5 -69.999s-58.667 -26 -102 -26z" />
    <glyph glyph-name="uni0250" unicode="&#x250;" horiz-adv-x="530" 
d="M276 -12c-46.667 0 -86 8.66797 -118 26.001s-56.167 42.666 -72.5 75.999s-24.5 74.666 -24.5 123.999v281h112l10 -62h3c20 22 43.5 39.833 70.5 53.5s56.833 20.5 89.5 20.5c42 0 74.833 -12.667 98.5 -38s35.5 -57.666 35.5 -96.999c0 -54 -22.333 -97.5 -67 -130.5
s-116.334 -54.833 -215.001 -65.5c0.666992 -11.333 3 -21.833 7 -31.5s9.83301 -18 17.5 -25s17.5 -12.5 29.5 -16.5s26.667 -6 44 -6c22 0 43.333 4.33301 64 13s42.667 19.667 66 33l49 -90c-19.333 -12 -39.666 -22.833 -60.999 -32.5s-43.5 -17.5 -66.5 -23.5
s-46.833 -9 -71.5 -9zM198 260.001c38 5.33301 67.999 12.332 89.999 20.999s37.667 18.834 47 30.501s14 24.834 14 39.501c0 16.667 -5.16699 29.167 -15.5 37.5s-23.166 12.5 -38.499 12.5c-18 0 -34.833 -4.83301 -50.5 -14.5s-31.167 -23.834 -46.5 -42.501v-84z" />
    <glyph glyph-name="uni0254" unicode="&#x254;" horiz-adv-x="466" 
d="M186 -12c-27.333 0 -55.332 4.66992 -83.999 14.0029s-55 24.666 -79 45.999l54 89c13.333 -10.667 28 -19.667 44 -27s32.667 -11 50 -11c22 0 42 6 60 18s32 29.167 42 51.5s15 48.5 15 78.5s-4.83301 56.333 -14.5 79s-23 40 -40 52s-36.167 18 -57.5 18
c-17.333 0 -32.166 -2.5 -44.499 -7.5s-24.833 -12.833 -37.5 -23.5l-65 88c19.333 15.333 42.5 28.166 69.5 38.499s58.167 15.5 93.5 15.5c42 0 81 -10.167 117 -30.5s64.833 -49.833 86.5 -88.5s32.5 -85.667 32.5 -141c0 -54.667 -10.833 -101.334 -32.5 -140.001
s-50.834 -68.167 -87.501 -88.5s-77.334 -30.5 -122.001 -30.5z" />
    <glyph glyph-name="uni0259" unicode="&#x259;" horiz-adv-x="514" 
d="M248 -12c-46 0 -84.8311 10.3311 -116.498 30.998s-55.334 49 -71.001 85s-23.5 77 -23.5 123c0 12.667 0.666992 24.834 2 36.501l3 26.5h302c-3.33301 24.667 -10.166 45.334 -20.499 62.001s-23.833 29.167 -40.5 37.5s-36 12.5 -58 12.5c-19.333 0 -38.333 -3 -57 -9
s-36.667 -14.333 -54 -25l-46 89c26.667 17.333 55.5 30 86.5 38s62.167 12 93.5 12c43.333 0 82.166 -10.5 116.499 -31.5s61.666 -50.833 81.999 -89.5s30.5 -84.667 30.5 -138c0 -54 -10.5 -100.333 -31.5 -139s-49 -68.5 -84 -89.5s-72.833 -31.5 -113.5 -31.5z
M245.002 92.998c26 0 48.167 8.66699 66.5 26s29.833 44 34.5 80h-192c0 -32 7.33301 -57.667 22 -77s37.667 -29 69 -29z" />
    <glyph glyph-name="uni025B" unicode="&#x25b;" horiz-adv-x="458" 
d="M266 -12c-38 0 -73.6699 5.83301 -107.003 17.5s-60.333 28.834 -81 51.501s-31 50.334 -31 83.001c0 22.667 4.5 42 13.5 58s21.5 29 37.5 39s33.667 17.667 53 23v4c-27.333 8 -47.666 22 -60.999 42s-20 40.333 -20 61c0 32.667 9.16699 59.167 27.5 79.5
s42.666 35.5 72.999 45.5s62.833 15 97.5 15c29.333 0 56.833 -3.83301 82.5 -11.5s50.834 -19.167 75.501 -34.5l-51 -88c-16.667 9.33301 -32.667 16.5 -48 21.5s-32.666 7.5 -51.999 7.5c-21.333 0 -38.5 -4.83301 -51.5 -14.5s-19.5 -22.834 -19.5 -39.501
c0 -16 6.33301 -28.167 19 -36.5s31.667 -12.5 57 -12.5h66v-91h-81c-28.667 0 -49.834 -4.33301 -63.501 -13s-20.5 -22.334 -20.5 -41.001c0 -19.333 9.16699 -34.333 27.5 -45s41.833 -16 70.5 -16c16 0 33 2.66699 51 8s36.333 13.666 55 24.999l54 -87
c-29.333 -19.333 -57.666 -32.666 -84.999 -39.999s-56.666 -11 -87.999 -11z" />
    <glyph glyph-name="uni0283" unicode="&#x283;" horiz-adv-x="273" 
d="M36 -199c-20 0 -36.667 1.33301 -50 4s-25 5.66699 -35 9l24 101c7.33301 -2 14.166 -3.66699 20.499 -5s12.833 -2 19.5 -2c20.667 0 34.834 6.83301 42.501 20.5s11.5 34.5 11.5 62.5v531c0 35.333 5.5 67.666 16.5 96.999s29.667 52.666 56 69.999
s62.166 26 107.499 26c18 0 32.833 -1.33301 44.5 -4s21.834 -5.66699 30.501 -9l-24 -101c-4.66699 2 -9.5 3.66699 -14.5 5s-10.167 2 -15.5 2c-24 0 -40.667 -6.66699 -50 -20s-14 -34.333 -14 -63v-531c0 -35.333 -5.16699 -67.666 -15.5 -96.999
s-28 -52.666 -53 -69.999s-58.833 -26 -101.5 -26z" />
    <glyph glyph-name="uni028E" unicode="&#x28e;" horiz-adv-x="513" 
d="M12 0l183.001 528.999c15.333 40 32 73.833 50 101.5s39.833 48.667 65.5 63s57.5 21.5 95.5 21.5c15.333 0 28.166 -0.833008 38.499 -2.5s20.5 -4.16699 30.5 -7.5l-25 -105l-16 4.5c-6 1.66699 -12 2.5 -18 2.5c-24.667 0 -44 -6.66699 -58 -20
s-24.667 -30.666 -32 -51.999l-17 -51l192 -484h-138l-75 223c-7.33301 22 -14.333 44.833 -21 68.5l-20 71.5h-4c-5.33301 -23.333 -11 -46.833 -17 -70.5l-18 -69.5l-65 -223h-131z" />
    <glyph glyph-name="uni0292" unicode="&#x292;" horiz-adv-x="455" 
d="M210 -199c-48 0 -88.5059 8 -121.506 24s-60.833 34.667 -83.5 56l62 85c16.667 -14.667 35.334 -27.5 56.001 -38.5s44.334 -16.5 71.001 -16.5c20 0 37.833 4.5 53.5 13.5s27.834 22 36.501 39s13 37.167 13 60.5c0 32 -9.16699 56.667 -27.5 74s-43.166 26 -74.499 26
c-13.333 0 -23.666 -1 -30.999 -3s-16.666 -5.33301 -27.999 -10l-46 67l158 209h-209v108h372v-73l-155 -205c37.333 -1.33301 69.333 -10.333 96 -27s47 -39 61 -67s21 -59.667 21 -95c0 -48.667 -10.333 -90 -31 -124s-48 -59.667 -82 -77s-71 -26 -111 -26z" />
    <glyph glyph-name="uni0294" unicode="&#x294;" horiz-adv-x="443" 
d="M132 0l0.00390625 318c38 24 68.5 46 91.5 66s39.667 39.667 50 59s15.5 40.333 15.5 63c0 31.333 -8.83301 55.5 -26.5 72.5s-41.5 25.5 -71.5 25.5c-26.667 0 -50.667 -6.33301 -72 -19s-40 -28 -56 -46l-68 87c15.333 16 33.166 30.833 53.499 44.5
s43.5 24.5 69.5 32.5s55 12 87 12c40 0 76.667 -7.5 110 -22.5s60.166 -37.5 80.499 -67.5s30.5 -67.667 30.5 -113c0 -37.333 -6.83301 -70 -20.5 -98s-32.334 -53.667 -56.001 -77s-50.834 -47 -81.501 -71v-266h-136z" />
    <glyph glyph-name="uni0295" unicode="&#x295;" horiz-adv-x="496" 
d="M198 0l0.00292969 266c-30.667 24 -58 47.667 -82 71s-42.667 49 -56 77s-20 60.667 -20 98c0 45.333 10.5 83 31.5 113s49.167 52.5 84.5 67.5s73.666 22.5 114.999 22.5c30.667 0 58.334 -4 83.001 -12s46.667 -18.833 66 -32.5s36.333 -28.5 51 -44.5l-68 -87
c-14.667 18 -31.834 33.333 -51.501 46s-41.834 19 -66.501 19c-32.667 0 -58.834 -8.5 -78.501 -25.5s-29.5 -41.167 -29.5 -72.5c0 -22.667 5.16699 -43.667 15.5 -63s27 -39 50 -59s53.5 -42 91.5 -66v-318h-136z" />
    <glyph glyph-name="uni02A7" unicode="&#x2a7;" horiz-adv-x="592" 
d="M409 -199c-19.333 0 -35.666 1.33301 -48.999 4s-25.333 5.66699 -36 9l25 101c6.66699 -2 13.167 -3.66699 19.5 -5s13.166 -2 20.499 -2c20 0 34 6.83301 42 20.5s12 34.5 12 62.5v531c0 35.333 5.5 67.666 16.5 96.999s29.5 52.666 55.5 69.999s62 26 108 26
c17.333 0 31.833 -1.33301 43.5 -4s22.167 -5.66699 31.5 -9l-25 -101c-4.66699 2 -9.5 3.66699 -14.5 5s-10.167 2 -15.5 2c-24 0 -40.667 -6.66699 -50 -20s-14 -34.333 -14 -63v-531c0 -35.333 -5.16699 -67.666 -15.5 -96.999s-27.833 -52.666 -52.5 -69.999
s-58.667 -26 -102 -26zM253 -12c-60 0 -102.67 17.333 -128.003 52s-38 80 -38 136v211h-69v102l76 6l16 132h113v-132h121v-108h-121v-210c0 -28 5.83301 -48.5 17.5 -61.5s27.834 -19.5 48.501 -19.5c8.66699 0 17.334 1 26.001 3s16.334 4.33301 23.001 7l22 -100
c-13.333 -4 -29 -8 -47 -12s-38 -6 -60 -6z" />
    <glyph glyph-name="uni02B9" unicode="&#x2b9;" horiz-adv-x="292" 
 />
    <glyph glyph-name="circumflex" unicode="&#x2c6;" horiz-adv-x="553" 
d="M151 562l-52 49l109 133h139l109 -133l-53 -49l-124 96h-4z" />
    <glyph glyph-name="caron" unicode="&#x2c7;" horiz-adv-x="553" 
d="M208 577l-109 132l52 49l124 -95h4l124 95l53 -49l-109 -132h-139z" />
    <glyph glyph-name="uni02C8" unicode="&#x2c8;" horiz-adv-x="142" 
d="M22 539l-6 203h110l-6 -203h-98z" />
    <glyph glyph-name="uni02D0" unicode="&#x2d0;" horiz-adv-x="292" 
d="M44 0l95 182h14l95 -182h-204zM139 305l-95 181h204l-95 -181h-14z" />
    <glyph glyph-name="breve" unicode="&#x2d8;" horiz-adv-x="553" 
d="M277 572c-37.333 0 -68.168 7 -92.501 21s-42.5 32.833 -54.5 56.5s-18.667 49.834 -20 78.501l79 13c2 -14.667 6.5 -28.334 13.5 -41.001s16.667 -22.834 29 -30.501s27.5 -11.5 45.5 -11.5c18.667 0 34.167 3.83301 46.5 11.5s21.833 17.834 28.5 30.501
s11.334 26.334 14.001 41.001l78 -13c-1.33301 -28.667 -8 -54.834 -20 -78.501s-30 -42.5 -54 -56.5s-55 -21 -93 -21z" />
    <glyph glyph-name="dotaccent" unicode="&#x2d9;" horiz-adv-x="553" 
d="M277 572c-22 0 -40.333 6.83301 -55 20.5s-22 31.167 -22 52.5s7.33301 38.833 22 52.5s33 20.5 55 20.5c22.667 0 41.167 -6.83301 55.5 -20.5s21.5 -31.167 21.5 -52.5s-7.16699 -38.833 -21.5 -52.5s-32.833 -20.5 -55.5 -20.5z" />
    <glyph glyph-name="ring" unicode="&#x2da;" horiz-adv-x="553" 
d="M277 563c-41.333 0 -73 10 -95 30s-33 44.333 -33 73s11 53 33 73s53.667 30 95 30c42 0 73.833 -10 95.5 -30s32.5 -44.333 32.5 -73s-10.833 -53 -32.5 -73s-53.5 -30 -95.5 -30zM277 615c12.667 0 23.5 4.66699 32.5 14s13.5 21.666 13.5 36.999
s-4.5 27.666 -13.5 36.999s-19.833 14 -32.5 14s-23.334 -4.66699 -32.001 -14s-13 -21.666 -13 -36.999s4.33301 -27.666 13 -36.999s19.334 -14 32.001 -14z" />
    <glyph glyph-name="ogonek" unicode="&#x2db;" horiz-adv-x="553" 
 />
    <glyph glyph-name="tilde" unicode="&#x2dc;" horiz-adv-x="553" 
d="M344 574c-15.333 0 -29.499 3.33301 -42.499 10s-24.5 14.5 -34.5 23.5s-19.333 16.833 -28 23.5s-17.334 10 -26.001 10c-10.667 0 -19 -4.66699 -25 -14s-10 -24.333 -12 -45l-86 5c0.666992 33.333 5.83398 61 15.501 83s23.167 38.5 40.5 49.5
s38.666 16.5 63.999 16.5c16.667 0 31.167 -3.33301 43.5 -10s23.666 -14.5 33.999 -23.5s19.833 -16.833 28.5 -23.5s17.334 -10 26.001 -10c10.667 0 19 4.83301 25 14.5s9.66699 24.5 11 44.5l86 -5c-0.666992 -32.667 -5.66699 -60 -15 -82s-22.833 -38.667 -40.5 -50
s-39.167 -17 -64.5 -17z" />
    <glyph glyph-name="hungarumlaut" unicode="&#x2dd;" horiz-adv-x="553" 
d="M400 566l-72 32l87 180l92 -42zM226 566l-73 32l88 180l92 -42z" />
    <glyph glyph-name="gravecomb" unicode="&#x300;" 
d="M-6 573l-177 156l93 90l151 -179z" />
    <glyph glyph-name="acutecomb" unicode="&#x301;" 
d="M7 573l-68 67l152 179l93 -90z" />
    <glyph glyph-name="uni0302" unicode="&#x302;" 
d="M-126 562l-52 49l109 133h139l109 -133l-53 -49l-124 96h-4z" />
    <glyph glyph-name="tildecomb" unicode="&#x303;" 
d="M67 574c-15.333 0 -29.499 3.33301 -42.499 10s-24.5 14.5 -34.5 23.5s-19.333 16.833 -28 23.5s-17.334 10 -26.001 10c-10.667 0 -19 -4.66699 -25 -14s-10 -24.333 -12 -45l-86 5c0.666992 33.333 5.83398 61 15.501 83s23.167 38.5 40.5 49.5
s38.666 16.5 63.999 16.5c16.667 0 31.167 -3.33301 43.5 -10s23.666 -14.5 33.999 -23.5s19.833 -16.833 28.5 -23.5s17.334 -10 26.001 -10c10.667 0 19 4.83301 25 14.5s9.66699 24.5 11 44.5l86 -5c-0.666992 -32.667 -5.66699 -60 -15 -82s-22.833 -38.667 -40.5 -50
s-39.167 -17 -64.5 -17z" />
    <glyph glyph-name="uni0304" unicode="&#x304;" 
d="M-145 593v88h291v-88h-291z" />
    <glyph glyph-name="uni0306" unicode="&#x306;" 
d="M0 572c-37.333 0 -68.168 7 -92.501 21s-42.5 32.833 -54.5 56.5s-18.667 49.834 -20 78.501l79 13c2 -14.667 6.5 -28.334 13.5 -41.001s16.667 -22.834 29 -30.501s27.5 -11.5 45.5 -11.5c18.667 0 34.167 3.83301 46.5 11.5s21.833 17.834 28.5 30.501
s11.334 26.334 14.001 41.001l78 -13c-1.33301 -28.667 -8 -54.834 -20 -78.501s-30 -42.5 -54 -56.5s-55 -21 -93 -21z" />
    <glyph glyph-name="uni0307" unicode="&#x307;" 
d="M0 572c-22 0 -40.333 6.83301 -55 20.5s-22 31.167 -22 52.5s7.33301 38.833 22 52.5s33 20.5 55 20.5c22.667 0 41.167 -6.83301 55.5 -20.5s21.5 -31.167 21.5 -52.5s-7.16699 -38.833 -21.5 -52.5s-32.833 -20.5 -55.5 -20.5z" />
    <glyph glyph-name="uni0308" unicode="&#x308;" 
d="M107 572c-19.333 0 -35.5 6.5 -48.5 19.5s-19.5 29.167 -19.5 48.5s6.5 35.5 19.5 48.5s29.167 19.5 48.5 19.5c20 0 36.333 -6.5 49 -19.5s19 -29.167 19 -48.5s-6.33301 -35.5 -19 -48.5s-29 -19.5 -49 -19.5zM-107 572c-19.333 0 -35.5 6.5 -48.5 19.5
s-19.5 29.167 -19.5 48.5s6.5 35.5 19.5 48.5s29.167 19.5 48.5 19.5c20 0 36.333 -6.5 49 -19.5s19 -29.167 19 -48.5s-6.33301 -35.5 -19 -48.5s-29 -19.5 -49 -19.5z" />
    <glyph glyph-name="uni030A" unicode="&#x30a;" 
d="M0 563c-41.333 0 -73 10 -95 30s-33 44.333 -33 73s11 53 33 73s53.667 30 95 30c42 0 73.833 -10 95.5 -30s32.5 -44.333 32.5 -73s-10.833 -53 -32.5 -73s-53.5 -30 -95.5 -30zM0 615c12.667 0 23.5 4.66699 32.5 14s13.5 21.666 13.5 36.999s-4.5 27.666 -13.5 36.999
s-19.833 14 -32.5 14s-23.334 -4.66699 -32.001 -14s-13 -21.666 -13 -36.999s4.33301 -27.666 13 -36.999s19.334 -14 32.001 -14z" />
    <glyph glyph-name="uni030B" unicode="&#x30b;" 
d="M123 566l-72 32l87 180l92 -42zM-51 566l-73 32l88 180l92 -42z" />
    <glyph glyph-name="uni030C" unicode="&#x30c;" 
d="M-69 577l-109 132l52 49l124 -95h4l124 95l53 -49l-109 -132h-139z" />
    <glyph glyph-name="uni031E" unicode="&#x31e;" 
d="M-36 -255v104h-69v67h211v-67h-69v-104h-73z" />
    <glyph glyph-name="dotbelowcomb" unicode="&#x323;" 
d="M0 -222c-22 0 -40.333 6.83301 -55 20.5s-22 31.167 -22 52.5s7.33301 38.833 22 52.5s33 20.5 55 20.5c22.667 0 41.167 -6.83301 55.5 -20.5s21.5 -31.167 21.5 -52.5s-7.16699 -38.833 -21.5 -52.5s-32.833 -20.5 -55.5 -20.5z" />
    <glyph glyph-name="uni0327" unicode="&#x327;" 
d="M-99 -237l-10.999 55.999c39.333 2.66699 66.5 7.33398 81.5 14.001s22.5 17 22.5 31c0 10.667 -5.16699 19.5 -15.5 26.5s-30.833 12.5 -61.5 16.5l48 97h80l-28 -65c24.667 -6 43.5 -14.667 56.5 -26s19.5 -27.333 19.5 -48c0 -33.333 -16.833 -58 -50.5 -74
s-80.834 -25.333 -141.501 -28z" />
    <glyph glyph-name="uni032E" unicode="&#x32e;" 
d="M0 -232c-37.333 0 -68.168 7 -92.501 21s-42.5 32.833 -54.5 56.5s-18.667 49.834 -20 78.501l79 13c2 -14.667 6.5 -28.334 13.5 -41.001s16.667 -22.834 29 -30.501s27.5 -11.5 45.5 -11.5c18.667 0 34.167 3.83301 46.5 11.5s21.833 17.834 28.5 30.501
s11.334 26.334 14.001 41.001l78 -13c-1.33301 -28.667 -8 -54.834 -20 -78.501s-30 -42.5 -54 -56.5s-55 -21 -93 -21z" />
    <glyph glyph-name="uni0331" unicode="&#x331;" 
d="M-145 -186v88h291v-88h-291z" />
    <glyph glyph-name="uni0361" unicode="&#x361;" 
d="M-420 538l-35.9961 64c68 41.333 140.833 72.333 218.5 93s156.834 31 237.501 31s160 -10.333 238 -31s151 -51.667 219 -93l-36 -64c-43.333 24.667 -89.333 44.334 -138 59.001s-97.334 25.167 -146.001 31.5s-94.334 9.5 -137.001 9.5
s-88.334 -3.16699 -137.001 -9.5s-97.334 -16.833 -146.001 -31.5s-94.334 -34.334 -137.001 -59.001z" />
    <glyph glyph-name="theta" unicode="&#x3b8;" horiz-adv-x="545" 
d="M124 309v91h298v-91h-298zM273 -12c-67.333 0 -121.332 30.166 -161.999 90.499s-61 152.166 -61 275.499c0 80.667 9.33301 147.834 28 201.501s44.667 93.667 78 120s72.333 39.5 117 39.5s83.5 -13.333 116.5 -40s58.833 -66.667 77.5 -120s28 -120.333 28 -201
c0 -123.333 -20.333 -215.166 -61 -275.499s-94.334 -90.5 -161.001 -90.5zM273.001 98.999c16.667 0 31.8311 7.16699 45.498 21.5s24.5 40 32.5 77s12 89.167 12 156.5c0 50 -2.33301 91.167 -7 123.5s-11 57.833 -19 76.5s-17.667 31.667 -29 39s-23 11 -35 11
c-12.667 0 -24.5 -3.66699 -35.5 -11s-20.667 -20.333 -29 -39s-14.666 -44.167 -18.999 -76.5s-6.5 -73.5 -6.5 -123.5c0 -67.333 3.83301 -119.5 11.5 -156.5s18.334 -62.667 32.001 -77s29.167 -21.5 46.5 -21.5z" />
    <glyph glyph-name="pi" unicode="&#x3c0;" horiz-adv-x="627" 
d="M516 -12c-35.333 0 -63.333 6.66992 -84 20.0029s-35.334 32.166 -44.001 56.499s-13 52.833 -13 85.5c0 8 0.166992 20.667 0.5 38s0.833008 37.333 1.5 60s1.16699 46 1.5 70s0.5 47 0.5 69h-124c0 -60.667 -2.66699 -125.334 -8 -194.001s-11.333 -135.667 -18 -201
l-137 8c12 67.333 20.833 134.5 26.5 201.5s8.5 128.833 8.5 185.5h-108v102l73 6h512v-108h-94c-1.33301 -22.667 -2.5 -46.667 -3.5 -72s-1.66699 -49.833 -2 -73.5s-0.666016 -44.167 -0.999023 -61.5s-0.5 -29.333 -0.5 -36c0 -16.667 3.83301 -28.334 11.5 -35.001
s18.834 -10 33.501 -10c4.66699 0 10.167 0.5 16.5 1.5s13.166 1.83301 20.499 2.5l17 -101c-9.33301 -3.33301 -21.5 -6.5 -36.5 -9.5s-31.5 -4.5 -49.5 -4.5z" />
    <glyph glyph-name="chi" unicode="&#x3c7;" horiz-adv-x="519" 
d="M149 -189l-140 12l189 342l-189 312l135 30l120 -222h4l94 210h142l-171 -327l199 -327l-135 -30l-129 245h-4z" />
    <glyph glyph-name="uni05B0" unicode="&#x5b0;" 
d="M64 -71c10.667 0 18.834 -3.5 24.501 -10.5s8.5 -15.167 8.5 -24.5s-2.83301 -17.5 -8.5 -24.5s-13.834 -10.5 -24.501 -10.5c-10 0 -18.167 3.5 -24.5 10.5s-9.5 15.167 -9.5 24.5s3.16699 17.5 9.5 24.5s14.5 10.5 24.5 10.5zM64 -173
c10.667 0 18.834 -3.83301 24.501 -11.5s8.5 -15.834 8.5 -24.501c0 -9.33301 -2.83301 -17.5 -8.5 -24.5s-13.834 -10.5 -24.501 -10.5c-10 0 -18.167 3.5 -24.5 10.5s-9.5 15.167 -9.5 24.5c0 8.66699 3.16699 16.834 9.5 24.501s14.5 11.5 24.5 11.5z" />
    <glyph glyph-name="uni05B1" unicode="&#x5b1;" 
d="M272 -71c10.667 0 18.834 -3.5 24.501 -10.5s8.5 -15.167 8.5 -24.5s-2.83301 -17.5 -8.5 -24.5s-13.834 -10.5 -24.501 -10.5c-10 0 -18.167 3.5 -24.5 10.5s-9.5 15.167 -9.5 24.5s3.16699 17.5 9.5 24.5s14.5 10.5 24.5 10.5zM115 -173
c10.667 0 18.834 -3.83301 24.501 -11.5s8.5 -15.834 8.5 -24.501c0 -9.33301 -2.83301 -17.5 -8.5 -24.5s-13.834 -10.5 -24.501 -10.5c-10 0 -18.167 3.5 -24.5 10.5s-9.5 15.167 -9.5 24.5c0 8.66699 3.16699 16.834 9.5 24.501s14.5 11.5 24.5 11.5zM64 -71
c10.667 0 18.834 -3.5 24.501 -10.5s8.5 -15.167 8.5 -24.5s-2.83301 -17.5 -8.5 -24.5s-13.834 -10.5 -24.501 -10.5c-10 0 -18.167 3.5 -24.5 10.5s-9.5 15.167 -9.5 24.5s3.16699 17.5 9.5 24.5s14.5 10.5 24.5 10.5zM272 -173c10.667 0 18.834 -3.83301 24.501 -11.5
s8.5 -15.834 8.5 -24.501c0 -9.33301 -2.83301 -17.5 -8.5 -24.5s-13.834 -10.5 -24.501 -10.5c-10 0 -18.167 3.5 -24.5 10.5s-9.5 15.167 -9.5 24.5c0 8.66699 3.16699 16.834 9.5 24.501s14.5 11.5 24.5 11.5zM168 -71c10.667 0 18.834 -3.5 24.501 -10.5
s8.5 -15.167 8.5 -24.5s-2.83301 -17.5 -8.5 -24.5s-13.834 -10.5 -24.501 -10.5c-10 0 -18.167 3.5 -24.5 10.5s-9.5 15.167 -9.5 24.5s3.16699 17.5 9.5 24.5s14.5 10.5 24.5 10.5z" />
    <glyph glyph-name="uni05B2" unicode="&#x5b2;" 
d="M196 -85v-39h-166v39h166zM261 -173c10 0 18 -3.83301 24 -11.5s9 -15.834 9 -24.501c0 -9.33301 -3 -17.5 -9 -24.5s-14 -10.5 -24 -10.5s-18.167 3.5 -24.5 10.5s-9.5 15.167 -9.5 24.5c0 8.66699 3.16699 16.834 9.5 24.501s14.5 11.5 24.5 11.5zM261 -71
c10 0 18 -3.5 24 -10.5s9 -15.167 9 -24.5s-3 -17.5 -9 -24.5s-14 -10.5 -24 -10.5s-18.167 3.5 -24.5 10.5s-9.5 15.167 -9.5 24.5s3.16699 17.5 9.5 24.5s14.5 10.5 24.5 10.5z" />
    <glyph glyph-name="uni05B3" unicode="&#x5b3;" 
d="M196 -85v-39h-67l6 -100h-44l5 100h-66v39h166zM261 -173c10 0 18 -3.83301 24 -11.5s9 -15.834 9 -24.501c0 -9.33301 -3 -17.5 -9 -24.5s-14 -10.5 -24 -10.5s-18.167 3.5 -24.5 10.5s-9.5 15.167 -9.5 24.5c0 8.66699 3.16699 16.834 9.5 24.501s14.5 11.5 24.5 11.5z
M261 -71c10 0 18 -3.5 24 -10.5s9 -15.167 9 -24.5s-3 -17.5 -9 -24.5s-14 -10.5 -24 -10.5s-18.167 3.5 -24.5 10.5s-9.5 15.167 -9.5 24.5s3.16699 17.5 9.5 24.5s14.5 10.5 24.5 10.5z" />
    <glyph glyph-name="uni05B4" unicode="&#x5b4;" 
d="M64 -71c10.667 0 18.834 -3.5 24.501 -10.5s8.5 -15.167 8.5 -24.5s-2.83301 -17.5 -8.5 -24.5s-13.834 -10.5 -24.501 -10.5c-10 0 -18.167 3.5 -24.5 10.5s-9.5 15.167 -9.5 24.5s3.16699 17.5 9.5 24.5s14.5 10.5 24.5 10.5z" />
    <glyph glyph-name="uni05B5" unicode="&#x5b5;" 
d="M171 -71c10.667 0 18.834 -3.5 24.501 -10.5s8.5 -15.167 8.5 -24.5s-2.83301 -17.5 -8.5 -24.5s-13.834 -10.5 -24.501 -10.5c-10 0 -18.167 3.5 -24.5 10.5s-9.5 15.167 -9.5 24.5s3.16699 17.5 9.5 24.5s14.5 10.5 24.5 10.5zM64 -71
c10.667 0 18.834 -3.5 24.501 -10.5s8.5 -15.167 8.5 -24.5s-2.83301 -17.5 -8.5 -24.5s-13.834 -10.5 -24.501 -10.5c-10 0 -18.167 3.5 -24.5 10.5s-9.5 15.167 -9.5 24.5s3.16699 17.5 9.5 24.5s14.5 10.5 24.5 10.5z" />
    <glyph glyph-name="uni05B6" unicode="&#x5b6;" 
d="M171 -71c10.667 0 18.834 -3.5 24.501 -10.5s8.5 -15.167 8.5 -24.5s-2.83301 -17.5 -8.5 -24.5s-13.834 -10.5 -24.501 -10.5c-10 0 -18.167 3.5 -24.5 10.5s-9.5 15.167 -9.5 24.5s3.16699 17.5 9.5 24.5s14.5 10.5 24.5 10.5zM117 -164c10 0 18 -3.5 24 -10.5
s9 -14.833 9 -23.5c0 -9.33301 -3 -17.666 -9 -24.999s-14 -11 -24 -11s-18.167 3.66699 -24.5 11s-9.5 15.666 -9.5 24.999c0 8.66699 3.16699 16.5 9.5 23.5s14.5 10.5 24.5 10.5zM64 -71c10.667 0 18.834 -3.5 24.501 -10.5s8.5 -15.167 8.5 -24.5
s-2.83301 -17.5 -8.5 -24.5s-13.834 -10.5 -24.501 -10.5c-10 0 -18.167 3.5 -24.5 10.5s-9.5 15.167 -9.5 24.5s3.16699 17.5 9.5 24.5s14.5 10.5 24.5 10.5z" />
    <glyph glyph-name="uni05B7" unicode="&#x5b7;" 
d="M196 -69v-39h-166v39h166z" />
    <glyph glyph-name="uni05B8" unicode="&#x5b8;" 
d="M196 -69v-39h-67l6 -100h-44l5 100h-66v39h166z" />
    <glyph glyph-name="uni05B9" unicode="&#x5b9;" 
d="M64 587c10.667 0 18.834 -3.66699 24.501 -11s8.5 -15.333 8.5 -24c0 -9.33301 -2.83301 -17.666 -8.5 -24.999s-13.834 -11 -24.501 -11c-10 0 -18.167 3.66699 -24.5 11s-9.5 15.666 -9.5 24.999c0 8.66699 3.16699 16.667 9.5 24s14.5 11 24.5 11z" />
    <glyph glyph-name="uni05BA" unicode="&#x5ba;" 
d="M64 516c-10 0 -18.167 3.66699 -24.5 11s-9.5 15.666 -9.5 24.999c0 8.66699 3.16699 16.667 9.5 24s14.5 11 24.5 11c10.667 0 18.834 -3.66699 24.501 -11s8.5 -15.333 8.5 -24c0 -9.33301 -2.83301 -17.666 -8.5 -24.999s-13.834 -11 -24.501 -11z" />
    <glyph glyph-name="uni05BB" unicode="&#x5bb;" 
d="M204 -207c10.667 0 18.834 -3.5 24.501 -10.5s8.5 -15.167 8.5 -24.5s-2.83301 -17.5 -8.5 -24.5s-13.834 -10.5 -24.501 -10.5c-10 0 -18.167 3.5 -24.5 10.5s-9.5 15.167 -9.5 24.5s3.16699 17.5 9.5 24.5s14.5 10.5 24.5 10.5zM64 -71
c10.667 0 18.834 -3.5 24.501 -10.5s8.5 -15.167 8.5 -24.5s-2.83301 -17.5 -8.5 -24.5s-13.834 -10.5 -24.501 -10.5c-10 0 -18.167 3.5 -24.5 10.5s-9.5 15.167 -9.5 24.5s3.16699 17.5 9.5 24.5s14.5 10.5 24.5 10.5zM134 -139c10.667 0 18.834 -3.5 24.501 -10.5
s8.5 -15.167 8.5 -24.5s-2.83301 -17.5 -8.5 -24.5s-13.834 -10.5 -24.501 -10.5c-10 0 -18.167 3.5 -24.5 10.5s-9.5 15.167 -9.5 24.5s3.16699 17.5 9.5 24.5s14.5 10.5 24.5 10.5z" />
    <glyph glyph-name="uni05BC" unicode="&#x5bc;" 
d="M64 325c10.667 0 18.834 -3.66699 24.501 -11s8.5 -15.333 8.5 -24c0 -10 -2.83301 -18.5 -8.5 -25.5s-13.834 -10.5 -24.501 -10.5c-10 0 -18.167 3.5 -24.5 10.5s-9.5 15.5 -9.5 25.5c0 8.66699 3.16699 16.667 9.5 24s14.5 11 24.5 11z" />
    <glyph glyph-name="uni05BE" unicode="&#x5be;" horiz-adv-x="329" 
d="M45 463v108h239v-108h-239z" />
    <glyph glyph-name="uni05BF" unicode="&#x5bf;" 
d="M221 576v-53h-189v53h189z" />
    <glyph glyph-name="uni05C0" unicode="&#x5c0;" horiz-adv-x="182" 
d="M56 -100v745h70v-745h-70z" />
    <glyph glyph-name="uni05C1" unicode="&#x5c1;" 
d="M64 591c10.667 0 18.834 -3.66699 24.501 -11s8.5 -15.333 8.5 -24c0 -9.33301 -2.83301 -17.666 -8.5 -24.999s-13.834 -11 -24.501 -11c-10 0 -18.167 3.66699 -24.5 11s-9.5 15.666 -9.5 24.999c0 8.66699 3.16699 16.667 9.5 24s14.5 11 24.5 11z" />
    <glyph glyph-name="uni05C2" unicode="&#x5c2;" 
d="M64 591c10.667 0 18.834 -3.66699 24.501 -11s8.5 -15.333 8.5 -24c0 -9.33301 -2.83301 -17.666 -8.5 -24.999s-13.834 -11 -24.501 -11c-10 0 -18.167 3.66699 -24.5 11s-9.5 15.666 -9.5 24.999c0 8.66699 3.16699 16.667 9.5 24s14.5 11 24.5 11z" />
    <glyph glyph-name="uni05C3" unicode="&#x5c3;" horiz-adv-x="218" 
d="M110 17l-77 77l77 76l75 -76zM110 342l-77 77l77 75l75 -75z" />
    <glyph glyph-name="uni05C7" unicode="&#x5c7;" 
d="M132 -69v-39h-42l13 -100h-44l12 100h-41v39h102z" />
    <glyph glyph-name="uni05D0" unicode="&#x5d0;" horiz-adv-x="617" 
d="M589 0h-154l-188 291l-89 -291h-137l111 343l31 77l-93 151h145l80 -130l72 -109l27 91l40 148h137l-120 -364z" />
    <glyph glyph-name="uni05D1" unicode="&#x5d1;" horiz-adv-x="543" 
d="M302 0v389.999c0 26 -5.83301 44.667 -17.5 56s-28.5 17 -50.5 17h-196v108h236c33.333 0 63 -6.33301 89 -19s46.333 -32.667 61 -60s22 -63.666 22 -108.999v-383h-144zM38 -0.000976562v108h475v-108h-475z" />
    <glyph glyph-name="uni05D2" unicode="&#x5d2;" horiz-adv-x="424" 
d="M246 0l-39.001 227v171c0 24.667 -3.66699 42 -11 52s-19.666 16 -36.999 18l-63 9l18 106l118 -16c40.667 -4.66699 70.667 -19.667 90 -45s29 -61.333 29 -108v-190l32 -224h-137zM69.999 -18l-53 112.999c49.333 16 89.833 36 121.5 60s55.5 52.667 71.5 86l48 -75
c-12.667 -29.333 -27 -55.833 -43 -79.5s-35.667 -44.167 -59 -61.5s-52 -31.666 -86 -42.999z" />
    <glyph glyph-name="uni05D3" unicode="&#x5d3;" horiz-adv-x="542" 
d="M263 0v346.001c0 26 2.5 49 7.5 69s11.833 36 20.5 48h-256v108h469v-108h-78c-7.33301 -16.667 -12.333 -35.834 -15 -57.501s-4 -41.5 -4 -59.5v-346h-144z" />
    <glyph glyph-name="uni05D4" unicode="&#x5d4;" horiz-adv-x="573" 
d="M382 0v389.999c0 26 -5.83301 44.667 -17.5 56s-28.167 17 -49.5 17h-261v108h300c33.333 0 63 -6.33301 89 -19s46.5 -32.667 61.5 -60s22.5 -63.666 22.5 -108.999v-383h-145zM48 -0.000976562v273l20 67h125v-67v-273h-145z" />
    <glyph glyph-name="uni05D5" unicode="&#x5d5;" horiz-adv-x="259" 
d="M61 0v454l-12 117h144l12 -117v-454h-144z" />
    <glyph glyph-name="uni05D6" unicode="&#x5d6;" horiz-adv-x="375" 
d="M101 0v346.001c0 26 2.5 49 7.5 69s11.833 36 20.5 48h-90v108h297v-108h-75c-8 -16.667 -12.667 -35.834 -14 -57.501s-2 -41.5 -2 -59.5v-346h-144z" />
    <glyph glyph-name="uni05D7" unicode="&#x5d7;" horiz-adv-x="595" 
d="M399 0v384.998c0 52 -22.333 78 -67 78h-278v108h317c34 0 64 -6.66699 90 -20s46.333 -34.166 61 -62.499s22 -65.166 22 -110.499v-378h-145zM54 -0.00195312v506h144v-506h-144z" />
    <glyph glyph-name="uni05D8" unicode="&#x5d8;" horiz-adv-x="591" 
d="M107 -10l-67.002 581h145l49 -453c36 3.33301 66.333 10.5 91 21.5s44.334 25.333 59.001 43s25.167 38.5 31.5 62.5s9.16602 51 8.49902 81v31c0 18.667 -3.33301 36 -10 52s-17.334 29.5 -32.001 40.5s-33.334 17.167 -56.001 18.5l-49 3l11 111l61 -3
c39.333 -2 74.833 -10.667 106.5 -26s57.334 -37.833 77.001 -67.5s30.167 -67.5 31.5 -113.5l1 -28c2 -60.667 -7.16699 -112.834 -27.5 -156.501s-50.666 -79.5 -90.999 -107.5s-89.166 -49.167 -146.499 -63.5s-121.666 -23.166 -192.999 -26.499z" />
    <glyph glyph-name="uni05D9" unicode="&#x5d9;" horiz-adv-x="259" 
d="M61 210v88v156l-12 117h144l12 -117v-156l-1 -63z" />
    <glyph glyph-name="uni05DA" unicode="&#x5da;" horiz-adv-x="512" 
d="M314 -200v589.999c0 26 -5.83301 44.667 -17.5 56s-28.5 17 -50.5 17h-207v108h247c33.333 0 63 -6.33301 89 -19s46.333 -32.667 61 -60s22 -63.666 22 -108.999v-583h-144z" />
    <glyph glyph-name="uni05DB" unicode="&#x5db;" horiz-adv-x="485" 
d="M29 0v107.998h160c26.667 0 48.5 6 65.5 18s29.167 28.667 36.5 50s11 45.333 11 72v75c0 26.667 -3.66699 50.5 -11 71.5s-19.5 37.667 -36.5 50s-38.833 18.5 -65.5 18.5h-160v108h199c48.667 0 89.167 -10.667 121.5 -32s56.666 -51.166 72.999 -89.499
s24.5 -83.166 24.5 -134.499v-59c0 -52 -8.16699 -97.167 -24.5 -135.5s-40.666 -68 -72.999 -89s-72.833 -31.5 -121.5 -31.5h-199z" />
    <glyph glyph-name="uni05DC" unicode="&#x5dc;" horiz-adv-x="498" 
d="M142 0l179 463h-290v108h435v-119l-180 -452h-144zM31 463v254h130v-254h-130z" />
    <glyph glyph-name="uni05DD" unicode="&#x5dd;" horiz-adv-x="592" 
d="M397 0v389.999c0 26 -5.83301 44.667 -17.5 56s-28.167 17 -49.5 17h-186v108h225c33.333 0 63 -6.33301 89 -19s46.5 -32.667 61.5 -60s22.5 -63.666 22.5 -108.999v-290v-93h-145zM83 -0.000976562v108h407l-3 -108h-404zM53 -0.000976562v483v88h144v-96v-475h-144z
" />
    <glyph glyph-name="uni05DE" unicode="&#x5de;" horiz-adv-x="642" 
d="M265 -1l13 107.999c49.333 -10.667 87.666 -10.167 114.999 1.5s46.5 33.167 57.5 64.5s16.167 70.333 15.5 117c0 42 -4.33301 76 -13 102s-21.167 45 -37.5 57s-36.833 18 -61.5 18c-18 0 -34.333 -3.83301 -49 -11.5s-26.667 -18.334 -36 -32.001
s-15.333 -30.5 -18 -50.5l-33 62c13.333 50.667 35.166 87.5 65.499 110.5s63.833 34.5 100.5 34.5c35.333 0 66.5 -5.83301 93.5 -17.5s49.833 -29.5 68.5 -53.5s32.834 -54.333 42.501 -91s14.5 -79.334 14.5 -128.001
c0.666992 -73.333 -12.166 -134.666 -38.499 -183.999s-64.833 -83.666 -115.5 -102.999s-112 -20.666 -184 -3.99902zM46 -0.000976562l69 385l-80 186h150l67 -193l-62 -378h-144z" />
    <glyph glyph-name="uni05DF" unicode="&#x5df;" horiz-adv-x="259" 
d="M61 -200v654l-12 117h144l12 -117v-654h-144z" />
    <glyph glyph-name="uni05E0" unicode="&#x5e0;" horiz-adv-x="381" 
d="M39 0l0.000976562 108h146v289c0 26 -4.83301 43.667 -14.5 53s-23.167 15 -40.5 17l-70 10l18 106l125 -16c41.333 -5.33301 72.666 -22.833 93.999 -52.5s32 -67.5 32 -113.5v-401h-290z" />
    <glyph glyph-name="uni05E1" unicode="&#x5e1;" horiz-adv-x="605" 
d="M109 -10l-55 472.999l137 64l44 -409c28.667 2.66699 53.5 7.16699 74.5 13.5s38.5 15.333 52.5 27s25 25.667 33 42s13.5 35.5 16.5 57.5s3.83301 47 2.5 75v30c0 20.667 -3.16699 38.334 -9.5 53.001s-15.333 26.167 -27 34.5s-25.5 12.5 -41.5 12.5h-282l-14 108h307
c66 0 116.833 -18.667 152.5 -56s54.5 -88 56.5 -152l1 -33c2 -62 -7.16699 -114.167 -27.5 -156.5s-50.333 -76.5 -90 -102.5s-87.5 -45.5 -143.5 -58.5s-118.333 -20.5 -187 -22.5z" />
    <glyph glyph-name="uni05E2" unicode="&#x5e2;" horiz-adv-x="576" 
d="M28 -38l-20 112l232 44c32.667 6 58.834 16.167 78.501 30.5s34.667 33.333 45 57s17.333 52.667 21 87s5.66699 74.5 6 120.5s0.5 98.667 0.5 158h143c0 -65.333 -1.16699 -124.833 -3.5 -178.5s-8 -102 -17 -145s-23.833 -80.667 -44.5 -113
s-49.334 -59.5 -86.001 -81.5s-83.667 -38.667 -141 -50zM170 90l-118 481h144l112 -481h-138z" />
    <glyph glyph-name="uni05E3" unicode="&#x5e3;" horiz-adv-x="564" 
d="M301 571c46.667 0 85.499 -10.667 116.499 -32s54.167 -51 69.5 -89s23 -82.667 23 -134v-516h-144v523c0 26.667 -3.33301 50.5 -10 71.5s-17.667 37.667 -33 50s-35.666 18.5 -60.999 18.5h-76l-12 -67c-2 -16 -2.5 -31.333 -1.5 -46s5.16699 -27 12.5 -37
s19 -15.667 35 -17l-26 -87c-36.667 0.666992 -66.167 6.5 -88.5 17.5s-38.833 25.333 -49.5 43s-16.667 38 -18 61s0.666992 47.167 6 72.5l37 168h220z" />
    <glyph glyph-name="uni05E4" unicode="&#x5e4;" horiz-adv-x="557" 
d="M53 0l0.00390625 108.001h202c19.333 0 36.666 3.16699 51.999 9.5s28.166 15.666 38.499 27.999s18.333 27.166 24 44.499s8.5 37 8.5 59v74c0 26.667 -4 50.5 -12 71.5s-20.333 37.667 -37 50s-37.667 18.5 -63 18.5h-72l-18 -85
c-4.66699 -24.667 -2.66699 -43.334 6 -56.001s27 -22 55 -28l-23 -90c-48.667 1.33301 -85.834 10.333 -111.501 27s-42.334 38.834 -50.001 66.501s-8.83398 58.834 -3.50098 93.501l40 180h211c46.667 0 86.5 -10.667 119.5 -32s58.333 -51 76 -89
s26.5 -82.667 26.5 -134v-60c0 -40 -5.5 -76 -16.5 -108s-26.833 -59 -47.5 -81s-45.167 -38.667 -73.5 -50s-60.166 -17 -95.499 -17h-236z" />
    <glyph glyph-name="uni05E5" unicode="&#x5e5;" horiz-adv-x="533" 
d="M274 -200l-241 771h137l242 -771h-138zM284 46l-85 107l176 418h137z" />
    <glyph glyph-name="uni05E6" unicode="&#x5e6;" horiz-adv-x="559" 
d="M363 0l-322 571h145l322 -571h-145zM30 0v108h400l41 -108h-441zM372 224l-82 123l91 224h142z" />
    <glyph glyph-name="uni05E7" unicode="&#x5e7;" horiz-adv-x="590" 
d="M256 -1l-11 107.997c21.333 2 40.333 6.5 57 13.5s31 17.333 43 31s21.333 31.834 28 54.501s11 50.334 13 83.001l13 174h-348v108h503l-5 -93l-11 -151c-2 -45.333 -8.5 -87.666 -19.5 -126.999s-27.167 -74 -48.5 -104s-49.5 -53.5 -84.5 -70.5
s-78.167 -25.833 -129.5 -26.5zM43 -200.003v479l20 69h125v-68v-480h-145z" />
    <glyph glyph-name="uni05E8" unicode="&#x5e8;" horiz-adv-x="488" 
d="M290 0v389.999c0 26 -5.83301 44.667 -17.5 56s-28.167 17 -49.5 17h-195v108h234c33.333 0 63 -6.33301 89 -19s46.5 -32.667 61.5 -60s22.5 -63.666 22.5 -108.999v-383h-145z" />
    <glyph glyph-name="uni05E9" unicode="&#x5e9;" horiz-adv-x="678" 
d="M115 -10l-75 581.001h137l55 -462c50 3.33301 92 12.5 126 27.5s61.167 34.833 81.5 59.5s34.833 54 43.5 88s13 71.333 13 112l-2 175h145l1 -167c0.666992 -92 -17.333 -169.333 -54 -232s-93.667 -109.334 -171 -140.001s-177.333 -44.667 -300 -42zM198 218.001
l-34.0039 90.002c30.667 8 53.834 19.5 69.501 34.5s26.334 35.5 32.001 61.5s8.16699 59.333 7.5 100v66h137v-63c-0.666992 -47.333 -7.16699 -89.833 -19.5 -127.5s-33.666 -69.834 -63.999 -96.501s-73.166 -48.334 -128.499 -65.001z" />
    <glyph glyph-name="uni05EA" unicode="&#x5ea;" horiz-adv-x="635" 
d="M30 -17l-11.998 98c26 3.33301 45.333 8.5 58 15.5s21.167 17.5 25.5 31.5s6.16602 32 5.49902 54v389h303c33.333 0 62.833 -6.33301 88.5 -19s46 -32.667 61 -60s22.5 -63.666 22.5 -108.999v-383h-144v390c0 26 -6 44.667 -18 56s-28.667 17 -50 17h-118v-262
c0 -51.333 -7.83301 -92 -23.5 -122s-39.834 -52.333 -72.501 -67s-74.667 -24.334 -126 -29.001z" />
    <glyph glyph-name="uni05F3" unicode="&#x5f3;" horiz-adv-x="270" 
d="M123 491l-73 32l88 180l92 -42z" />
    <glyph glyph-name="uni05F4" unicode="&#x5f4;" horiz-adv-x="455" 
d="M297 491l-72 32l87 180l92 -42zM123 491l-73 32l88 180l92 -42z" />
    <glyph glyph-name="uni1E06" unicode="&#x1e06;" horiz-adv-x="603" 
d="M79 0v652.998h219c44.667 0 85 -5 121 -15s64.5 -26.667 85.5 -50s31.5 -55.666 31.5 -96.999c0 -29.333 -7.83301 -57.666 -23.5 -84.999s-37.167 -46 -64.5 -56v-4c34.667 -8 63.5 -24.667 86.5 -50s34.5 -60 34.5 -104s-11.333 -80.167 -34 -108.5
s-53 -49.333 -91 -63s-80.667 -20.5 -128 -20.5h-237zM216 105.998h88c42.667 0 75.167 7.83301 97.5 23.5s33.5 39.5 33.5 71.5c0 30 -11 51.833 -33 65.5s-54.667 20.5 -98 20.5h-88v-181zM216 388.998h73.999c38.667 0 67 7.33301 85 22s27 34.667 27 60
c0 27.333 -9.16699 46.833 -27.5 58.5s-46.166 17.5 -83.499 17.5h-75v-158zM167.999 -186.002v88h291v-88h-291z" />
    <glyph glyph-name="uni1E07" unicode="&#x1e07;" horiz-adv-x="570" 
d="M321 -12c-22.667 0 -45.167 5.50098 -67.5 16.501s-43.5 27.167 -63.5 48.5h-4l-11 -53h-107v703h136v-175l-3 -78c19.333 17.333 40.5 31.166 63.5 41.499s46.5 15.5 70.5 15.5c40.667 0 75.5 -10.5 104.5 -31.5s51.333 -50.167 67 -87.5s23.5 -81.333 23.5 -132
c0 -56.667 -10 -105 -30 -145s-45.833 -70.5 -77.5 -91.5s-65.5 -31.5 -101.5 -31.5zM290 100.001c18.667 0 35.501 5.5 50.501 16.5s27 27.833 36 50.5s13.5 51.667 13.5 87c0 30.667 -3.33301 56.334 -10 77.001s-16.834 36.5 -30.501 47.5s-31.167 16.5 -52.5 16.5
c-16 0 -31.5 -3.83301 -46.5 -11.5s-30.5 -19.834 -46.5 -36.501v-212c14.667 -12.667 29.5 -21.667 44.5 -27s28.833 -8 41.5 -8zM142.001 -185.999v88h291v-88h-291z" />
    <glyph glyph-name="uni1E0C" unicode="&#x1e0c;" horiz-adv-x="632" 
d="M79 0l-0.00195312 653h181c66.667 0 124.334 -11.667 173.001 -35s86.167 -58.833 112.5 -106.5s39.5 -108.5 39.5 -182.5s-13.167 -135.333 -39.5 -184s-63.166 -85 -110.499 -109s-103 -36 -167 -36h-189zM215.998 111l36 -0.00195312c38.667 0 72.5 7.33301 101.5 22
s51.333 37.834 67 69.501s23.5 73.834 23.5 126.501s-7.83301 94.5 -23.5 125.5s-38 53.333 -67 67s-62.833 20.5 -101.5 20.5h-36v-431zM311.998 -222.002c-22 0 -40.333 6.83301 -55 20.5s-22 31.167 -22 52.5s7.33301 38.833 22 52.5s33 20.5 55 20.5
c22.667 0 41.167 -6.83301 55.5 -20.5s21.5 -31.167 21.5 -52.5s-7.16699 -38.833 -21.5 -52.5s-32.833 -20.5 -55.5 -20.5z" />
    <glyph glyph-name="uni1E0D" unicode="&#x1e0d;" horiz-adv-x="570" 
d="M243 -12c-61.333 0 -110.331 23 -146.998 69s-55 109.333 -55 190c0 54 9.83301 100.333 29.5 139s45.167 68.5 76.5 89.5s64.666 31.5 99.999 31.5c28 0 51.333 -4.66699 70 -14s36.667 -22.333 54 -39l-5 77v172h137v-703h-112l-10 51h-3
c-18 -18 -38.833 -33 -62.5 -45s-47.834 -18 -72.501 -18zM278.002 100c17.333 0 33 3.66797 47 11.001s27.667 19.666 41 36.999v212c-14 13.333 -28.5 22.5 -43.5 27.5s-29.833 7.5 -44.5 7.5c-17.333 0 -33.333 -5.5 -48 -16.5s-26.5 -27.333 -35.5 -49
s-13.5 -48.5 -13.5 -80.5c0 -50 8.5 -87.333 25.5 -112s40.833 -37 71.5 -37zM298.002 -221.999c-22 0 -40.333 6.83301 -55 20.5s-22 31.167 -22 52.5s7.33301 38.833 22 52.5s33 20.5 55 20.5c22.667 0 41.167 -6.83301 55.5 -20.5s21.5 -31.167 21.5 -52.5
s-7.16699 -38.833 -21.5 -52.5s-32.833 -20.5 -55.5 -20.5z" />
    <glyph glyph-name="uni1E0E" unicode="&#x1e0e;" horiz-adv-x="632" 
d="M79 0l-0.00195312 653h181c66.667 0 124.334 -11.667 173.001 -35s86.167 -58.833 112.5 -106.5s39.5 -108.5 39.5 -182.5s-13.167 -135.333 -39.5 -184s-63.166 -85 -110.499 -109s-103 -36 -167 -36h-189zM215.998 111l36 -0.00195312c38.667 0 72.5 7.33301 101.5 22
s51.333 37.834 67 69.501s23.5 73.834 23.5 126.501s-7.83301 94.5 -23.5 125.5s-38 53.333 -67 67s-62.833 20.5 -101.5 20.5h-36v-431zM166.998 -186.002v88h291v-88h-291z" />
    <glyph glyph-name="uni1E0F" unicode="&#x1e0f;" horiz-adv-x="570" 
d="M243 -12c-61.333 0 -110.331 23 -146.998 69s-55 109.333 -55 190c0 54 9.83301 100.333 29.5 139s45.167 68.5 76.5 89.5s64.666 31.5 99.999 31.5c28 0 51.333 -4.66699 70 -14s36.667 -22.333 54 -39l-5 77v172h137v-703h-112l-10 51h-3
c-18 -18 -38.833 -33 -62.5 -45s-47.834 -18 -72.501 -18zM278.002 100c17.333 0 33 3.66797 47 11.001s27.667 19.666 41 36.999v212c-14 13.333 -28.5 22.5 -43.5 27.5s-29.833 7.5 -44.5 7.5c-17.333 0 -33.333 -5.5 -48 -16.5s-26.5 -27.333 -35.5 -49
s-13.5 -48.5 -13.5 -80.5c0 -50 8.5 -87.333 25.5 -112s40.833 -37 71.5 -37zM153.002 -185.999v88h291v-88h-291z" />
    <glyph glyph-name="uni1E20" unicode="&#x1e20;" horiz-adv-x="635" 
d="M363 -12c-60 0 -113.831 12.668 -161.498 38.001s-85.334 63 -113.001 113s-41.5 111.333 -41.5 184c0 54 8.16699 102.167 24.5 144.5s39 78.166 68 107.499s62.5 51.666 100.5 66.999s78.667 23 122 23c47.333 0 87.666 -8.5 120.999 -25.5s60.666 -36.5 81.999 -58.5
l-72 -88c-16.667 15.333 -34.667 28 -54 38s-43.333 15 -72 15c-35.333 0 -66.5 -8.83301 -93.5 -26.5s-48 -42.667 -63 -75s-22.5 -71.166 -22.5 -116.499c0 -46.667 7 -86.5 21 -119.5s35 -58.167 63 -75.5s63 -26 105 -26c14.667 0 29 1.83301 43 5.5
s25.333 9.16699 34 16.5v122h-113v112h235v-296c-22 -22 -51.667 -40.667 -89 -56s-78.666 -23 -123.999 -23zM217.002 724.001v88h297v-88h-297z" />
    <glyph glyph-name="uni1E21" unicode="&#x1e21;" horiz-adv-x="530" 
d="M243 -213c-38.667 0 -73.6709 4.5 -105.004 13.5s-56.166 22.833 -74.499 41.5s-27.5 42.667 -27.5 72c0 20.667 6.16699 39.5 18.5 56.5s29.833 31.833 52.5 44.5v4c-12.667 8.66699 -23.334 19.834 -32.001 33.501s-13 30.5 -13 50.5c0 18 5.33301 35.167 16 51.5
s23.667 29.833 39 40.5v4c-17.333 12.667 -32.666 30.167 -45.999 52.5s-20 47.833 -20 76.5c0 39.333 9.33301 72.166 28 98.499s43.334 46.333 74.001 60s63.667 20.5 99 20.5c14 0 27.5 -1.16699 40.5 -3.5s24.833 -5.16602 35.5 -8.49902h179v-100h-83
c6 -8 11 -18.333 15 -31s6 -26 6 -40c0 -38 -8.66699 -69.333 -26 -94s-40.5 -43 -69.5 -55s-61.5 -18 -97.5 -18c-9.33301 0 -19.166 0.833008 -29.499 2.5s-21.166 4.16699 -32.499 7.5c-6.66699 -5.33301 -11.667 -10.833 -15 -16.5s-5 -13.5 -5 -23.5
c0 -12.667 5.83301 -22.334 17.5 -29.001s31.167 -10 58.5 -10h83c60 0 106 -9.83301 138 -29.5s48 -51.167 48 -94.5c0 -34 -11.167 -64.333 -33.5 -91s-53.833 -47.667 -94.5 -63s-88.667 -23 -144 -23zM263.996 -126c23.333 0 44.001 2.83301 62.001 8.5
s32.167 13.667 42.5 24s15.5 21.833 15.5 34.5c0 16.667 -6.83301 27.834 -20.5 33.501s-33.167 8.5 -58.5 8.5h-57c-15.333 0 -28.333 0.5 -39 1.5s-20.334 2.5 -29.001 4.5c-10.667 -8.66699 -18.5 -17.334 -23.5 -26.001s-7.5 -18 -7.5 -28
c0 -20 10.5 -35.167 31.5 -45.5s48.833 -15.5 83.5 -15.5zM251.997 240c14 0 26.5 3.33105 37.5 9.99805s19.833 16.667 26.5 30s10 29.333 10 48s-3.33301 34.334 -10 47.001s-15.5 22.334 -26.5 29.001s-23.5 10 -37.5 10c-20.667 0 -38 -7.16699 -52 -21.5
s-21 -35.833 -21 -64.5c0 -18.667 3.16699 -34.667 9.5 -48s15 -23.333 26 -30s23.5 -10 37.5 -10zM126.997 592.998v88h291v-88h-291z" />
    <glyph glyph-name="uni1E24" unicode="&#x1e24;" horiz-adv-x="670" 
d="M79 0v653h137v-255h238v255h137v-653h-137v278h-238v-278h-137zM334 -222c-22 0 -40.333 6.83301 -55 20.5s-22 31.167 -22 52.5s7.33301 38.833 22 52.5s33 20.5 55 20.5c22.667 0 41.167 -6.83301 55.5 -20.5s21.5 -31.167 21.5 -52.5s-7.16699 -38.833 -21.5 -52.5
s-32.833 -20.5 -55.5 -20.5z" />
    <glyph glyph-name="uni1E25" unicode="&#x1e25;" horiz-adv-x="567" 
d="M68 0v703.001h136v-175l-6 -92c19.333 18 41.5 34.333 66.5 49s54.5 22 88.5 22c53.333 0 92.166 -17.667 116.499 -53s36.5 -84 36.5 -146v-308h-137v291c0 37.333 -5.16699 63.166 -15.5 77.499s-27.166 21.5 -50.499 21.5c-20 0 -37 -4.5 -51 -13.5
s-30 -21.833 -48 -38.5v-338h-136zM295 -221.999c-22 0 -40.333 6.83301 -55 20.5s-22 31.167 -22 52.5s7.33301 38.833 22 52.5s33 20.5 55 20.5c22.667 0 41.167 -6.83301 55.5 -20.5s21.5 -31.167 21.5 -52.5s-7.16699 -38.833 -21.5 -52.5s-32.833 -20.5 -55.5 -20.5z
" />
    <glyph glyph-name="uni1E2A" unicode="&#x1e2a;" horiz-adv-x="670" 
d="M79 0v653h137v-255h238v255h137v-653h-137v278h-238v-278h-137zM334 -232c-37.333 0 -68.168 7 -92.501 21s-42.5 32.833 -54.5 56.5s-18.667 49.834 -20 78.501l79 13c2 -14.667 6.5 -28.334 13.5 -41.001s16.667 -22.834 29 -30.501s27.5 -11.5 45.5 -11.5
c18.667 0 34.167 3.83301 46.5 11.5s21.833 17.834 28.5 30.501s11.334 26.334 14.001 41.001l78 -13c-1.33301 -28.667 -8 -54.834 -20 -78.501s-30 -42.5 -54 -56.5s-55 -21 -93 -21z" />
    <glyph glyph-name="uni1E2B" unicode="&#x1e2b;" horiz-adv-x="567" 
d="M68 0v703.001h136v-175l-6 -92c19.333 18 41.5 34.333 66.5 49s54.5 22 88.5 22c53.333 0 92.166 -17.667 116.499 -53s36.5 -84 36.5 -146v-308h-137v291c0 37.333 -5.16699 63.166 -15.5 77.499s-27.166 21.5 -50.499 21.5c-20 0 -37 -4.5 -51 -13.5
s-30 -21.833 -48 -38.5v-338h-136zM295 -231.999c-37.333 0 -68.168 7 -92.501 21s-42.5 32.833 -54.5 56.5s-18.667 49.834 -20 78.501l79 13c2 -14.667 6.5 -28.334 13.5 -41.001s16.667 -22.834 29 -30.501s27.5 -11.5 45.5 -11.5c18.667 0 34.167 3.83301 46.5 11.5
s21.833 17.834 28.5 30.501s11.334 26.334 14.001 41.001l78 -13c-1.33301 -28.667 -8 -54.834 -20 -78.501s-30 -42.5 -54 -56.5s-55 -21 -93 -21z" />
    <glyph glyph-name="uni1E32" unicode="&#x1e32;" horiz-adv-x="609" 
d="M79 0v653h137v-277h4l207 277h151l-199 -259l234 -394h-150l-165 286l-82 -106v-180h-137zM332 -222c-22 0 -40.333 6.83301 -55 20.5s-22 31.167 -22 52.5s7.33301 38.833 22 52.5s33 20.5 55 20.5c22.667 0 41.167 -6.83301 55.5 -20.5s21.5 -31.167 21.5 -52.5
s-7.16699 -38.833 -21.5 -52.5s-32.833 -20.5 -55.5 -20.5z" />
    <glyph glyph-name="uni1E33" unicode="&#x1e33;" horiz-adv-x="539" 
d="M68 0v703h133v-415h4l165 207h149l-172 -203l186 -292h-148l-116 200l-68 -77v-123h-133zM291 -222c-22 0 -40.333 6.83301 -55 20.5s-22 31.167 -22 52.5s7.33301 38.833 22 52.5s33 20.5 55 20.5c22.667 0 41.167 -6.83301 55.5 -20.5s21.5 -31.167 21.5 -52.5
s-7.16699 -38.833 -21.5 -52.5s-32.833 -20.5 -55.5 -20.5z" />
    <glyph glyph-name="uni1E34" unicode="&#x1e34;" horiz-adv-x="609" 
d="M79 0v653h137v-277h4l207 277h151l-199 -259l234 -394h-150l-165 286l-82 -106v-180h-137zM187 -186v88h291v-88h-291z" />
    <glyph glyph-name="uni1E35" unicode="&#x1e35;" horiz-adv-x="539" 
d="M68 0v703h133v-415h4l165 207h149l-172 -203l186 -292h-148l-116 200l-68 -77v-123h-133zM146 -186v88h291v-88h-291z" />
    <glyph glyph-name="uni1E62" unicode="&#x1e62;" horiz-adv-x="552" 
d="M276 -12c-42.667 0 -85.1699 8.16699 -127.503 24.5s-79.833 39.833 -112.5 70.5l79 94c23.333 -21.333 49.5 -38.333 78.5 -51s57.5 -19 85.5 -19c32.667 0 57.334 6.16699 74.001 18.5s25 29.5 25 51.5c0 15.333 -4.16699 27.5 -12.5 36.5s-19.666 17 -33.999 24
s-31.166 14.5 -50.499 22.5l-86 37c-22 9.33301 -43.167 21.666 -63.5 36.999s-36.833 34.5 -49.5 57.5s-19 50.5 -19 82.5c0 35.333 9.83301 67.333 29.5 96s46.667 51.667 81 69s73.5 26 117.5 26c38 0 75.167 -7.33301 111.5 -22s68.166 -35.667 95.499 -63l-69 -87
c-21.333 17.333 -43 30.5 -65 39.5s-46.333 13.5 -73 13.5s-48.167 -5.66699 -64.5 -17s-24.5 -27 -24.5 -47c0 -14.667 4.33301 -26.667 13 -36s20.834 -17.5 36.501 -24.5l51.5 -22.5l84 -34c26.667 -10.667 49.667 -24 69 -40s34.5 -35.167 45.5 -57.5
s16.5 -48.833 16.5 -79.5c0 -36 -9.5 -69.167 -28.5 -99.5s-46.667 -54.666 -83 -72.999s-79.833 -27.5 -130.5 -27.5zM278.997 -222c-22 0 -40.333 6.83301 -55 20.5s-22 31.167 -22 52.5s7.33301 38.833 22 52.5s33 20.5 55 20.5c22.667 0 41.167 -6.83301 55.5 -20.5
s21.5 -31.167 21.5 -52.5s-7.16699 -38.833 -21.5 -52.5s-32.833 -20.5 -55.5 -20.5z" />
    <glyph glyph-name="uni1E63" unicode="&#x1e63;" horiz-adv-x="439" 
d="M211 -12c-32.667 0 -66.1631 6.5 -100.496 19.5s-63.833 29.5 -88.5 49.5l62 86c22.667 -16.667 44.667 -29.667 66 -39s43 -14 65 -14c23.333 0 40.5 4.33301 51.5 13s16.5 20.334 16.5 35.001c0 11.333 -5 21.166 -15 29.499s-22.833 15.666 -38.5 21.999l-48.5 19.5
c-20.667 8 -41.334 18 -62.001 30s-37.834 27.333 -51.501 46s-20.5 41.667 -20.5 69c0 45.333 17 82.166 51 110.499s79 42.5 135 42.5c37.333 0 70 -6.33301 98 -19s52.333 -27 73 -43l-61 -82c-18 12.667 -35.667 22.834 -53 30.501s-35 11.5 -53 11.5
c-20.667 0 -36.167 -4 -46.5 -12s-15.5 -18.667 -15.5 -32c0 -11.333 4.66699 -20.666 14 -27.999s21.666 -14 36.999 -20s31.666 -12 48.999 -18c21.333 -8 42.333 -17.833 63 -29.5s38 -27 52 -46s21 -43.5 21 -73.5c0 -29.333 -7.66699 -56 -23 -80
s-37.833 -43 -67.5 -57s-66.167 -21 -109.5 -21zM227.004 -222c-22 0 -40.333 6.83301 -55 20.5s-22 31.167 -22 52.5s7.33301 38.833 22 52.5s33 20.5 55 20.5c22.667 0 41.167 -6.83301 55.5 -20.5s21.5 -31.167 21.5 -52.5s-7.16699 -38.833 -21.5 -52.5
s-32.833 -20.5 -55.5 -20.5z" />
    <glyph glyph-name="uni1E6C" unicode="&#x1e6c;" horiz-adv-x="553" 
d="M208 0v538h-182v115h502v-115h-183v-538h-137zM277 -222c-22 0 -40.333 6.83301 -55 20.5s-22 31.167 -22 52.5s7.33301 38.833 22 52.5s33 20.5 55 20.5c22.667 0 41.167 -6.83301 55.5 -20.5s21.5 -31.167 21.5 -52.5s-7.16699 -38.833 -21.5 -52.5
s-32.833 -20.5 -55.5 -20.5z" />
    <glyph glyph-name="uni1E6D" unicode="&#x1e6d;" horiz-adv-x="376" 
d="M253 -12c-60 0 -102.67 17.333 -128.003 52s-38 80 -38 136v211h-69v102l76 6l16 132h113v-132h121v-108h-121v-210c0 -28 5.83301 -48.5 17.5 -61.5s27.834 -19.5 48.501 -19.5c8.66699 0 17.334 1 26.001 3s16.334 4.33301 23.001 7l22 -100c-13.333 -4 -29 -8 -47 -12
s-38 -6 -60 -6zM220.997 -222c-22 0 -40.333 6.83301 -55 20.5s-22 31.167 -22 52.5s7.33301 38.833 22 52.5s33 20.5 55 20.5c22.667 0 41.167 -6.83301 55.5 -20.5s21.5 -31.167 21.5 -52.5s-7.16699 -38.833 -21.5 -52.5s-32.833 -20.5 -55.5 -20.5z" />
    <glyph glyph-name="uni1E6E" unicode="&#x1e6e;" horiz-adv-x="553" 
d="M208 0v538h-182v115h502v-115h-183v-538h-137zM132 -186v88h291v-88h-291z" />
    <glyph glyph-name="uni1E6F" unicode="&#x1e6f;" horiz-adv-x="376" 
d="M253 -12c-60 0 -102.67 17.333 -128.003 52s-38 80 -38 136v211h-69v102l76 6l16 132h113v-132h121v-108h-121v-210c0 -28 5.83301 -48.5 17.5 -61.5s27.834 -19.5 48.501 -19.5c8.66699 0 17.334 1 26.001 3s16.334 4.33301 23.001 7l22 -100c-13.333 -4 -29 -8 -47 -12
s-38 -6 -60 -6zM75.9971 -186v88h291v-88h-291z" />
    <glyph glyph-name="uni1E7E" unicode="&#x1e7e;" horiz-adv-x="550" 
d="M193 0l-199.001 653.001h145l83 -312c10.667 -36.667 19.834 -71.834 27.501 -105.501s16.5 -68.834 26.5 -105.501h4c10.667 36.667 20 71.834 28 105.501l26 105.5l82 312h140l-199 -653h-164zM272.999 -221.999c-22 0 -40.333 6.83301 -55 20.5s-22 31.167 -22 52.5
s7.33301 38.833 22 52.5s33 20.5 55 20.5c22.667 0 41.167 -6.83301 55.5 -20.5s21.5 -31.167 21.5 -52.5s-7.16699 -38.833 -21.5 -52.5s-32.833 -20.5 -55.5 -20.5z" />
    <glyph glyph-name="uni1E7F" unicode="&#x1e7f;" horiz-adv-x="514" 
d="M181 0l-169 495h138l69 -241l19 -75l20 -76h4l20 76l20 75l69 241h131l-164 -495h-157zM259 -222c-22 0 -40.333 6.83301 -55 20.5s-22 31.167 -22 52.5s7.33301 38.833 22 52.5s33 20.5 55 20.5c22.667 0 41.167 -6.83301 55.5 -20.5s21.5 -31.167 21.5 -52.5
s-7.16699 -38.833 -21.5 -52.5s-32.833 -20.5 -55.5 -20.5z" />
    <glyph glyph-name="uni1E92" unicode="&#x1e92;" horiz-adv-x="541" 
d="M37 0v83l298 455h-270v115h439v-83l-298 -455h300v-115h-469zM282 -222c-22 0 -40.333 6.83301 -55 20.5s-22 31.167 -22 52.5s7.33301 38.833 22 52.5s33 20.5 55 20.5c22.667 0 41.167 -6.83301 55.5 -20.5s21.5 -31.167 21.5 -52.5s-7.16699 -38.833 -21.5 -52.5
s-32.833 -20.5 -55.5 -20.5z" />
    <glyph glyph-name="uni1E93" unicode="&#x1e93;" horiz-adv-x="455" 
d="M37 0v73l216 314h-192v108h362v-73l-216 -314h223v-108h-393zM241 -222c-22 0 -40.333 6.83301 -55 20.5s-22 31.167 -22 52.5s7.33301 38.833 22 52.5s33 20.5 55 20.5c22.667 0 41.167 -6.83301 55.5 -20.5s21.5 -31.167 21.5 -52.5s-7.16699 -38.833 -21.5 -52.5
s-32.833 -20.5 -55.5 -20.5z" />
    <glyph glyph-name="uni1E94" unicode="&#x1e94;" horiz-adv-x="541" 
d="M37 0v83l298 455h-270v115h439v-83l-298 -455h300v-115h-469zM137 -186v88h291v-88h-291z" />
    <glyph glyph-name="uni1E95" unicode="&#x1e95;" horiz-adv-x="455" 
d="M37 0v73l216 314h-192v108h362v-73l-216 -314h223v-108h-393zM96 -186v88h291v-88h-291z" />
    <glyph glyph-name="uni1E96" unicode="&#x1e96;" horiz-adv-x="567" 
d="M68 0v703.001h136v-175l-6 -92c19.333 18 41.5 34.333 66.5 49s54.5 22 88.5 22c53.333 0 92.166 -17.667 116.499 -53s36.5 -84 36.5 -146v-308h-137v291c0 37.333 -5.16699 63.166 -15.5 77.499s-27.166 21.5 -50.499 21.5c-20 0 -37 -4.5 -51 -13.5
s-30 -21.833 -48 -38.5v-338h-136zM150 -185.999v88h291v-88h-291z" />
    <glyph glyph-name="uni1EA0" unicode="&#x1ea0;" horiz-adv-x="568" 
d="M-5 0l208 653h163l207 -653h-145l-90 336c-9.33301 33.333 -18.5 68.333 -27.5 105l-27.5 107h-4l-25.5 -107c-9 -36.667 -18.167 -71.667 -27.5 -105l-91 -336h-140zM127 163v106h312v-106h-312zM281 -222c-22 0 -40.333 6.83301 -55 20.5s-22 31.167 -22 52.5
s7.33301 38.833 22 52.5s33 20.5 55 20.5c22.667 0 41.167 -6.83301 55.5 -20.5s21.5 -31.167 21.5 -52.5s-7.16699 -38.833 -21.5 -52.5s-32.833 -20.5 -55.5 -20.5z" />
    <glyph glyph-name="uni1EA1" unicode="&#x1ea1;" horiz-adv-x="524" 
d="M191 -12c-30 0 -56.0029 6.49902 -78.0029 19.499s-39 30.667 -51 53s-18 47.5 -18 75.5c0 52 22.333 92.667 67 122s116.334 49.333 215.001 60c-0.666992 15.333 -3.66699 29 -9 41s-14 21.5 -26 28.5s-27.667 10.5 -47 10.5c-22 0 -43.833 -4.33301 -65.5 -13
s-44.167 -19.667 -67.5 -33l-49 90c20 12 41.167 23 63.5 33s45.5 17.833 69.5 23.5s49 8.5 75 8.5c42 0 77.333 -8.33301 106 -25s50.334 -41.167 65.001 -73.5s22 -73.166 22 -122.499v-286h-112l-10 52h-3c-21.333 -18.667 -44.166 -34 -68.499 -46s-50.5 -18 -78.5 -18z
M235.997 93.999c18 0 33.832 4.16602 47.499 12.499s27.834 19.5 42.501 33.5v95c-38 -5.33301 -68 -12.166 -90 -20.499s-37.667 -18.333 -47 -30s-14 -24.167 -14 -37.5c0 -18 5.66699 -31.333 17 -40s26 -13 44 -13zM255.996 -222.002c-22 0 -40.333 6.83301 -55 20.5
s-22 31.167 -22 52.5s7.33301 38.833 22 52.5s33 20.5 55 20.5c22.667 0 41.167 -6.83301 55.5 -20.5s21.5 -31.167 21.5 -52.5s-7.16699 -38.833 -21.5 -52.5s-32.833 -20.5 -55.5 -20.5z" />
    <glyph glyph-name="uni1EB8" unicode="&#x1eb8;" horiz-adv-x="545" 
d="M79 0v653h404v-115h-267v-143h227v-115h-227v-165h277v-115h-414zM290 -222c-22 0 -40.333 6.83301 -55 20.5s-22 31.167 -22 52.5s7.33301 38.833 22 52.5s33 20.5 55 20.5c22.667 0 41.167 -6.83301 55.5 -20.5s21.5 -31.167 21.5 -52.5s-7.16699 -38.833 -21.5 -52.5
s-32.833 -20.5 -55.5 -20.5z" />
    <glyph glyph-name="uni1EB9" unicode="&#x1eb9;" horiz-adv-x="514" 
d="M286 -12c-46.667 0 -88.8311 10.333 -126.498 31s-67.334 50.167 -89.001 88.5s-32.5 84.833 -32.5 139.5c0 53.333 11 99.333 33 138s50.667 68.667 86 90s72.666 32 111.999 32c46 0 84.5 -10.333 115.5 -31s54.333 -48.834 70 -84.501s23.5 -76.167 23.5 -121.5
c0 -12 -0.666992 -23.833 -2 -35.5s-2.66602 -20.5 -3.99902 -26.5h-327l-1 91h217c0 31.333 -7.16699 56.333 -21.5 75s-36.833 28 -67.5 28c-18 0 -35.333 -5 -52 -15s-30.334 -26.333 -41.001 -49s-16 -53 -16 -91s6.83301 -68.167 20.5 -90.5s31.167 -38.5 52.5 -48.5
s44 -15 68 -15c20 0 38.833 2.83301 56.5 8.5s35.5 13.834 53.5 24.501l45 -83c-24.667 -16.667 -52.167 -30 -82.5 -40s-60.5 -15 -90.5 -15zM265.003 -222c-22 0 -40.333 6.83301 -55 20.5s-22 31.167 -22 52.5s7.33301 38.833 22 52.5s33 20.5 55 20.5
c22.667 0 41.167 -6.83301 55.5 -20.5s21.5 -31.167 21.5 -52.5s-7.16699 -38.833 -21.5 -52.5s-32.833 -20.5 -55.5 -20.5z" />
    <glyph glyph-name="uni1ECC" unicode="&#x1ecc;" horiz-adv-x="681" 
d="M341 -12c-58 0 -109.167 13.667 -153.5 41s-78.833 66.5 -103.5 117.5s-37 111.833 -37 182.5s12.333 131 37 181s59.167 88.333 103.5 115s95.5 40 153.5 40s109 -13.333 153 -40s78.333 -65 103 -115s37 -110.333 37 -181s-12.333 -131.5 -37 -182.5
s-59 -90.167 -103 -117.5s-95 -41 -153 -41zM341 107c30.667 0 57.5 9 80.5 27s40.833 43.667 53.5 77s19 72.666 19 117.999s-6.33301 84.166 -19 116.499s-30.5 57.166 -53.5 74.499s-49.833 26 -80.5 26c-31.333 0 -58.5 -8.66699 -81.5 -26s-40.667 -42.166 -53 -74.499
s-18.5 -71.166 -18.5 -116.499s6.16699 -84.666 18.5 -117.999s30 -59 53 -77s50.167 -27 81.5 -27zM341 -222c-22 0 -40.333 6.83301 -55 20.5s-22 31.167 -22 52.5s7.33301 38.833 22 52.5s33 20.5 55 20.5c22.667 0 41.167 -6.83301 55.5 -20.5s21.5 -31.167 21.5 -52.5
s-7.16699 -38.833 -21.5 -52.5s-32.833 -20.5 -55.5 -20.5z" />
    <glyph glyph-name="uni1ECD" unicode="&#x1ecd;" horiz-adv-x="553" 
d="M277 -12c-42 0 -81.167 10.167 -117.5 30.5s-65.666 49.833 -87.999 88.5s-33.5 85.334 -33.5 140.001s11.167 101.334 33.5 140.001s51.666 68.334 87.999 89.001s75.5 31 117.5 31c41.333 0 80.166 -10.333 116.499 -31s65.833 -50.334 88.5 -89.001
s34 -85.334 34 -140.001s-11.333 -101.334 -34 -140.001s-52.167 -68.167 -88.5 -88.5s-75.166 -30.5 -116.499 -30.5zM277 99c21.333 0 39.333 6 54 18s25.834 29.167 33.501 51.5s11.5 48.5 11.5 78.5s-3.83301 56.167 -11.5 78.5s-18.834 39.666 -33.501 51.999
s-32.667 18.5 -54 18.5c-22 0 -40.333 -6.16699 -55 -18.5s-25.667 -29.666 -33 -51.999s-11 -48.5 -11 -78.5s3.66699 -56.167 11 -78.5s18.333 -39.5 33 -51.5s33 -18 55 -18zM277 -222c-22 0 -40.333 6.83301 -55 20.5s-22 31.167 -22 52.5s7.33301 38.833 22 52.5
s33 20.5 55 20.5c22.667 0 41.167 -6.83301 55.5 -20.5s21.5 -31.167 21.5 -52.5s-7.16699 -38.833 -21.5 -52.5s-32.833 -20.5 -55.5 -20.5z" />
    <glyph glyph-name="uni200E" unicode="&#x200e;" 
d="M39 767l-25 25l63 66h-191v36h191l-63 63l25 27l105 -109z" />
    <glyph glyph-name="uni200F" unicode="&#x200f;" 
d="M-39 768l-105 107l105 109l25 -26l-63 -64h193v-36h-192l62 -66z" />
    <glyph glyph-name="uni2010" unicode="&#x2010;" horiz-adv-x="329" 
d="M43 204v98h243v-98h-243z" />
    <glyph glyph-name="endash" unicode="&#x2013;" horiz-adv-x="480" 
d="M43 209v88h394v-88h-394z" />
    <glyph glyph-name="emdash" unicode="&#x2014;" horiz-adv-x="800" 
d="M43 209v88h714v-88h-714z" />
    <glyph glyph-name="quoteleft" unicode="&#x2018;" horiz-adv-x="292" 
d="M144 353c-28.667 0 -50.667 10.8311 -66 32.498s-23 52.167 -23 91.5c0 46 11.333 86.5 34 121.5s57 63.833 103 86.5l31 -60c-29.333 -14.667 -51.333 -32.167 -66 -52.5s-22 -45.166 -22 -74.499l5 -83l-47 64c7.33301 6 15.333 11 24 15s17.667 6 27 6
c20 0 37.167 -6.16699 51.5 -18.5s21.5 -29.166 21.5 -50.499c0 -24 -6.83301 -43 -20.5 -57s-31.167 -21 -52.5 -21z" />
    <glyph glyph-name="quoteright" unicode="&#x2019;" horiz-adv-x="292" 
d="M101 365l-31 60c29.333 15.333 51.333 33 66 53s22 44.667 22 74l-6 83l48 -64c-7.33301 -6 -15.333 -11 -24 -15s-18 -6 -28 -6c-20 0 -37.167 6.33301 -51.5 19s-21.5 29.667 -21.5 51c0 23.333 7 42 21 56s31.333 21 52 21c29.333 0 51.5 -10.833 66.5 -32.5
s22.5 -52.167 22.5 -91.5c0 -46 -11.167 -86.333 -33.5 -121s-56.5 -63.667 -102.5 -87z" />
    <glyph glyph-name="quotesinglbase" unicode="&#x201a;" horiz-adv-x="292" 
d="M101 -165l-31 60c29.333 15.333 51.333 33 66 53s22 44.667 22 74l-6 83l48 -64c-7.33301 -6 -15.333 -11 -24 -15s-18 -6 -28 -6c-20 0 -37.167 6.33301 -51.5 19s-21.5 29.667 -21.5 51c0 23.333 7 42 21 56s31.333 21 52 21c29.333 0 51.5 -10.833 66.5 -32.5
s22.5 -52.167 22.5 -91.5c0 -46 -11.167 -86.333 -33.5 -121s-56.5 -63.667 -102.5 -87z" />
    <glyph glyph-name="quotedblleft" unicode="&#x201c;" horiz-adv-x="519" 
d="M144 353c-28.667 0 -50.667 10.8311 -66 32.498s-23 52.167 -23 91.5c0 46 11.333 86.5 34 121.5s57 63.833 103 86.5l31 -60c-29.333 -14.667 -51.333 -32.167 -66 -52.5s-22 -45.166 -22 -74.499l5 -83l-47 64c7.33301 6 15.333 11 24 15s17.667 6 27 6
c20 0 37.167 -6.16699 51.5 -18.5s21.5 -29.166 21.5 -50.499c0 -24 -6.83301 -43 -20.5 -57s-31.167 -21 -52.5 -21zM371 352.998c-28.667 0 -50.667 10.8311 -66 32.498s-23 52.167 -23 91.5c0 46 11.333 86.5 34 121.5s57 63.833 103 86.5l31 -60
c-29.333 -14.667 -51.333 -32.167 -66 -52.5s-22 -45.166 -22 -74.499l5 -83l-47 64c7.33301 6 15.333 11 24 15s17.667 6 27 6c20 0 37.167 -6.16699 51.5 -18.5s21.5 -29.166 21.5 -50.499c0 -24 -6.83301 -43 -20.5 -57s-31.167 -21 -52.5 -21z" />
    <glyph glyph-name="quotedblright" unicode="&#x201d;" horiz-adv-x="519" 
d="M101 365l-31 60c29.333 15.333 51.333 33 66 53s22 44.667 22 74l-6 83l48 -64c-7.33301 -6 -15.333 -11 -24 -15s-18 -6 -28 -6c-20 0 -37.167 6.33301 -51.5 19s-21.5 29.667 -21.5 51c0 23.333 7 42 21 56s31.333 21 52 21c29.333 0 51.5 -10.833 66.5 -32.5
s22.5 -52.167 22.5 -91.5c0 -46 -11.167 -86.333 -33.5 -121s-56.5 -63.667 -102.5 -87zM328 365l-31 60c29.333 15.333 51.333 33 66 53s22 44.667 22 74l-6 83l48 -64c-7.33301 -6 -15.333 -11 -24 -15s-18 -6 -28 -6c-20 0 -37.167 6.33301 -51.5 19
s-21.5 29.667 -21.5 51c0 23.333 7 42 21 56s31.333 21 52 21c29.333 0 51.5 -10.833 66.5 -32.5s22.5 -52.167 22.5 -91.5c0 -46 -11.167 -86.333 -33.5 -121s-56.5 -63.667 -102.5 -87z" />
    <glyph glyph-name="quotedblbase" unicode="&#x201e;" horiz-adv-x="519" 
d="M101 -165l-31 60c29.333 15.333 51.333 33 66 53s22 44.667 22 74l-6 83l48 -64c-7.33301 -6 -15.333 -11 -24 -15s-18 -6 -28 -6c-20 0 -37.167 6.33301 -51.5 19s-21.5 29.667 -21.5 51c0 23.333 7 42 21 56s31.333 21 52 21c29.333 0 51.5 -10.833 66.5 -32.5
s22.5 -52.167 22.5 -91.5c0 -46 -11.167 -86.333 -33.5 -121s-56.5 -63.667 -102.5 -87zM328 -165l-31 60c29.333 15.333 51.333 33 66 53s22 44.667 22 74l-6 83l48 -64c-7.33301 -6 -15.333 -11 -24 -15s-18 -6 -28 -6c-20 0 -37.167 6.33301 -51.5 19
s-21.5 29.667 -21.5 51c0 23.333 7 42 21 56s31.333 21 52 21c29.333 0 51.5 -10.833 66.5 -32.5s22.5 -52.167 22.5 -91.5c0 -46 -11.167 -86.333 -33.5 -121s-56.5 -63.667 -102.5 -87z" />
    <glyph glyph-name="dagger" unicode="&#x2020;" horiz-adv-x="501" 
d="M196 -80l8 527l-158 -8v110l158 -8l-8 171h110l-8 -171l158 8v-110l-158 8l8 -527h-110z" />
    <glyph glyph-name="daggerdbl" unicode="&#x2021;" horiz-adv-x="501" 
d="M196 -80l8 171l-158 -8v110l158 -11l-8 134l8 134l-158 -11v110l158 -8l-8 171h110l-8 -171l158 8v-110l-158 11l8 -134l-8 -134l158 11v-110l-158 8l8 -171h-110z" />
    <glyph glyph-name="bullet" unicode="&#x2022;" horiz-adv-x="338" 
d="M169 127c-24 0 -45.667 5.83301 -65 17.5s-34.833 27.834 -46.5 48.501s-17.5 44 -17.5 70s5.83301 49.167 17.5 69.5s27.167 36.5 46.5 48.5s41 18 65 18s45.667 -6 65 -18s34.833 -28.167 46.5 -48.5s17.5 -43.5 17.5 -69.5s-5.83301 -49.333 -17.5 -70
s-27.167 -36.834 -46.5 -48.501s-41 -17.5 -65 -17.5z" />
    <glyph glyph-name="ellipsis" unicode="&#x2026;" horiz-adv-x="996" 
d="M166 -12c-23.333 0 -43.166 8.5 -59.499 25.5s-24.5 37.833 -24.5 62.5c0 25.333 8.16699 46.333 24.5 63s36.166 25 59.499 25c24.667 0 44.834 -8.33301 60.501 -25s23.5 -37.667 23.5 -63c0 -24.667 -7.83301 -45.5 -23.5 -62.5s-35.834 -25.5 -60.501 -25.5zM500 -12
c-23.333 0 -43.166 8.5 -59.499 25.5s-24.5 37.833 -24.5 62.5c0 25.333 8.16699 46.333 24.5 63s36.166 25 59.499 25c24.667 0 44.834 -8.33301 60.501 -25s23.5 -37.667 23.5 -63c0 -24.667 -7.83301 -45.5 -23.5 -62.5s-35.834 -25.5 -60.501 -25.5zM834 -12
c-23.333 0 -43.166 8.5 -59.499 25.5s-24.5 37.833 -24.5 62.5c0 25.333 8.16699 46.333 24.5 63s36.166 25 59.499 25c24.667 0 44.834 -8.33301 60.501 -25s23.5 -37.667 23.5 -63c0 -24.667 -7.83301 -45.5 -23.5 -62.5s-35.834 -25.5 -60.501 -25.5z" />
    <glyph glyph-name="uni202D" unicode="&#x202d;" 
d="M-31 767l-26 25l63 66h-162v36h160l-61 63l26 27l104 -109zM66 767l-25 25l82 83l-82 82l25 27l105 -109z" />
    <glyph glyph-name="uni202E" unicode="&#x202e;" 
d="M31 805l-102 109l102 107l28 -26l-63 -66h161v-34h-161l63 -64zM-66 805l-105 109l105 107l25 -26l-80 -81l80 -83z" />
    <glyph glyph-name="perthousand" unicode="&#x2030;" horiz-adv-x="1233" 
d="M206 -12l354 677h80l-354 -677h-80zM203 261c-31.333 0 -59.167 8.33301 -83.5 25s-43.333 40.5 -57 71.5s-20.5 68.167 -20.5 111.5c0 65.333 15.167 116 45.5 152s68.833 54 115.5 54s85 -18 115 -54s45 -86.667 45 -152c0 -43.333 -6.83301 -80.5 -20.5 -111.5
s-32.667 -54.833 -57 -71.5s-51.833 -25 -82.5 -25zM202.999 338c18 0 33.167 10 45.5 30s18.5 53.667 18.5 101s-6.16699 80.666 -18.5 99.999s-27.5 29 -45.5 29s-33.333 -9.66699 -46 -29s-19 -52.666 -19 -99.999s6.33301 -81 19 -101s28 -30 46 -30zM655.999 -12
c-31.333 0 -59 8.33301 -83 25s-42.833 40.5 -56.5 71.5s-20.5 68.167 -20.5 111.5c0 65.333 15 116 45 152s68.333 54 115 54s85.167 -18 115.5 -54s45.5 -86.667 45.5 -152c0 -43.333 -7 -80.5 -21 -111.5s-33 -54.833 -57 -71.5s-51.667 -25 -83 -25zM655.999 65
c18.667 0 34.167 10 46.5 30s18.5 53.667 18.5 101s-6.16699 80.666 -18.5 99.999s-27.833 29 -46.5 29c-17.333 0 -32.333 -9.66699 -45 -29s-19 -52.666 -19 -99.999s6.33301 -81 19 -101s27.667 -30 45 -30zM1030 -12c-31.333 0 -59 8.33301 -83 25
s-42.833 40.5 -56.5 71.5s-20.5 68.167 -20.5 111.5c0 65.333 15 116 45 152s68.333 54 115 54s85.167 -18 115.5 -54s45.5 -86.667 45.5 -152c0 -43.333 -7 -80.5 -21 -111.5s-33 -54.833 -57 -71.5s-51.667 -25 -83 -25zM1030 65c18.667 0 34.167 10 46.5 30
s18.5 53.667 18.5 101s-6.16699 80.666 -18.5 99.999s-27.833 29 -46.5 29c-17.333 0 -32.333 -9.66699 -45 -29s-19 -52.666 -19 -99.999s6.33301 -81 19 -101s27.667 -30 45 -30z" />
    <glyph glyph-name="guilsinglleft" unicode="&#x2039;" horiz-adv-x="289" 
d="M183 58l-135 146v97l135 146l52 -42l-112 -153l112 -153z" />
    <glyph glyph-name="guilsinglright" unicode="&#x203a;" horiz-adv-x="289" 
d="M106 58l-52 41l112 153l-112 153l52 42l135 -146v-97z" />
    <glyph glyph-name="fraction" unicode="&#x2044;" horiz-adv-x="95" 
d="M-170 -12l354 677h80l-354 -677h-80z" />
    <glyph glyph-name="foursuperior" unicode="&#x2074;" horiz-adv-x="373" 
d="M213 403v202l6 115h-4l-42 -78l-45 -83h233v-67h-327v51l145 250h124v-390h-90z" />
    <glyph glyph-name="newsheqel" unicode="&#x20aa;" horiz-adv-x="838" 
d="M60 0l0.000976562 570.998h330c34 0 63.667 -6.66699 89 -20s44.833 -34.166 58.5 -62.499s20.5 -65.166 20.5 -110.499v-145h-107v152c0 26 -4.83301 45.5 -14.5 58.5s-25.834 19.5 -48.501 19.5h-183v-463h-145zM273.001 -0.00195312l-0.000976562 364h107v-245
c59.333 0 107 6.66699 143 20s63 32.5 81 57.5s30 54.5 36 88.5s9 71.333 9 112l-2 174h145l1 -174c0.666992 -98 -16.333 -176.5 -51 -235.5s-90.167 -101.333 -166.5 -127s-177.166 -37.167 -302.499 -34.5z" />
    <glyph glyph-name="Euro" unicode="&#x20ac;" horiz-adv-x="523" 
d="M334 -12c-49.333 0 -93.498 12.4971 -132.498 37.4971s-69.667 61.833 -92 110.5s-33.5 108.334 -33.5 179.001c0 69.333 11.5 128.833 34.5 178.5s54.667 87.834 95 114.501s87.166 40 140.499 40c30 0 59 -7 87 -21s52.333 -33 73 -57l-76 -74
c-12.667 13.333 -26.167 24.333 -40.5 33s-30.5 13 -48.5 13c-27.333 0 -50.5 -8.83301 -69.5 -26.5s-33.5 -43.167 -43.5 -76.5s-15 -73.333 -15 -120c0 -47.333 5.16699 -87.666 15.5 -120.999s25 -59 44 -77s42.167 -27 69.5 -27c20.667 0 38.667 5 54 15
s29.666 24 42.999 42l76 -70c-24 -30 -51 -53 -81 -69s-63.333 -24 -100 -24zM21.002 218.997v64l73 6h308v-70h-381zM21.002 341.997v64l74 6h347v-70h-421z" />
    <glyph glyph-name="uni210A" unicode="&#x210a;" horiz-adv-x="579" 
d="M261 -198c-27.333 0 -57.667 4.66504 -91 13.998s-64.333 23 -93 41l46 91c23.333 -14 47 -24 71 -30s46.333 -9 67 -9c38 0 65.333 8.33301 82 25s26 38 28 64l3 66c-16.667 -15.333 -35.834 -27.833 -57.501 -37.5s-44.5 -14.5 -68.5 -14.5
c-41.333 0 -77.166 10.333 -107.499 31s-53.833 49.334 -70.5 86.001s-25 79 -25 127c0 50.667 10.167 94.667 30.5 132s46.5 66.5 78.5 87.5s65.667 31.5 101 31.5c25.333 0 48.333 -4.5 69 -13.5s40.334 -23.833 59.001 -44.5h4l10 46h110v-495
c0 -63.333 -21.333 -112.166 -64 -146.499s-103.334 -51.5 -182.001 -51.5zM282.999 121.998c16.667 0 31.833 3.83301 45.5 11.5s27.834 20.5 42.501 38.5v188c-14.667 13.333 -29.334 22.5 -44.001 27.5s-29.334 7.5 -44.001 7.5c-18 0 -34.5 -5.5 -49.5 -16.5
s-27 -26.667 -36 -47s-13.5 -44.833 -13.5 -73.5c0 -42.667 8.83301 -76 26.5 -100s41.834 -36 72.501 -36z" />
    <glyph glyph-name="trademark" unicode="&#x2122;" horiz-adv-x="675" 
d="M315 363v313h103l40 -101l23 -69h4l23 69l40 101h103v-313h-83v102l10 114h-4l-59 -170h-64l-59 170h-4l10 -114v-102h-83zM93 363v231h-89v82h268v-82h-89v-231h-90z" />
    <glyph glyph-name="estimated" unicode="&#x212e;" horiz-adv-x="800" 
d="M401 -11c-48.667 0 -94.498 8.66504 -137.498 25.998s-80.833 41.333 -113.5 72s-58.167 66.334 -76.5 107.001s-27.5 84.334 -27.5 131.001s9.16699 90.334 27.5 131.001s43.666 76.334 75.999 107.001s70.166 54.667 113.499 72s89.333 26 138 26
c49.333 0 95.333 -8.66699 138 -26s80.167 -41.333 112.5 -72s57.666 -66.334 75.999 -107.001s27.5 -84.334 27.5 -131.001v-4.5v-4.5h-575c-2.66699 0 -4 -1.33301 -4 -4v-183c0 -4 0.833008 -7.66699 2.5 -11s3.5 -6.66602 5.5 -9.99902
c27.333 -30.667 59.833 -54.834 97.5 -72.501s77.834 -26.5 120.501 -26.5c45.333 0 87.833 10 127.5 30s73.167 47 100.5 81h52c-32.667 -39.333 -73.5 -71 -122.5 -95s-101.833 -36 -158.5 -36zM180.002 334.998l441.001 -0.00195312c3.33301 0 5 1.66699 5 5v184
c0 4.66699 -0.833008 8.83398 -2.5 12.501s-3.83398 6.83398 -6.50098 9.50098c-28 29.333 -60.5 52.5 -97.5 69.5s-76.167 25.5 -117.5 25.5c-42.667 0 -82.667 -8.83301 -120 -26.5s-69.666 -41.5 -96.999 -71.5c-2.66699 -2.66699 -4.83398 -6 -6.50098 -10
s-2.5 -8.33301 -2.5 -13v-180c0 -3.33301 1.33301 -5 4 -5z" />
    <glyph glyph-name="partialdiff" unicode="&#x2202;" horiz-adv-x="569" 
d="M241 -12c-34.667 0 -66.834 7.99805 -96.501 23.998s-53.334 38.667 -71.001 68s-26.5 64 -26.5 104c0 46 9 86 27 120s43.167 60.667 75.5 80s69.833 29 112.5 29c26.667 0 52.334 -6.5 77.001 -19.5s45.667 -31.5 63 -55.5l-16 -97c-15.333 24.667 -32.333 42 -51 52
s-37.667 15 -57 15c-21.333 0 -39.833 -4.16699 -55.5 -12.5s-27.834 -21 -36.501 -38s-13 -38.833 -13 -65.5c0 -20 3.83301 -37 11.5 -51s17.834 -24.5 30.501 -31.5s26.334 -10.5 41.001 -10.5c18.667 0 36.167 4.83301 52.5 14.5s30.833 25.167 43.5 46.5
s22.667 49.5 30 84.5s11 77.5 11 127.5c0 40.667 -4 74.334 -12 101.001s-20.333 46.834 -37 60.501s-38.334 20.5 -65.001 20.5c-20 0 -38.5 -3.83301 -55.5 -11.5s-33.5 -19.167 -49.5 -34.5l-59 84c26.667 22.667 54.5 40.5 83.5 53.5s60.5 19.5 94.5 19.5
c50.667 0 93 -11.5 127 -34.5s59.667 -56 77 -99s26 -94.833 26 -155.5c0 -78 -12 -146.167 -36 -204.5s-57.167 -103.5 -99.5 -135.5s-91.166 -48 -146.499 -48z" />
    <glyph glyph-name="product" unicode="&#x220f;" horiz-adv-x="704" 
d="M81 -120v756h542v-756h-137v636h-268v-636h-137z" />
    <glyph glyph-name="summation" unicode="&#x2211;" horiz-adv-x="530" 
d="M26 -120v82l211 295l-201 297v82h461v-115h-294v-4l174 -259l-182 -259v-4h326v-115h-495z" />
    <glyph glyph-name="minus" unicode="&#x2212;" horiz-adv-x="523" 
d="M34 282v97h455v-97h-455z" />
    <glyph glyph-name="uni2215" unicode="&#x2215;" horiz-adv-x="95" 
d="M-170 -12l354 677h80l-354 -677h-80z" />
    <glyph glyph-name="uni2219" unicode="&#x2219;" horiz-adv-x="525" 
d="M261 241c-23.333 0 -43.166 8.5 -59.499 25.5s-24.5 37.833 -24.5 62.5c0 25.333 8.16699 46.333 24.5 63s36.166 25 59.499 25c24.667 0 44.834 -8.33301 60.501 -25s23.5 -37.667 23.5 -63c0 -24.667 -7.83301 -45.5 -23.5 -62.5s-35.834 -25.5 -60.501 -25.5z" />
    <glyph glyph-name="radical" unicode="&#x221a;" horiz-adv-x="583" 
d="M278 -82l-150.001 413l-74 -30l-24 65l167 69l102 -303l10.5 -39c3.66699 -13.333 6.83398 -26.666 9.50098 -39.999h4c2 13.333 4.16699 26.666 6.5 39.999s4.83301 26.333 7.5 39l161 688h92l-217 -902h-95z" />
    <glyph glyph-name="infinity" unicode="&#x221e;" horiz-adv-x="809" 
d="M578 119c-28 0 -53.5029 4.16504 -76.5029 12.498s-44.667 21.333 -65 39s-41.166 39.834 -62.499 66.501h-4c-12 -14.667 -26 -29.334 -42 -44.001s-34.167 -26.667 -54.5 -36s-43.5 -14 -69.5 -14c-30.667 0 -58.667 8.16699 -84 24.5s-45.333 37.833 -60 64.5
s-22 55.334 -22 86.001c0 42 7.83301 78 23.5 108s37.334 53 65.001 69s59.834 24 96.501 24c26 0 49.167 -4.5 69.5 -13.5s38.333 -20.667 54 -35s29.5 -29.833 41.5 -46.5h4c17.333 22 35.666 41.333 54.999 58s40.333 29.667 63 39s47.334 14 74.001 14
c35.333 0 67.166 -8.5 95.499 -25.5s50.666 -40.167 66.999 -69.5s24.5 -62.666 24.5 -99.999c0 -46.667 -8.66699 -86.5 -26 -119.5s-40.666 -58.167 -69.999 -75.5s-61.666 -26 -96.999 -26zM216.997 242.998c21.333 0 41 6.5 59 19.5s34 29.833 48 50.5
c-15.333 23.333 -32.5 42.333 -51.5 57s-39.167 22 -60.5 22c-24 0 -42.333 -6.5 -55 -19.5s-19 -29.833 -19 -50.5s7 -39 21 -55s33.333 -24 58 -24zM577.997 244.998c28.667 0 51.3311 9.16699 67.998 27.5s25 39.5 25 63.5c0 30 -9 54 -27 72s-42.333 27 -73 27
c-23.333 0 -46.166 -7.16699 -68.499 -21.5s-43.833 -35.833 -64.5 -64.5c21.333 -30 42.833 -54.833 64.5 -74.5s46.834 -29.5 75.501 -29.5z" />
    <glyph glyph-name="integral" unicode="&#x222b;" horiz-adv-x="381" 
d="M99 -158c-11.333 0 -21.998 0.830078 -31.998 2.49707s-17.667 3.5 -23 5.5l13 99c5.33301 -1.33301 11 -2.33301 17 -3s12.333 -1 19 -1c26 0 43.167 10.833 51.5 32.5s12.5 56.5 12.5 104.5c0 38.667 -2 76.834 -6 114.501s-8.5 75.667 -13.5 114
s-9.5 77.333 -13.5 117s-6 79.5 -6 119.5c0 46.667 4.5 88.334 13.5 125.001s26.5 65.667 52.5 87s64 32 114 32c12 0 23 -0.833008 33 -2.5s17.667 -3.16699 23 -4.5l-14 -100c-4.66699 1.33301 -9.83398 2.33301 -15.501 3s-12.167 1 -19.5 1c-26 0 -43.167 -11 -51.5 -33
s-12.5 -56.667 -12.5 -104c0 -38 2 -76 6 -114s8.5 -76.167 13.5 -114.5s9.33301 -77.166 13 -116.499s5.5 -79.333 5.5 -120c0 -46 -4.5 -87.5 -13.5 -124.5s-26.333 -66.167 -52 -87.5s-63.834 -32 -114.501 -32z" />
    <glyph glyph-name="approxequal" unicode="&#x2248;" horiz-adv-x="523" 
d="M347 358c-20 0 -37.834 4 -53.501 12s-30 17 -43 27s-25.5 18.833 -37.5 26.5s-25 11.5 -39 11.5c-13.333 0 -26.166 -4.83301 -38.499 -14.5s-23.5 -24.167 -33.5 -43.5l-72 54c24 36.667 48.333 62.667 73 78s49 23 73 23c20.667 0 38.834 -3.83301 54.501 -11.5
s29.834 -16.5 42.501 -26.5s25.167 -19 37.5 -27s25.166 -12 38.499 -12c14 0 27 5 39 15s23.333 24.333 34 43l71 -54c-23.333 -36.667 -47.333 -62.667 -72 -78s-49.334 -23 -74.001 -23zM346.999 128c-20 0 -37.834 4 -53.501 12s-30 17 -43 27s-25.5 18.833 -37.5 26.5
s-25 11.5 -39 11.5c-13.333 0 -26.166 -4.83301 -38.499 -14.5s-23.5 -24.167 -33.5 -43.5l-72 54c24 36.667 48.333 62.667 73 78s49 23 73 23c20.667 0 38.834 -3.83301 54.501 -11.5s29.834 -16.5 42.501 -26.5s25.167 -19 37.5 -27s25.166 -12 38.499 -12
c14 0 27 5 39 15s23.333 24.333 34 43l71 -54c-23.333 -36.667 -47.333 -62.667 -72 -78s-49.334 -23 -74.001 -23z" />
    <glyph glyph-name="notequal" unicode="&#x2260;" horiz-adv-x="523" 
d="M53 44l73 123h-92v97h146l76 133h-222v97h276l72 122h88l-72 -122h91v-97h-145l-76 -133h221v-97h-275l-73 -123h-88z" />
    <glyph glyph-name="lessequal" unicode="&#x2264;" horiz-adv-x="523" 
d="M489 154l-455 144v114l455 144v-113l-178 -51l-138 -35v-4l138 -36l178 -50v-113zM34 0v97h455v-97h-455z" />
    <glyph glyph-name="greaterequal" unicode="&#x2265;" horiz-adv-x="523" 
d="M34 154v113l179 50l138 36v4l-138 35l-179 51v113l455 -144v-114zM34 0v97h455v-97h-455z" />
    <glyph glyph-name="lozenge" unicode="&#x25ca;" horiz-adv-x="543" 
d="M216 -10l-163 340l163 340h112l163 -340l-163 -340h-112zM270 105h4l55 122l48 103l-48 103l-55 123h-4l-55 -123l-49 -103l49 -103z" />
    <glyph glyph-name="uni25cc" unicode="&#x25cc;" horiz-adv-x="600" 
d="M289 422c-10.667 0 -19.834 3.83301 -27.501 11.5s-11.5 18.5 -11.5 32.5c0 12.667 3.83301 22.667 11.5 30s16.834 11 27.501 11c12.667 0 22.834 -3.66699 30.501 -11s11.5 -17.333 11.5 -30c0 -14 -3.83301 -24.833 -11.5 -32.5s-17.834 -11.5 -30.501 -11.5zM184 14
c-11.333 0 -21 4 -29 12s-12 18.667 -12 32c0 12.667 4 22.5 12 29.5s17.667 10.5 29 10.5s21 -3.5 29 -10.5s12 -16.833 12 -29.5c0 -13.333 -3.83301 -24 -11.5 -32s-17.5 -12 -29.5 -12zM106 96c-10 0 -19.167 3.66699 -27.5 11s-12.5 17.666 -12.5 30.999
c0 14 4.16699 24.667 12.5 32s17.5 11 27.5 11c12 0 21.833 -3.66699 29.5 -11s11.5 -18 11.5 -32c0 -13.333 -3.83301 -23.666 -11.5 -30.999s-17.5 -11 -29.5 -11zM289 -13c-10.667 0 -19.834 3.83301 -27.501 11.5s-11.5 18.5 -11.5 32.5
c0 12.667 3.83301 22.5 11.5 29.5s16.834 10.5 27.501 10.5c12.667 0 22.834 -3.5 30.501 -10.5s11.5 -16.833 11.5 -29.5c0 -14 -3.83301 -24.833 -11.5 -32.5s-17.834 -11.5 -30.501 -11.5zM78 205c-10.667 0 -19.999 3.83301 -27.999 11.5s-12 18.167 -12 31.5
s4 23.5 12 30.5s17.333 10.5 28 10.5c12 0 22 -3.5 30 -10.5s12 -17.167 12 -30.5s-3.83301 -23.833 -11.5 -31.5s-17.834 -11.5 -30.501 -11.5zM394.001 14c-10 0 -19.168 4 -27.501 12s-12.5 18.667 -12.5 32c0 12.667 4.16699 22.5 12.5 29.5s17.5 10.5 27.5 10.5
c12 0 22 -3.5 30 -10.5s12 -16.833 12 -29.5c0 -13.333 -3.66699 -24 -11 -32s-17.666 -12 -30.999 -12zM106 314c-10 0 -19.167 3.83301 -27.5 11.5s-12.5 18.5 -12.5 32.5s4.16699 24.333 12.5 31s17.5 10 27.5 10c12 0 21.833 -3.33301 29.5 -10s11.5 -17 11.5 -31
s-3.83301 -24.833 -11.5 -32.5s-17.5 -11.5 -29.5 -11.5zM474 96c-11.333 0 -21.166 3.66699 -29.499 11s-12.5 17.666 -12.5 30.999c0 14 4.16699 24.667 12.5 32s18.166 11 29.499 11s21 -3.66699 29 -11s12 -18 12 -32c0 -13.333 -3.66699 -23.666 -11 -30.999
s-17.333 -11 -30 -11zM184 396c-11.333 0 -21 3.83301 -29 11.5s-12 17.834 -12 30.501c0 14 4 24.5 12 31.5s17.667 10.5 29 10.5s21 -3.5 29 -10.5s12 -17.5 12 -31.5c0 -12.667 -3.83301 -22.834 -11.5 -30.501s-17.5 -11.5 -29.5 -11.5zM501 205
c-12 0 -22 3.83301 -30 11.5s-12 18.167 -12 31.5s4 23.5 12 30.5s18 10.5 30 10.5c10.667 0 20.167 -3.5 28.5 -10.5s12.5 -17.167 12.5 -30.5s-3.83301 -23.833 -11.5 -31.5s-17.5 -11.5 -29.5 -11.5zM474 314c-11.333 0 -21.166 3.66699 -29.499 11s-12.5 18 -12.5 32
c0 13.333 4.16699 23.5 12.5 30.5s18.166 10.5 29.499 10.5s21 -3.5 29 -10.5s12 -17.167 12 -30.5c0 -14 -3.66699 -24.667 -11 -32s-17.333 -11 -30 -11zM394 395c-10 0 -19.168 3.83301 -27.501 11.5s-12.5 18.167 -12.5 31.5s4.16699 23.666 12.5 30.999
s17.5 11 27.5 11c12 0 22 -3.66699 30 -11s12 -17.666 12 -30.999s-3.66699 -23.833 -11 -31.5s-17.666 -11.5 -30.999 -11.5z" />
    </font>
</defs>
</svg>
