<svg width="126" height="176" viewBox="0 0 126 176" fill="none" xmlns="http://www.w3.org/2000/svg">
<g clip-path="url(#clip0)">
<mask id="path-1-outside-1" maskUnits="userSpaceOnUse" x="-14" y="-9" width="153" height="150" fill="black">
<rect fill="white" x="-14" y="-9" width="153" height="150"/>
<path d="M-7 134H132V-2H-7V134ZM105.626 30.3537C109.546 35.8653 114.251 44.7411 117.316 52.4C118.813 56.1221 120.951 63.3516 125.299 79.2421C125.513 80.0295 115.249 70.2232 102.489 57.4105C76.2574 31.2126 76.1149 30.9979 76.1149 21.6211C76.1149 15.8947 77.1841 12.6021 80.5344 7.73474L82.3877 4.94316L92.1533 15.0358C97.5708 20.5474 103.558 27.4189 105.626 30.3537ZM47.2456 99.2842C49.1703 103.651 49.5267 112.24 47.9585 116.105C46.6041 119.326 43.6103 123.979 42.8262 123.979C41.7569 123.979 24.3641 105.583 20.3723 100.286C16.1667 94.6316 10.3215 83.7516 7.54154 76.3074C5.97333 72.0126 0.128205 51.6842 0.128205 50.4674C0.128205 50.1095 10.3928 60.2021 22.8672 72.8C41.0441 91.0526 45.9626 96.4211 47.2456 99.2842Z"/>
</mask>
<path d="M-7 134H132V-2H-7V134ZM105.626 30.3537C109.546 35.8653 114.251 44.7411 117.316 52.4C118.813 56.1221 120.951 63.3516 125.299 79.2421C125.513 80.0295 115.249 70.2232 102.489 57.4105C76.2574 31.2126 76.1149 30.9979 76.1149 21.6211C76.1149 15.8947 77.1841 12.6021 80.5344 7.73474L82.3877 4.94316L92.1533 15.0358C97.5708 20.5474 103.558 27.4189 105.626 30.3537ZM47.2456 99.2842C49.1703 103.651 49.5267 112.24 47.9585 116.105C46.6041 119.326 43.6103 123.979 42.8262 123.979C41.7569 123.979 24.3641 105.583 20.3723 100.286C16.1667 94.6316 10.3215 83.7516 7.54154 76.3074C5.97333 72.0126 0.128205 51.6842 0.128205 50.4674C0.128205 50.1095 10.3928 60.2021 22.8672 72.8C41.0441 91.0526 45.9626 96.4211 47.2456 99.2842Z" stroke="#7D72F4" stroke-width="14" mask="url(#path-1-outside-1)"/>
<g clip-path="url(#clip1)">
<mask id="path-2-outside-2" maskUnits="userSpaceOnUse" x="-15.4131" y="-14.0138" width="152.154" height="156.14" fill="black">
<rect fill="white" x="-15.4131" y="-14.0138" width="152.154" height="156.14"/>
<path d="M-7.45886 -5.92933L-6.40745 134.723L129.686 133.691L128.635 -6.96094L-7.45886 -5.92933ZM97.1109 107.249C91.6252 111.258 82.7789 116.086 75.1378 119.245C71.4245 120.788 64.2062 123.007 48.3376 127.527C47.5513 127.75 57.2867 117.289 70.0117 104.28C96.0293 77.538 96.2431 77.3921 105.626 77.321C111.357 77.2775 114.66 78.3345 119.556 81.6876L122.363 83.5418L112.338 93.5001C106.863 99.0237 100.032 105.135 97.1109 107.249ZM27.6912 48.6977C23.3365 50.6783 14.7437 51.1041 10.8639 49.5466C7.63043 48.2006 2.95193 45.2064 2.946 44.413C2.93792 43.3311 21.2148 25.592 26.4851 21.5126C32.112 17.2141 42.9553 11.2169 50.3836 8.34742C54.6695 6.728 74.9677 0.659205 76.1854 0.649974C76.5435 0.64726 66.5216 11.1104 54.0093 23.8286C35.8816 42.36 30.5467 47.3777 27.6912 48.6977Z"/>
</mask>
<path d="M-7.45886 -5.92933L-6.40745 134.723L129.686 133.691L128.635 -6.96094L-7.45886 -5.92933ZM97.1109 107.249C91.6252 111.258 82.7789 116.086 75.1378 119.245C71.4245 120.788 64.2062 123.007 48.3376 127.527C47.5513 127.75 57.2867 117.289 70.0117 104.28C96.0293 77.538 96.2431 77.3921 105.626 77.321C111.357 77.2775 114.66 78.3345 119.556 81.6876L122.363 83.5418L112.338 93.5001C106.863 99.0237 100.032 105.135 97.1109 107.249ZM27.6912 48.6977C23.3365 50.6783 14.7437 51.1041 10.8639 49.5466C7.63043 48.2006 2.95193 45.2064 2.946 44.413C2.93792 43.3311 21.2148 25.592 26.4851 21.5126C32.112 17.2141 42.9553 11.2169 50.3836 8.34742C54.6695 6.728 74.9677 0.659205 76.1854 0.649974C76.5435 0.64726 66.5216 11.1104 54.0093 23.8286C35.8816 42.36 30.5467 47.3777 27.6912 48.6977Z" stroke="#5FCF8C" stroke-width="14" mask="url(#path-2-outside-2)"/>
</g>
</g>
<path d="M24.384 139.016C26.56 139.016 28.464 139.368 30.096 140.072C31.76 140.776 33.28 141.816 34.656 143.192L31.44 146.888C30.384 145.96 29.328 145.288 28.272 144.872C27.216 144.424 26.112 144.2 24.96 144.2C23.648 144.2 22.608 144.536 21.84 145.208C21.104 145.848 20.736 146.744 20.736 147.896C20.736 148.664 20.896 149.32 21.216 149.864C21.568 150.376 22.16 150.872 22.992 151.352C23.824 151.832 25.04 152.36 26.64 152.936C28.624 153.672 30.24 154.472 31.488 155.336C32.768 156.2 33.744 157.288 34.416 158.6C35.12 159.912 35.472 161.528 35.472 163.448C35.472 165.432 34.992 167.208 34.032 168.776C33.104 170.312 31.744 171.528 29.952 172.424C28.16 173.32 26.064 173.768 23.664 173.768C19.152 173.768 15.392 172.232 12.384 169.16L15.84 165.32C17.056 166.376 18.256 167.176 19.44 167.72C20.656 168.264 21.952 168.536 23.328 168.536C24.896 168.536 26.112 168.12 26.976 167.288C27.84 166.456 28.272 165.32 28.272 163.88C28.272 162.6 27.872 161.576 27.072 160.808C26.304 160.008 24.864 159.224 22.752 158.456C19.488 157.24 17.152 155.864 15.744 154.328C14.336 152.792 13.632 150.808 13.632 148.376C13.632 146.552 14.096 144.936 15.024 143.528C15.952 142.088 17.232 140.984 18.864 140.216C20.496 139.416 22.336 139.016 24.384 139.016ZM68.8174 147.56L64.0654 173H56.0014L52.9294 153.56L49.8574 173H41.9374L37.0414 147.56H43.5694L46.2574 168.008L49.8094 147.56H56.3854L59.6494 168.008L62.5294 147.56H68.8174ZM91.1134 136.712V173H84.4414V137.432L91.1134 136.712ZM105.273 147.56L98.0734 158.744L105.849 173H98.5054L91.3534 159.08L98.6014 147.56H105.273Z" fill="#444444"/>
<path d="M78.7384 147.56V173H72.0664V147.56H78.7384ZM75.4264 134.552C76.5784 134.552 77.5224 134.92 78.2584 135.656C79.0264 136.392 79.4104 137.32 79.4104 138.44C79.4104 139.56 79.0264 140.504 78.2584 141.272C77.5224 142.008 76.5784 142.376 75.4264 142.376C74.2744 142.376 73.3144 142.008 72.5464 141.272C71.8104 140.504 71.4424 139.56 71.4424 138.44C71.4424 137.32 71.8104 136.392 72.5464 135.656C73.3144 134.92 74.2744 134.552 75.4264 134.552Z" fill="#7D72F4"/>
<defs>
<clipPath id="clip0">
<rect width="126" height="128" fill="white"/>
</clipPath>
<clipPath id="clip1">
<rect width="127.614" height="126.362" fill="white" transform="matrix(0.00747502 0.999972 -0.999971 0.00757993 126.13 -0.0767822)"/>
</clipPath>
</defs>
</svg>
